<?xml version="1.0" encoding="utf-8"?>
<!-- Generated by IcoMoon.io -->
<!DOCTYPE svg PUBLIC "-//W3C//DTD SVG 1.1//EN" "http://www.w3.org/Graphics/SVG/1.1/DTD/svg11.dtd">
<svg version="1.1" xmlns="http://www.w3.org/2000/svg" xmlns:xlink="http://www.w3.org/1999/xlink" width="16" height="16" viewBox="0 0 16 16">
<g transform="translate(0 0)">
	<path d="M13.428 8c0-0.838 0.516-1.5 1.292-1.954-0.141-0.467-0.325-0.916-0.553-1.338-0.872 0.228-1.577-0.114-2.169-0.706-0.594-0.593-0.775-1.298-0.547-2.169-0.422-0.228-0.869-0.414-1.338-0.554-0.454 0.777-1.276 1.293-2.114 1.293-0.838 0-1.658-0.516-2.114-1.293-0.469 0.139-0.916 0.326-1.338 0.553 0.227 0.871 0.046 1.577-0.546 2.17-0.593 0.592-1.298 0.934-2.169 0.706-0.228 0.421-0.414 0.87-0.554 1.337 0.777 0.454 1.293 1.116 1.293 1.954 0 0.838-0.516 1.659-1.293 2.114 0.14 0.468 0.326 0.916 0.554 1.338 0.871-0.228 1.576-0.046 2.169 0.546 0.593 0.593 0.774 1.298 0.546 2.169 0.422 0.228 0.87 0.414 1.338 0.554 0.455-0.778 1.276-1.293 2.114-1.293 0.838 0 1.66 0.516 2.114 1.293 0.469-0.14 0.916-0.326 1.338-0.554-0.228-0.871-0.047-1.576 0.547-2.169 0.592-0.592 1.297-0.934 2.169-0.706 0.228-0.422 0.413-0.87 0.553-1.338-0.777-0.455-1.293-1.117-1.293-1.954zM8 10.922c-1.614 0-2.922-1.309-2.922-2.922s1.308-2.922 2.922-2.922c1.614 0 2.922 1.309 2.922 2.922s-1.308 2.922-2.922 2.922z" fill="#000000" />
</g>
</svg>
