<?xml version="1.0" encoding="utf-8"?>
<!-- Generated by IcoMoon.io -->
<!DOCTYPE svg PUBLIC "-//W3C//DTD SVG 1.1//EN" "http://www.w3.org/Graphics/SVG/1.1/DTD/svg11.dtd">
<svg version="1.1" xmlns="http://www.w3.org/2000/svg" xmlns:xlink="http://www.w3.org/1999/xlink" width="64" height="16" viewBox="0 0 64 16">
<g transform="translate(0 0)">
	<path d="M11.479 10.522l-2.206-2.522 2.206-2.522c0.375-0.375 0.375-0.983 0-1.358-0.375-0.374-0.983-0.374-1.358 0l-2.122 2.425-2.121-2.424c-0.375-0.375-0.983-0.375-1.358 0-0.374 0.375-0.374 0.983 0 1.358l2.206 2.521-2.206 2.522c-0.374 0.375-0.374 0.982 0 1.356 0.375 0.375 0.983 0.375 1.358 0l2.122-2.423 2.121 2.423c0.375 0.375 0.983 0.375 1.358 0s0.375-0.981 0.001-1.356z" fill="#ffffff" />
</g>
<g transform="translate(24 0)">
	<path d="M6.636 13.6c-0.348 0-0.678-0.162-0.889-0.442l-2.859-3.774c-0.372-0.491-0.275-1.19 0.216-1.562 0.492-0.373 1.19-0.275 1.562 0.216l1.881 2.483 4.73-7.593c0.326-0.522 1.014-0.682 1.537-0.357 0.522 0.325 0.682 1.014 0.356 1.536l-5.586 8.968c-0.194 0.313-0.53 0.509-0.897 0.525-0.017 0.001-0.034 0.001-0.050 0.001z" fill="#ffffff" />
</g>
<g transform="translate(48 0)">
	<path d="M15.518 5.931l-5.956-1.595-1.042-3.89c-0.087-0.325-0.435-0.514-0.778-0.422l-7.26 1.945c-0.342 0.091-0.549 0.43-0.462 0.754l2.583 9.642c0.087 0.325 0.435 0.514 0.777 0.422l2.89-0.774-0.394 1.47c-0.087 0.326 0.119 0.663 0.462 0.755l6.488 1.738c0.342 0.091 0.69-0.098 0.778-0.422l2.377-8.869c0.087-0.325-0.119-0.663-0.462-0.754zM1.307 2.906l6.263-1.677 2.319 8.654-6.264 1.677-2.318-8.654zM12.543 14.772l-5.452-1.491 0.429-1.602 3.121-0.836c0.342-0.092 0.55-0.43 0.462-0.755l-1.206-4.502 4.757 1.305-2.11 7.882z" fill="#ffffff" />
</g>
</svg>
