<?xml version="1.0" encoding="UTF-8"?>
<svg width="141px" height="141px" viewBox="0 0 141 141" version="1.1" xmlns="http://www.w3.org/2000/svg" xmlns:xlink="http://www.w3.org/1999/xlink">
    <!-- Generator: Sketch 52.3 (67297) - http://www.bohemiancoding.com/sketch -->
    <title>Group 20</title>
    <desc>Created with Sketch.</desc>
    <defs>
        <linearGradient x1="50%" y1="0%" x2="50%" y2="100%" id="linearGradient-1">
            <stop stop-color="#FF6167" offset="0%"></stop>
            <stop stop-color="#FF0E27" offset="100%"></stop>
        </linearGradient>
        <rect id="path-2" x="0" y="0" width="61" height="61" rx="5"></rect>
        <filter x="-106.6%" y="-90.2%" width="313.1%" height="313.1%" filterUnits="objectBoundingBox" id="filter-3">
            <feOffset dx="0" dy="10" in="SourceAlpha" result="shadowOffsetOuter1"></feOffset>
            <feGaussianBlur stdDeviation="20" in="shadowOffsetOuter1" result="shadowBlurOuter1"></feGaussianBlur>
            <feComposite in="shadowBlurOuter1" in2="SourceAlpha" operator="out" result="shadowBlurOuter1"></feComposite>
            <feColorMatrix values="0 0 0 0 0   0 0 0 0 0   0 0 0 0 0  0 0 0 0.07 0" type="matrix" in="shadowBlurOuter1"></feColorMatrix>
        </filter>
    </defs>
    <g id="Page-1" stroke="none" stroke-width="1" fill="none" fill-rule="evenodd">
        <g id="Primium-Page-Design-for-Project-Manager" transform="translate(-651.000000, -830.000000)">
            <g id="Group-20" transform="translate(691.000000, 860.000000)">
                <g id="Rectangle">
                    <use fill="black" fill-opacity="1" filter="url(#filter-3)" xlink:href="#path-2"></use>
                    <rect stroke-opacity="0.03" stroke="#000000" stroke-width="1" stroke-linejoin="square" fill="url(#linearGradient-1)" fill-rule="evenodd" x="0.5" y="0.5" width="60" height="60" rx="5"></rect>
                </g>
                <g id="Users" transform="translate(19.000000, 20.000000)" fill="#FFFFFF">
                    <path d="M9.50108391,20.9916907 C6.49642894,20.9916907 3.49248681,20.9848922 0.487831834,21 C0.157783138,21 0.0644000299,20.8851807 0.0423017371,20.5618736 C-0.0703282715,18.9642231 0.0216291406,17.3892343 0.56695798,15.8784536 C1.37746633,13.630412 2.95856354,12.4346292 5.16696713,12.0501355 C5.75007692,11.9489132 6.13358923,12.1060344 6.53349704,12.5517147 C7.43311141,13.5533622 8.39331788,14.4938232 9.31360485,15.4773414 C9.51747942,15.6948938 9.63082228,15.6714767 9.81901419,15.4720536 C10.8276943,14.4061979 11.8570471,13.3614931 12.8557473,12.2858173 C13.0959772,12.0274738 13.3290785,11.9647764 13.6448702,12.0168983 C16.453492,12.4761756 18.2876503,14.3586083 18.8279892,17.3507094 C19.0240224,18.4346945 19.0218839,19.5262335 18.9705588,20.6223048 C18.9577275,20.9138855 18.8565031,20.9954677 18.5834823,20.9947123 C15.5562538,20.9861512 12.5287876,20.985144 9.50108391,20.9916907 Z" id="Path"></path>
                    <path d="M10.025709,2.00000276 C12.7724759,2.00358904 15.0056952,4.24071225 14.9999891,6.98350133 C14.9935697,9.8008851 12.7746157,12.0042972 9.9451105,11.9999937 C7.22188115,11.9999937 5.01148623,9.75067714 5.00007406,6.97919779 C4.98509559,4.2299534 7.24399223,1.99713374 10.025709,2.00000276 Z" id="Path"></path>
                    <path d="M11,0.777634054 C12.4847248,-0.287353031 14.9497293,-0.247315923 16.6339734,0.829318321 C18.4360986,1.96075887 19.3318119,4.04812865 18.8874122,6.08073106 C18.4522342,8.11024848 16.7228159,9.79326293 14.944459,10 C15.9397968,8.18668296 16.1686793,6.34060829 15.3562969,4.43556987 C14.5439146,2.53053146 13.0494021,1.38037452 11,0.777634054 Z" id="Path"></path>
                    <path d="M21.7599794,18.9941751 C21.4710248,18.9941751 21.1796953,18.9791995 20.8891574,18.998116 C20.5986195,19.0170325 20.5432036,18.8932871 20.5107457,18.6363379 C20.281957,16.7880377 19.6985063,15.0894933 18.4001899,13.6873074 C17.8222293,13.0717078 17.106792,12.6002597 16.3118005,12.3111316 C15.9159723,12.161376 15.9159723,12.161376 16.2049269,11.829549 C16.2142458,11.8203323 16.2227235,11.8103091 16.2302599,11.7995978 C16.7337533,10.9120985 17.5238263,10.9152512 18.3851484,11.094958 C20.0135855,11.4354551 21.1971117,12.3395064 21.9586851,13.811841 C22.7590497,15.3598416 22.9498389,17.0300114 22.9997132,18.733285 C23.0052548,18.9161445 22.9308391,18.9965397 22.7455915,18.9933869 C22.4162625,18.9878696 22.0869335,18.9933869 21.7576044,18.9933869 L21.7599794,18.9941751 Z" id="Path"></path>
                </g>
            </g>
        </g>
    </g>
</svg>