<?xml version="1.0" encoding="UTF-8"?>
<svg width="141px" height="141px" viewBox="0 0 141 141" version="1.1" xmlns="http://www.w3.org/2000/svg" xmlns:xlink="http://www.w3.org/1999/xlink">
    <!-- Generator: Sketch 52.3 (67297) - http://www.bohemiancoding.com/sketch -->
    <title>Group 18</title>
    <desc>Created with Sketch.</desc>
    <defs>
        <linearGradient x1="50%" y1="-14.9100928%" x2="50%" y2="100%" id="linearGradient-1">
            <stop stop-color="#FAD961" offset="0%"></stop>
            <stop stop-color="#F76B1C" offset="100%"></stop>
        </linearGradient>
        <rect id="path-2" x="0" y="0" width="61" height="61" rx="5"></rect>
        <filter x="-106.6%" y="-90.2%" width="313.1%" height="313.1%" filterUnits="objectBoundingBox" id="filter-3">
            <feOffset dx="0" dy="10" in="SourceAlpha" result="shadowOffsetOuter1"></feOffset>
            <feGaussianBlur stdDeviation="20" in="shadowOffsetOuter1" result="shadowBlurOuter1"></feGaussianBlur>
            <feComposite in="shadowBlurOuter1" in2="SourceAlpha" operator="out" result="shadowBlurOuter1"></feComposite>
            <feColorMatrix values="0 0 0 0 0   0 0 0 0 0   0 0 0 0 0  0 0 0 0.07 0" type="matrix" in="shadowBlurOuter1"></feColorMatrix>
        </filter>
    </defs>
    <g id="Page-1" stroke="none" stroke-width="1" fill="none" fill-rule="evenodd">
        <g id="Primium-Page-Design-for-Project-Manager" transform="translate(-981.000000, -830.000000)">
            <g id="Group-18" transform="translate(1021.000000, 860.000000)">
                <g id="Group-4">
                    <g id="Rectangle">
                        <use fill="black" fill-opacity="1" filter="url(#filter-3)" xlink:href="#path-2"></use>
                        <rect stroke-opacity="0.03" stroke="#000000" stroke-width="1" stroke-linejoin="square" fill="url(#linearGradient-1)" fill-rule="evenodd" x="0.5" y="0.5" width="60" height="60" rx="5"></rect>
                    </g>
                </g>
                <g id="Gantt-Chart" transform="translate(19.000000, 21.000000)" fill="#FFFFFF">
                    <path d="M13.2682217,4.9091742 C13.3974837,4.98934482 13.5432472,4.99898941 13.6986366,4.99898941 C16.2384974,4.99898941 18.7783582,4.99898941 21.318219,4.99898941 C21.3766897,5.0011056 21.4352553,4.99989749 21.4935478,4.99537269 C21.7492176,4.96179376 21.9518339,4.78877096 21.9968445,4.56558579 C22.0226242,4.34790119 21.8885898,4.13972375 21.6626885,4.04658646 C21.5286135,3.99293844 21.3876629,4.00077467 21.2432745,4.00077467 L17.5091154,4.00077467 C16.2889188,4.00077467 15.0689513,4.00077467 13.8492131,4.00077467 C13.7240552,3.99792024 13.5988251,4.00295644 13.4744908,4.01584434 C13.2366855,4.05072124 13.0495409,4.2128606 13.0069474,4.42091699 C12.9711941,4.63128954 13.0757038,4.78982243 13.2682217,4.9091742 Z" id="Path"></path>
                    <path d="M8.27307809,12.0001359 C5.7735328,12.0001359 3.2737372,12.0001359 0.773691306,12.0001359 C0.700895854,11.9991074 0.628160034,12.0039195 0.556676909,12.0144935 C0.172959412,12.0816871 -0.0861062178,12.3900886 0.0265310124,12.641634 C0.128655434,12.8615926 0.414003084,12.9994257 0.786456858,13 C2.02746883,13 3.2684808,13 4.50949277,13 L5.02912586,13 C6.10593778,13 7.18199879,13 8.25805979,13 C8.71611786,13 9.00371825,12.7978448 8.99996368,12.4940378 C8.99771094,12.2022911 8.70710688,12.0001359 8.27307809,12.0001359 Z" id="Path"></path>
                    <path d="M13.6579253,6.99744833 C14.7675286,7.00318959 15.8778294,6.99744833 16.9874328,6.99744833 C18.0716963,6.99744833 19.1561924,6.99744833 20.2409209,6.99744833 C20.342347,7.00146377 20.4439896,6.99529433 20.5436034,6.97907629 C20.8251109,6.91760928 21.0153753,6.70173718 20.999022,6.46236285 C20.9774033,6.19775911 20.705193,5.99473688 20.3831956,6.00306201 C19.6627555,5.99617249 18.9423153,6.00306201 18.2211778,6.00306201 C16.7217138,6.00306201 15.2222498,6.00306201 13.7220884,6.00306201 C13.4598566,6.00306201 13.2338908,6.05301097 13.0895238,6.24706558 C12.8391482,6.5869482 13.1411333,6.99285532 13.6579253,6.99744833 Z" id="Path"></path>
                    <path d="M8.61957256,14.053378 C8.49702695,14.0136226 8.36483044,13.9956928 8.232451,14.0008726 C6.07355957,14.0008726 3.91466814,14.0008726 1.75577671,14.0008726 C1.6852466,13.9984562 1.61458565,14.0015148 1.5448172,14.0100039 C1.28263306,14.0408185 1.07243756,14.1967343 1.01778091,14.4009413 C0.955435494,14.6098217 1.06055277,14.7821765 1.2780368,14.9100159 C1.42302615,14.9939105 1.58686412,14.9996176 1.75577671,14.9996176 C2.83063109,14.9996176 3.90572713,14.9996176 4.98106481,14.9996176 C6.05640249,14.9996176 7.13149853,14.9996176 8.20635291,14.9996176 C8.31165876,15.0017892 8.41694372,14.9947067 8.52025486,14.9785013 C8.77740908,14.9326127 8.96909085,14.7631361 8.99726982,14.5567455 C9.0225578,14.3423693 8.87027103,14.1394126 8.61957256,14.053378 Z" id="Path"></path>
                    <path d="M2.74328155,0.99830347 C4.91782723,1.00056551 7.09211677,1.00056551 9.26615018,0.99830347 C9.70566966,0.99830347 10.0038053,0.782844202 9.9999633,0.500654766 C9.9999633,0.246740825 9.60193692,-0.00830413618 9.25231915,0.000744022082 C8.17042505,0.0216678881 7.08699416,0.00866116056 6.00433167,0.00866116056 C4.92166918,0.00866116056 3.84054347,0.022233398 2.75711258,0.00017851219 C2.38136953,-0.00773862629 1.98872189,0.249002864 2.00024775,0.509137414 C2.01100522,0.798112969 2.29377299,0.99773796 2.74328155,0.99830347 Z" id="Path"></path>
                    <path d="M8.32858938,3.00125724 C6.77630584,3.00125724 5.2242511,3.00125724 3.67242519,3.00125724 C3.56373422,2.99538674 3.45486225,3.01012706 3.35391418,3.04438085 C3.10073443,3.13900386 2.95858942,3.36712971 3.01069111,3.59521307 C3.05868328,3.83389282 3.31018082,4.0059601 3.59897545,3.99770007 C4.4000581,4.00287491 5.20114075,3.99770007 6.00153695,3.99770007 C6.7772211,3.99770007 7.55359169,3.99770007 8.32927583,3.99770007 C8.74800798,3.99770007 9.00473883,3.79818151 8.99993371,3.4888415 C8.99718793,3.19387602 8.73839773,3.00183222 8.32858938,3.00125724 Z" id="Path"></path>
                    <path d="M8.33548393,8.00282843 C6.77970823,7.99824637 5.22393252,7.99996464 3.66815682,8.00282843 C3.44026648,7.99492932 3.22483056,8.08439147 3.10541387,8.23651367 C2.97849998,8.37651051 2.96513604,8.56100295 3.07101996,8.71133 C3.18831276,8.89730275 3.43658221,9.0101465 3.70108716,8.99770897 C4.46507109,8.99770897 5.22954288,8.99770897 5.99450252,8.99770897 C6.77678109,8.99770897 7.55905965,9.00286379 8.34133821,8.99770897 C8.73064803,8.99427242 8.99482255,8.78578853 8.99994505,8.50742818 C9.00433576,8.2130306 8.74528374,8.00397395 8.33548393,8.00282843 Z" id="Path"></path>
                    <path d="M22.3451091,19.0013009 C21.731685,18.9983739 21.1182608,19.0013009 20.5048367,19.0013009 C19.8748335,19.0013009 19.2448303,19.0013009 18.6148271,19.0013009 C18.2487069,19.0013009 18.0027846,19.2044361 18.0000214,19.4918694 C17.9972582,19.7793027 18.2625227,20 18.6307154,20 C19.8653927,20 21.1003002,20 22.335438,20 C22.7057031,20 23.002744,19.7705217 22.9999809,19.4918694 C22.9972177,19.2132171 22.7222821,19.0030571 22.3451091,19.0013009 Z" id="Path"></path>
                    <path d="M21.3909376,14.0041112 C20.461605,13.9986296 19.5327235,13.9986296 18.6042932,14.0041112 C18.2395527,14.0041112 17.9993247,14.2161316 18.0000014,14.5050901 C18.0006781,14.7940486 18.2314323,14.9954973 18.6036165,14.9984338 C19.0725685,15.0019577 19.5408439,14.9984338 20.0097959,14.9984338 C20.478748,14.9984338 20.9301059,14.9984338 21.3909376,14.9984338 C21.7522946,14.9984338 22.0033497,14.78935 21.9999662,14.5062647 C21.9965827,14.2231793 21.7434975,14.0064605 21.3909376,14.0041112 Z" id="Path"></path>
                    <path d="M18.6416656,16.9956181 C19.2088717,17.0020289 19.7760777,17.0008633 20.3432838,16.9956181 C20.7240208,16.9927041 20.9920257,16.7898894 20.9998248,16.5142246 C21.0076238,16.2187446 20.7545081,16.0124331 20.3574639,16.0031083 C20.0738609,15.9961147 19.7902579,16.0031083 19.5066549,16.0031083 C19.2230518,16.0031083 18.9210146,15.9972803 18.6281945,16.0031083 C18.2417854,16.0135987 17.9978868,16.2129166 18.0000138,16.5025686 C18.0021408,16.7922206 18.2573835,16.9915385 18.6416656,16.9956181 Z" id="Path"></path>
                    <path d="M10.108575,1.14730932 C10.3318939,1.1119134 10.3676743,1.24699578 10.3645898,1.47309623 C10.3553362,2.13117135 10.3645898,2.78996883 10.3645898,3.44876631 C10.2924121,3.51377922 10.2072795,3.49427535 10.1264651,3.49499771 C9.81307835,3.49499771 9.49907465,3.49499771 9.18507094,3.49499771 C9.12338063,3.49499771 9.03207896,3.45165577 9,3.62213407 C9.36212215,3.62213407 9.71067242,3.62213407 10.0586058,3.62213407 C10.1603948,3.62213407 10.2689698,3.58529342 10.3596545,3.67558913 C10.3596545,4.05218242 10.3596545,4.42853493 10.3596545,4.80464665 C10.3596545,4.88916343 10.3399136,4.99896301 10.4546576,4.99535119 C10.6310919,4.9888499 10.8099938,5.02424581 11,4.96501183 C10.8938927,4.8689372 10.7847008,4.90505548 10.687847,4.91372387 C10.5194324,4.92744881 10.4663788,4.85665698 10.4719309,4.66017352 C10.4811845,4.31054854 10.4682295,3.9602012 10.4645281,3.61057622 L10.4645281,3.50872266 L10.4756323,1.4023044 C10.4756323,0.951548226 10.4892042,1.03534264 10.1054904,1.00139146 C10.0530537,0.996334897 9.98519432,1.00139146 9.98581123,1.08012931 C9.98642813,1.15886717 10.063541,1.15453298 10.108575,1.14730932 Z" id="Path"></path>
                    <path d="M16.886426,14.4565705 C16.3965174,14.4736461 15.9066089,14.40697 15.4215994,14.4915348 C15.2753267,14.466328 15.322218,14.3289102 15.3215181,14.2362142 C15.3215181,13.5678274 15.3215181,12.8994405 15.3215181,12.2302405 C15.3215181,12.1261608 15.3761079,11.9863037 15.2263359,11.9375164 C14.1765319,11.9375164 13.1211289,11.922067 12.0692253,11.9293851 C11.8662631,11.9293851 11.8109735,11.8635222 11.8123732,11.6293429 C11.8221714,10.238903 11.8172723,8.84765011 11.8172723,7.45639717 C11.8050389,7.36842535 11.8170413,7.27821194 11.8515659,7.19863727 C11.9859408,7.19863727 12.1196158,7.19863727 12.2539908,7.19863727 C12.2966828,7.19863727 12.3400747,7.18074857 12.3470734,7.12220374 C12.3483449,7.09457421 12.340313,7.06745402 12.3246776,7.04658333 C12.2644888,6.97177604 11.9859408,6.99454347 11.8172723,7.06203266 C11.765482,7.04333084 11.7297886,7.08967883 11.6996942,7.14334493 C11.6996942,7.66618282 11.6821975,8.18902072 11.695495,8.71104549 C11.7024937,8.972871 11.6535029,9.08182944 11.4043494,9.06312762 C11.0411172,9.03548145 10.6743856,9.05337015 10.3097537,9.05743576 C10.2313683,9.05743576 10.1361861,9.01108777 10.0815963,9.12980368 C10.1340865,9.25014584 10.2299686,9.20298472 10.3076541,9.20379785 C10.6981812,9.20786346 11.0894082,9.21355532 11.4792354,9.20379785 C11.6507034,9.19891911 11.6961949,9.27128703 11.6940953,9.46155774 C11.6863967,10.2014994 11.6905959,10.9414411 11.6940953,11.6813827 C11.6940953,11.7700131 11.7024937,11.8594566 11.6416051,11.9293851 C11.1817909,11.9293851 10.7226766,11.9293851 10.2635623,11.935077 C10.201274,11.935077 10.0962936,11.9025521 10.0934941,12.0001268 C10.0899947,12.1351052 10.2068729,12.0814391 10.2712609,12.0814391 C10.7303752,12.0814391 11.1894895,12.0814391 11.6486038,12.0757472 C11.6690088,12.1176902 11.6832038,12.163318 11.6905959,12.2107256 C11.6905959,12.9709953 11.6905959,13.731265 11.695495,14.4915348 C11.695495,14.6647299 11.61501,14.678553 11.5002315,14.6769267 C11.0495156,14.6769267 10.5994996,14.6769267 10.1487838,14.6769267 C10.0941939,14.6769267 10.0088099,14.6492806 10.0004115,14.7370978 C9.99271289,14.8606925 10.0948938,14.8184101 10.1522831,14.8184101 C10.6281943,14.8184101 11.1041054,14.811092 11.5800166,14.8249151 C11.7745803,14.8306069 11.8263706,14.7436028 11.8235711,14.5313778 C11.8151727,13.7914361 11.8235711,13.0506813 11.8165724,12.3107397 C11.8165724,12.1310396 11.8620639,12.0668029 12.0188347,12.0716816 C13.0637396,12.080626 14.1093444,12.0798128 15.1542493,12.0830653 C15.1619479,12.18064 15.1759453,12.2774016 15.1759453,12.3749764 C15.1759453,14.7899508 15.1759453,17.2049252 15.1759453,19.6198996 C15.1759453,19.7304843 15.1276543,19.8581446 15.2277356,19.9508406 C15.7876311,20.0402841 16.3475266,19.9768605 16.9074221,19.9939361 L16.9074221,19.8394427 L15.3299166,19.8394427 C15.3033215,19.032825 15.3096203,18.2253942 15.3299166,17.4187765 C15.7106455,17.4147109 16.0920743,17.4187765 16.4721033,17.4033271 C16.6365726,17.3976353 16.8087405,17.4626851 16.9662111,17.3553529 C17.036198,17.150446 16.8920249,17.2211877 16.8262372,17.2203745 C16.3923182,17.2138696 15.9583992,17.2146827 15.5244802,17.2203745 C15.3950044,17.2203745 15.3145194,17.1886628 15.3145194,17.0081495 C15.3201184,16.2763391 15.3194185,15.5445287 15.3145194,14.8127182 C15.3145194,14.6769267 15.3467134,14.6053719 15.4705903,14.619195 C15.9360034,14.6240738 16.4007167,14.6297656 16.8654299,14.6330181 C16.9235191,14.6330181 17.0005047,14.6370837 16.9998048,14.5435746 C17.004004,14.4720198 16.9396161,14.4549442 16.886426,14.4565705 Z" id="Path"></path>
                </g>
            </g>
        </g>
    </g>
</svg>