<?xml version="1.0" encoding="UTF-8"?>
<svg width="141px" height="141px" viewBox="0 0 141 141" version="1.1" xmlns="http://www.w3.org/2000/svg" xmlns:xlink="http://www.w3.org/1999/xlink">
    <!-- Generator: Sketch 52.3 (67297) - http://www.bohemiancoding.com/sketch -->
    <title>Group 25</title>
    <desc>Created with Sketch.</desc>
    <defs>
        <linearGradient x1="50%" y1="0%" x2="50%" y2="100%" id="linearGradient-1">
            <stop stop-color="#B4EC51" offset="0%"></stop>
            <stop stop-color="#429321" offset="100%"></stop>
        </linearGradient>
        <rect id="path-2" x="0" y="0" width="61" height="61" rx="5"></rect>
        <filter x="-106.6%" y="-90.2%" width="313.1%" height="313.1%" filterUnits="objectBoundingBox" id="filter-3">
            <feOffset dx="0" dy="10" in="SourceAlpha" result="shadowOffsetOuter1"></feOffset>
            <feGaussianBlur stdDeviation="20" in="shadowOffsetOuter1" result="shadowBlurOuter1"></feGaussianBlur>
            <feComposite in="shadowBlurOuter1" in2="SourceAlpha" operator="out" result="shadowBlurOuter1"></feComposite>
            <feColorMatrix values="0 0 0 0 0   0 0 0 0 0   0 0 0 0 0  0 0 0 0.07 0" type="matrix" in="shadowBlurOuter1"></feColorMatrix>
        </filter>
    </defs>
    <g id="Page-1" stroke="none" stroke-width="1" fill="none" fill-rule="evenodd">
        <g id="Primium-Page-Design-for-Project-Manager" transform="translate(-651.000000, -1450.000000)">
            <g id="Group-25" transform="translate(691.000000, 1480.000000)">
                <g id="Group-4">
                    <g id="Rectangle">
                        <use fill="black" fill-opacity="1" filter="url(#filter-3)" xlink:href="#path-2"></use>
                        <rect stroke-opacity="0.03" stroke="#000000" stroke-width="1" stroke-linejoin="square" fill="url(#linearGradient-1)" fill-rule="evenodd" x="0.5" y="0.5" width="60" height="60" rx="5"></rect>
                    </g>
                </g>
                <g id="List" transform="translate(21.000000, 18.000000)" fill="#FFFFFF">
                    <path d="M10.5397421,0.00421817307 C10.748136,0.00421817307 10.9573806,-0.00527271634 11.1649239,0.00421817307 C11.5698036,0.026850294 11.7952093,0.235649861 11.8011634,0.582432358 C11.8139327,0.795273064 11.8122287,1.00857183 11.7960599,1.22124222 C11.7696917,1.44902357 11.8896245,1.52714089 12.1269385,1.53882198 C12.7963509,1.57094499 13.4249351,1.75784251 14.0586228,1.92429811 C14.318052,1.99292454 14.4099155,2.12652706 14.3410179,2.34700772 C14.2151309,2.74708521 14.0943475,3.15008298 13.9608052,3.54651013 C13.8570336,3.85532907 13.691169,3.90278351 13.3373246,3.77721175 C12.4178367,3.45157317 11.4187907,3.32617218 10.4291657,3.41217754 C10.1632634,3.44130674 9.90598568,3.51260423 9.67044161,3.62243724 C9.07503032,3.8823416 9.01293743,4.63431207 9.47565706,4.96138272 C10.0089755,5.33882809 10.6384102,5.5374067 11.2618909,5.74401606 C11.8147728,5.92653316 12.3880688,6.07181678 12.9035249,6.32296031 C13.6103632,6.66828267 14.2814767,7.06105948 14.6472294,7.7239616 C15.40085,9.08918954 14.9177162,10.6478856 13.4776715,11.5203174 C13.0254436,11.809344 12.50578,12.0110674 11.9542692,12.1116728 C11.7390705,12.1467161 11.6650694,12.2394348 11.6727247,12.4277924 C11.6880353,12.7680043 11.6829318,13.1089462 11.6684718,13.4498882 C11.6548624,13.7601673 11.4345602,13.970427 11.0790146,13.9857584 C10.6333067,14.0054703 10.1858977,14.0040101 9.74018979,13.9857584 C9.37358655,13.970427 9.16944554,13.7725784 9.15498555,13.4498882 C9.14222673,13.1578608 9.14222673,12.8702139 9.15498555,12.5811068 C9.16093966,12.4110008 9.09544442,12.3620862 8.89045282,12.3321534 C8.02285351,12.2146124 7.14674833,12.1197035 6.33869015,11.7882525 C5.98059279,11.6422388 5.94486811,11.5692319 6.0554445,11.2312103 C6.16602088,10.8931886 6.25107963,10.555897 6.34974779,10.2178753 C6.46797946,9.80976707 6.62023463,9.73603016 7.0667931,9.89299487 C8.17255692,10.2828514 9.31829836,10.491651 10.5184774,10.363889 C11.0645546,10.3054835 11.568953,10.1485188 11.8419916,9.69441626 C12.0410291,9.36369526 11.938108,8.91981367 11.6318965,8.65625897 C11.1555675,8.24596052 10.5431444,8.05103225 9.92476728,7.86340467 C9.07417973,7.60569052 8.23379922,7.34213582 7.47847748,6.89971436 C6.29701136,6.20614937 5.81387763,5.13878934 6.17367617,3.94877782 C6.5334747,2.75876631 7.53461625,2.12360678 8.8368658,1.78850538 C9.14562908,1.71038806 9.29022897,1.61182882 9.25280312,1.32272173 C9.23347549,1.07701695 9.23148716,0.830533495 9.246849,0.584622564 C9.25280312,0.234189724 9.47565706,0.030500636 9.88478967,0.0107887888 C10.1025401,0.00056783099 10.3211411,0.0107887888 10.5397421,0.0107887888 L10.5397421,0.00421817307 Z" id="Path"></path>
                    <path d="M9.99382085,18.0001945 L18.3825158,18.0001945 C18.7297237,18.0001945 19.0761685,17.9883132 19.3890371,18.1502737 C19.7972925,18.3622605 20.0414827,18.6686721 19.9941708,19.0563766 C19.9415173,19.4834769 19.6416213,19.7892632 19.1158494,19.9262104 C18.9304528,19.9752462 18.7368166,20.0001451 18.5420025,19.9999994 C12.7984465,19.9999994 7.05489057,19.9983318 1.3113346,19.9949967 C0.352125145,19.9949967 -0.188908671,19.2552315 0.0606231455,18.7030653 C0.255212176,18.272213 0.703911589,18.0045718 1.31286079,18.0026958 C2.60401624,17.9983185 3.8951717,18.0026958 5.18632715,18.0026958 L9.99382085,18.0001945 Z" id="Path"></path>
                    <path d="M9.98880567,23.0014786 C12.8937909,23.0014786 15.7985215,23.0014786 18.7029976,23.0014786 C19.3505863,23.0014786 19.7950399,23.2867094 19.970683,23.8044446 C20.0814146,24.1316024 19.8675881,24.6080459 19.5124835,24.797988 C19.2824494,24.9272283 19.0118768,24.9974682 18.7343079,25 C12.9161917,25 7.09807557,25 1.2799594,25 C0.65375334,25 0.189444454,24.716675 0.0367112682,24.256113 C-0.052673436,23.961475 0.0231107441,23.6490147 0.242835815,23.4062556 C0.462560886,23.1634964 0.802598566,23.0165438 1.16770051,23.0065606 C2.12915592,22.995126 3.09213865,23.0021138 4.05435772,23.0021138 L9.98880567,23.0014786 Z" id="Path"></path>
                </g>
            </g>
        </g>
    </g>
</svg>