<?xml version="1.0" encoding="UTF-8"?>
<svg width="141px" height="141px" viewBox="0 0 141 141" version="1.1" xmlns="http://www.w3.org/2000/svg" xmlns:xlink="http://www.w3.org/1999/xlink">
    <!-- Generator: Sketch 52.3 (67297) - http://www.bohemiancoding.com/sketch -->
    <title>Group 19</title>
    <desc>Created with Sketch.</desc>
    <defs>
        <linearGradient x1="50%" y1="-50.5052289%" x2="50%" y2="100%" id="linearGradient-1">
            <stop stop-color="#72D0FF" offset="0%"></stop>
            <stop stop-color="#349EFA" offset="100%"></stop>
        </linearGradient>
        <rect id="path-2" x="0" y="0" width="61" height="61" rx="5"></rect>
        <filter x="-106.6%" y="-90.2%" width="313.1%" height="313.1%" filterUnits="objectBoundingBox" id="filter-3">
            <feOffset dx="0" dy="10" in="SourceAlpha" result="shadowOffsetOuter1"></feOffset>
            <feGaussianBlur stdDeviation="20" in="shadowOffsetOuter1" result="shadowBlurOuter1"></feGaussianBlur>
            <feComposite in="shadowBlurOuter1" in2="SourceAlpha" operator="out" result="shadowBlurOuter1"></feComposite>
            <feColorMatrix values="0 0 0 0 0   0 0 0 0 0   0 0 0 0 0  0 0 0 0.07 0" type="matrix" in="shadowBlurOuter1"></feColorMatrix>
        </filter>
    </defs>
    <g id="Page-1" stroke="none" stroke-width="1" fill="none" fill-rule="evenodd">
        <g id="Primium-Page-Design-for-Project-Manager" transform="translate(-320.000000, -1140.000000)">
            <g id="Group-19" transform="translate(360.000000, 1170.000000)">
                <g id="Group-4">
                    <g id="Rectangle">
                        <use fill="black" fill-opacity="1" filter="url(#filter-3)" xlink:href="#path-2"></use>
                        <rect stroke-opacity="0.03" stroke="#000000" stroke-width="1" stroke-linejoin="square" fill="url(#linearGradient-1)" fill-rule="evenodd" x="0.5" y="0.5" width="60" height="60" rx="5"></rect>
                    </g>
                </g>
                <g id="Kanban-Board" transform="translate(19.000000, 24.000000)" fill="#FFFFFF">
                    <path d="M0.00469281678,5.00347077 C0.00469281678,3.58252607 0.00469281678,2.16158138 0.00469281678,0.74063668 C-0.00242021656,0.54205025 0.08937203,0.349858694 0.258296582,0.209649543 C0.427221134,0.0694403911 0.658227289,-0.00629411546 0.896520755,0.000410127342 C1.9747268,0.000410127342 3.05322315,0.000410127342 4.13200981,0.000410127342 C4.62321192,0.000410127342 4.98987165,0.311740707 4.99074257,0.739185255 C4.99074257,3.05856179 4.99074257,5.37818022 4.99074257,7.69804056 C4.99074257,8.20603918 4.96722758,8.71403779 4.99683905,9.22203641 C5.01753749,9.4216685 4.93589683,9.61927739 4.77210937,9.76598825 C4.6083219,9.91269911 4.37768246,9.99481175 4.13723536,9.99201716 C3.67651566,10.0007257 3.21579595,9.99927429 2.75420532,10 C2.18287805,10 1.61155077,10 1.0402235,10 C0.641339519,10 0.314742374,9.89912599 0.0891726117,9.59505253 C0.0217841281,9.4966374 -0.00855871021,9.38361954 0.00208003961,9.27065913 C0.00382189105,7.84729539 0.00469281678,6.42489927 0.00469281678,5.00347077 Z" id="Path"></path>
                    <path d="M13.9965606,2.51936105 C13.9965606,3.08616218 14.0042992,3.65296332 13.9965606,4.21715247 C13.9896819,4.54365082 13.8409286,4.81725644 13.3989682,4.95177376 C13.2706948,4.98711341 13.134639,5.0032996 12.9982803,4.99944252 C11.9974205,4.99944252 10.9965606,4.99944252 9.99484093,4.99944252 C9.4049871,4.99944252 9.01633706,4.7258369 9.01031814,4.27396318 C8.99656062,3.09290982 8.99656062,1.91098579 9.01031814,0.728191093 C9.01547721,0.322680142 9.38005159,-0.0116541697 10.0128977,0.000752767605 C10.9948409,0.0242606489 11.9793637,0.0294846225 12.961307,0.000752767605 C13.6311264,-0.0194901301 13.9931212,0.371654894 13.9931212,0.797408744 L13.9965606,2.51936105 Z" id="Path"></path>
                    <path d="M20.4972747,0.00822650502 C21.0128742,0.00822650502 21.5302126,0.031858629 22.0423342,0.00166202615 C22.5544558,-0.0285345767 23.0274509,0.358113229 22.9987582,0.723754702 C22.9644137,1.23020079 22.9644137,1.73764192 22.9987582,2.24408801 C23.0248425,2.6990064 22.5448915,2.99112571 22.0049467,2.99506439 C20.9928762,3.00097242 19.9808057,3.00228532 18.9696047,2.99506439 C18.4592221,2.99112571 17.9749238,2.71869983 18.0010081,2.27887975 C18.0323092,1.75372144 18.0010081,1.22331154 18.0097028,0.695527443 C18.0123112,0.262271837 18.3583628,0.00888295291 18.924392,0.00822650502 C19.4483964,0.0077888731 19.9726906,0.0077888731 20.4972747,0.00822650502 Z" id="Path"></path>
                    <path d="M11.4933207,8.00013368 C11.9892363,8.00013368 12.4851519,8.00409755 12.9810675,8.00013368 C13.5877546,7.99390474 13.9098441,8.20568856 13.9533006,8.56640057 C13.9967572,8.92711257 14.062368,9.28272818 13.8680918,9.63324738 C13.7931468,9.78621937 13.6090003,9.90456661 13.3764366,9.9492243 C13.3253634,9.96133955 13.2720427,9.96876948 13.2179481,9.97130871 C12.0751659,10.0106654 10.9300399,10.0095313 9.78743928,9.96791111 C9.34861363,9.94979057 9.10065584,9.78047677 9.05208679,9.45204197 C9.00010938,9.10435411 8.9464278,8.74817224 9.10832464,8.40105063 C9.22676496,8.14792934 9.47046231,8.01089275 9.86753561,8.00466381 C10.4077598,7.99843488 10.9488361,8.00466381 11.486504,8.00466381 L11.4933207,8.00013368 Z" id="Path"></path>
                    <path d="M20.476996,6.99491299 C19.9236865,6.99491299 19.3695057,6.9805255 18.8214244,6.99951699 C18.4179877,7.01332899 17.9814396,6.72845662 18.0006094,6.46084925 C18.0215219,6.15698539 18.0006094,5.85197054 18.0067089,5.54753118 C18.0128084,5.24309183 18.2933842,5.02958143 18.7708859,5.01922243 C19.9219438,4.99505145 21.0747445,4.99217395 22.2258024,5.01922243 C22.6867484,5.03073243 22.9899794,5.26380982 22.9960789,5.56997567 C23.001307,5.8558072 23.001307,6.1420224 22.9960789,6.42862126 C22.9891081,6.7739211 22.6588651,6.989158 22.1395384,6.9920355 C21.586229,6.99779049 21.0329195,6.99491299 20.476996,6.99491299 Z" id="Path"></path>
                    <path d="M2.51602323,13.999743 C2.00761081,13.999743 1.50007196,13.999743 0.992533102,13.999743 C0.342603827,13.999743 0.00104153274,13.7684623 0.000167971889,13.3417494 C0.000167971889,13.0915807 0.000167971889,12.8410266 0.000167971889,12.5900871 C-0.00790156429,12.321311 0.27559956,12.0871785 0.67368339,12.0338569 C0.780769452,12.0152829 0.890634512,12.0046175 1.00126871,12.0020558 C2.00761081,12.0020558 3.01045867,11.9974302 4.02116858,12.0020558 C4.38369634,12.0020558 4.6990518,12.0725964 4.90695929,12.2998298 C4.96766101,12.3665466 4.99799262,12.4434384 4.99431537,12.521281 C4.99955674,12.8329318 5.00392454,13.1445826 4.99431537,13.4562333 C4.98633508,13.7538105 4.62278473,13.9934172 4.17316817,13.9974302 C3.61933059,14.0032122 3.06549301,13.9974302 2.51340255,13.9974302 L2.51602323,13.999743 Z" id="Path"></path>
                </g>
            </g>
        </g>
    </g>
</svg>