<?xml version="1.0" encoding="UTF-8"?>
<svg width="26px" height="23px" viewBox="0 0 26 23" version="1.1" xmlns="http://www.w3.org/2000/svg" xmlns:xlink="http://www.w3.org/1999/xlink">
    <!-- Generator: Sketch 52.3 (67297) - http://www.bohemiancoding.com/sketch -->
    <title>Group 10</title>
    <desc>Created with Sketch.</desc>
    <defs>
        <polygon id="path-1" points="1.31979695e-05 0.0233502874 25.9685888 0.0233502874 25.9685888 22.9999537 1.31979695e-05 22.9999537"></polygon>
    </defs>
    <g id="Page-1" stroke="none" stroke-width="1" fill="none" fill-rule="evenodd">
        <g id="Get-Started-Page-Design-for-PM" transform="translate(-1005.000000, -1561.000000)">
            <g id="Group-10" transform="translate(1005.000000, 1561.000000)">
                <g id="Group-3">
                    <mask id="mask-2" fill="white">
                        <use xlink:href="#path-1"></use>
                    </mask>
                    <g id="Clip-2"></g>
                    <path d="M24.0359574,2.17907155 C24.0287645,1.71114052 23.6561858,1.35853994 23.1806629,1.36977557 C22.7211756,1.38061466 22.3429878,1.77425833 22.3602112,2.22394799 C22.3769726,2.66345948 22.7597137,3.04110891 23.1922112,3.04494224 C23.6633787,3.04917213 24.0433482,2.6592296 24.0359574,2.17907155 Z M20.5056985,1.36944511 C20.0433736,1.36772672 19.6609624,1.74048534 19.6577949,2.19599109 C19.6546934,2.64125259 20.0534701,3.04619799 20.4948102,3.04599971 C20.9489523,3.04580144 21.3287239,2.66722672 21.3374345,2.20610316 C21.3462112,1.7449796 20.9745563,1.37116351 20.5056985,1.36944511 Z M2.37709949,20.6219652 L23.5971249,20.6219652 L23.5971249,4.43280718 L2.37709949,4.43280718 L2.37709949,20.6219652 Z M1.31979695e-05,22.9999537 L25.968602,22.9999537 L25.968602,0.0233502874 L1.31979695e-05,0.0233502874 L1.31979695e-05,22.9999537 Z" id="Fill-1" fill="#FFFFFF" mask="url(#mask-2)"></path>
                </g>
                <path d="M10.4906265,11.1934246 C9.18977528,11.1980344 8.1735357,12.2123926 8.17095478,13.5087948 C8.16837385,14.7853293 9.21764928,15.8252689 10.5028213,15.819815 C11.7608937,15.8145559 12.7986195,14.7621503 12.7937157,13.4965236 C12.7887474,12.2225213 11.7551511,11.1888796 10.4906265,11.1934246 M11.1928964,8.91675092 C11.3305243,8.95005859 11.4556992,8.95622668 11.5568715,9.0089476 C12.0570549,9.26950061 12.436193,9.18386158 12.6998345,8.65730167 C12.7268052,8.60347699 12.8925652,8.56231312 12.9558624,8.59347819 C13.6595518,8.94012472 14.2498096,9.4311045 14.734443,10.0309673 C14.7242483,10.0679758 14.724829,10.0821299 14.7182477,10.0875189 C14.1686395,10.5367505 14.2384535,11.0118231 14.6251408,11.533903 C14.7312168,11.6770676 14.8032246,11.7338789 14.9783405,11.711479 C15.7860412,11.6081148 15.6409287,11.5186451 15.8166897,12.3063424 C15.9438649,12.8762087 15.9425744,13.4751625 16,14.0765835 C15.7579737,14.118072 15.5997629,14.17787 15.4477464,14.1646898 C15.0825454,14.1328754 14.9707913,14.326943 14.9244636,14.6456059 C14.8939442,14.8550611 14.8065799,15.0562057 14.7397984,15.277218 C14.9633711,15.4587546 15.1875245,15.6409404 15.4345191,15.8415656 C15.1013216,16.5709582 14.6326254,17.1890655 14.0206234,17.6946539 C13.9686177,17.7376358 13.8205371,17.7191315 13.7520135,17.6747213 C13.5632833,17.5523334 13.3930712,17.401053 13.2064058,17.2540577 C12.890694,17.4324128 12.5759501,17.6102485 12.2475273,17.7958106 C12.2774015,18.0795426 12.3076628,18.3665859 12.3391501,18.6656408 C11.5837776,18.9700846 10.8105322,19.0415046 10.0228982,18.9794991 C9.95734265,18.9743049 9.86371957,18.8261409 9.85049232,18.7345286 C9.75996634,18.107786 9.74770695,18.1520663 9.19880853,17.9288465 C8.78495705,17.7605551 8.56557835,17.8750867 8.36987964,18.2165391 C8.31729328,18.3082813 8.23689743,18.3838566 8.15159783,18.4885193 C7.38745019,18.1299911 6.74976792,17.6230392 6.22919516,16.9751303 C6.23919624,16.9369531 6.23971243,16.9135143 6.25061684,16.8972176 C6.40953736,16.659519 6.69060019,16.4259108 6.69666536,16.1851605 C6.70285959,15.9359049 6.4620592,15.6651583 6.28887907,15.4344718 C6.2226138,15.3462357 6.03936805,15.2957223 5.91812906,15.3089675 C5.23469987,15.3836338 5.32238683,15.5141375 5.15656234,14.764163 C5.04584062,14.263574 5.05145413,13.737079 5.00319082,13.2223358 C4.98086581,12.9848969 5.0744889,12.8415376 5.32199969,12.8634181 C5.80856875,12.9063999 6.03904544,12.6796091 6.07975955,12.202264 C6.09227704,12.0556583 6.16622056,11.9144415 6.22274284,11.73732 C6.00646125,11.5566275 5.77779121,11.3656765 5.53099017,11.1594027 C5.85283163,10.4228032 6.34114282,9.81729172 6.94578924,9.30423668 C6.99521397,9.26235861 7.16613579,9.28014867 7.21097938,9.33163597 C7.56908285,9.74282018 7.93247722,9.79021706 8.34478014,9.41097706 C8.43595135,9.32715599 8.57203066,9.29280949 8.70656143,9.22619414 C8.69023707,9.0284907 8.70010911,8.81942499 8.65003915,8.62600674 C8.58983905,8.39337244 8.66074999,8.29617637 8.88006417,8.23456042 C9.52716683,8.05250444 10.1814315,7.96985206 10.8540208,8.00991217 C11.0511391,8.02159907 11.1116618,8.09983639 11.1207595,8.28221701 C11.1308897,8.48621839 11.1657967,8.68892123 11.1928964,8.91675092" id="Fill-4" fill="#FFFFFF"></path>
                <path d="M19.5424945,10.4644939 C19.5308389,9.91416957 19.0763364,9.46073094 18.5358487,9.46019081 C17.9791097,9.45971819 17.4980989,9.96379396 17.5157489,10.5293095 C17.5327328,11.0735573 18.0015551,11.5369209 18.530587,11.5323973 C19.106308,11.5274686 19.5549494,11.0539101 19.5424945,10.4644939 M15.4214672,12.2317298 C15.2650821,11.5636573 15.1296771,10.9849761 15,10.4310734 C15.3346162,10.2801748 15.6579764,10.2296051 15.812763,10.0387369 C15.979072,9.83355526 15.9871976,9.49651451 16.0737822,9.18263181 C15.9366456,9.02835735 15.774799,8.84626622 15.6174148,8.66930632 C15.8821639,8.14220754 16.4088647,7.64414071 16.9693334,7.40250032 C17.2156333,7.81191841 17.5341314,7.98185662 18.0486438,7.79038075 C18.3176555,7.69025426 18.4998827,7.6219954 18.5406441,7.32640959 C18.5780087,7.05539966 18.7072862,6.9645904 18.9938812,7.01198676 C19.4936741,7.09469407 19.9554365,7.24971121 20.4187973,7.56710475 C20.0620687,8.06098558 20.2683399,8.42125189 20.6619002,8.78124814 C20.8334043,8.93829077 20.9428339,9.00398401 21.1679539,8.93761561 C21.6071376,8.80811958 21.6332462,8.8169642 21.768851,9.26763467 C21.874351,9.61838121 21.9154454,9.98877495 21.9884429,10.3497839 C22.0372633,10.5913568 21.9294988,10.6983024 21.7013816,10.727672 C21.5602487,10.7459013 21.4221796,10.7885716 21.2745196,10.8221271 C21.2433491,10.9450065 21.2157086,11.0636325 21.1830729,11.1808405 C21.1241288,11.3929089 20.9809312,11.6234091 21.023957,11.8104289 C21.0683816,12.0035252 21.2927689,12.1540862 21.4578791,12.3458997 C21.15097,12.8935234 20.7029946,13.2899108 20.1697001,13.5876572 C20.1349996,13.5755718 20.1027635,13.5744915 20.0953039,13.5602456 C19.7732092,12.9407847 19.2566988,13.1479243 18.7881429,13.275935 C18.6709206,13.3079377 18.5631561,13.5298633 18.5281892,13.6826524 C18.4677798,13.9461681 18.3484929,14.0535188 18.0922691,13.9746599 C17.7035042,13.8550888 17.3168707,13.7282259 16.9292381,13.6049413 C16.6949268,13.5304035 16.6550979,13.3799774 16.7576674,13.1681792 C16.893805,12.8873119 16.8209407,12.7013723 16.6141368,12.4407599 C16.2866472,12.027966 15.96715,11.9182522 15.4214672,12.2317298" id="Fill-6" fill="#FFFFFF"></path>
                <path d="M10.5236709,12.0000108 C11.320615,12.002938 11.9877346,12.6776681 11.9998535,13.4931255 C12.0117547,14.2934345 11.2968126,15.0084142 10.4931197,14.9999252 C9.67534848,14.9912898 8.98297515,14.286775 9.00031896,13.4809775 C9.01817074,12.6503716 9.69029753,11.9969372 10.5236709,12.0000108" id="Fill-8" fill="#FFFFFF"></path>
            </g>
        </g>
    </g>
</svg>