<?xml version="1.0" encoding="UTF-8"?>
<svg width="26px" height="24px" viewBox="0 0 26 24" version="1.1" xmlns="http://www.w3.org/2000/svg" xmlns:xlink="http://www.w3.org/1999/xlink">
    <!-- Generator: Sketch 52.3 (67297) - http://www.bohemiancoding.com/sketch -->
    <title>feature</title>
    <desc>Created with Sketch.</desc>
    <g id="Page-1" stroke="none" stroke-width="1" fill="none" fill-rule="evenodd">
        <g id="Get-Started-Page-Design-for-PM" transform="translate(-704.000000, -1560.000000)" fill="#FFFFFF">
            <g id="feature" transform="translate(704.000000, 1560.000000)">
                <path d="M17,15.5 C17,16.880464 15.8806554,18 14.5000782,18 C13.1193446,18 12,16.880464 12,15.5 C12,14.1193796 13.1193446,13 14.5000782,13 C15.8806554,13 17,14.1193796 17,15.5 Z" id="Path"></path>
                <path d="M22,2.72722104 L22,0.909026308 C22,0.40690156 21.5897078,0 21.083399,0 L0.916600983,0 C0.410292163,0 0,0.40690156 0,0.909026308 L0,19.0909737 C0,19.5929563 0.410292163,20 0.916600983,20 L2.74994625,20 L2.74994625,4.54541581 C2.74994625,3.54145054 3.57096051,2.72722104 4.58329155,2.72722104 L22,2.72722104 Z M4.58329155,0.909026308 L5.50003583,0.909026308 L5.50003583,1.81819473 L4.58329155,1.81819473 L4.58329155,0.909026308 Z M1.83334527,1.81819473 L0.916600983,1.81819473 L0.916600983,0.909026308 L1.83334527,0.909026308 L1.83334527,1.81819473 Z M3.66669053,1.81819473 L2.74994625,1.81819473 L2.74994625,0.909026308 L3.66669053,0.909026308 L3.66669053,1.81819473 Z" id="Shape" fill-rule="nonzero"></path>
                <path d="M19.4391464,14.2232272 C19.3203984,13.7621664 19.137631,13.320268 18.8957801,12.9101619 C18.7883552,12.727828 18.8178245,12.4957007 18.9673482,12.3461753 L19.7524204,11.5605137 L18.4393697,10.2470129 L17.653862,11.0325293 C17.504048,11.1823451 17.2719233,11.2118146 17.0894462,11.1040983 C16.6796351,10.8622446 16.2375964,10.67933 15.7768311,10.5607259 C15.5718529,10.508029 15.4285714,10.3232273 15.4285714,10.1114238 L15.4285714,9 L13.5714286,9 L13.5714286,10.1114238 C13.5714286,10.3232273 13.4281471,10.508029 13.2231689,10.5607259 C12.7624036,10.67933 12.3203649,10.8622446 11.9105537,11.1040983 C11.7280767,11.2118146 11.495952,11.1823451 11.3461379,11.0325293 L10.5606303,10.2470129 L9.24757957,11.5605137 L10.032797,12.3461753 C10.1820304,12.4957007 10.2114996,12.7273925 10.1042199,12.9095812 C10.0158122,13.0601228 9.93538877,13.2151647 9.86280443,13.3738359 C9.73708838,13.6479174 9.63590579,13.9330318 9.56085359,14.2249693 C9.50801219,14.4299497 9.32321248,14.5732328 9.11155653,14.5732328 L8,14.5732328 L8,16.4303964 L9.11155653,16.4303964 C9.32321248,16.4303964 9.50801219,16.5736795 9.56085359,16.77866 C9.67960155,17.2395757 9.86236892,17.681474 10.1042199,18.0917253 C10.2117899,18.273914 10.1821755,18.5060413 10.032797,18.6557119 L9.24757957,19.4412283 L10.5606303,20.754584 L11.3461379,19.9692127 C11.495952,19.819397 11.7280767,19.7897822 11.9105537,19.8976438 C12.3203649,20.1394975 12.7624036,20.3224121 13.2231689,20.440871 C13.4281471,20.4938582 13.5714286,20.6788051 13.5714286,20.8903183 L13.5714286,22 L15.4285714,22 L15.4285714,20.888431 C15.4285714,20.6766276 15.5718529,20.491971 15.7768311,20.439129 C16.2375964,20.32067 16.6796351,20.1376103 17.0894462,19.8957566 C17.2719233,19.7880402 17.504048,19.8175098 17.653862,19.9673255 L18.4393697,20.752842 L19.7524204,19.4393411 L18.9673482,18.6539698 C18.8178245,18.5042993 18.7883552,18.272172 18.8957801,18.0898381 C19.137631,17.6795868 19.3203984,17.2376885 19.4391464,16.7767728 C19.4919878,16.5719375 19.6767875,16.4286544 19.8884435,16.4286544 L21,16.4286544 L21,14.5714908 L19.8884435,14.5714908 C19.6767875,14.5714908 19.4919878,14.4282077 19.4391464,14.2232272 Z M14.5000726,18.7500726 C12.7049167,18.7500726 11.2500363,17.2950307 11.2500363,15.5 C11.2500363,13.7048241 12.7049167,12.2499274 14.5000726,12.2499274 C16.2950832,12.2499274 17.7499637,13.7048241 17.7499637,15.5 C17.7480765,17.2940145 16.2940671,18.747895 14.5000726,18.7500726 Z" id="Shape" fill-rule="nonzero"></path>
                <path d="M25.8801112,4.89678097 C25.876548,4.39820461 25.4657841,3.9966325 24.9625199,4.00002129 L4.90578127,4.13048987 C4.402232,4.13387866 3.9967416,4.54067516 4.00001974,5.03967512 L4.11974274,23.1033602 C4.12330592,23.6017954 4.53421237,24.0033675 5.03747658,23.9999787 L25.0943577,23.8695101 C25.5980495,23.8662625 26.0035399,23.4589012 25.9999767,22.9599013 L25.8801112,4.89678097 Z M8.6184771,4.96822806 L9.53022477,4.96822806 L9.53022477,5.87148291 L8.6184771,5.87148291 L8.6184771,4.96822806 Z M6.79512428,4.96822806 L7.70687195,4.96822806 L7.70687195,5.87148291 L6.79512428,5.87148291 L6.79512428,4.96822806 Z M4.97177146,4.96822806 L5.88351913,4.96822806 L5.88351913,5.87148291 L4.97177146,5.87148291 L4.97177146,4.96822806 Z M4.97177146,9.03266311 L8.6184771,9.03266311 L8.6184771,9.93577676 L4.97177146,9.93577676 L4.97177146,9.03266311 Z M4.97177146,11.7421453 L4.97177146,10.8388904 L7.70687195,10.8388904 L7.70687195,11.7421453 L4.97177146,11.7421453 Z M21.8377495,17.6128076 L20.6329655,17.6128076 C20.5364745,17.9094683 20.4161814,18.1979394 20.2723712,18.4753969 L21.1243999,19.3187831 C21.3021316,19.4951416 21.3021316,19.7809299 21.1243999,19.9574296 L19.1901608,21.8735103 C19.0121441,22.0497276 18.7236687,22.0497276 18.545652,21.8735103 L17.6943359,21.0298418 C17.4139845,21.1717475 17.1229436,21.2909202 16.8236361,21.3866536 L16.8236361,22.5803563 C16.8236361,22.8295739 16.6195369,23.0319132 16.367691,23.0319132 L13.632733,23.0319132 C13.3808871,23.0319132 13.1769305,22.8295739 13.1769305,22.5803563 L13.1769305,21.3866536 C12.8776229,21.2909202 12.5864395,21.1717475 12.3062306,21.0298418 L11.4549146,21.8735103 C11.2767554,22.0497276 10.9882799,22.0497276 10.8102632,21.8735103 L8.8760241,19.9574296 C8.69829244,19.7809299 8.69829244,19.4951416 8.8760241,19.3187831 L9.72805278,18.4753969 C9.58438518,18.1979394 9.46394955,17.9094683 9.36745852,17.6128076 L8.16267451,17.6128076 C7.91097117,17.6128076 7.70687195,17.4104684 7.70687195,17.1612508 L7.70687195,14.4516274 C7.70687195,14.2022687 7.91097117,14.0000706 8.16267451,14.0000706 L9.36745852,14.0000706 C9.43829462,13.7821994 9.5219582,13.5688465 9.6181642,13.3605769 C9.65294084,13.2855998 9.68942785,13.2116112 9.72762523,13.1374813 L8.8760241,12.2939539 C8.69829244,12.1174542 8.69829244,11.8318071 8.8760241,11.6553074 L10.8102632,9.7392267 C10.9882799,9.5630094 11.2767554,9.5630094 11.4549146,9.7392267 L12.3062306,10.582754 C12.5864395,10.4411307 12.8776229,10.3216757 13.1769305,10.2260835 L13.1769305,9.03266311 C13.1769305,8.78316312 13.3808871,8.58096507 13.632733,8.58096507 L16.367691,8.58096507 C16.6195369,8.58096507 16.8236361,8.78316312 16.8236361,9.03266311 L16.8236361,10.2260835 C17.1229436,10.3216757 17.4139845,10.4411307 17.6943359,10.582754 L18.545652,9.7392267 C18.7236687,9.5630094 19.0121441,9.5630094 19.1901608,9.7392267 L21.1243999,11.6553074 C21.3021316,11.8318071 21.3021316,12.1174542 21.1243999,12.2939539 L20.2723712,13.1374813 C20.4161814,13.4147976 20.5364745,13.7032687 20.6329655,14.0000706 L21.8377495,14.0000706 C22.0895954,14.0000706 22.2935521,14.2022687 22.2935521,14.4516274 L22.2935521,17.1612508 C22.2935521,17.4104684 22.0895954,17.6128076 21.8377495,17.6128076 Z M25.0286526,23.0319132 L22.2935521,23.0319132 L22.2935521,22.1286583 L25.0286526,22.1286583 L25.0286526,23.0319132 Z M25.0286526,7.67785141 L4.97177146,7.67785141 L4.97177146,6.77459657 L25.0286526,6.77459657 L25.0286526,7.67785141 Z" id="Shape" fill-rule="nonzero"></path>
            </g>
        </g>
    </g>
</svg>