<?xml version="1.0" encoding="UTF-8"?>
<svg width="141px" height="141px" viewBox="0 0 141 141" version="1.1" xmlns="http://www.w3.org/2000/svg" xmlns:xlink="http://www.w3.org/1999/xlink">
    <!-- Generator: Sketch 52.3 (67297) - http://www.bohemiancoding.com/sketch -->
    <title>Group 18</title>
    <desc>Created with Sketch.</desc>
    <defs>
        <linearGradient x1="50%" y1="-13.6526639%" x2="50%" y2="109.221311%" id="linearGradient-1">
            <stop stop-color="#64E09C" offset="0%"></stop>
            <stop stop-color="#51C1AD" offset="100%"></stop>
        </linearGradient>
        <rect id="path-2" x="0" y="0" width="61" height="61" rx="5"></rect>
        <filter x="-106.6%" y="-90.2%" width="313.1%" height="313.1%" filterUnits="objectBoundingBox" id="filter-3">
            <feOffset dx="0" dy="10" in="SourceAlpha" result="shadowOffsetOuter1"></feOffset>
            <feGaussianBlur stdDeviation="20" in="shadowOffsetOuter1" result="shadowBlurOuter1"></feGaussianBlur>
            <feComposite in="shadowBlurOuter1" in2="SourceAlpha" operator="out" result="shadowBlurOuter1"></feComposite>
            <feColorMatrix values="0 0 0 0 0   0 0 0 0 0   0 0 0 0 0  0 0 0 0.07 0" type="matrix" in="shadowBlurOuter1"></feColorMatrix>
        </filter>
        <polygon id="path-4" points="0.0491491935 0.0551647059 14.9432661 0.0551647059 14.9432661 1.98528235 0.0491491935 1.98528235"></polygon>
        <polygon id="path-6" points="0.052754 0.0551764706 12.939004 0.0551764706 12.939004 1.98528235 0.052754 1.98528235"></polygon>
        <polygon id="path-8" points="1.17647059e-05 0.0551764706 1.93012941 0.0551764706 1.93012941 1.98528235 1.17647059e-05 1.98528235"></polygon>
        <polygon id="path-10" points="0.0277352113 0.0698941176 8.9406507 0.0698941176 8.9406507 2 0.0277352113 2"></polygon>
        <polygon id="path-12" points="0.0478117647 0.0698941176 1.97792941 0.0698941176 1.97792941 2 0.0478117647 2"></polygon>
    </defs>
    <g id="Page-1" stroke="none" stroke-width="1" fill="none" fill-rule="evenodd">
        <g id="Primium-Page-Design-for-Project-Manager" transform="translate(-320.000000, -830.000000)">
            <g id="Group-8" transform="translate(241.000000, 830.000000)">
                <g id="Group-18" transform="translate(119.000000, 30.000000)">
                    <g id="Group-4">
                        <g id="Rectangle">
                            <use fill="black" fill-opacity="1" filter="url(#filter-3)" xlink:href="#path-2"></use>
                            <rect stroke-opacity="0.03" stroke="#000000" stroke-width="1" stroke-linejoin="square" fill="url(#linearGradient-1)" fill-rule="evenodd" x="0.5" y="0.5" width="60" height="60" rx="5"></rect>
                        </g>
                    </g>
                    <g id="Group-30" transform="translate(21.000000, 20.000000)">
                        <path d="M9.04346789,17 L13.0216445,17 C13.561982,17 14,16.552237 14,16 C14,15.447763 13.561982,15 13.0216445,15 L8.97823624,15 C8.43801801,15 8,15.447763 8,16 C8,16.552237 8.43801801,17 8.97823624,17 L9.04346789,17 Z" id="Fill-1" fill="#FFFFFF"></path>
                        <path d="M9.08948738,14 L16.9784966,14 C17.5426643,14 18,13.552237 18,13 C18,12.447763 17.5426643,12 16.9784966,12 L9.02137886,12 C8.45733567,12 8,12.447763 8,13 C8,13.552237 8.45733567,14 9.02137886,14 L9.08948738,14 Z" id="Fill-3" fill="#FFFFFF"></path>
                        <path d="M8.99554848,9 L15.0665737,9 C15.5820972,9 16,8.55223699 16,8 C16,7.44764111 15.5820972,7 15.0665737,7 L8.93331247,7 C8.41790281,7 8,7.44764111 8,8 C8,8.55223699 8.41790281,9 8.93331247,9 L8.99554848,9 Z" id="Fill-5" fill="#FFFFFF"></path>
                        <g id="Group-9" transform="translate(4.000000, 4.000000)">
                            <mask id="mask-5" fill="white">
                                <use xlink:href="#path-4"></use>
                            </mask>
                            <use id="Clip-8" fill="#FFFFFF" xlink:href="#path-4"></use>
                            <path d="M13.3909234,0.0551647059 L1.04144758,0.0551647059 C0.49346371,0.0551647059 0.0491491935,0.487164706 0.0491491935,1.02022353 C0.0491491935,1.55316471 0.49346371,1.98528235 1.04144758,1.98528235 L13.951004,1.98528235 C14.4989879,1.98528235 14.9433024,1.55316471 14.9433024,1.02022353 C14.9433024,0.487164706 14.4989879,0.0551647059 13.951004,0.0551647059 L13.3909234,0.0551647059 Z" id="Fill-7" fill="#FFFFFF" mask="url(#mask-5)"></path>
                        </g>
                        <path d="M1,4 C1.55223699,4 2,4.44764111 2,5 C2,5.55223699 1.55223699,6 1,6 C0.447763014,6 0,5.55223699 0,5 C0,4.44764111 0.447763014,4 1,4" id="Fill-10" fill="#FFFFFF"></path>
                        <g id="Group-14" transform="translate(3.000000, 0.000000)">
                            <mask id="mask-7" fill="white">
                                <use xlink:href="#path-6"></use>
                            </mask>
                            <use id="Clip-13" fill="#FFFFFF" xlink:href="#path-6"></use>
                            <path d="M11.270714,0.0551647059 L1.119274,0.0551647059 C0.530244,0.0551647059 0.052754,0.487164706 0.052754,1.02022353 C0.052754,1.55316471 0.530244,1.98528235 1.119274,1.98528235 L11.872614,1.98528235 C12.461644,1.98528235 12.939004,1.55316471 12.939004,1.02022353 C12.939004,0.487164706 12.461644,0.0551647059 11.872614,0.0551647059 L11.270714,0.0551647059 Z" id="Fill-12" fill="#FFFFFF" mask="url(#mask-7)"></path>
                        </g>
                        <g id="Group-17">
                            <mask id="mask-9" fill="white">
                                <use xlink:href="#path-8"></use>
                            </mask>
                            <use id="Clip-16" fill="#FFFFFF" xlink:href="#path-8"></use>
                            <path d="M0.965070588,0.0551647059 C1.49801176,0.0551647059 1.93012941,0.487164706 1.93012941,1.02022353 C1.93012941,1.55316471 1.49801176,1.98528235 0.965070588,1.98528235 C0.432129412,1.98528235 1.17647059e-05,1.55316471 1.17647059e-05,1.02022353 C1.17647059e-05,0.487164706 0.432129412,0.0551647059 0.965070588,0.0551647059" id="Fill-15" fill="#FFFFFF" mask="url(#mask-9)"></path>
                        </g>
                        <path d="M5,17 C4.44776301,17 4,16.552237 4,16 C4,15.447763 4.44776301,15 5,15 C5.55223699,15 6,15.447763 6,16 C6,16.552237 5.55223699,17 5,17" id="Fill-18" fill="#FFFFFF"></path>
                        <path d="M5,14 C4.44776301,14 4,13.552237 4,13 C4,12.447763 4.44776301,12 5,12 C5.55223699,12 6,12.447763 6,13 C6,13.552237 5.55223699,14 5,14" id="Fill-20" fill="#FFFFFF"></path>
                        <g id="Group-24" transform="translate(8.000000, 19.000000)">
                            <mask id="mask-11" fill="white">
                                <use xlink:href="#path-10"></use>
                            </mask>
                            <use id="Clip-23" fill="#FFFFFF" xlink:href="#path-10"></use>
                            <path d="M1.13689014,2.00001176 L7.90070704,2.00001176 C8.47505915,2.00001176 8.9406507,1.56789412 8.9406507,1.03495294 C8.9406507,0.502011765 8.47505915,0.0698941176 7.90070704,0.0698941176 L1.06755211,0.0698941176 C0.493326761,0.0698941176 0.0277352113,0.502011765 0.0277352113,1.03495294 C0.0277352113,1.56789412 0.493326761,2.00001176 1.06755211,2.00001176 L1.13689014,2.00001176 Z" id="Fill-22" fill="#FFFFFF" mask="url(#mask-11)"></path>
                        </g>
                        <g id="Group-27" transform="translate(4.000000, 19.000000)">
                            <mask id="mask-13" fill="white">
                                <use xlink:href="#path-12"></use>
                            </mask>
                            <use id="Clip-26" fill="#FFFFFF" xlink:href="#path-12"></use>
                            <path d="M1.01287059,2.00001176 C0.479929412,2.00001176 0.0478117647,1.56789412 0.0478117647,1.03495294 C0.0478117647,0.502011765 0.479929412,0.0698941176 1.01287059,0.0698941176 C1.54581176,0.0698941176 1.97792941,0.502011765 1.97792941,1.03495294 C1.97792941,1.56789412 1.54581176,2.00001176 1.01287059,2.00001176" id="Fill-25" fill="#FFFFFF" mask="url(#mask-13)"></path>
                        </g>
                        <path d="M5,9 C4.44776301,9 4,8.55223699 4,8 C4,7.44764111 4.44776301,7 5,7 C5.55223699,7 6,7.44764111 6,8 C6,8.55223699 5.55223699,9 5,9" id="Fill-28" fill="#FFFFFF"></path>
                    </g>
                </g>
            </g>
        </g>
    </g>
</svg>