<?xml version="1.0" encoding="UTF-8"?>
<svg width="141px" height="141px" viewBox="0 0 141 141" version="1.1" xmlns="http://www.w3.org/2000/svg" xmlns:xlink="http://www.w3.org/1999/xlink">
    <!-- Generator: Sketch 52.3 (67297) - http://www.bohemiancoding.com/sketch -->
    <title>Group 23</title>
    <desc>Created with Sketch.</desc>
    <defs>
        <linearGradient x1="50%" y1="-62.9386687%" x2="50%" y2="147.895269%" id="linearGradient-1">
            <stop stop-color="#0ACEFE" offset="0%"></stop>
            <stop stop-color="#6772E5" offset="100%"></stop>
        </linearGradient>
        <rect id="path-2" x="0" y="0" width="61" height="61" rx="5"></rect>
        <filter x="-106.6%" y="-90.2%" width="313.1%" height="313.1%" filterUnits="objectBoundingBox" id="filter-3">
            <feOffset dx="0" dy="10" in="SourceAlpha" result="shadowOffsetOuter1"></feOffset>
            <feGaussianBlur stdDeviation="20" in="shadowOffsetOuter1" result="shadowBlurOuter1"></feGaussianBlur>
            <feComposite in="shadowBlurOuter1" in2="SourceAlpha" operator="out" result="shadowBlurOuter1"></feComposite>
            <feColorMatrix values="0 0 0 0 0   0 0 0 0 0   0 0 0 0 0  0 0 0 0.07 0" type="matrix" in="shadowBlurOuter1"></feColorMatrix>
        </filter>
    </defs>
    <g id="Page-1" stroke="none" stroke-width="1" fill="none" fill-rule="evenodd">
        <g id="Primium-Page-Design-for-Project-Manager" transform="translate(-981.000000, -1450.000000)">
            <g id="Group-23" transform="translate(1021.000000, 1480.000000)">
                <g id="Group-4">
                    <g id="Rectangle">
                        <use fill="black" fill-opacity="1" filter="url(#filter-3)" xlink:href="#path-2"></use>
                        <rect stroke-opacity="0.03" stroke="#000000" stroke-width="1" stroke-linejoin="square" fill="url(#linearGradient-1)" fill-rule="evenodd" x="0.5" y="0.5" width="60" height="60" rx="5"></rect>
                    </g>
                </g>
                <g id="Stripe" transform="translate(15.000000, 24.000000)" fill="#FFFFFF">
                    <path d="M18.0049047,8.08141825 C18.0049047,6.52104807 18.0049047,4.96176754 18,3.40248701 C18,3.18455821 18.0617986,3.12680708 18.2501372,3.13334494 C18.6778227,3.14751032 19.1064891,3.14315174 19.5341747,3.13334494 C19.6793523,3.13334494 19.7617504,3.16276533 19.7499793,3.35127374 C19.7440937,3.43844526 19.7313416,3.56157503 19.8137397,3.60189186 C19.8755383,3.63131224 19.9294895,3.52997535 19.9844216,3.48421031 C20.9369047,2.70620451 22.2837217,2.88163719 23.1096648,3.89609573 C23.7364791,4.66538438 23.9601312,5.60138855 23.9925019,6.60712995 C24.0312992,7.38080528 23.9192063,8.15466184 23.6638903,8.87576871 C23.2175671,10.0743771 22.3249207,10.7390599 21.1919465,10.7031017 C20.8184079,10.6868928 20.4556165,10.5597093 20.1413704,10.334802 C20.0854574,10.2955748 20.0295443,10.206224 19.9608792,10.2432719 C19.8922141,10.2803198 19.9265467,10.3849256 19.9265467,10.4612007 C19.9265467,11.1008217 19.9206611,11.7404427 19.9265467,12.3800637 C19.9365966,12.4363694 19.9240649,12.4947449 19.8922224,12.5399535 C19.8603799,12.585162 19.8123866,12.6127173 19.7607695,12.6154268 C19.2251817,12.7360141 18.6905748,12.8613232 18.1569488,12.991354 C17.9980381,13.0305812 18.0029428,12.930334 18.0029428,12.8115628 C18.0029428,11.7894767 18.0029428,10.7677539 18.0029428,9.74639425 L18.0049047,8.08141825 Z M19.921642,6.86646521 L19.936356,6.86646521 L19.936356,8.27319559 C19.9246427,8.35869178 19.9488644,8.44543393 20.0020783,8.50855869 C20.3620796,8.88448586 21.1929274,9.04357388 21.6274795,8.42683539 C22.1709147,7.65318817 22.2111329,6.26062316 21.7206678,5.44012125 C21.5442243,5.1391814 21.2601065,4.9367034 20.9403014,4.88398914 C20.6204963,4.83127489 20.2956912,4.93338263 20.048182,5.16444132 C19.96237,5.2325654 19.9141835,5.34497201 19.9206611,5.46191413 C19.9255658,5.93046104 19.921642,6.39900795 19.921642,6.86646521 Z" id="Shape" fill-rule="nonzero"></path>
                    <path d="M31.5676011,7.95870391 C31.5676011,8.46106367 31.5676011,8.9338148 31.5676011,9.40656593 C31.5676011,9.49835268 31.5064188,9.52697436 31.4412246,9.55460908 C30.2767548,10.0549949 29.0872103,10.1665208 27.884627,9.72041741 C27.0822361,9.42433111 26.5506521,8.84202805 26.2748302,8.05443848 C25.8926916,6.96878871 25.8987095,5.86932158 26.3580783,4.80439785 C27.1063078,3.06637125 28.8655498,2.71698942 30.1523842,3.19566227 C30.9136526,3.47891817 31.3870632,4.05036473 31.6779299,4.77478922 C31.9456991,5.48595876 32.0485053,6.24703914 31.9788265,7.00234516 C31.9677936,7.15729699 31.9166412,7.21454034 31.7461331,7.21355339 C30.5826663,7.20565775 29.4191995,7.21355339 28.2567357,7.2046708 C28.0491171,7.2046708 28.0180244,7.25697938 28.0681739,7.4445007 C28.2166162,8.000156 28.6940388,8.33275961 29.4111756,8.36335519 C30.0944464,8.39829386 30.776796,8.27912908 31.40612,8.01496031 C31.4512545,8.000156 31.490371,7.98732559 31.5676011,7.95870391 Z M29.0490967,5.78740437 C29.3499933,5.78740437 29.6508899,5.78740437 29.9517865,5.78740437 C30.0440614,5.78740437 30.0932079,5.77358701 30.0922049,5.66107421 C30.0922049,5.06890161 29.6478809,4.57542444 29.0942312,4.5655549 C28.5405815,4.55568535 28.054132,5.02744953 28.0270513,5.62060908 C28.0210334,5.75384792 28.0611529,5.79233914 28.1915415,5.78839132 C28.4763902,5.78148264 28.763245,5.78740437 29.0490967,5.78740437 Z" id="Shape" fill-rule="nonzero"></path>
                    <path d="M4.61706019,5.16116891 C4.15013503,4.93029044 3.64894514,4.77712641 3.13308521,4.70766499 C2.86222254,4.65987774 2.58483238,4.66356433 2.31532446,4.71853328 C2.15687444,4.73976258 2.03032833,4.86150945 2.00244533,5.01954651 C1.97456234,5.17758357 2.05175481,5.33556642 2.19329999,5.41015145 C2.39487734,5.54099938 2.61477963,5.64090286 2.84573727,5.70655923 C3.21648998,5.81882154 3.5783307,5.95885562 3.92821238,6.12548224 C4.6072195,6.4742554 4.99100614,7.01470559 4.99986275,7.79327004 C5.0077353,8.59060699 4.67708835,9.20713518 3.96855918,9.60135753 C3.26003002,9.99557989 2.5219788,10.039053 1.75342147,9.9768074 C1.24139315,9.93014442 0.737950488,9.81449507 0.2566536,9.63297437 C0.144785824,9.6082574 0.0711887708,9.50065877 0.0883779227,9.3869559 C0.096250469,8.91369147 0.0883779227,8.43943902 0.0883779227,7.96518656 C0.0883779227,7.73398849 0.0883779227,7.73596454 0.292080058,7.82883898 C0.950421743,8.13117492 1.62647666,8.35743286 2.36354381,8.33767234 C2.48345815,8.33576278 2.60195304,8.31129823 2.71288805,8.26554645 C2.85473987,8.21977632 2.95968191,8.09890027 2.9854812,7.95156374 C3.01128048,7.80422721 2.95369388,7.65466229 2.83589658,7.56306 C2.67759344,7.43135356 2.49597692,7.33079459 2.30056343,7.26665221 C1.8144337,7.08287938 1.30960667,6.9425797 0.861855597,6.66593243 C0.203513912,6.26380587 -0.0926906424,5.59688835 0.0253975522,4.86970125 C0.184816615,3.89353161 0.792970817,3.35011734 1.69831364,3.12583544 C2.63809886,2.89463737 3.56804339,2.99739207 4.4832269,3.30862025 C4.5639205,3.33628497 4.61706019,3.36888983 4.61706019,3.46868045 C4.61607612,4.01999893 4.61706019,4.57032939 4.61706019,5.16116891 Z" id="Path"></path>
                    <path d="M6.01603953,4.79794693 C6.01603953,3.73762988 6.01603953,2.67626921 6.01603953,1.61595216 C6.01603953,1.43749328 6.07332355,1.37591975 6.26465219,1.34461118 C6.85238627,1.24651098 7.43553763,1.12962564 8.018689,1.01274029 C8.19970651,0.976213621 8.26615598,1.01274029 8.26157326,1.19433002 C8.25011645,1.6347373 8.26157326,2.0761882 8.26157326,2.51659548 C8.26157326,2.6814873 8.30854616,2.73992998 8.49070935,2.73471188 C8.91690249,2.72427569 9.3442413,2.73471188 9.77043444,2.73471188 C9.93082971,2.73471188 10.0064446,2.76497684 9.99957054,2.93091228 C9.98925941,3.37862489 9.98811373,3.82738112 9.99957054,4.27509374 C9.99957054,4.43998556 9.93541243,4.47338138 9.77043444,4.47025052 C9.33622154,4.46085795 8.90200864,4.47025052 8.46779574,4.4639888 C8.30854616,4.4639888 8.25355349,4.50364633 8.25469917,4.65184025 C8.26157326,5.57126872 8.25469917,6.48965356 8.26157326,7.40803841 C8.26157326,7.90480112 8.57205266,8.17509848 9.12083361,8.19701448 C9.35880897,8.20931913 9.59724251,8.18172784 9.82428142,8.11561219 C9.96176308,8.07386743 9.99842485,8.11561219 9.99727917,8.23771563 C9.99727917,8.68542824 9.99727917,9.13418448 9.99727917,9.58189709 C10.0117824,9.67378627 9.94652421,9.76045764 9.84719503,9.78122835 C9.00626556,10.0212607 8.15617065,10.1204046 7.32669799,9.78122835 C6.4342129,9.41283079 6.01260249,8.74700177 6.00458272,7.86723083 C5.9942716,6.84448407 6.00458272,5.82069369 6.00458272,4.79794693 L6.01603953,4.79794693 Z" id="Path"></path>
                    <path d="M13.1077098,3.64072238 C13.5034014,3.10124425 14.0340136,2.95596106 14.6598639,3.01082324 C14.9897959,3.04028627 15,3.04435013 15,3.33390054 C15,3.79210136 15,4.24827025 15,4.70748704 C15,4.83346687 14.9818594,4.88020132 14.8129252,4.85683409 C14.3356009,4.79079628 13.8752834,4.8324509 13.4761905,5.11793744 C13.3367376,5.20696616 13.2579825,5.35386129 13.2675737,5.50705255 C13.2755102,6.92940544 13.2675737,8.34261462 13.276644,9.75988767 C13.276644,9.95495321 13.2165533,10.0047356 13.0034014,9.99965573 C12.4115646,9.98644817 11.8197279,9.991528 11.2267574,9.99965573 C11.0668934,9.99965573 11,9.9701927 11,9.80967002 C11.0045351,7.62872894 11.0045351,5.44744919 11,3.2658308 C11,3.10530811 11.0680272,3.07178122 11.2267574,3.07482912 C11.7380952,3.08092492 12.2471655,3.08295685 12.760771,3.07482912 C12.9274376,3.07482912 12.9875283,3.12664341 13.0124717,3.26786273 C13.0371224,3.39351943 13.0689097,3.51796766 13.1077098,3.64072238 Z" id="Path"></path>
                    <path d="M16.9989889,6.50919128 C16.9989889,7.59576772 16.9989889,8.68131812 16.9989889,9.76789456 C16.9989889,9.95155573 16.9492384,10.0038838 16.7721269,9.99977961 C16.2457675,9.98849317 15.718413,9.99054525 15.1920535,9.99977961 C15.0418072,9.99977961 14.9990219,9.95155573 15.0000169,9.7945716 C15.0039969,7.60089792 15.0039969,5.40654021 15.0000169,3.21149848 C15.0000169,3.04630603 15.0477773,2.9970561 15.2059836,3.00013422 C15.7323431,3.00834254 16.2596976,3.00936858 16.7860571,3.00013422 C16.9562035,3.00013422 17.0009789,3.05451435 16.9999839,3.22586304 C16.9960038,4.32167384 16.9989889,5.41543256 16.9989889,6.50919128 Z" id="Path"></path>
                    <path d="M16.9983705,0.781335572 C16.9983705,1.000612 16.9933948,1.22091308 16.9983705,1.44018951 C16.9983705,1.55597566 16.9665261,1.61335641 16.8530802,1.63589885 C16.2958021,1.75066034 15.7395192,1.86883736 15.1842315,1.99042989 C15.044912,2.02014492 14.9971453,1.98428196 15.0001307,1.83160818 C15.0090869,1.41457311 15.0080918,0.996513375 15.0001307,0.579478299 C15.0001307,0.442174368 15.0439168,0.386842933 15.1732849,0.361226528 C15.716631,0.251588314 16.258982,0.137851475 16.7993427,0.0128434184 C16.9675212,-0.0260935173 17.0093171,0.0210406681 16.9983705,0.188059629 C16.9884191,0.386842933 16.9983705,0.583576924 16.9983705,0.781335572 Z" id="Path"></path>
                </g>
            </g>
        </g>
    </g>
</svg>