<?xml version="1.0" encoding="UTF-8"?>
<svg width="141px" height="141px" viewBox="0 0 141 141" version="1.1" xmlns="http://www.w3.org/2000/svg" xmlns:xlink="http://www.w3.org/1999/xlink">
    <!-- Generator: Sketch 52.3 (67297) - http://www.bohemiancoding.com/sketch -->
    <title>Sub Task</title>
    <desc>Created with Sketch.</desc>
    <defs>
        <linearGradient x1="50%" y1="-38.7843619%" x2="50%" y2="173.145477%" id="linearGradient-1">
            <stop stop-color="#8646DD" offset="0%"></stop>
            <stop stop-color="#5D00FF" offset="100%"></stop>
        </linearGradient>
        <rect id="path-2" x="0" y="0" width="61" height="61" rx="5"></rect>
        <filter x="-106.6%" y="-90.2%" width="313.1%" height="313.1%" filterUnits="objectBoundingBox" id="filter-3">
            <feOffset dx="0" dy="10" in="SourceAlpha" result="shadowOffsetOuter1"></feOffset>
            <feGaussianBlur stdDeviation="20" in="shadowOffsetOuter1" result="shadowBlurOuter1"></feGaussianBlur>
            <feComposite in="shadowBlurOuter1" in2="SourceAlpha" operator="out" result="shadowBlurOuter1"></feComposite>
            <feColorMatrix values="0 0 0 0 0   0 0 0 0 0   0 0 0 0 0  0 0 0 0.07 0" type="matrix" in="shadowBlurOuter1"></feColorMatrix>
        </filter>
    </defs>
    <g id="Page-1" stroke="none" stroke-width="1" fill="none" fill-rule="evenodd">
        <g id="Primium-Page-Design-for-Project-Manager" transform="translate(-981.000000, -1140.000000)">
            <g id="Sub-Task" transform="translate(1021.000000, 1170.000000)">
                <g id="Rectangle">
                    <use fill="black" fill-opacity="1" filter="url(#filter-3)" xlink:href="#path-2"></use>
                    <rect stroke-opacity="0.03" stroke="#000000" stroke-width="1" stroke-linejoin="square" fill="url(#linearGradient-1)" fill-rule="evenodd" x="0.5" y="0.5" width="60" height="60" rx="5"></rect>
                </g>
                <g transform="translate(21.000000, 20.000000)" fill="#FFFFFF" id="Path">
                    <path d="M11.5009989,5.99631004 C9.07752206,5.99631004 6.65380384,5.99631004 4.22984425,5.99631004 C4.0560491,5.99631004 3.99522079,5.96310037 4.00028982,5.77491224 C4.01477275,5.24060557 4.00970372,4.70556091 4.00028982,4.17051624 C4.00028982,4.03767757 4.03360056,3.99856396 4.16611936,4.00003994 C4.68460823,4.00815786 5.2030971,4.0037299 5.72158596,4.0037299 C10.0751545,4.0037299 14.428723,4.00249992 18.7822916,4.00003994 C18.9445004,4.00003994 19.0060528,4.02955965 18.9995355,4.21331981 C18.9857767,4.73434262 18.9879492,5.25684141 18.9995355,5.77860221 C19.0031562,5.94907851 18.962604,6 18.7873606,6 C16.3600217,5.99409606 13.9312344,5.99286607 11.5009989,5.99631004 Z"></path>
                    <path d="M9.49613902,1.99630453 C7.40189139,1.99630453 5.30740144,1.99753635 3.21266915,2 C3.05418292,2 2.99456884,1.97043625 3.00038485,1.79379283 C3.01274386,1.26534076 3.01274386,0.735410505 3.00038485,0.206958437 C2.99674984,0.0317932056 3.05272892,-0.000726921653 3.21266915,1.21721491e-05 C7.40746507,0.00444673496 11.602261,0.00444673496 15.7970569,1.21721491e-05 C15.9482731,1.21721491e-05 16.0027982,0.0317932056 15.9998902,0.197350217 C15.9892275,0.73245413 15.9892275,1.26780441 15.9998902,1.80340105 C15.9998902,1.96895806 15.9482731,2 15.7977839,1.99926091 C13.6967509,1.99482634 11.5962026,1.99384088 9.49613902,1.99630453 Z"></path>
                    <path d="M13.009987,12.0018688 C14.3162208,12.0018688 15.6222144,12.0018688 16.9279676,12.0018688 C17.4268163,12.0018688 17.8074408,12.2606605 17.9508958,12.6808416 C18.0505847,12.9864033 17.9966656,13.3205273 17.805719,13.580469 C17.6147724,13.8404107 17.3096566,13.995052 16.9841963,13.9968401 C16.4557915,14.0039498 15.9266659,13.9968401 15.3982611,13.9968401 L9.07326341,13.9968401 C8.52323227,13.9968401 8.11305177,13.6662408 8.01501214,13.1500793 C7.91264724,12.609034 8.34733764,12.040261 8.90601934,12.0125333 C9.2715053,11.9926262 9.63915391,12.0025798 10.0060816,12.0018688 L13.009987,12.0018688 Z"></path>
                    <path d="M12.5149303,19.0044346 C13.9423272,19.0044346 15.3704534,19.0044346 16.7978502,19.0007391 C16.9488318,19.0007391 17.002806,19.0295639 16.9998885,19.195861 C16.9889478,19.7435329 16.9918653,20.2919438 16.9998885,20.8396157 C16.9998885,20.9652624 16.9626901,21 16.8401542,21 C13.9474328,20.9965509 11.0542252,20.9965509 8.16053124,21 C8.01976089,21 7.99860887,20.9482631 8.00006763,20.8233555 C8.00590267,20.2749446 8.00736143,19.7272727 8.00006763,19.1788618 C8.00006763,19.0354767 8.03726601,19 8.17803637,19 C9.62002079,19.0066519 11.0663815,19.0044346 12.5149303,19.0044346 Z"></path>
                    <path d="M12.038876,7.00657515 C13.0289008,7.00657515 14.0189257,7.0207749 15.0075073,7.00018526 C15.5039629,6.99024544 15.9239298,7.38144855 15.992481,7.89263956 C16.054538,8.35981134 15.7254918,8.85609261 15.2629511,8.97892045 C15.1903053,8.99506695 15.1158559,9.00198652 15.0414222,8.99951009 C13.0310656,8.99951009 11.0204685,8.99951009 9.00963091,8.99951009 C8.51678327,8.99951009 8.14371997,8.70202532 8.03981066,8.2256237 C7.94904456,7.92381215 8.01562068,7.59736986 8.21770058,7.35337707 C8.41978049,7.10938428 8.73128736,6.97932636 9.05004009,7.00586516 L12.038876,7.00657515 Z"></path>
                    <path d="M10.9920812,15.0006368 C11.6541984,15.0006368 12.3155983,15.0006368 12.9777155,15.0006368 C13.5680974,15.0006368 14.005683,15.4372431 13.9999442,16.0101106 C13.9994695,16.2776305 13.8903292,16.533611 13.6973025,16.7199343 C13.5042757,16.9062576 13.2437396,17.0071154 12.9748461,16.9996091 C11.6515681,16.9996091 10.328051,16.9996091 9.00429482,16.9996091 C8.44963811,16.9996091 8,16.5524433 8,16.0008363 C8,15.4492294 8.44963811,15.0020636 9.00429482,15.0020636 C9.66856411,14.9984965 10.3306813,15.0006368 10.9920812,15.0006368 Z"></path>
                    <path d="M4.98591809,19 C5.27912415,19 5.5671991,19.0037009 5.8574731,19 C5.96376029,19 6.00407613,19.0303478 5.99967804,19.1398957 C5.99527995,19.7142824 5.99967804,20.2886691 5.99967804,20.8630558 C5.99967804,20.9570598 5.97695457,21.0007309 5.87359943,20.9999908 C5.29158541,20.9965365 4.71006006,20.9965365 4.12902339,20.9999908 C4.03006635,20.9999908 3.99927971,20.9681626 4.00001273,20.8682371 C4.00343347,20.2879289 4.00343347,19.707374 4.00001273,19.1265723 C4.00001273,19.0207253 4.04032856,18.9992598 4.13342148,19.0007402 C4.41709834,19.0029608 4.70150822,19 4.98591809,19 Z"></path>
                    <path d="M0.984831365,2 C0.704405449,2 0.423239624,1.99555887 0.142073798,2 C0.0355267488,2 -0.000728844489,1.97113263 1.10655778e-05,1.86084445 C0.00445052598,1.28645772 0.00371061591,0.711330807 1.10655778e-05,0.13620389 C1.10655778e-05,0.0436802549 0.0192487273,-0.000731090027 0.125795777,9.09905559e-06 C0.706378543,0.00445023355 1.28720795,0.00445023355 1.86828398,9.09905559e-06 C1.96743193,9.09905559e-06 2.00072789,0.0288764733 1.99998798,0.130282378 C1.99554852,0.711577537 1.99554852,1.29262597 1.99998798,1.87342767 C1.99998798,1.98001489 1.96003283,2.00074019 1.86532434,1.99925981 C1.57231996,1.99703924 1.28079539,2 0.984831365,2 Z"></path>
                    <path d="M4.99994601,7.00003257 C5.26765578,6.99786441 5.52487654,7.10403755 5.71317073,7.2944307 C5.90146492,7.48482384 6.00484541,7.74327165 5.99982535,8.01105777 C5.99351428,8.56351241 5.54073693,9.00624707 4.98851882,8.9999333 C4.43630071,8.99361953 3.99375561,8.54064824 4.00006667,7.98819359 C4.00157721,7.72447509 4.1077942,7.47216941 4.29532969,7.28683178 C4.48286519,7.10149414 4.73634163,6.99832191 4.99994601,7.00003257 Z"></path>
                    <path d="M4.99994071,12.0000327 C5.26777452,11.9978602 5.52510531,12.1041116 5.71341951,12.2946269 C5.90173371,12.4851421 6.00502693,12.7437296 5.99981168,13.0115902 C5.9956016,13.3689013 5.80113699,13.6968238 5.48967078,13.8718324 C5.17820458,14.046841 4.79705592,14.0423477 4.4897998,13.8600452 C4.18254369,13.6777426 3.99585964,13.3453269 4.00006973,12.9880157 C4.00360884,12.4390928 4.45115622,11.9968665 4.99994071,12.0000327 Z"></path>
                    <path d="M1.63162375e-05,5.00568102 C-0.00150052642,4.74046345 0.102797698,4.48550865 0.289965673,4.29690594 C0.477133648,4.10830322 0.731838882,4.00150264 0.998046941,4 C1.35664644,4.00063434 1.68766636,4.19181928 1.8664147,4.50153729 C2.04516304,4.81125529 2.04448367,5.19245284 1.8646325,5.5015365 C1.68478134,5.81062016 1.35308205,6.00063277 0.994482546,5.99999842 C0.447884341,5.9904624 0.00763226348,5.55027621 1.63162375e-05,5.00568102 Z"></path>
                    <path d="M4.99570891,15.0000092 C5.40093999,14.9982762 5.76715419,15.2412773 5.92303103,15.615333 C6.07890786,15.9893886 5.9936261,16.4205376 5.70708184,16.7070818 C5.42053757,16.9936261 4.98938864,17.0789079 4.61533297,16.923031 C4.2412773,16.7671542 3.99827619,16.40094 4.00000921,15.9957089 C3.99943868,15.7314584 4.10415923,15.4778667 4.29101296,15.291013 C4.4778667,15.1041592 4.73145844,14.9994387 4.99570891,15.0000092 Z"></path>
                </g>
            </g>
        </g>
    </g>
</svg>