<?xml version="1.0" encoding="UTF-8"?>
<svg width="141px" height="141px" viewBox="0 0 141 141" version="1.1" xmlns="http://www.w3.org/2000/svg" xmlns:xlink="http://www.w3.org/1999/xlink">
    <!-- Generator: Sketch 52.3 (67297) - http://www.bohemiancoding.com/sketch -->
    <title>Group 22</title>
    <desc>Created with Sketch.</desc>
    <defs>
        <linearGradient x1="50%" y1="100%" x2="50%" y2="-135.487464%" id="linearGradient-1">
            <stop stop-color="#BD1CFF" offset="0%"></stop>
            <stop stop-color="#5527FD" offset="100%"></stop>
        </linearGradient>
        <rect id="path-2" x="0" y="0" width="61" height="61" rx="5"></rect>
        <filter x="-106.6%" y="-90.2%" width="313.1%" height="313.1%" filterUnits="objectBoundingBox" id="filter-3">
            <feOffset dx="0" dy="10" in="SourceAlpha" result="shadowOffsetOuter1"></feOffset>
            <feGaussianBlur stdDeviation="20" in="shadowOffsetOuter1" result="shadowBlurOuter1"></feGaussianBlur>
            <feComposite in="shadowBlurOuter1" in2="SourceAlpha" operator="out" result="shadowBlurOuter1"></feComposite>
            <feColorMatrix values="0 0 0 0 0   0 0 0 0 0   0 0 0 0 0  0 0 0 0.07 0" type="matrix" in="shadowBlurOuter1"></feColorMatrix>
        </filter>
        <linearGradient x1="50%" y1="0%" x2="50%" y2="100%" id="linearGradient-4">
            <stop stop-color="#C95FF4" offset="0%"></stop>
            <stop stop-color="#5527FD" offset="100%"></stop>
        </linearGradient>
        <rect id="path-5" x="0" y="0" width="61" height="61" rx="5"></rect>
        <filter x="-106.6%" y="-90.2%" width="313.1%" height="313.1%" filterUnits="objectBoundingBox" id="filter-6">
            <feOffset dx="0" dy="10" in="SourceAlpha" result="shadowOffsetOuter1"></feOffset>
            <feGaussianBlur stdDeviation="20" in="shadowOffsetOuter1" result="shadowBlurOuter1"></feGaussianBlur>
            <feComposite in="shadowBlurOuter1" in2="SourceAlpha" operator="out" result="shadowBlurOuter1"></feComposite>
            <feColorMatrix values="0 0 0 0 0   0 0 0 0 0   0 0 0 0 0  0 0 0 0.07 0" type="matrix" in="shadowBlurOuter1"></feColorMatrix>
        </filter>
    </defs>
    <g id="Page-1" stroke="none" stroke-width="1" fill="none" fill-rule="evenodd">
        <g id="Primium-Page-Design-for-Project-Manager" transform="translate(-651.000000, -1140.000000)">
            <g id="Group-22" transform="translate(691.000000, 1170.000000)">
                <g id="Group-4">
                    <g id="Rectangle">
                        <use fill="black" fill-opacity="1" filter="url(#filter-3)" xlink:href="#path-2"></use>
                        <rect stroke-opacity="0.03" stroke="#000000" stroke-width="1" stroke-linejoin="square" fill="url(#linearGradient-1)" fill-rule="evenodd" x="0.5" y="0.5" width="60" height="60" rx="5"></rect>
                    </g>
                    <g id="Rectangle">
                        <use fill="black" fill-opacity="1" filter="url(#filter-6)" xlink:href="#path-5"></use>
                        <rect stroke-opacity="0.03" stroke="#000000" stroke-width="1" stroke-linejoin="square" fill="url(#linearGradient-4)" fill-rule="evenodd" x="0.5" y="0.5" width="60" height="60" rx="5"></rect>
                    </g>
                </g>
                <g id="WooCommerce" transform="translate(17.000000, 25.000000)" fill="#FFFFFF">
                    <path d="M3.35500115,7.91772652 C3.50852252,7.69527758 3.64233088,7.46032026 3.75495643,7.21543539 C4.54317881,5.74632409 5.33140119,4.27649579 6.11962357,2.80595051 C6.20809415,2.63528047 6.3251433,2.4804073 6.46588622,2.34779428 C6.97432253,1.88318514 7.69095474,2.03375292 7.96160941,2.6575337 C8.12707037,3.03502863 8.15556033,3.44371259 8.24103023,3.84056623 C8.48338609,4.92631557 8.79855773,5.99516464 9.18448639,7.04013148 C9.20201868,7.08852826 9.20311445,7.14767989 9.27543513,7.18639732 C9.36419233,6.53465394 9.44089608,5.88506154 9.54389827,5.23977107 C9.80140372,3.62654489 10.1717733,2.04235679 10.9179912,0.567868067 C11.1804407,0.059393706 11.8121774,-0.145364556 12.3315318,0.109711833 C12.8969481,0.372129957 13.1654112,0.955042349 12.892565,1.47772763 C12.3567345,2.50158851 12.0729306,3.59643134 11.8636389,4.71493482 C11.5393292,6.35335819 11.3342675,8.0123629 11.2500089,9.6793695 C11.2313808,10.155809 11.3179465,10.6322484 11.2500089,11.1065369 C11.2006993,11.4775789 11.0516749,11.8066771 10.6637731,11.9443391 C10.2758712,12.082001 9.91098051,11.950792 9.6041655,11.6991287 C9.29735049,11.4474654 9.0409408,11.1054614 8.79000995,10.7849672 C7.79395692,9.51051849 7.2077211,8.04248268 6.72339168,6.52820104 C6.71133824,6.4905591 6.70147632,6.45291715 6.68613557,6.42065263 C6.68613557,6.40667133 6.66641175,6.39699198 6.64230486,6.37118036 C6.41328937,6.8153553 6.18646541,7.25307733 5.96073722,7.69187485 C5.52243006,8.55226215 5.0841229,9.41264944 4.63266652,10.2644329 C4.39544626,10.6995304 4.11188302,11.1087099 3.7867337,11.4851073 C3.62002188,11.6923223 3.39927151,11.8513827 3.14790101,11.9454145 C2.90742052,12.0428956 2.63026092,11.973795 2.46633338,11.775488 C2.22745597,11.5249002 2.10582574,11.2108589 1.98638703,10.8989685 C1.51958991,9.68367144 1.25222254,8.41567566 0.983759402,7.14875538 C0.731732784,5.95174155 0.473131559,4.75472773 0.284659479,3.54588359 C0.183848832,2.89521569 0.0161963428,2.25530265 0.000855592182,1.59065346 C-0.0146694463,1.2072732 0.182014878,0.845564261 0.515162807,0.644825572 C0.848310736,0.444086884 1.26595352,0.435632286 1.60725134,0.622717757 C1.93598171,0.789417795 2.05980348,1.08517593 2.11240034,1.418576 C2.3731931,3.06729315 2.63179433,4.71708579 2.98901467,6.34967068 C3.09420838,6.85192176 3.22131746,7.35094639 3.35500115,7.91772652 Z" id="Path"></path>
                    <path d="M26.9999957,5.84309796 C26.9904703,7.40181199 26.5194921,8.78906748 25.4833402,9.97680757 C24.0418295,11.6280053 21.1492827,11.2570314 20.3480906,9.0353443 C19.7331731,7.33115029 19.9691913,5.69657884 20.7714418,4.10772966 C21.0715775,3.52283857 21.4947252,3.00714721 22.012919,2.59473791 C23.1432666,1.66782263 25.3753856,1.76342376 26.3395679,3.31486379 C26.8073709,4.07032053 27.0010541,4.79668127 26.9999957,5.84309796 Z M22.060546,7.07240376 C22.0588759,7.47946749 22.1488678,7.88186165 22.3240821,8.25079157 C22.6468874,8.96052602 23.1390331,9.09249714 23.7846436,8.65190064 C24.3445255,8.26949613 24.6048865,7.70212423 24.7805772,7.08487347 C25.0240042,6.23173732 25.0451717,5.38587517 24.6228789,4.57534387 C24.2990153,3.95185826 23.7359583,3.85521799 23.1983023,4.31451906 C23.1219956,4.37979333 23.0512052,4.45103483 22.9866267,4.52754331 C22.3717288,5.2363105 22.0423145,6.14153779 22.060546,7.07240376 Z" id="Shape" fill-rule="nonzero"></path>
                    <path d="M12,7.44002055 C12,5.78659321 12.3573707,4.54548412 13.1699637,3.45496985 C13.6368856,2.83181885 14.1910229,2.27409869 15.0068067,2.09130773 C16.5415863,1.74753609 18.0604119,2.3706871 18.6794291,4.02515303 C19.1420965,5.26106919 19.0655171,6.51775706 18.6943195,7.76405907 C18.4431982,8.64858575 17.9676321,9.45696367 17.3116352,10.114377 C16.6041273,10.8249445 15.5761434,11.1371388 14.5807205,10.943744 C13.5852976,10.7503492 12.7579825,10.0776998 12.3828972,9.15680157 C12.1412264,8.61459063 12.0111249,8.03126008 12,7.44002055 Z M14.0548817,6.75870878 C14.0421184,7.4711781 14.1697508,7.96554456 14.4175704,8.44225508 C14.614337,8.81926144 14.9610717,8.99166656 15.359923,8.84730324 C15.5496573,8.77576472 15.7255365,8.67321109 15.880025,8.54403641 C16.4330988,8.08809759 16.6543283,7.46079225 16.815996,6.80648369 C17.017017,5.99431021 16.9532008,5.20602418 16.5224415,4.470706 C16.239523,3.98880255 15.7779191,3.8953299 15.3003612,4.19859672 C15.1753613,4.27901883 15.0628816,4.37661011 14.9663898,4.48836194 C14.4156072,5.12720523 14.094323,5.92465509 14.0516909,6.75870878 L14.0548817,6.75870878 Z" id="Shape" fill-rule="nonzero"></path>
                </g>
            </g>
        </g>
    </g>
</svg>