<?xml version="1.0" encoding="iso-8859-1"?>
<!-- Generator: Adobe Illustrator 19.0.0, SVG Export Plug-In . SVG Version: 6.00 Build 0)  -->
<svg version="1.1" id="Layer_1" xmlns="http://www.w3.org/2000/svg" xmlns:xlink="http://www.w3.org/1999/xlink" x="0px" y="0px"
	 viewBox="15 -15 80 80" style="enable-background:new 15 -15 80 80;" xml:space="preserve">
<path id="XMLID_93_" style="fill:#4B4B4B;" d="M16.131,24.921c0-11.185,0-22.369,0-33.554c0-3.189,2.058-5.236,5.262-5.236
	c22.42,0,44.84,0,67.26,0c3.147,0,5.215,2.064,5.216,5.204c0.001,22.445,0,44.891,0,67.336c0,3.135-2.074,5.198-5.224,5.198
	c-22.42,0-44.84,0-67.26,0c-3.204,0-5.254-2.045-5.254-5.242C16.131,47.392,16.131,36.157,16.131,24.921z M25.876,54.105
	c19.455,0,38.845,0,58.223,0c0-8.107,0-16.161,0-24.249c-2.258,0-4.457-0.016-6.656,0.022c-0.254,0.004-0.584,0.253-0.742,0.483
	c-1.13,1.641-2.225,3.307-3.332,4.965c-2.422,3.629-4.839,7.262-7.269,10.886c-0.843,1.257-1.908,1.247-2.765,0.002
	c-0.072-0.104-0.15-0.203-0.221-0.309c-4.684-7.032-9.366-14.064-14.051-21.095c-1.239-1.86-2.487-3.715-3.775-5.638
	c-0.191,0.274-0.335,0.473-0.471,0.677c-2.072,3.105-4.153,6.205-6.204,9.324c-0.323,0.492-0.658,0.705-1.271,0.699
	c-3.542-0.033-7.084-0.016-10.626-0.016c-0.27,0-0.54,0-0.841,0C25.876,37.977,25.876,46.014,25.876,54.105z M84.102,20.144
	c0-8.151,0-16.206,0-24.242c-19.446,0-38.837,0-58.22,0c0,8.097,0,16.134,0,24.241c2.158,0,4.277-0.015,6.395,0.011
	c0.51,0.006,0.809-0.147,1.098-0.585c3.405-5.154,6.836-10.291,10.261-15.432c0.084-0.126,0.177-0.246,0.264-0.371
	c0.864-1.238,1.919-1.238,2.769,0.035c4.96,7.424,9.911,14.854,14.866,22.281c1.043,1.563,2.091,3.123,3.173,4.739
	c0.187-0.259,0.324-0.435,0.447-0.62c2.029-3.042,4.082-6.068,6.064-9.14c0.453-0.702,0.925-0.95,1.754-0.939
	C76.666,20.172,80.358,20.144,84.102,20.144z"/>
<path id="XMLID_38_" style="display:none;fill:#C9C9C9;" d="M16.131,24.921c0-11.185,0-22.369,0-33.554
	c0-3.189,2.058-5.236,5.262-5.236c22.42,0,44.84,0,67.26,0c3.147,0,5.215,2.064,5.216,5.204c0.001,22.445,0,44.891,0,67.336
	c0,3.135-2.074,5.198-5.224,5.198c-22.42,0-44.84,0-67.26,0c-3.204,0-5.254-2.045-5.254-5.242
	C16.131,47.392,16.131,36.157,16.131,24.921z M25.876,54.105c19.455,0,38.845,0,58.223,0c0-8.107,0-16.161,0-24.249
	c-2.258,0-4.457-0.016-6.656,0.022c-0.254,0.004-0.584,0.253-0.742,0.483c-1.13,1.641-2.225,3.307-3.332,4.965
	c-2.422,3.629-4.839,7.262-7.269,10.886c-0.843,1.257-1.908,1.247-2.765,0.002c-0.072-0.104-0.15-0.203-0.221-0.309
	c-4.684-7.032-9.366-14.064-14.051-21.095c-1.239-1.86-2.487-3.715-3.775-5.638c-0.191,0.274-0.335,0.473-0.471,0.677
	c-2.072,3.105-4.153,6.205-6.204,9.324c-0.323,0.492-0.658,0.705-1.271,0.699c-3.542-0.033-7.084-0.016-10.626-0.016
	c-0.27,0-0.54,0-0.841,0C25.876,37.977,25.876,46.014,25.876,54.105z M84.102,20.144c0-8.151,0-16.206,0-24.242
	c-19.446,0-38.837,0-58.22,0c0,8.097,0,16.134,0,24.241c2.158,0,4.277-0.015,6.395,0.011c0.51,0.006,0.809-0.147,1.098-0.585
	c3.405-5.154,6.836-10.291,10.261-15.432c0.084-0.126,0.177-0.246,0.264-0.371c0.864-1.238,1.919-1.238,2.769,0.035
	c4.96,7.424,9.911,14.854,14.866,22.281c1.043,1.563,2.091,3.123,3.173,4.739c0.187-0.259,0.324-0.435,0.447-0.62
	c2.029-3.042,4.082-6.068,6.064-9.14c0.453-0.702,0.925-0.95,1.754-0.939C76.666,20.172,80.358,20.144,84.102,20.144z"/>
</svg>
