<svg id="Layer_1" data-name="Layer 1" xmlns="http://www.w3.org/2000/svg" viewBox="0 0 78 70.07"><defs><style>.cls-1{fill:#818181;}</style></defs><title>Attach File Hover</title><path class="cls-1" d="M195.34,75.71a16.35,16.35,0,0,1-4.76,11.76q-18.09,18.25-36.35,36.32a21.34,21.34,0,0,1-15.53,6.44,18,18,0,0,1-9.72-3.06,27.21,27.21,0,0,1-9.23-9.72c-3.26-5.89-3.11-11.88-.25-17.88a24.8,24.8,0,0,1,4.92-6.94q13.22-13.2,26.43-26.42c1.19-1.19,2.26-1.52,3.48-.9A4.09,4.09,0,0,1,157,68.87a3,3,0,0,1-1.08,2.23l-13,13C138.24,88.73,133.55,93.33,129,98a14.24,14.24,0,0,0-4.39,11.6,12,12,0,0,0,1.79,5.16,18.81,18.81,0,0,0,6.49,6.48,12.35,12.35,0,0,0,11.83.66,16.19,16.19,0,0,0,5-3.44l35.56-35.56a10.09,10.09,0,0,0,2.37-3.6,7.37,7.37,0,0,0-.48-6.51,11.56,11.56,0,0,0-4.66-4.56,8.07,8.07,0,0,0-9.19,1.17c-0.26.22-.5,0.46-0.74,0.69Q158.69,84,144.81,97.94a8.46,8.46,0,0,0-1.68,2.65,3.16,3.16,0,0,0,4.06,3.81,8.51,8.51,0,0,0,2.49-1.65q10-9.86,19.84-19.8c1.21-1.21,2.27-1.48,3.55-.91,1.51,0.67,2.7,2.28,2.53,3.68a3.35,3.35,0,0,1-.84,1.84q-10.25,10.34-20.59,20.59a12.08,12.08,0,0,1-7.27,3.55,9.36,9.36,0,0,1-8.05-3.26c-3.79-4-4-8.83-.63-13.56A14.72,14.72,0,0,1,139.78,93c9.31-9.33,18.61-18.68,28-28a15.83,15.83,0,0,1,11.72-4.91,13.82,13.82,0,0,1,8.24,3c3.15,2.4,5.74,5.26,6.95,9.13A27.15,27.15,0,0,1,195.34,75.71Z" transform="translate(-117.34 -60.17)"/></svg>