<?xml version="1.0" encoding="UTF-8"?>
<svg width="256px" height="37px" viewBox="0 0 256 37" version="1.1" xmlns="http://www.w3.org/2000/svg" xmlns:xlink="http://www.w3.org/1999/xlink">
    <!-- Generator: Sketch 52.1 (67048) - http://www.bohemiancoding.com/sketch -->
    <title>bitbucket</title>
    <desc>Created with Sketch.</desc>
    <defs>
        <linearGradient x1="108.63338%" y1="13.818022%" x2="46.9265964%" y2="78.7761408%" id="linearGradient-1">
            <stop stop-color="#0052CC" offset="18%"></stop>
            <stop stop-color="#2684FF" offset="100%"></stop>
        </linearGradient>
    </defs>
    <g id="Page-1" stroke="none" stroke-width="1" fill="none" fill-rule="evenodd">
        <g id="bitbucket" transform="translate(-0.577318, 0.000000)">
            <path d="M68.0484406,2.64411519 C74.8607898,2.64411519 78.1515008,5.99255801 78.1515008,11.3847056 C78.1515008,15.4259297 76.3214036,17.8853032 72.5630652,18.8032384 C77.4933586,19.6114832 79.9296394,22.307557 79.9296394,27.030016 C79.9296394,32.3644318 76.3214036,36.0246262 68.8566854,36.0246262 L55.0934308,36.0246262 L55.0934308,2.64411519 L68.0484406,2.64411519 Z M59.6657872,7.01441039 L59.6657872,16.9731412 L67.4364838,16.9731412 C71.7548204,16.9731412 73.532959,14.9929414 73.532959,11.7772816 C73.532959,8.5616219 71.6047178,7.00286404 67.4364838,7.00286404 L59.6657872,7.01441039 Z M59.6657872,21.0432312 L59.6657872,31.4349503 L69.0183343,31.4349503 C73.3886295,31.4349503 75.3688294,29.8588729 75.3688294,26.5046569 C75.3688294,22.9483797 73.4867736,21.0201385 68.9201903,21.0201385 L59.6657872,21.0432312 Z M87.405904,0.865976592 C88.2310361,0.806930977 89.0411504,1.10907075 89.6260989,1.69401924 C90.2110474,2.27896772 90.5131872,3.08908203 90.4541416,3.91421419 C90.4541416,5.59770934 89.0893991,6.9624518 87.405904,6.9624518 C85.7224088,6.9624518 84.3576664,5.59770934 84.3576664,3.91421419 C84.2986208,3.08908203 84.6007605,2.27896772 85.185709,1.69401924 C85.7706575,1.10907075 86.5807718,0.806930977 87.405904,0.865976592 Z M85.1716844,10.6226462 L89.5419796,10.6226462 L89.5419796,36.0246262 L85.1716844,36.0246262 L85.1716844,10.6226462 Z M106.226462,31.752475 C107.150198,31.7249133 108.068859,31.6050038 108.968721,31.394538 L108.968721,35.6089574 C108.011401,35.882561 107.020036,36.0186307 106.024401,36.0130799 C100.586068,36.0130799 97.9419525,32.8147396 97.9419525,28.0865075 L97.9419525,14.6811898 L93.8256771,14.6811898 L93.8256771,10.6399657 L97.9419525,10.6399657 L97.9419525,5.23049861 L102.185238,5.23049861 L102.185238,10.616873 L108.939855,10.616873 L108.939855,14.6580971 L102.185238,14.6580971 L102.185238,27.9941366 C102.185238,30.2283562 103.513069,31.7467018 106.226462,31.7467018 L106.226462,31.752475 Z M126.981034,36.5268926 C123.274654,36.5268926 120.428478,34.8526712 118.898586,31.5504138 L118.898586,36.018853 L114.528291,36.018853 L114.528291,0 L118.927452,0 L118.927452,15.1834562 C120.555488,11.8350134 123.603726,10.1030602 127.512167,10.1030602 C134.266784,10.1030602 137.672959,15.8415984 137.672959,23.3120898 C137.649866,30.4708297 134.093589,36.5211195 126.981034,36.5211195 L126.981034,36.5268926 Z M126.317119,14.1731502 C122.391358,14.1731502 118.927452,16.6556164 118.927452,22.3017838 L118.927452,24.3339422 C118.927452,29.9743364 122.125792,32.4625758 125.855265,32.4625758 C130.785558,32.4625758 133.325756,29.212277 133.325756,23.317863 C133.279571,17.2213878 130.84329,14.1731502 126.317119,14.1731502 Z M142.222222,10.616873 L146.592517,10.616873 L146.592517,25.9792977 C146.592517,30.5516542 148.422615,32.5838126 152.585075,32.5838126 C156.6263,32.5838126 159.44361,29.8935119 159.44361,24.7611573 L159.44361,10.6226462 L163.813905,10.6226462 L163.813905,36.0246262 L159.44361,36.0246262 L159.44361,31.8563922 C157.857245,34.7966295 154.759064,36.6020447 151.418894,36.5326658 C145.576438,36.5326658 142.222222,32.4914417 142.222222,25.5058972 L142.222222,10.616873 Z M188.349909,35.3607108 C186.82579,36.1689556 184.48188,36.5153463 182.149516,36.5153463 C173.108721,36.5153463 168.871209,31.0308279 168.871209,23.2370385 C168.871209,15.5587128 173.085628,10.0741943 182.149516,10.0741943 C184.238179,10.0149288 186.311853,10.4438968 188.205579,11.3269738 L188.205579,15.3681979 C186.4004,14.5260284 184.42357,14.1168244 182.432402,14.1731502 C175.827887,14.1731502 173.137587,18.3298379 173.137587,23.2659044 C173.137587,28.201971 175.879846,32.3586586 182.536319,32.3586586 C184.500339,32.4107911 186.457221,32.1016036 188.309496,31.4464966 L188.349909,35.3607108 Z M193.332161,36.018853 L193.332161,0 L197.702456,0 L197.702456,22.5153914 L208.625307,10.6226462 L214.31766,10.6226462 L202.372956,23.0927091 L214.819926,36.0246262 L208.873554,36.0246262 L197.696683,24.131881 L197.696683,36.0246262 L193.332161,36.018853 Z M229.299055,36.5268926 C219.796405,36.5268926 215.633944,31.0423742 215.633944,23.2485849 C215.633944,15.5702591 219.906096,10.0857407 227.624834,10.0857407 C235.447489,10.0857407 238.593871,15.5240737 238.593871,23.2485849 L238.593871,25.2287847 L220.050425,25.2287847 C220.662382,29.5471213 223.4566,32.3413391 229.449158,32.3413391 C232.084222,32.3407869 234.698735,31.8776781 237.173669,30.9730961 L237.173669,35.0143202 C235.095325,36.1227702 231.891212,36.5268926 229.299055,36.5268926 Z M220.00424,21.5166317 L234.17739,21.5166317 C233.92337,16.7941727 231.787294,14.0980989 227.422772,14.0980989 C222.792684,14.0750062 220.460321,17.0712852 220.00424,21.4877658 L220.00424,21.5166317 Z M253.835059,31.752475 C254.758794,31.7249133 255.677456,31.6050038 256.577318,31.394538 L256.577318,35.6089574 C255.619998,35.882561 254.628633,36.0186307 253.632997,36.0130799 C248.194664,36.0130799 245.550549,32.8147396 245.550549,28.0865075 L245.550549,14.6811898 L241.434274,14.6811898 L241.434274,10.6399657 L245.550549,10.6399657 L245.550549,5.23049861 L249.8227,5.23049861 L249.8227,10.616873 L256.577318,10.616873 L256.577318,14.6580971 L249.8227,14.6580971 L249.8227,27.9941366 C249.828473,30.2283562 251.138985,31.7467018 253.840832,31.7467018 L253.835059,31.752475 Z" id="Shape" fill="#253858" fill-rule="nonzero"></path>
            <path d="M1.73195318,3.61400898 C1.3908534,3.60960963 1.06526616,3.75626731 0.842530067,4.01464117 C0.619793979,4.27301503 0.522708854,4.6166573 0.577317728,4.9533861 L5.48451841,34.7083418 C5.6105758,35.459949 6.25810479,36.0125396 7.02018357,36.018853 L30.5401078,36.018853 C31.1121059,36.026215 31.6032634,35.6136427 31.6947433,35.0489592 L36.6019439,4.96493246 C36.6565528,4.62820365 36.5594677,4.28456139 36.3367316,4.02618752 C36.1139955,3.76781366 35.7884083,3.62115598 35.4473085,3.62555533 L1.73195318,3.61400898 Z M22.3710619,25.1133212 L14.8659315,25.1133212 L12.8337731,14.490675 L24.1896128,14.490675 L22.3710619,25.1133212 Z" id="Shape" fill="#2684FF" fill-rule="nonzero"></path>
            <path d="M35.0258665,14.5022213 L24.1896128,14.5022213 L22.3710619,25.1248675 L14.8659315,25.1248675 L6.00410437,35.6378233 C6.28498513,35.8807024 6.64309558,36.0157612 7.01441039,36.018853 L30.5401078,36.018853 C31.1121059,36.026215 31.6032634,35.6136427 31.6947433,35.0489592 L35.0258665,14.5022213 Z" id="Path" fill="url(#linearGradient-1)"></path>
        </g>
    </g>
</svg>