<?xml version="1.0" encoding="iso-8859-1"?>
<!-- Generator: Adobe Illustrator 19.0.0, SVG Export Plug-In . SVG Version: 6.00 Build 0)  -->
<svg version="1.1" id="Layer_1" xmlns="http://www.w3.org/2000/svg" xmlns:xlink="http://www.w3.org/1999/xlink" x="0px" y="0px"
	 viewBox="-362 223.578 234.79 135.424" style="enable-background:new -362 223.578 234.79 135.424;" xml:space="preserve">
<path id="XMLID_430_" style="fill:#FFFFFF;stroke:#F7F7F7;stroke-width:1.8928;stroke-miterlimit:10;" d="M-209.491,358.055h-65.907
	c-1.774,0-3.213-1.438-3.213-3.213v-89.479c0-1.774,1.438-3.213,3.213-3.213h65.907c1.774,0,3.213,1.438,3.213,3.213v89.479
	C-206.278,356.617-207.716,358.055-209.491,358.055z"/>
<path id="XMLID_409_" style="fill:#F7F7F7;" d="M-224.421,255.42h-11.318c-0.623,0-1.199-0.298-1.584-0.788
	c-1.231-1.568-3.14-2.577-5.289-2.577c-2.148,0-4.057,1.009-5.289,2.577c-0.385,0.49-0.961,0.788-1.584,0.788h-11.318
	c-1.105,0-2,0.895-2,2v7.778c0,1.105,0.895,2,2,2h36.381c1.105,0,2-0.895,2-2v-7.778
	C-222.421,256.316-223.316,255.42-224.421,255.42z M-242.611,261.309c-1.394,0-2.524-1.13-2.524-2.524
	c0-1.394,1.13-2.524,2.524-2.524c1.394,0,2.524,1.13,2.524,2.524C-240.087,260.179-241.217,261.309-242.611,261.309z"/>
<path id="XMLID_400_" style="fill:none;stroke:#F7F7F7;stroke-width:2;stroke-miterlimit:10;" d="M-260.886,291.012h-6
	c-1.105,0-2-0.895-2-2v-6c0-1.105,0.895-2,2-2h6c1.105,0,2,0.895,2,2v6C-258.886,290.117-259.781,291.012-260.886,291.012z"/>
<path id="XMLID_330_" style="fill:none;stroke:#F7F7F7;stroke-width:2;stroke-miterlimit:10;" d="M-173.015,264.858l-5.647,2.029
	c-1.04,0.374-2.185-0.166-2.558-1.206l-2.029-5.647c-0.374-1.04,0.166-2.185,1.206-2.558l5.647-2.029
	c1.04-0.374,2.185,0.166,2.558,1.206l2.029,5.647C-171.435,263.339-171.975,264.485-173.015,264.858z"/>
<path id="XMLID_342_" style="fill:none;stroke:#F7F7F7;stroke-width:1.2;stroke-miterlimit:10;" d="M-162.317,235.222l-3.581-0.368
	c-0.659-0.068-1.139-0.657-1.071-1.316l0.368-3.581c0.068-0.659,0.657-1.139,1.316-1.071l3.581,0.368
	c0.659,0.068,1.139,0.657,1.071,1.316l-0.367,3.581C-161.068,234.811-161.657,235.29-162.317,235.222z"/>
<path id="XMLID_343_" style="fill:none;stroke:#F7F7F7;stroke-width:0.757;stroke-miterlimit:10;" d="M-130.881,230.345
	l-1.243-1.901c-0.229-0.35-0.131-0.819,0.219-1.048l1.901-1.243c0.35-0.229,0.819-0.131,1.048,0.219l1.243,1.901
	c0.229,0.35,0.131,0.819-0.219,1.048l-1.901,1.243C-130.183,230.793-130.652,230.695-130.881,230.345z"/>
<path id="XMLID_345_" style="fill:none;stroke:#F7F7F7;stroke-width:1.2457;stroke-miterlimit:10;" d="M-144.773,258.95
	l-2.715-2.568c-0.5-0.473-0.522-1.261-0.049-1.761l2.568-2.715c0.473-0.5,1.261-0.522,1.761-0.049l2.715,2.568
	c0.5,0.473,0.522,1.261,0.049,1.761l-2.568,2.715C-143.485,259.4-144.273,259.422-144.773,258.95z"/>
<path id="XMLID_346_" style="fill:none;stroke:#F7F7F7;stroke-width:0.6454;stroke-miterlimit:10;" d="M-127.876,278.245
	l-0.658,1.821c-0.121,0.335-0.491,0.509-0.826,0.387l-1.821-0.658c-0.335-0.121-0.509-0.491-0.387-0.826l0.658-1.821
	c0.121-0.335,0.491-0.509,0.826-0.387l1.821,0.658C-127.928,277.54-127.754,277.91-127.876,278.245z"/>
<path id="XMLID_332_" style="fill:none;stroke:#F7F7F7;stroke-width:1.585;stroke-miterlimit:10;" d="M-303.092,252.971
	l-4.352-1.916c-0.801-0.353-1.165-1.288-0.812-2.089l1.916-4.352c0.353-0.801,1.288-1.165,2.089-0.812l4.352,1.916
	c0.801,0.353,1.165,1.288,0.812,2.089l-1.916,4.352C-301.355,252.96-302.29,253.324-303.092,252.971z"/>
<path id="XMLID_337_" style="fill:none;stroke:#F7F7F7;stroke-width:0.8903;stroke-miterlimit:10;" d="M-325.906,229.321
	l-1.889-1.889c-0.348-0.348-0.348-0.911,0-1.259l1.889-1.889c0.348-0.348,0.911-0.348,1.259,0l1.889,1.889
	c0.348,0.348,0.348,0.911,0,1.259l-1.889,1.889C-324.995,229.669-325.558,229.669-325.906,229.321z"/>
<path id="XMLID_339_" style="fill:none;stroke:#F7F7F7;stroke-width:1.175;stroke-miterlimit:10;" d="M-326.746,277.127
	l-3.317,1.192c-0.611,0.219-1.284-0.098-1.503-0.708l-1.192-3.317c-0.219-0.611,0.098-1.284,0.708-1.503l3.317-1.192
	c0.611-0.219,1.284,0.098,1.503,0.708l1.192,3.317C-325.818,276.235-326.136,276.908-326.746,277.127z"/>
<path id="XMLID_340_" style="fill:none;stroke:#F7F7F7;stroke-width:1.0869;stroke-miterlimit:10;" d="M-331.445,253.244l-3.18-0.72
	c-0.585-0.133-0.953-0.715-0.82-1.3l0.72-3.18c0.133-0.585,0.715-0.953,1.3-0.82l3.18,0.72c0.585,0.133,0.953,0.715,0.82,1.3
	l-0.72,3.18C-330.278,253.009-330.86,253.377-331.445,253.244z"/>
<path id="XMLID_341_" style="fill:none;stroke:#F7F7F7;stroke-width:0.8393;stroke-miterlimit:10;" d="M-357.236,262.716
	l-2.37,0.851c-0.436,0.157-0.917-0.07-1.074-0.506l-0.851-2.37c-0.157-0.436,0.07-0.917,0.506-1.074l2.37-0.851
	c0.436-0.157,0.917,0.07,1.074,0.506l0.851,2.37C-356.573,262.079-356.8,262.559-357.236,262.716z"/>
<path id="XMLID_347_" style="fill:none;stroke:#F7F7F7;stroke-width:0.5329;stroke-miterlimit:10;" d="M-356.372,229.342
	l-1.505,0.541c-0.277,0.1-0.582-0.044-0.682-0.321l-0.54-1.505c-0.1-0.277,0.044-0.582,0.321-0.682l1.504-0.541
	c0.277-0.1,0.582,0.044,0.682,0.321l0.541,1.504C-355.951,228.937-356.095,229.243-356.372,229.342z"/>
<path id="XMLID_379_" style="fill:#F7F7F7;" d="M-225.361,285.012h-21.97c-0.552,0-1-0.448-1-1l0,0c0-0.552,0.448-1,1-1h21.97
	c0.552,0,1,0.448,1,1l0,0C-224.361,284.565-224.809,285.012-225.361,285.012z"/>
<path id="XMLID_323_" style="fill:#F7F7F7;" d="M-220.111,290.012h-27.22c-0.552,0-1-0.448-1-1l0,0c0-0.552,0.448-1,1-1h27.22
	c0.552,0,1,0.448,1,1l0,0C-219.111,289.565-219.559,290.012-220.111,290.012z"/>
<polyline id="XMLID_316_" style="fill:none;stroke:#F7F7F7;stroke-width:2;stroke-linecap:round;stroke-linejoin:round;stroke-miterlimit:10;" points="
	-265.045,284.777 -262.481,287.341 -256.308,281.168 "/>
<path id="XMLID_321_" style="fill:none;stroke:#F7F7F7;stroke-width:2;stroke-miterlimit:10;" d="M-260.886,315.012h-6
	c-1.105,0-2-0.895-2-2v-6c0-1.105,0.895-2,2-2h6c1.105,0,2,0.895,2,2v6C-258.886,314.117-259.781,315.012-260.886,315.012z"/>
<path id="XMLID_319_" style="fill:#F7F7F7;" d="M-220.111,309.012h-27.22c-0.552,0-1-0.448-1-1l0,0c0-0.552,0.448-1,1-1h27.22
	c0.552,0,1,0.448,1,1l0,0C-219.111,308.565-219.559,309.012-220.111,309.012z"/>
<path id="XMLID_326_" style="fill:#F7F7F7;" d="M-229.861,314.012h-17.47c-0.552,0-1-0.448-1-1l0,0c0-0.552,0.448-1,1-1h17.47
	c0.552,0,1,0.448,1,1l0,0C-228.861,313.565-229.309,314.012-229.861,314.012z"/>
<polyline id="XMLID_315_" style="fill:none;stroke:#F7F7F7;stroke-width:2;stroke-linecap:round;stroke-linejoin:round;stroke-miterlimit:10;" points="
	-265.045,308.777 -262.481,311.341 -256.308,305.168 "/>
<path id="XMLID_322_" style="fill:none;stroke:#F7F7F7;stroke-width:2;stroke-miterlimit:10;" d="M-260.886,339.012h-6
	c-1.105,0-2-0.895-2-2v-6c0-1.105,0.895-2,2-2h6c1.105,0,2,0.895,2,2v6C-258.886,338.117-259.781,339.012-260.886,339.012z"/>
<path id="XMLID_317_" style="fill:#F7F7F7;" d="M-223.421,333.012h-23.911c-0.552,0-1-0.448-1-1l0,0c0-0.552,0.448-1,1-1h23.911
	c0.552,0,1,0.448,1,1l0,0C-222.421,332.565-222.868,333.012-223.421,333.012z"/>
<path id="XMLID_327_" style="fill:#F7F7F7;" d="M-227.611,338.012h-19.72c-0.552,0-1-0.448-1-1l0,0c0-0.552,0.448-1,1-1h19.72
	c0.552,0,1,0.448,1,1l0,0C-226.611,337.565-227.059,338.012-227.611,338.012z"/>
<polyline id="XMLID_314_" style="fill:none;stroke:#F7F7F7;stroke-width:2;stroke-linecap:round;stroke-linejoin:round;stroke-miterlimit:10;" points="
	-265.045,332.777 -262.481,335.341 -256.308,329.168 "/>
<path id="XMLID_312_" style="fill:none;stroke:#C5F3FF;stroke-width:0.8413;stroke-miterlimit:10;" d="M-222.421,265.515"/>
<path id="XMLID_311_" style="fill:none;stroke:#C5F3FF;stroke-width:0.8413;stroke-miterlimit:10;" d="M-262.802,265.515"/>
<g id="XMLID_364_">
	<g id="XMLID_371_">
		<path id="XMLID_384_" style="fill:#F7F7F7;" d="M-179.064,334.218c-0.332-0.141-0.542-0.465-0.534-0.826l0.111-5.013
			c0.007-0.367,0.085-0.725,0.23-1.065l18.557-43.571c0.081-0.191,0.302-0.28,0.493-0.198c0.191,0.082,0.28,0.302,0.199,0.493
			l-18.557,43.571c-0.107,0.252-0.164,0.517-0.17,0.787l-0.111,5.013c-0.001,0.074,0.048,0.106,0.077,0.118l0,0
			c0.036,0.015,0.089,0.023,0.138-0.027l3.537-3.553c0.193-0.193,0.344-0.418,0.451-0.668l18.557-43.571
			c0.081-0.191,0.302-0.28,0.493-0.198c0.191,0.082,0.28,0.302,0.199,0.493l-18.557,43.571c-0.144,0.338-0.35,0.643-0.61,0.904
			l-3.537,3.553c-0.254,0.255-0.633,0.329-0.964,0.189C-179.064,334.218-179.064,334.218-179.064,334.218z"/>
	</g>
	<g id="XMLID_370_">
		<path id="XMLID_383_" style="fill:#F7F7F7;" d="M-175.556,329.179c-0.827-0.352-1.213-1.311-0.861-2.137
			c0.081-0.191,0.302-0.28,0.493-0.198s0.28,0.302,0.199,0.493c-0.189,0.445,0.019,0.962,0.464,1.151
			c0.445,0.189,0.962-0.019,1.151-0.464c0.081-0.191,0.302-0.28,0.493-0.198s0.28,0.302,0.199,0.493
			C-173.771,329.145-174.729,329.531-175.556,329.179z"/>
	</g>
	<g id="XMLID_369_">
		<path id="XMLID_382_" style="fill:#F7F7F7;" d="M-177.862,328.196c-0.827-0.352-1.213-1.311-0.861-2.137
			c0.081-0.191,0.302-0.28,0.493-0.199c0.191,0.082,0.28,0.302,0.198,0.493c-0.189,0.445,0.019,0.962,0.464,1.151
			s0.962-0.019,1.151-0.464c0.081-0.191,0.302-0.28,0.493-0.198s0.28,0.302,0.199,0.493
			C-176.077,328.162-177.036,328.548-177.862,328.196z"/>
	</g>
	<g id="XMLID_368_">
		<path id="XMLID_381_" style="fill:#F7F7F7;" d="M-176.218,327.534c-0.191-0.082-0.28-0.302-0.199-0.493l18.022-42.317
			c0.081-0.191,0.302-0.28,0.493-0.198s0.28,0.302,0.199,0.493l-18.022,42.317C-175.806,327.527-176.027,327.616-176.218,327.534z"
			/>
	</g>
	<g id="XMLID_367_">
		<polygon id="XMLID_376_" style="fill:#F7F7F7;" points="-179.18,331.492 -177.018,332.411 -178.894,333.817 		"/>
	</g>
	<g id="XMLID_366_">
		<path id="XMLID_377_" style="fill:#F7F7F7;" d="M-155.754,285.882l-4.613-1.965c-0.191-0.082-0.28-0.302-0.199-0.493l0.778-1.827
			c0.171-0.402,0.489-0.713,0.893-0.876c1.686-0.678,3.746,0.199,4.423,1.884c0.164,0.406,0.159,0.85-0.012,1.252l-0.778,1.827
			C-155.342,285.874-155.563,285.964-155.754,285.882z M-159.727,283.373l3.921,1.67l0.631-1.481
			c0.092-0.217,0.095-0.457,0.006-0.677l0,0c-0.527-1.312-2.132-1.994-3.445-1.467c-0.218,0.088-0.39,0.256-0.482,0.473
			L-159.727,283.373z"/>
	</g>
	<g id="XMLID_365_">
		
			<rect id="XMLID_372_" x="-160.414" y="284.14" transform="matrix(-0.92 -0.3918 0.3918 -0.92 -414.6662 484.4129)" style="fill:#F7F7F7;" width="5.014" height="0.752"/>
		<path id="XMLID_373_" style="fill:#F7F7F7;" d="M-155.889,286.199l-4.613-1.965c-0.191-0.082-0.28-0.302-0.199-0.493l0.295-0.692
			c0.081-0.191,0.302-0.28,0.493-0.198l4.613,1.965c0.191,0.082,0.28,0.302,0.199,0.493l-0.295,0.692
			C-155.477,286.191-155.698,286.281-155.889,286.199z M-159.862,283.69l3.922,1.67L-159.862,283.69z"/>
	</g>
</g>
<path id="XMLID_385_" style="fill:none;stroke:#F7F7F7;stroke-width:0.6;stroke-miterlimit:10;" d="M-317.442,325.624h-11.599
	c-0.794,0-1.438-0.644-1.438-1.438v-17.693c0-0.794,0.644-1.438,1.438-1.438h11.599c0.794,0,1.438,0.644,1.438,1.438v17.694
	C-316.005,324.981-316.648,325.624-317.442,325.624z"/>
<path id="XMLID_386_" style="fill:#F7F7F7;" d="M-317.442,325.624h-11.599c-0.794,0-1.438-0.644-1.438-1.438v-6.691h14.474v6.691
	C-316.005,324.981-316.648,325.624-317.442,325.624z"/>
<path id="XMLID_388_" style="fill:none;stroke:#F7F7F7;stroke-width:0.6;stroke-linecap:round;stroke-miterlimit:10;" d="
	M-328.25,312.497v-4.403c0-0.397,0.322-0.719,0.719-0.719h2.965"/>
</svg>
