<?xml version="1.0" encoding="iso-8859-1"?>
<!-- Generator: Adobe Illustrator 19.0.0, SVG Export Plug-In . SVG Version: 6.00 Build 0)  -->
<svg version="1.1" id="Layer_1" xmlns="http://www.w3.org/2000/svg" xmlns:xlink="http://www.w3.org/1999/xlink" x="0px" y="0px"
	 viewBox="0 0 202.182 105.561" style="enable-background:new 0 0 202.182 105.561;" xml:space="preserve">
<g id="XMLID_308_">
	<path id="XMLID_319_" style="fill:none;stroke:#F7F7F7;stroke-miterlimit:10;" d="M62.515,105.5c0,0-10.962-90,139.667-90"/>
	<g id="XMLID_317_">
		<g id="XMLID_11_">
			<path id="XMLID_14_" style="fill:none;stroke:#F7F7F7;stroke-miterlimit:10;" d="M31.515,105.5c0,0-0.091-1.073-0.048-2.995"/>
			<path id="XMLID_13_" style="fill:none;stroke:#F7F7F7;stroke-miterlimit:10;stroke-dasharray:6.0593,6.0593;" d="M31.933,96.47
				C34.964,72.647,56.232,9.797,196.136,8.038"/>
			<path id="XMLID_12_" style="fill:none;stroke:#F7F7F7;stroke-miterlimit:10;" d="M199.181,8.009c0.994-0.006,1.994-0.009,3-0.009
				"/>
		</g>
	</g>
	<path id="XMLID_315_" style="fill:none;stroke:#F7F7F7;stroke-miterlimit:10;" d="M0.515,105.5c0,0-5.628-105,201.667-105"/>
</g>
<g id="XMLID_305_">
	<g id="XMLID_313_">
		<path id="XMLID_306_" style="fill:#F7F7F7;" d="M151.634,90.67c0,0,2.352-8.527,10.417-9.644c0,0-6.387,6.099-6.157,10.022
			C156.124,94.971,151.634,90.67,151.634,90.67z"/>
		<path id="XMLID_307_" style="fill:#F7F7F7;" d="M151.095,93.094c0,0-1.319-8.747,5.596-13.046c0,0-3.355,8.169-1.55,11.66
			C156.945,95.199,151.095,93.094,151.095,93.094z"/>
		<path id="XMLID_310_" style="fill:#F7F7F7;" d="M160.148,86.55c0,0-7.236,1.973-7.001,5.345c0.236,3.372,3.338,1.095,3.338,1.095
			S156.197,89.113,160.148,86.55z"/>
		<path id="XMLID_312_" style="fill:#F7F7F7;" d="M152.408,92.078c0,0-0.438-7.363-6.821-9.673c0,0,4.15,6.083,3.282,9.243
			S152.408,92.078,152.408,92.078z"/>
		<path id="XMLID_311_" style="fill:#F7F7F7;" d="M152.428,94.149c0,0,2.594-6.905-2.299-11.611c0,0,1.318,7.245-0.76,9.778
			S152.428,94.149,152.428,94.149z"/>
		<path id="XMLID_309_" style="fill:#F7F7F7;" d="M146.299,85.846c0,0,6.667,3.437,5.734,6.686
			c-0.933,3.249-3.493,0.376-3.493,0.376S149.629,89.175,146.299,85.846z"/>
	</g>
	<g id="XMLID_320_">
		<path id="XMLID_339_" style="fill:#F7F7F7;" d="M87.145,90.95c0,0,2.352-8.527,10.417-9.644c0,0-6.387,6.099-6.157,10.022
			C91.634,95.252,87.145,90.95,87.145,90.95z"/>
		<path id="XMLID_338_" style="fill:#F7F7F7;" d="M86.605,93.375c0,0-1.319-8.747,5.596-13.046c0,0-3.355,8.169-1.55,11.66
			C92.456,95.479,86.605,93.375,86.605,93.375z"/>
		<path id="XMLID_337_" style="fill:#F7F7F7;" d="M95.658,86.831c0,0-7.236,1.973-7.001,5.345c0.236,3.372,3.338,1.095,3.338,1.095
			S91.708,89.394,95.658,86.831z"/>
		<path id="XMLID_336_" style="fill:#F7F7F7;" d="M87.919,92.359c0,0-0.438-7.363-6.821-9.673c0,0,4.15,6.083,3.282,9.243
			S87.919,92.359,87.919,92.359z"/>
		<path id="XMLID_335_" style="fill:#F7F7F7;" d="M87.938,94.429c0,0,2.594-6.905-2.299-11.611c0,0,1.318,7.245-0.76,9.778
			S87.938,94.429,87.938,94.429z"/>
		<path id="XMLID_331_" style="fill:#F7F7F7;" d="M81.809,86.127c0,0,6.667,3.437,5.734,6.686c-0.933,3.249-3.493,0.376-3.493,0.376
			S85.139,89.456,81.809,86.127z"/>
	</g>
	
		<rect id="XMLID_298_" x="88.352" y="31.949" style="fill:#FFFFFF;stroke:#F7F7F7;stroke-miterlimit:10;" width="60.8" height="62.182"/>
	<path id="XMLID_299_" style="fill:#F7F7F7;stroke:#F7F7F7;stroke-miterlimit:10;" d="M149.152,37.331v-6.764l0-4.514
		c0-1.65-0.481-3.273-1.408-4.638c-13.842-20.38-44.143-20.379-57.985,0c-0.927,1.365-1.408,2.988-1.408,4.638v0.368v10.909H149.152
		z"/>
	<g id="XMLID_300_">
		<path id="XMLID_302_" style="fill:#F7F7F7;" d="M105.002,65.27c0-8.57,4.235-17.139,13.751-17.139s13.751,8.569,13.751,17.139
			c0,8.569-4.235,17.189-13.751,17.189S105.002,73.839,105.002,65.27z M125.28,65.27c0-6.128-1.745-10.861-6.528-10.861
			c-4.733,0-6.526,4.733-6.526,10.861s1.793,10.911,6.526,10.911C123.485,76.181,125.28,71.398,125.28,65.27z"/>
	</g>
	<g id="XMLID_301_">
		<path id="XMLID_20_" style="fill:#E5E5E5;" d="M96.445,34.613l-1.547-5.041h-0.04c0.056,1.025,0.083,1.709,0.083,2.052v2.988
			h-1.217v-6.425h1.854l1.521,4.913h0.026l1.612-4.913h1.855v6.425h-1.271v-3.041c0-0.144,0.002-0.309,0.007-0.497
			c0.004-0.188,0.023-0.686,0.059-1.494h-0.039l-1.656,5.032H96.445z"/>
		<path id="XMLID_22_" style="fill:#E5E5E5;" d="M102.948,28.43c0-0.437,0.242-0.655,0.729-0.655s0.73,0.218,0.73,0.655
			c0,0.208-0.062,0.37-0.183,0.486c-0.122,0.116-0.305,0.173-0.548,0.173C103.19,29.089,102.948,28.87,102.948,28.43z
			 M104.344,34.613h-1.34V29.7h1.34V34.613z"/>
		<path id="XMLID_25_" style="fill:#E5E5E5;" d="M107.991,34.613h-1.34v-6.838h1.34V34.613z"/>
		<path id="XMLID_27_" style="fill:#E5E5E5;" d="M112.521,34.701c-0.791,0-1.409-0.218-1.854-0.655s-0.668-1.055-0.668-1.854
			c0-0.823,0.206-1.459,0.617-1.91c0.412-0.449,0.98-0.674,1.707-0.674c0.695,0,1.235,0.198,1.622,0.593s0.58,0.942,0.58,1.639v0.65
			h-3.169c0.015,0.381,0.128,0.678,0.339,0.892s0.507,0.321,0.888,0.321c0.296,0,0.576-0.031,0.84-0.092s0.538-0.16,0.826-0.294
			v1.037c-0.235,0.117-0.485,0.205-0.752,0.261C113.23,34.673,112.905,34.701,112.521,34.701z M112.333,30.561
			c-0.285,0-0.508,0.09-0.668,0.271c-0.162,0.18-0.254,0.436-0.277,0.767h1.881c-0.006-0.331-0.092-0.587-0.26-0.767
			C112.842,30.651,112.616,30.561,112.333,30.561z"/>
		<path id="XMLID_30_" style="fill:#E5E5E5;" d="M119.943,33.154c0,0.504-0.175,0.888-0.525,1.151
			c-0.35,0.264-0.874,0.396-1.57,0.396c-0.358,0-0.663-0.024-0.914-0.072c-0.253-0.049-0.488-0.12-0.708-0.213v-1.107
			c0.249,0.117,0.529,0.215,0.842,0.294c0.312,0.079,0.587,0.119,0.823,0.119c0.486,0,0.73-0.141,0.73-0.422
			c0-0.105-0.033-0.191-0.098-0.257c-0.064-0.065-0.176-0.141-0.334-0.224c-0.158-0.084-0.369-0.181-0.633-0.292
			c-0.377-0.158-0.655-0.305-0.832-0.439c-0.178-0.135-0.307-0.289-0.387-0.463c-0.081-0.174-0.121-0.389-0.121-0.644
			c0-0.437,0.169-0.774,0.508-1.013c0.338-0.238,0.817-0.358,1.439-0.358c0.591,0,1.167,0.129,1.727,0.387l-0.404,0.967
			c-0.246-0.105-0.477-0.192-0.689-0.259c-0.215-0.067-0.433-0.101-0.655-0.101c-0.396,0-0.593,0.107-0.593,0.321
			c0,0.12,0.063,0.224,0.19,0.312c0.128,0.088,0.407,0.218,0.837,0.391c0.384,0.155,0.665,0.3,0.844,0.435s0.311,0.29,0.396,0.466
			C119.9,32.702,119.943,32.911,119.943,33.154z"/>
		<path id="XMLID_32_" style="fill:#E5E5E5;" d="M123.959,33.633c0.233,0,0.515-0.051,0.844-0.154v0.998
			c-0.334,0.149-0.745,0.224-1.23,0.224c-0.537,0-0.927-0.135-1.172-0.406c-0.244-0.271-0.367-0.678-0.367-1.22v-2.369h-0.641V30.14
			l0.738-0.448l0.387-1.037h0.856V29.7h1.376v1.006h-1.376v2.369c0,0.19,0.054,0.331,0.16,0.422
			C123.641,33.588,123.783,33.633,123.959,33.633z"/>
		<path id="XMLID_34_" style="fill:#E5E5E5;" d="M131.161,32.148c0,0.8-0.211,1.425-0.633,1.876s-1.01,0.677-1.762,0.677
			c-0.473,0-0.889-0.104-1.248-0.31c-0.361-0.207-0.638-0.503-0.831-0.89s-0.29-0.838-0.29-1.354c0-0.803,0.209-1.427,0.629-1.872
			c0.418-0.445,1.007-0.668,1.766-0.668c0.472,0,0.889,0.103,1.248,0.308c0.361,0.205,0.638,0.5,0.831,0.883
			S131.161,31.632,131.161,32.148z M127.764,32.148c0,0.486,0.079,0.854,0.239,1.103c0.159,0.249,0.419,0.374,0.78,0.374
			c0.356,0,0.614-0.124,0.771-0.372c0.157-0.247,0.235-0.616,0.235-1.105c0-0.486-0.079-0.851-0.237-1.094s-0.417-0.365-0.778-0.365
			c-0.357,0-0.615,0.121-0.773,0.363C127.842,31.293,127.764,31.659,127.764,32.148z"/>
		<path id="XMLID_37_" style="fill:#E5E5E5;" d="M137.703,34.613h-1.34v-2.87c0-0.354-0.063-0.62-0.189-0.797
			s-0.327-0.266-0.602-0.266c-0.376,0-0.646,0.125-0.813,0.375c-0.167,0.251-0.251,0.666-0.251,1.246v2.312h-1.34V29.7h1.023
			l0.181,0.628h0.075c0.148-0.237,0.354-0.417,0.617-0.539c0.262-0.121,0.561-0.182,0.895-0.182c0.57,0,1.004,0.155,1.301,0.463
			c0.295,0.31,0.443,0.755,0.443,1.338V34.613z"/>
		<path id="XMLID_39_" style="fill:#E5E5E5;" d="M142.207,34.701c-0.791,0-1.409-0.218-1.854-0.655s-0.668-1.055-0.668-1.854
			c0-0.823,0.206-1.459,0.617-1.91c0.412-0.449,0.98-0.674,1.707-0.674c0.695,0,1.235,0.198,1.622,0.593s0.58,0.942,0.58,1.639v0.65
			h-3.169c0.015,0.381,0.128,0.678,0.339,0.892s0.507,0.321,0.888,0.321c0.296,0,0.576-0.031,0.84-0.092s0.538-0.16,0.826-0.294
			v1.037c-0.235,0.117-0.485,0.205-0.752,0.261C142.916,34.673,142.59,34.701,142.207,34.701z M142.018,30.561
			c-0.285,0-0.508,0.09-0.668,0.271c-0.162,0.18-0.254,0.436-0.277,0.767h1.881c-0.006-0.331-0.092-0.587-0.26-0.767
			C142.528,30.651,142.301,30.561,142.018,30.561z"/>
	</g>
</g>
</svg>
