<?xml version="1.0" encoding="utf-8"?>
<!-- Generator: Adobe Illustrator 19.0.0, SVG Export Plug-In . SVG Version: 6.00 Build 0)  -->
<svg version="1.1" id="Layer_1" xmlns="http://www.w3.org/2000/svg" xmlns:xlink="http://www.w3.org/1999/xlink" x="0px" y="0px"
	 viewBox="-431 241 64 64" style="enable-background:new -431 241 64 64;" xml:space="preserve">
<style type="text/css">
	.st0{fill:#0073AA;}
</style>
<g id="XMLID_150_">
	<path id="XMLID_193_" class="st0" d="M-417,296.2c0-1.8,0-3.7,0-5.5c0-0.5-0.2-0.7-0.6-1c-4.8-2.9-8.6-6.8-11.1-11.9
		c-1.6-3.3-2.5-6.8-2.3-10.5c0.2-5,2-9.5,5.1-13.4c4.8-5.9,11-9.3,18.2-11c3-0.7,6.1-1.1,9.3-1c7.9,0.2,15.2,2.4,21.6,7.3
		c4.7,3.6,7.9,8.1,9.3,13.9c1.1,4.8,0.6,9.6-1.5,14.1c-2.6,5.8-7,10.1-12.5,13.2c-3.5,2-7.3,3.3-11.2,3.9c-3.2,0.6-6.5,0.7-9.7,0.3
		c-0.2,0-0.5,0.1-0.7,0.2c-3.4,2.8-6.9,5.7-10.3,8.4c-0.7,0.6-1.4,0.7-2.2,0.3c-0.8-0.4-1.1-1.1-1.1-2C-417,300-417,298.1-417,296.2
		z M-413,297.7c0.2-0.2,0.4-0.2,0.5-0.3c2.6-2.1,5.2-4.3,7.9-6.5c0.2-0.2,0.6-0.3,0.8-0.2c2.5,0.3,4.8,0.4,7.3,0.2
		c3.7-0.2,7.2-1.1,10.6-2.7c5.3-2.5,9.7-6,12.6-11.2c2.3-4.3,2.9-8.8,1.6-13.7c-1.2-4.4-3.8-7.9-7.5-10.8
		c-5.3-4.3-11.5-6.1-18.3-6.6c-3.2-0.2-6.3,0.1-9.4,0.8c-6.2,1.5-11.7,4.3-15.8,9.3c-2.5,3.1-4,6.6-4.3,10.6
		c-0.2,3.5,0.5,6.8,2.1,9.9c2.5,4.8,6.4,8.3,11.2,10.7c0.5,0.2,0.7,0.5,0.7,1c0,2.6,0,5.2,0,7.9C-413,296.8-413,297.2-413,297.7z"/>
</g>
</svg>
