<?xml version="1.0" encoding="utf-8"?>
<!-- Generator: Adobe Illustrator 19.2.1, SVG Export Plug-In . SVG Version: 6.00 Build 0)  -->
<svg version="1.1" id="Layer_1" xmlns="http://www.w3.org/2000/svg" xmlns:xlink="http://www.w3.org/1999/xlink" x="0px" y="0px"
	 viewBox="0 0 78 78" style="enable-background:new 0 0 78 78;" xml:space="preserve">
<style type="text/css">
	.st0{fill:#31AD37;}
</style>
<g>
	<path class="st0" d="M34.1,51.2c0.2-0.3,0.3-0.5,0.5-0.7c9-9,14.6-14.6,23.6-23.6c0.8-0.8,1.6-1.1,2.7-0.8c1.7,0.5,2.3,2.5,1.2,3.9
		c-0.2,0.2-0.3,0.4-0.5,0.5C52,40.1,45.7,46.4,36.1,56c-1.4,1.4-2.7,1.4-4.1,0c-4.8-4.8-5.9-5.9-10.7-10.7c-1.4-1.4-1-3.7,0.9-4.2
		c1-0.3,1.9,0,2.6,0.7c3.5,3.5,3.4,3.4,6.8,6.8C32.4,49.5,33.2,50.3,34.1,51.2z"/>
	<g>
		<path class="st0" d="M39,78C17.5,78,0,60.5,0,39S17.5,0,39,0c21.5,0,39,17.5,39,39S60.5,78,39,78z M39,5.5
			C20.5,5.5,5.5,20.5,5.5,39s15,33.5,33.5,33.5c18.5,0,33.5-15,33.5-33.5S57.5,5.5,39,5.5z"/>
	</g>
</g>
</svg>
