<?xml version="1.0" encoding="iso-8859-1"?>
<!-- Generator: Adobe Illustrator 18.1.1, SVG Export Plug-In . SVG Version: 6.00 Build 0)  -->
<svg version="1.1" id="Capa_1" xmlns="http://www.w3.org/2000/svg" xmlns:xlink="http://www.w3.org/1999/xlink" x="0px" y="0px"
	 viewBox="0 0 95 95" style="enable-background:new 0 0 95 95;" xml:space="preserve">
<g>
	<path style="fill:#030104;" d="M47.5,20.9C16.337,20.9,0,43.86,0,47.5c0,3.641,16.337,26.6,47.5,26.6
		C78.661,74.1,95,51.141,95,47.5C95,43.86,78.661,20.9,47.5,20.9z M47.5,67.962c-11.659,0-21.112-9.161-21.112-20.462
		S35.841,27.038,47.5,27.038S68.611,36.199,68.611,47.5S59.159,67.962,47.5,67.962z M58.055,47.5c0,5.65-4.727,10.232-10.555,10.232
		c-5.83,0-10.555-4.582-10.555-10.232S41.67,37.269,47.5,37.269c3.15,0-1.933,8.108,0,10.231
		C49.143,49.303,58.055,44.905,58.055,47.5z"/>
</g>
<g>
</g>
<g>
</g>
<g>
</g>
<g>
</g>
<g>
</g>
<g>
</g>
<g>
</g>
<g>
</g>
<g>
</g>
<g>
</g>
<g>
</g>
<g>
</g>
<g>
</g>
<g>
</g>
<g>
</g>
</svg>
