<?xml version="1.0" encoding="iso-8859-1"?>
<!-- Generator: Adobe Illustrator 19.0.0, SVG Export Plug-In . SVG Version: 6.00 Build 0)  -->
<svg version="1.1" id="Layer_1" xmlns="http://www.w3.org/2000/svg" xmlns:xlink="http://www.w3.org/1999/xlink" x="0px" y="0px"
	 viewBox="15 -15 80 80" style="enable-background:new 15 -15 80 80;" xml:space="preserve">
<g id="XMLID_42_">
	<path id="XMLID_66_" style="fill:#FFFFFF;" d="M93.999-1.401c0,9.071,0,18.143,0,27.214c-0.062,0.163-0.16,0.321-0.182,0.489
		c-0.299,2.304-1.398,4.142-3.19,5.599c-1.543,1.253-3.341,1.8-5.39,1.919c0,0.454,0,0.839,0,1.223
		c-0.001,3.819,0.013,7.639-0.019,11.458c-0.005,0.544-0.106,1.162-0.379,1.615c-0.922,1.53-2.739,1.668-4.086,0.334
		c-2.254-2.232-4.478-4.494-6.703-6.732c-2.602,2.017-3.944,2.474-7.168,2.474c-7.246,0.001-14.493,0.017-21.739-0.021
		c-0.904-0.005-1.517,0.277-2.141,0.906c-4.527,4.559-9.095,9.078-13.635,13.625c-0.892,0.894-1.894,1.275-3.086,0.786
		c-1.173-0.481-1.544-1.462-1.529-2.677c0.028-2.248,0.008-4.498,0.009-6.746c0-1.922,0-3.845,0-5.805
		c-0.397-0.08-0.705-0.167-1.019-0.201c-2.728-0.297-4.877-1.609-6.271-3.929c-0.692-1.151-0.993-2.537-1.47-3.817
		c0-9.143,0-18.286,0-27.429c0.062-0.124,0.158-0.242,0.18-0.372c0.618-3.797,2.797-6.339,6.496-7.175
		c2.152-0.486,4.461-0.29,6.701-0.362c1.305-0.042,2.613-0.008,3.985-0.008c0-0.637-0.001-1.131,0-1.626
		c0.01-4.832,3.825-8.669,8.678-8.673c14.453-0.01,28.908-0.005,43.363-0.001c2.575,0.001,4.658,1.079,6.379,2.952
		C93.085-4.965,93.6-3.211,93.999-1.401z M29.918,50.906c3.668-3.662,7.145-7.1,10.576-10.582c0.857-0.87,1.758-1.276,3.01-1.269
		c7.928,0.048,15.856,0.026,23.785,0.024c2.838-0.001,4.205-1.361,4.205-4.178c0.001-8.25,0-16.499-0.001-24.749
		c-0.001-2.675-1.393-4.046-4.102-4.046c-6.787-0.001-13.572-0.001-20.358-0.001c-7.285,0-14.571-0.003-21.856,0.002
		c-2.609,0.002-4.003,1.412-4.018,4.039c-0.002,0.321,0,0.643,0,0.964c0.001,8-0.003,15.999,0.004,23.999
		c0.002,2.515,1.466,3.959,3.993,3.971c0.214,0.001,0.429-0.001,0.643-0.001c3.527,0,4.121,0.589,4.12,4.084
		C29.917,45.653,29.918,48.144,29.918,50.906z M79.823,40.365c0.086-0.046,0.171-0.093,0.257-0.139c0-2.848-0.008-5.697,0.003-8.545
		c0.007-1.928,1.119-3.033,3.056-3.062c0.678-0.01,1.357,0.002,2.035-0.005c2.192-0.022,3.644-1.381,3.651-3.583
		c0.028-8.567,0.03-17.135-0.003-25.702c-0.008-2.143-1.492-3.518-3.612-3.518C70.859-4.192,56.509-4.192,42.159-4.183
		c-0.419,0-0.858,0.044-1.253,0.173c-1.927,0.629-2.704,2.315-2.267,4.977c0.401,0,0.82,0,1.24,0c9.246,0,18.491-0.011,27.737,0.006
		c4.84,0.009,8.958,3.643,8.991,8.198c0.067,9.133-0.044,18.268-0.067,27.402c-0.001,0.216,0.106,0.482,0.253,0.639
		C77.788,38.276,78.809,39.317,79.823,40.365z"/>
	<path id="XMLID_46_" style="fill:#FFFFFF;" d="M37.645,22.579c0.009,1.925-1.498,3.443-3.419,3.446
		c-1.922,0.003-3.451-1.532-3.437-3.448c0.014-1.858,1.53-3.382,3.386-3.402C36.093,19.154,37.636,20.668,37.645,22.579z"/>
	<path id="XMLID_45_" style="fill:#FFFFFF;" d="M42.958,22.626c-0.01-1.956,1.469-3.459,3.397-3.451
		c1.874,0.007,3.477,1.613,3.456,3.461c-0.021,1.828-1.573,3.368-3.414,3.388C44.431,26.045,42.969,24.601,42.958,22.626z"/>
	<path id="XMLID_44_" style="fill:#FFFFFF;" d="M61.865,22.614c-0.003,1.932-1.511,3.427-3.441,3.41
		c-1.859-0.016-3.392-1.531-3.419-3.379c-0.028-1.87,1.552-3.463,3.441-3.471C60.365,19.167,61.867,20.678,61.865,22.614z"/>
</g>
</svg>
