<svg id="Layer_1" data-name="Layer 1" xmlns="http://www.w3.org/2000/svg" viewBox="0 0 65.09 78"><defs><style>.cls-1{fill:#818181;}</style></defs><title>Download File Hover</title><path class="cls-1" d="M379.94,76.28v4.18h7.89V133.8H331.34V80.39h7.77V76.28H327V88.14q0,20.92,0,41.84c0,1.75,0,3.51,0,5.26l0,2.93h65l0-.79c0-.22,0-0.45,0-0.67V76.28H379.94Z" transform="translate(-327.04 -60.17)"/><path class="cls-1" d="M374.78,100.61l-2.93-3.18-10.14,10.15q0-23,0-46a5.21,5.21,0,0,0-.06-0.66l-0.08-.7h-4.14v0.66c0,0.21,0,.42,0,0.63V108L347,97.91l-2.69,2.78,15.17,15.19Z" transform="translate(-327.04 -60.17)"/></svg>