<?xml version="1.0" encoding="iso-8859-1"?>
<!-- Generator: Adobe Illustrator 19.0.0, SVG Export Plug-In . SVG Version: 6.00 Build 0)  -->
<svg version="1.1" id="Layer_1" xmlns="http://www.w3.org/2000/svg" xmlns:xlink="http://www.w3.org/1999/xlink" x="0px" y="0px"
	 viewBox="15 -15 80 80" style="enable-background:new 15 -15 80 80;" xml:space="preserve">
<g id="XMLID_106_">
	<path id="XMLID_136_" style="fill:#C9C9C9;" d="M77.679,13.036c-7.385-0.008-14.77,0.004-22.155,0.003
		c-6.607-0.001-13.214-0.01-19.822-0.009c-5.83,0-11.66,0.007-17.491,0.016c-0.737,0.001-1.475,0.029-2.212,0.045
		c0,16.97,0,33.94,0,50.91c26,0,52,0,78,0c0-16.97,0-33.94,0-50.91C88.56,13.071,83.119,13.042,77.679,13.036z M72.078,39.561
		c-0.869,3.858-4.483,6.187-9.064,6.235c-5.911,0.061-11.825,0.029-17.736-0.085c-4.365-0.084-8.117-3.715-8.433-8.106
		c-0.15-2.086-0.026-4.193-0.026-6.414c1.917,0,3.761,0,5.823,0c0,1.442,0.121,2.948-0.025,4.429
		c-0.323,3.295,1.781,4.405,4.563,4.376c5.251-0.055,10.502-0.012,15.753-0.036c0.649-0.003,1.319-0.095,1.941-0.279
		c1.429-0.421,2.091-1.32,2.113-2.825c0.028-1.861,0.007-3.722,0.007-5.73c1.899,0,3.632,0,5.691,0
		C72.509,33.978,72.687,36.858,72.078,39.561z"/>
	<path id="XMLID_141_" style="fill:#C9C9C9;" d="M78.82-14c-15.88,0-31.76,0-47.641,0c-1.032,1.983-2.065,3.967-3.17,6.09
		c18.065,0,35.904,0,53.975,0C80.884-10.028,79.852-12.014,78.82-14z"/>
	<path id="XMLID_142_" style="fill:#C9C9C9;" d="M91.44,5.011c-0.356-0.79-0.834-1.028-1.693-1.025
		c-11.787,0.03-23.573,0.02-35.36,0.02c-11.398,0-22.796-0.003-34.193,0.016c-0.418,0.001-1.067,0.091-1.215,0.357
		c-1.004,1.812-1.901,3.682-2.883,5.633c26.011,0,51.813,0,77.785,0C93.019,8.262,92.182,6.658,91.44,5.011z"/>
	<path id="XMLID_143_" style="fill:#C9C9C9;" d="M85.553-3.746c-0.402-0.912-0.945-1.192-1.946-1.19
		C64.734-4.902,45.86-4.892,26.987-4.949c-1.443-0.004-2.271,0.344-2.808,1.711c-0.571,1.456-1.358,2.828-2.108,4.355
		c22.029,0,43.815,0,65.857,0C87.069-0.626,86.252-2.16,85.553-3.746z"/>
</g>
</svg>
