<?xml version="1.0" encoding="UTF-8"?>
<svg width="18px" height="19px" viewBox="0 0 18 19" version="1.1" xmlns="http://www.w3.org/2000/svg" xmlns:xlink="http://www.w3.org/1999/xlink">
    <!-- Generator: Sketch 52.3 (67297) - http://www.bohemiancoding.com/sketch -->
    <title>Icon gray</title>
    <desc>Created with Sketch.</desc>
    <g id="Page-1" stroke="none" stroke-width="1" fill="none" fill-rule="evenodd">
        <g id="4-Project-List-Page-Design-Project-Filtering" transform="translate(-96.000000, -155.000000)" fill="#9EA3A8" fill-rule="nonzero">
            <g id="Icon-gray" transform="translate(96.000000, 155.000000)">
                <g id="Icon">
                    <path d="M5.07,14.0497297 C5.36175286,14.2978558 5.54182044,14.6578805 5.56827163,15.0459675 C5.59472282,15.4340545 5.46524905,15.8163328 5.21,16.1037838 C4.7081163,16.67067 3.85921465,16.7274307 3.29,16.2321622 C0.840442585,14.0921842 -0.317740043,10.7768094 0.248474978,7.52559439 C0.81469,4.27437939 3.02004541,1.57687267 6.04,0.441621622 L7.735,2.88081081 L8.615,4.20567568 L6.815,6.65 L5.145,4.19027027 C3.71293151,5.40135255 2.87709471,7.20197177 2.86261734,9.10714173 C2.84813997,11.0123117 3.65651083,12.8261097 5.07,14.06 L5.07,14.0497297 Z" id="Shape"></path>
                    <path d="M14.76,16.4632432 C14.3830848,16.7907207 13.8646912,16.8868058 13.4000931,16.7153042 C12.935495,16.5438027 12.5952759,16.1307696 12.5075931,15.6317906 C12.4199102,15.1328117 12.5980847,14.6236936 12.975,14.2962162 C14.3743791,13.0668945 15.1762892,11.2675341 15.1676213,9.37631839 C15.1589534,7.48510269 14.3405854,5.69357526 12.93,4.47783784 L10.68,7.7027027 L10.32,8.21621622 L10.32,17.2078378 C10.3227912,18.0121361 9.6930942,18.6680252 8.91,18.6764865 L8.88,18.6764865 C8.0969058,18.6680252 7.46720881,18.0121361 7.47,17.2078378 L7.47,9.69 L7.47,8.10837838 L7.47,7.3227027 L12.065,0.713783784 C15.0690278,1.858372 17.2575289,4.55214693 17.8159375,7.79247834 C18.374346,11.0328098 17.2190295,14.3343962 14.78,16.4683784 L14.76,16.4632432 Z" id="Shape"></path>
                </g>
            </g>
        </g>
        <g id="Page"></g>
    </g>
</svg>