<?xml version="1.0" encoding="UTF-8"?>
<svg width="120px" height="31px" viewBox="0 0 120 31" version="1.1" xmlns="http://www.w3.org/2000/svg" xmlns:xlink="http://www.w3.org/1999/xlink">
    <!-- Generator: Sketch 52.3 (67297) - http://www.bohemiancoding.com/sketch -->
    <title>Slack_RGB</title>
    <desc>Created with Sketch.</desc>
    <g id="Page-1" stroke="none" stroke-width="1" fill="none" fill-rule="evenodd">
        <g id="Individual-Form-Integration-Page-Design---weForms" transform="translate(-250.000000, -182.000000)">
            <g id="Group-4" transform="translate(183.000000, 116.000000)">
                <g id="Slack_RGB" transform="translate(67.000000, 66.000000)">
                    <g id="Group" transform="translate(38.313253, 0.488189)" fill="#000000">
                        <path d="M0.120481928,23.7992126 L1.61445783,20.284252 C3.22891566,21.5047244 5.37349398,22.1393701 7.4939759,22.1393701 C9.06024096,22.1393701 10.0481928,21.5291339 10.0481928,20.6015748 C10.0240964,18.0141732 0.674698795,20.0401575 0.602409639,13.5472441 C0.578313253,10.2519685 3.46987952,7.71338583 7.56626506,7.71338583 C10,7.71338583 12.4337349,8.32362205 14.1686747,9.71496063 L12.7710843,13.3031496 C11.1807229,12.2779528 9.20481928,11.5456693 7.3253012,11.5456693 C6.04819277,11.5456693 5.20481928,12.1559055 5.20481928,12.9370079 C5.22891566,15.4755906 14.6506024,14.084252 14.746988,20.284252 C14.746988,23.6527559 11.9277108,26.0204724 7.87951807,26.0204724 C4.91566265,26.0204724 2.19277108,25.3125984 0.120481928,23.7992126" id="Path"></path>
                        <path d="M57.4457831,19.0149606 C56.6987952,20.3330709 55.3012048,21.2362205 53.686747,21.2362205 C51.3012048,21.2362205 49.373494,19.2834646 49.373494,16.8669291 C49.373494,14.4503937 51.3012048,12.4976378 53.686747,12.4976378 C55.3012048,12.4976378 56.6987952,13.4007874 57.4457831,14.7188976 L61.5662651,12.4 C60.0240964,9.61732283 57.060241,7.71338583 53.686747,7.71338583 C48.6987952,7.71338583 44.6506024,11.8141732 44.6506024,16.8669291 C44.6506024,21.919685 48.6987952,26.0204724 53.686747,26.0204724 C57.0843373,26.0204724 60.0240964,24.1409449 61.5662651,21.3338583 L57.4457831,19.0149606 Z" id="Path"></path>
                        <rect id="Rectangle" x="16.8192771" y="0.122047244" width="5.15662651" height="25.5566929"></rect>
                        <polygon id="Path" points="63.5903614 0.122047244 63.5903614 25.6787402 68.746988 25.6787402 68.746988 18.0141732 74.8674699 25.6787402 81.4698795 25.6787402 73.686747 16.5740157 80.8915663 8.07952756 74.5783133 8.07952756 68.746988 15.1338583 68.746988 0.122047244"></polygon>
                        <path d="M37.3012048,19.0637795 C36.5542169,20.3086614 35.0120482,21.2362205 33.2771084,21.2362205 C30.8915663,21.2362205 28.9638554,19.2834646 28.9638554,16.8669291 C28.9638554,14.4503937 30.8915663,12.4976378 33.2771084,12.4976378 C35.0120482,12.4976378 36.5542169,13.4740157 37.3012048,14.7433071 L37.3012048,19.0637795 Z M37.3012048,8.07952756 L37.3012048,10.1543307 C36.4578313,8.71417323 34.3614458,7.71338583 32.1686747,7.71338583 C27.6385542,7.71338583 24.0722892,11.7653543 24.0722892,16.8425197 C24.0722892,21.919685 27.6385542,26.0204724 32.1686747,26.0204724 C34.3614458,26.0204724 36.4578313,25.019685 37.3012048,23.5795276 L37.3012048,25.6543307 L42.4578313,25.6543307 L42.4578313,8.07952756 L37.3012048,8.07952756 Z" id="Shape" fill-rule="nonzero"></path>
                    </g>
                    <g id="Group">
                        <g transform="translate(0.000000, 16.110236)" fill="#E01E5A" id="Path">
                            <path d="M6.55421687,3.41732283 C6.55421687,5.1992126 5.13253012,6.63937008 3.37349398,6.63937008 C1.61445783,6.63937008 0.192771084,5.1992126 0.192771084,3.41732283 C0.192771084,1.63543307 1.61445783,0.195275591 3.37349398,0.195275591 L6.55421687,0.195275591 L6.55421687,3.41732283 Z"></path>
                            <path d="M8.14457831,3.41732283 C8.14457831,1.63543307 9.56626506,0.195275591 11.3253012,0.195275591 C13.0843373,0.195275591 14.5060241,1.63543307 14.5060241,3.41732283 L14.5060241,11.4724409 C14.5060241,13.2543307 13.0843373,14.6944882 11.3253012,14.6944882 C9.56626506,14.6944882 8.14457831,13.2543307 8.14457831,11.4724409 L8.14457831,3.41732283 Z"></path>
                        </g>
                        <g fill="#36C5F0" id="Path">
                            <path d="M11.3253012,6.59055118 C9.56626506,6.59055118 8.14457831,5.1503937 8.14457831,3.36850394 C8.14457831,1.58661417 9.56626506,0.146456693 11.3253012,0.146456693 C13.0843373,0.146456693 14.5060241,1.58661417 14.5060241,3.36850394 L14.5060241,6.59055118 L11.3253012,6.59055118 Z"></path>
                            <path d="M11.3253012,8.22598425 C13.0843373,8.22598425 14.5060241,9.66614173 14.5060241,11.4480315 C14.5060241,13.2299213 13.0843373,14.6700787 11.3253012,14.6700787 L3.34939759,14.6700787 C1.59036145,14.6700787 0.168674699,13.2299213 0.168674699,11.4480315 C0.168674699,9.66614173 1.59036145,8.22598425 3.34939759,8.22598425 L11.3253012,8.22598425 Z"></path>
                        </g>
                        <g transform="translate(15.903614, 0.000000)" fill="#2EB67D" id="Path">
                            <path d="M8.1686747,11.4480315 C8.1686747,9.66614173 9.59036145,8.22598425 11.3493976,8.22598425 C13.1084337,8.22598425 14.5301205,9.66614173 14.5301205,11.4480315 C14.5301205,13.2299213 13.1084337,14.6700787 11.3493976,14.6700787 L8.1686747,14.6700787 L8.1686747,11.4480315 Z"></path>
                            <path d="M6.57831325,11.4480315 C6.57831325,13.2299213 5.15662651,14.6700787 3.39759036,14.6700787 C1.63855422,14.6700787 0.21686747,13.2299213 0.21686747,11.4480315 L0.21686747,3.36850394 C0.21686747,1.58661417 1.63855422,0.146456693 3.39759036,0.146456693 C5.15662651,0.146456693 6.57831325,1.58661417 6.57831325,3.36850394 L6.57831325,11.4480315 Z"></path>
                        </g>
                        <g transform="translate(15.903614, 16.110236)" fill="#ECB22E" id="Path">
                            <path d="M3.39759036,8.2503937 C5.15662651,8.2503937 6.57831325,9.69055118 6.57831325,11.4724409 C6.57831325,13.2543307 5.15662651,14.6944882 3.39759036,14.6944882 C1.63855422,14.6944882 0.21686747,13.2543307 0.21686747,11.4724409 L0.21686747,8.2503937 L3.39759036,8.2503937 Z"></path>
                            <path d="M3.39759036,6.63937008 C1.63855422,6.63937008 0.21686747,5.1992126 0.21686747,3.41732283 C0.21686747,1.63543307 1.63855422,0.195275591 3.39759036,0.195275591 L11.373494,0.195275591 C13.1325301,0.195275591 14.5542169,1.63543307 14.5542169,3.41732283 C14.5542169,5.1992126 13.1325301,6.63937008 11.373494,6.63937008 L3.39759036,6.63937008 Z"></path>
                        </g>
                    </g>
                </g>
            </g>
        </g>
    </g>
</svg>