<?xml version="1.0" encoding="utf-8"?>
<!-- Generator: Adobe Illustrator 19.2.0, SVG Export Plug-In . SVG Version: 6.00 Build 0)  -->
<svg version="1.1" id="Layer_1" xmlns="http://www.w3.org/2000/svg" xmlns:xlink="http://www.w3.org/1999/xlink" x="0px" y="0px"
	 viewBox="0 0 78 78" style="enable-background:new 0 0 78 78;" xml:space="preserve">
<style type="text/css">
	.st0{fill:#F66820;}
	.st1{fill:#FFFFFF;}
</style>
<g>
	<path class="st0" d="M39,0C18.1-0.1,0.5,17.3,0,38.1C-0.5,59.8,17.4,77.6,38.3,78C59.8,78.4,77.7,60.6,78,39.6
		C78.3,18,60.2-0.1,39,0z"/>
	<g>
		<path class="st1" d="M28.1,38.1c-1.2,0.2-2.3,0.4-3.4,0.7c-0.1,0-0.3,0.2-0.4,0.4c-0.8,1.2-1.5,2.5-2.3,3.7
			c-0.6,1-1.9,1.2-2.8,0.6c-0.9-0.6-1.2-1.7-0.6-2.7c1-1.7,2-3.3,3.1-4.9c0.3-0.4,0.8-0.7,1.2-0.8c1.9-0.4,3.8-0.8,5.6-1.1
			c1.2-0.2,2.4,0.1,3.5,0.2c0.6,0.1,1.3,0.2,1.9,0.3c0.7,0.1,1.3,0.4,1.8,1c1,1.3,2.1,2.5,3.1,3.8c0.6-0.3,1.2-0.5,1.8-0.8
			c0.6-0.3,1.2-0.6,1.7-0.8c1.1-0.5,2.2,0,2.7,1c0.5,1,0.1,2.2-1,2.7c-1.6,0.8-3.3,1.5-4.9,2.3c-0.9,0.4-1.9,0.2-2.5-0.6
			c-0.9-1-1.7-2.1-2.6-3.2c-0.1,0.5-0.2,1-0.3,1.4c-0.3,1.6-0.7,3.2-1,4.8c-0.1,0.3,0,0.4,0.3,0.5c1.5,0.6,3.1,1.2,4.6,1.8
			c0.8,0.3,1.2,0.9,1.3,1.7c0.5,2.9,1,5.8,1.5,8.7c0.2,1.2-0.5,2.2-1.6,2.4c-1.2,0.2-2.2-0.6-2.4-1.8c-0.4-2.4-0.8-4.8-1.2-7.3
			c-0.1-0.3-0.2-0.5-0.5-0.6c-2.2-0.9-4.4-1.8-6.5-2.7c-1.5-0.6-2.3-2-1.9-3.6c0.5-2.2,1.1-4.5,1.6-6.7
			C28.1,38.4,28.1,38.3,28.1,38.1z"/>
		<path class="st1" d="M50.9,16.7c4.7-0.1,8.6,3.7,8.8,8.5c0.2,5-3.9,9.2-9.1,9c-4.8-0.1-8.5-4.1-8.5-8.9
			C42.2,20.7,46.1,16.7,50.9,16.7z M50.9,31.8c3.5,0,6.3-2.9,6.3-6.4c0-3.4-2.9-6.3-6.4-6.3c-3.5,0-6.3,2.9-6.3,6.3
			C44.6,29,47.5,31.8,50.9,31.8z"/>
		<path class="st1" d="M25.5,48.7c0.9,1.3,2.2,1.7,3.5,2.3c0,0.2,0,0.4-0.1,0.5c-0.3,1.3-0.6,2.7-1,4c-0.1,0.4-0.4,0.9-0.8,1.2
			c-1.9,1.4-3.8,2.7-5.7,4.1c-0.8,0.6-1.9,0.5-2.6-0.2c-0.7-0.7-0.8-1.7-0.3-2.5c0.2-0.2,0.4-0.5,0.6-0.6c1.5-1.1,3-2.2,4.5-3.2
			c0.3-0.2,0.5-0.5,0.6-0.9c0.3-1.4,0.6-2.7,1-4C25.4,49.2,25.5,49,25.5,48.7z"/>
		<path class="st1" d="M29.5,28.6c0-2.2,1.8-4,4-4c2.2,0,4,1.8,4,4c0,2.2-1.8,4-4,4C31.2,32.7,29.5,30.9,29.5,28.6z"/>
		<path class="st1" d="M52,25.9c0.1,0.4-0.1,0.7-0.5,1c-0.7,0.5-1.5,1.1-2.2,1.6c-0.4,0.3-0.7,0.2-1-0.1c-0.3-0.3-0.2-0.6,0-0.9
			c0.2-0.2,0.4-0.5,0.6-0.7c0.9-0.8,1.2-1.9,1.2-3c0-0.9,0.1-1.7,0.2-2.6c0-0.4,0.2-0.5,0.6-0.5c0.4,0,0.6,0.2,0.6,0.5
			C51.8,22.8,51.9,24.3,52,25.9z"/>
	</g>
</g>
</svg>
