<?xml version="1.0" encoding="utf-8"?>
<!-- Generator: Adobe Illustrator 19.2.1, SVG Export Plug-In . SVG Version: 6.00 Build 0)  -->
<svg version="1.1" id="Isolation_Mode" xmlns="http://www.w3.org/2000/svg" xmlns:xlink="http://www.w3.org/1999/xlink" x="0px"
	 y="0px" viewBox="0 0 78 78" style="enable-background:new 0 0 78 78;" xml:space="preserve">
<style type="text/css">
	.st0{fill:#9BA0A5;}
</style>
<g>
	<path id="XMLID_41_" class="st0" d="M50,43.9c-7.7,0-15.5,0-23.2,0c-2.5,0-4.5-1.8-4.8-4.3c-0.3-2.3,1.2-4.6,3.5-5.2
		c0.6-0.2,1.1-0.2,1.7-0.2c15.2,0,30.5,0,45.7,0c2.3,0,4.1,1.2,4.8,3.2c0.7,1.9,0.2,4-1.3,5.3c-1,0.9-2.2,1.2-3.5,1.2
		C65.2,43.9,57.6,43.9,50,43.9z"/>
	<path id="XMLID_40_" class="st0" d="M49.9,65.8c-7.7,0-15.3,0-23,0c-2.1,0-3.6-0.9-4.5-2.8c-1.6-3.3,0.8-6.9,4.6-6.9
		c6.4,0,12.8,0,19.3,0c8.9,0,17.7,0,26.6,0c2.6,0,4.5,1.5,5.1,4c0.6,2.8-1.5,5.7-4.4,5.8c-3.2,0.1-6.3,0-9.5,0
		C59.3,65.8,54.6,65.8,49.9,65.8C49.9,65.8,49.9,65.8,49.9,65.8z"/>
	<path id="XMLID_39_" class="st0" d="M49.9,22c-7.6,0-15.1,0-22.7,0c-1.9,0-3.5-0.6-4.5-2.3c-2-3.1,0-7.2,3.7-7.4
		c2.9-0.2,5.8-0.1,8.7-0.1c12.6,0,25.2,0,37.8,0c2.8,0,4.6,1.5,5.1,4.1c0.5,2.6-1.5,5.4-4.2,5.5C71,22,68.2,22,65.4,22
		C60.2,22,55.1,22,49.9,22C49.9,22,49.9,22,49.9,22z"/>
	<path id="XMLID_38_" class="st0" d="M7.3,24.4C3.2,24.3,0,21.1,0,17c0-4,3.3-7.2,7.3-7.2c4.1,0,7.3,3.3,7.3,7.5
		C14.6,21.2,11.3,24.4,7.3,24.4z"/>
	<path id="XMLID_37_" class="st0" d="M7.3,46.3C3.2,46.3,0,43,0,38.9c0-4,3.3-7.3,7.3-7.3c4.1,0,7.3,3.3,7.3,7.4
		C14.6,43.1,11.3,46.3,7.3,46.3z"/>
	<path id="XMLID_36_" class="st0" d="M7.3,68.2C3.3,68.3,0,65,0,61c0-4.1,3.2-7.4,7.3-7.4c4,0,7.3,3.3,7.3,7.3
		C14.6,65,11.4,68.2,7.3,68.2z"/>
</g>
</svg>
