<?xml version="1.0" encoding="utf-8"?>
<!-- Generator: Adobe Illustrator 19.0.0, SVG Export Plug-In . SVG Version: 6.00 Build 0)  -->
<svg version="1.1" id="Layer_1" xmlns="http://www.w3.org/2000/svg" xmlns:xlink="http://www.w3.org/1999/xlink" x="0px" y="0px"
	 viewBox="-265 357 80 80" style="enable-background:new -265 357 80 80;" xml:space="preserve">
<style type="text/css">
	.st0{fill:#B8B8B8;}
</style>
<path id="XMLID_183_" class="st0" d="M-228.4,418.1c0-0.5,0-0.8,0-1.1c0-5.2,0-10.5,0-15.7c0-0.7-0.2-0.9-0.9-0.9
	c-5.3,0-10.7,0-16,0c-0.7,0-0.9,0.2-0.9,0.8c0,2.2,0,4.4,0,6.6c0,0.2,0,0.4,0,0.6c-0.1,0.6,0.1,1.4-0.6,1.7
	c-0.7,0.3-1.4-0.1-1.9-0.5c-3.4-2.7-6.8-5.3-10.2-8c-1.5-1.1-2.9-2.3-4.3-3.5c-1.2-1-1.1-1.3,0-2.2c2.4-1.9,4.9-3.9,7.3-5.8
	c2.3-1.8,4.7-3.7,7-5.5c0.3-0.2,0.6-0.4,0.9-0.5c1-0.4,1.7,0,1.7,1c0.1,2.5,0.1,5.1,0.1,7.6c0,1,0,1,1,1c5.3,0,10.6,0,15.9,0
	c0.7,0,0.9-0.2,0.9-0.9c0-5.3,0-10.7,0-16c0-0.7-0.2-0.9-0.9-0.9c-2.3,0-4.7,0-7,0c-0.6,0-1.5,0.2-1.8-0.7c-0.3-0.8,0.1-1.4,0.6-2
	c3.8-4.8,7.5-9.5,11.3-14.3c1-1.2,1.4-1.2,2.4,0.1c2.1,2.7,4.3,5.4,6.4,8.1c1.6,2,3.2,4.1,4.8,6.1c0.2,0.3,0.4,0.6,0.6,1
	c0.4,0.9,0,1.5-1,1.6c-0.9,0.1-1.8,0.1-2.7,0.1c-1.7,0-3.5,0-5.2,0c-0.5,0-0.8,0.1-0.8,0.7c0,5.4,0,10.9,0,16.3c0,0.4,0,0.7,0.6,0.7
	c5.6,0,11.2,0,16.8,0c0.1,0,0.1,0,0.3-0.1c0-0.3,0-0.5,0-0.8c0-2.2,0-4.3,0-6.5c0-0.2,0-0.5,0-0.7c0.1-0.6-0.1-1.3,0.6-1.6
	c0.7-0.3,1.3,0,1.9,0.5c1.7,1.3,3.5,2.7,5.2,4.1c3,2.4,6,4.8,9.1,7.2c1.4,1.1,1.5,1.4,0.1,2.5c-4.4,3.5-8.8,6.9-13.2,10.3
	c-0.6,0.5-1.2,1-1.9,1.3c-1,0.5-1.7,0.2-1.8-1c-0.1-2.6-0.1-5.1-0.1-7.7c0-0.7-0.2-0.9-0.9-0.9c-5.3,0-10.6,0-15.9,0
	c-0.7,0-0.9,0.2-0.9,0.9c0,5.3,0,10.7,0,16c0,0.7,0.2,0.8,0.8,0.8c2.6,0,5.1,0,7.7,0.1c1.2,0,1.7,0.8,1,1.9
	c-0.8,1.2-1.7,2.4-2.6,3.5c-2.9,3.7-5.9,7.4-8.8,11.2c-1.3,1.7-1.5,1.7-2.8,0c-3.7-4.7-7.4-9.3-11.1-14c-0.2-0.2-0.3-0.5-0.5-0.8
	c-0.5-1-0.1-1.7,1-1.8c2.5-0.1,5-0.1,7.5-0.1C-229.1,418.1-228.8,418.1-228.4,418.1z"/>
</svg>
