<?xml version="1.0" encoding="UTF-8"?>
<svg width="47px" height="48px" viewBox="0 0 47 48" version="1.1" xmlns="http://www.w3.org/2000/svg" xmlns:xlink="http://www.w3.org/1999/xlink">
	<!-- Generator: Sketch 52.3 (67297) - http://www.bohemiancoding.com/sketch -->
	<title>Group 57</title>
	<desc>Created with Sketch.</desc>
	<defs>
		<polygon id="path-1" points="0 48 47 48 47 0 0 0"></polygon>
	</defs>
	<g id="Page-1" stroke="none" stroke-width="1" fill="none" fill-rule="evenodd">
		<g id="01-Report-page-overview" transform="translate(-288.000000, -129.000000)">
			<g id="Group-57" transform="translate(288.000000, 129.000000)">
				<path d="M40.1135166,38.2417344 C40.1135166,38.5504201 40.1025671,38.8121751 40.0745092,39.0336092 C40.0656128,39.1069799 40.0532946,39.1763846 40.0402922,39.2411623 C39.9992317,39.4361566 39.9383254,39.5921519 39.8507299,39.7177414 C39.8213032,39.7593843 39.7891392,39.7977221 39.7542379,39.832755 C39.6570615,39.9279386 39.5338802,39.9973433 39.3840097,40.0502231 C39.2574067,40.0951709 39.1130109,40.1282208 38.9419258,40.1487117 C38.7174621,40.1771346 38.4512537,40.1870495 38.1371414,40.1877105 C26.6805981,40.1903545 15.2240548,40.1896935 3.76751144,40.1857275 C2.31397235,40.1850665 1.89310297,39.8691098 1.89173429,38.6442817 C1.88146919,30.0288424 1.89104995,21.412742 1.89789336,12.7966416 C1.89789336,12.6783231 1.94237549,12.5600046 1.9984914,12.2737927 L40.0430295,12.2737927 C40.0683501,12.7543378 40.1107792,13.1866301 40.1107792,13.6189223 C40.1148853,21.8265263 40.116254,30.0341303 40.1135166,38.2417344 Z M31.7495077,3.01850793 L29.3693717,3.01850793 L25.3180763,3.0257789 L23.0111646,3.0257789 L18.9585005,3 L16.6885433,3 L12.4949051,3.01057596 L10.3241772,3.01057596 L6.13053898,3.09121763 C5.14166705,3.09121763 4.21643877,3.07138771 3.29189484,3.09584461 C1.3114136,3.14674141 0.0180101666,4.35107857 0.0145884644,6.25475092 C-0.00388872753,17.0752774 -0.00457306797,27.8958039 0.0111667622,38.7163304 C0.0139041239,40.7621172 1.30388585,41.9876063 3.43629067,41.9895893 C15.1467243,42.0034702 26.8564736,42.0034702 38.5662229,41.9895893 C40.6979433,41.9876063 41.9872407,40.7522023 41.9899781,38.7176524 C42.0036649,27.9374468 42.0036649,17.1579021 41.9879251,6.37835742 C41.9851877,4.32728267 40.6999964,3.1242675 38.5758036,3.09055664 C37.6622091,3.07601469 36.747246,3.08857364 35.7364751,3.08857364 L31.7495077,3.01850793 Z" id="Fill-1" fill="#FFA88F"></path>
				<path d="M39.9289736,12 L2.11021504,12 C2.05443316,12.2870777 2.01089608,12.4057542 2.01089608,12.5250936 C2.00409341,21.1665966 1.9938894,29.8087626 2.00477367,38.4502656 C2.00613421,39.678799 2.42381809,39.9963746 3.86870501,39.9970376 C15.2570533,40.0003526 26.646082,40.0010156 38.0344303,39.9983636 C38.3466728,39.9977006 38.6112966,39.9877557 38.8344242,39.9592468 C39.0044909,39.9386939 39.1480272,39.905544 39.2731963,39.8604602 C39.4228551,39.8074205 39.5453031,39.7378058 39.6412207,39.6423342 C39.6765946,39.6071954 39.7085672,39.5687415 39.7378186,39.5269727 C39.8248928,39.4016663 39.8854366,39.244536 39.9255723,39.0489519 C39.9391776,38.9839782 39.9507422,38.9143635 39.9602659,38.8407708 C39.9881569,38.6186668 39.9990411,38.35612 39.9990411,38.0465004 C40.0010819,29.8140666 39.9997214,21.5816327 39.9963201,13.3491989 C39.9963201,12.9155989 39.9534633,12.4826618 39.9289736,12" id="Fill-3" fill="#FFFFFF"></path>
				<path d="M10,36.8132897 C10,37.4690376 9.42064463,38 8.70665035,38 L6.29402965,38 C5.57935537,38 5,37.4690376 5,36.8132897 L5,35.1873343 C5,34.5315863 5.57935537,34 6.29402965,34 L8.70665035,34 C9.42064463,34 10,34.5315863 10,35.1873343 L10,36.8132897 Z" id="Fill-5" fill="#DADADA"></path>
				<path d="M10,30.8132897 C10,31.4690376 9.42064463,32 8.70665035,32 L6.29402965,32 C5.57935537,32 5,31.4690376 5,30.8132897 L5,29.1873343 C5,28.5315863 5.57935537,28 6.29402965,28 L8.70665035,28 C9.42064463,28 10,28.5315863 10,29.1873343 L10,30.8132897 Z" id="Fill-7" fill="#DADADA"></path>
				<path d="M10,24.8128509 C10,25.4684966 9.42064463,26 8.70665035,26 L6.29402965,26 C5.57935537,26 5,25.4684966 5,24.8128509 L5,23.1871491 C5,22.5315034 5.57935537,22 6.29402965,22 L8.70665035,22 C9.42064463,22 10,22.5315034 10,23.1871491 L10,24.8128509 Z" id="Fill-9" fill="#DADADA"></path>
				<path d="M16,36.8132897 C16,37.4690376 15.4207234,38 14.7068262,38 L12.2945336,38 C11.5799565,38 11,37.4690376 11,36.8132897 L11,35.1873343 C11,34.5315863 11.5799565,34 12.2945336,34 L14.7068262,34 C15.4207234,34 16,34.5315863 16,35.1873343 L16,36.8132897 Z" id="Fill-11" fill="#DADADA"></path>
				<path d="M16,30.8132897 C16,31.4690376 15.4207234,32 14.7068262,32 L12.2945336,32 C11.5799565,32 11,31.4690376 11,30.8132897 L11,29.1873343 C11,28.5315863 11.5799565,28 12.2945336,28 L14.7068262,28 C15.4207234,28 16,28.5315863 16,29.1873343 L16,30.8132897 Z" id="Fill-13" fill="#DADADA"></path>
				<path d="M16,24.8128509 C16,25.4684966 15.4207234,26 14.7068262,26 L12.2945336,26 C11.5799565,26 11,25.4684966 11,24.8128509 L11,23.1871491 C11,22.5315034 11.5799565,22 12.2945336,22 L14.7068262,22 C15.4207234,22 16,22.5315034 16,23.1871491 L16,24.8128509 Z" id="Fill-15" fill="#DADADA"></path>
				<path d="M16,17.8128509 C16,18.4684966 15.4207234,19 14.7068262,19 L12.2945336,19 C11.5799565,19 11,18.4684966 11,17.8128509 L11,16.1871491 C11,15.5315034 11.5799565,15 12.2945336,15 L14.7068262,15 C15.4207234,15 16,15.5315034 16,16.1871491 L16,17.8128509 Z" id="Fill-17" fill="#DADADA"></path>
				<path d="M23,36.8132897 C23,37.4690376 22.4206446,38 21.7066503,38 L19.2940296,38 C18.5793554,38 18,37.4690376 18,36.8132897 L18,35.1873343 C18,34.5315863 18.5793554,34 19.2940296,34 L21.7066503,34 C22.4206446,34 23,34.5315863 23,35.1873343 L23,36.8132897 Z" id="Fill-19" fill="#DADADA"></path>
				<path d="M23,30.8132897 C23,31.4690376 22.4206446,32 21.7066503,32 L19.2940296,32 C18.5793554,32 18,31.4690376 18,30.8132897 L18,29.1873343 C18,28.5315863 18.5793554,28 19.2940296,28 L21.7066503,28 C22.4206446,28 23,28.5315863 23,29.1873343 L23,30.8132897 Z" id="Fill-21" fill="#DADADA"></path>
				<path d="M23,24.8128509 C23,25.4684966 22.4206446,26 21.7066503,26 L19.2940296,26 C18.5793554,26 18,25.4684966 18,24.8128509 L18,23.1871491 C18,22.5315034 18.5793554,22 19.2940296,22 L21.7066503,22 C22.4206446,22 23,22.5315034 23,23.1871491 L23,24.8128509 Z" id="Fill-23" fill="#DADADA"></path>
				<path d="M23,17.8128509 C23,18.4684966 22.4206446,19 21.7066503,19 L19.2940296,19 C18.5793554,19 18,18.4684966 18,17.8128509 L18,16.1871491 C18,15.5315034 18.5793554,15 19.2940296,15 L21.7066503,15 C22.4206446,15 23,15.5315034 23,16.1871491 L23,17.8128509 Z" id="Fill-25" fill="#DADADA"></path>
				<path d="M30,36.8132897 C30,37.4690376 29.4206446,38 28.7066503,38 L26.2940296,38 C25.5793554,38 25,37.4690376 25,36.8132897 L25,35.1873343 C25,34.5315863 25.5793554,34 26.2940296,34 L28.7066503,34 C29.4206446,34 30,34.5315863 30,35.1873343 L30,36.8132897 Z" id="Fill-27" fill="#DADADA"></path>
				<path d="M30,30.8132897 C30,31.4690376 29.4206446,32 28.7066503,32 L26.2940296,32 C25.5793554,32 25,31.4690376 25,30.8132897 L25,29.1873343 C25,28.5315863 25.5793554,28 26.2940296,28 L28.7066503,28 C29.4206446,28 30,28.5315863 30,29.1873343 L30,30.8132897 Z" id="Fill-29" fill="#DADADA"></path>
				<path d="M30,24.8128509 C30,25.4684966 29.4206446,26 28.7066503,26 L26.2940296,26 C25.5793554,26 25,25.4684966 25,24.8128509 L25,23.1871491 C25,22.5315034 25.5793554,22 26.2940296,22 L28.7066503,22 C29.4206446,22 30,22.5315034 30,23.1871491 L30,24.8128509 Z" id="Fill-31" fill="#DADADA"></path>
				<path d="M30,17.8128509 C30,18.4684966 29.4206446,19 28.7066503,19 L26.2940296,19 C25.5793554,19 25,18.4684966 25,17.8128509 L25,16.1871491 C25,15.5315034 25.5793554,15 26.2940296,15 L28.7066503,15 C29.4206446,15 30,15.5315034 30,16.1871491 L30,17.8128509 Z" id="Fill-33" fill="#DADADA"></path>
				<path d="M38,30.8132897 C38,31.4690376 37.4206446,32 36.7066503,32 L34.2940296,32 C33.5793554,32 33,31.4690376 33,30.8132897 L33,29.1873343 C33,28.5315863 33.5793554,28 34.2940296,28 L36.7066503,28 C37.4206446,28 38,28.5315863 38,29.1873343 L38,30.8132897 Z" id="Fill-35" fill="#DADADA"></path>
				<path d="M38,24.8128509 C38,25.4684966 37.4206446,26 36.7066503,26 L34.2940296,26 C33.5793554,26 33,25.4684966 33,24.8128509 L33,23.1871491 C33,22.5315034 33.5793554,22 34.2940296,22 L36.7066503,22 C37.4206446,22 38,22.5315034 38,23.1871491 L38,24.8128509 Z" id="Fill-37" fill="#DADADA"></path>
				<path d="M38,17.8128509 C38,18.4684966 37.4206446,19 36.7066503,19 L34.2940296,19 C33.5793554,19 33,18.4684966 33,17.8128509 L33,16.1871491 C33,15.5315034 33.5793554,15 34.2940296,15 L36.7066503,15 C37.4206446,15 38,15.5315034 38,16.1871491 L38,17.8128509 Z" id="Fill-39" fill="#DADADA"></path>
				<path d="M39.9958512,13.3467902 C39.9958512,12.9139643 39.9535517,12.4811383 39.9283085,12 L2,12 L39.9283085,12 C39.9535517,12.4811383 39.9958512,12.9139643 39.9958512,13.3467902 C39.9999447,21.5645268 40.0013092,29.7822634 39.9985802,38 C40.0013092,29.7822634 39.9999447,21.5645268 39.9958512,13.3467902" id="Fill-41" fill="#FFFFFF"></path>
				<path d="M39.571,40.413 C39.528,40.476 39.481,40.534 39.429,40.587 C39.481,40.534 39.528,40.476 39.571,40.413" id="Fill-43" fill="#FFFFFF"></path>
				<path d="M38.823,40.4255 C38.638,40.4925 38.427,40.5425 38.177,40.5745 C38.427,40.5425 38.638,40.4925 38.823,40.4255" id="Fill-45" fill="#FFFFFF"></path>
				<mask id="mask-2" fill="white">
					<use xlink:href="#path-1"></use>
				</mask>
				<g id="Clip-48"></g>
				<polygon id="Fill-47" fill="#FFFFFF" mask="url(#mask-2)" points="3 11 39 11 39 6 3 6"></polygon>
				<path d="M46,37 C46,42.5227243 41.5233868,47 36,47 C30.4772757,47 26,42.5227243 26,37 C26,31.4772757 30.4772757,27 36,27 C41.5233868,27 46,31.4772757 46,37" id="Fill-49" fill="#FFFFFF" mask="url(#mask-2)"></path>
				<path d="M46,37 C46,42.5227243 41.5233868,47 36,47 C30.4772757,47 26,42.5227243 26,37 C26,31.4772757 30.4772757,27 36,27 C41.5233868,27 46,31.4772757 46,37 Z" id="Stroke-50" stroke="#5482A9" stroke-width="2" stroke-linecap="round" stroke-linejoin="round" mask="url(#mask-2)"></path>
				<path d="M38.2508858,39.5190339 C38.5625778,38.9764319 38.9178397,38.4496033 39.3153308,37.9587378 C39.9031887,37.2319036 40.2108589,36.5157952 39.9186058,35.5561469 C39.695394,34.8236343 39.7429857,34.0185644 39.6652303,33.2456721 C39.552619,32.1150411 39.2174662,31.8210266 38.0410801,31.4727519 C37.0919276,31.191356 36.1970698,30.8310935 35.157426,31.087883 C33.1760031,31.5768557 32.1229532,32.8052813 32.1169204,34.7258398 C32.1162501,34.9700106 32.1738964,35.2387879 32.087427,35.4545668 C31.646366,36.5511274 32.1216126,37.3726015 32.8616298,38.181457 C33.2544288,38.6117529 33.5493632,39.1379506 33.803409,39.6584699 C34.0675093,40.1979172 33.7926841,40.5846788 33.1418175,40.7171747 C32.2415972,40.8995141 30.1006416,41.3291792 29,41.5487437 C30.5155607,43.6276662 33.0251843,44.9898495 35.8873887,44.9999444 C38.8474576,45.0100393 41.4509241,43.6453323 43,41.5525293 C41.8758977,41.3253936 39.7557215,40.8976213 38.8829838,40.7215912 C38.1221871,40.5682746 37.8828881,40.1594303 38.2508858,39.5190339" id="Fill-51" fill="#26D38D" mask="url(#mask-2)"></path>
				<path d="M8.5,8 C7.6715045,8 7,7.26125822 7,6.34980604 L7,1.65019396 C7,0.738741778 7.6715045,0 8.5,0 C9.32910875,0 10,0.738741778 10,1.65019396 L10,6.34980604 C10,7.26125822 9.32910875,8 8.5,8" id="Fill-52" fill="#FFA88F" mask="url(#mask-2)"></path>
				<path d="M14.5,8 C13.6708913,8 13,7.26125822 13,6.34980604 L13,1.65019396 C13,0.738741778 13.6708913,0 14.5,0 C15.3284955,0 16,0.738741778 16,1.65019396 L16,6.34980604 C16,7.26125822 15.3284955,8 14.5,8" id="Fill-53" fill="#FFA88F" mask="url(#mask-2)"></path>
				<path d="M21.5,8 C20.6715045,8 20,7.26125822 20,6.34980604 L20,1.65019396 C20,0.738741778 20.6715045,0 21.5,0 C22.3284955,0 23,0.738741778 23,1.65019396 L23,6.34980604 C23,7.26125822 22.3284955,8 21.5,8" id="Fill-54" fill="#FFA88F" mask="url(#mask-2)"></path>
				<path d="M28.5,8 C27.6715045,8 27,7.26125822 27,6.34980604 L27,1.65019396 C27,0.738741778 27.6715045,0 28.5,0 C29.3291087,0 30,0.738741778 30,1.65019396 L30,6.34980604 C30,7.26125822 29.3291087,8 28.5,8" id="Fill-55" fill="#FFA88F" mask="url(#mask-2)"></path>
				<path d="M35.5,8 C34.6708913,8 34,7.26125822 34,6.34980604 L34,1.65019396 C34,0.738741778 34.6708913,0 35.5,0 C36.3284955,0 37,0.738741778 37,1.65019396 L37,6.34980604 C37,7.26125822 36.3284955,8 35.5,8" id="Fill-56" fill="#FFA88F" mask="url(#mask-2)"></path>
			</g>
		</g>
	</g>
</svg>
