<?xml version="1.0" encoding="iso-8859-1"?>
<!-- Generator: Adobe Illustrator 19.0.0, SVG Export Plug-In . SVG Version: 6.00 Build 0)  -->
<svg version="1.1" id="Layer_1" xmlns="http://www.w3.org/2000/svg" xmlns:xlink="http://www.w3.org/1999/xlink" x="0px" y="0px"
	 viewBox="15 -15 80 80" style="enable-background:new 15 -15 80 80;" xml:space="preserve">
<g id="XMLID_59_">
	<path id="XMLID_95_" style="fill:#019DD7;" d="M55-14c21.6,0.1,39,17.4,39,39.1C94,46.6,76.5,64,54.9,64c-21.5,0-39-17.5-38.9-39.2
		C16.1,3.4,33.4-13.9,55-14z M20.9,25c0,18.8,15.3,34.1,34,34.2c18.9,0.1,34.3-15.3,34.3-34.1c0-18.9-15.4-34.3-34.3-34.2
		C36.2-9.1,20.9,6.2,20.9,25z"/>
	<path id="XMLID_91_" style="fill:#019DD7;" d="M57.4,22.6c0.4,0,0.7,0,1,0c5.3,0,10.6,0,15.9,0c1,0,1.8,0.4,2.3,1.3
		c0.5,0.9,0.4,1.7-0.2,2.5c-0.5,0.8-1.3,1-2.2,1c-5.3,0-10.6,0-15.8,0c-0.3,0-0.6,0-0.9,0c0,0.3,0,0.6,0,0.9c0,5.3,0,10.7,0,16
		c0,1-0.4,1.8-1.3,2.3c-0.9,0.5-1.7,0.4-2.5-0.2c-0.8-0.5-1-1.3-1-2.2c0-5.3,0-10.5,0-15.8c0-0.3,0-0.6,0-1c-0.3,0-0.6,0-0.8,0
		c-5.4,0-10.7,0-16.1,0c-1.9,0-3.1-1.7-2.4-3.4c0.5-1.1,1.3-1.5,2.4-1.5c5.3,0,10.6,0,15.9,0c0.3,0,0.6,0,0.9,0c0-0.3,0-0.6,0-0.9
		c0-5.3,0-10.7,0-16c0-1,0.4-1.8,1.3-2.3c0.9-0.5,1.7-0.4,2.5,0.1s1.1,1.3,1.1,2.3c0,5.3,0,10.6,0,15.8
		C57.4,21.9,57.4,22.2,57.4,22.6z"/>
</g>
</svg>
