<svg xmlns="http://www.w3.org/2000/svg" viewBox="0 0 1200 344.73"><defs><style>.cls-1{fill:#6f56a3;}.cls-2{fill:#aeaeaf;}</style></defs><title>WP Project Manager</title><g id="Layer_2" data-name="Layer 2"><g id="Layer_1-2" data-name="Layer 1"><g id="_Group_" data-name="&lt;Group&gt;"><path id="_Path_" data-name="&lt;Path&gt;" class="cls-1" d="M280.05,32.72A173.66,173.66,0,0,0,231.73,5.29L142.64,130.07v14.68l.13.19.28,29.87V317a27.6,27.6,0,0,0,27.34,27.72H171A27.61,27.61,0,0,0,198.31,317V147.21l7-9.79,43.53-61a121.48,121.48,0,0,1,.9,185.4,26.8,26.8,0,1,0,34.63,40.92,175.1,175.1,0,0,0-4.31-270Z"/><path id="_Path_2" data-name="&lt;Path&gt;" class="cls-2" d="M96.42,257.22A121.51,121.51,0,0,1,97.87,70.85l32.36,46.44,34.94-46.16-17.07-25L115.19,0A175.19,175.19,0,0,0,61.9,298.22a26.84,26.84,0,0,0,37.28-2.4h0A26.89,26.89,0,0,0,96.42,257.22Z"/></g><path class="cls-2" d="M458.89,292.12l-22.3-78.57h-.67q1.56,20.08,1.57,31.19v47.38H411.37V183h39.24l22.76,77.44h.6L496.28,183H535.6V292.12H508.51V244.29c0-2.48,0-5.25.11-8.28s.41-10.47,1-22.3H509l-22,78.41Z"/><path class="cls-2" d="M626,292.12l-5.37-20.45H585.21l-5.52,20.45H547.31L582.9,182.6h39.32l36,109.52ZM614.53,247.5l-4.7-17.9q-1.65-6-4-15.45t-3.1-13.58q-.68,3.81-2.65,12.54t-8.77,34.39Z"/><path class="cls-2" d="M773.89,292.12H735.25L695.4,215.27h-.67q1.42,18.14,1.42,27.68v49.17H670V183h38.5l39.69,75.8h.45q-1-16.48-1-26.49V183h26.26Z"/><path class="cls-2" d="M864.39,292.12,859,271.67H823.59l-5.53,20.45H785.68L821.27,182.6h39.32l36,109.52ZM852.9,247.5l-4.7-17.9q-1.63-6-4-15.45t-3.09-13.58q-.68,3.81-2.65,12.54T829.7,247.5Z"/><path class="cls-2" d="M952.21,228.25h47.08v58.8a129.67,129.67,0,0,1-42.16,6.56q-25.21,0-39-14.63t-13.77-41.7q0-26.42,15.08-41.11t42.23-14.7a93.64,93.64,0,0,1,19.43,1.94,82.67,82.67,0,0,1,15.93,4.93l-9.33,23.13a57.52,57.52,0,0,0-25.89-5.83q-12.9,0-20,8.4t-7,24q0,15.3,6.38,23.32t18.39,8a53.7,53.7,0,0,0,12.08-1.27V251H952.21Z"/><path class="cls-2" d="M1086.28,292.12h-64.76V183h64.76v23.65H1051v17.16h32.68V247.5H1051v20.59h35.29Z"/><path class="cls-2" d="M1134.85,252.43v39.69h-29.47V183h35.74q44.46,0,44.46,32.23,0,19-18.5,29.32l31.78,47.53h-33.42l-23.13-39.69Zm0-22.16h5.52q15.45,0,15.44-13.65,0-11.28-15.14-11.27h-5.82Z"/><path class="cls-1" d="M515.32,133.5H485.89l-8.83-40.15q-.63-2.52-2-10t-2-12.55c-.34,2.73-.88,6.13-1.64,10.18s-1.5,7.78-2.24,11.19-3.79,17.19-9.17,41.35H430.6L407.79,41.35h24l10,46.2q3.41,15.32,4.66,24.39.83-6.42,2.93-17.46t3.94-18.28l8.13-34.85h23.07l7.88,34.85q2,8.39,4.1,19.36t2.77,16.38q.82-7,4.48-24.26L514,41.35h24Z"/><path class="cls-1" d="M616.81,70.66q0,15.44-9.11,23.85t-25.87,8.42h-7V133.5h-24.9V41.35h31.9q17.46,0,26.22,7.62T616.81,70.66Zm-42,12h4.54a12.41,12.41,0,0,0,8.92-3.15q3.3-3.15,3.31-8.7,0-9.33-10.34-9.33h-6.43Z"/><path class="cls-1" d="M731.91,70.66q0,15.44-9.11,23.85t-25.87,8.42h-7V133.5H665V41.35h31.9q17.46,0,26.22,7.62T731.91,70.66Zm-42,12h4.54q5.61,0,8.91-3.15t3.32-8.7q0-9.33-10.34-9.33h-6.43Z"/><path class="cls-1" d="M771.49,100V133.5H746.6V41.35h30.19q37.58,0,37.57,27.23,0,16-15.64,24.77l26.86,40.15H797.34L777.8,100Zm0-18.73h4.67q13.05,0,13.05-11.53,0-9.52-12.8-9.52h-4.92Z"/><path class="cls-1" d="M920.19,87.3q0,23.25-11.41,35.36t-33.41,12.1q-21.69,0-33.24-12.16T830.55,87.17q0-23,11.51-35.14T875.5,39.89q22,0,33.34,12T920.19,87.3Zm-63.41,0q0,26.72,18.59,26.72,9.46,0,14-6.49T894,87.3q0-13.8-4.64-20.4T875.5,60.32Q856.78,60.32,856.78,87.3Z"/><path class="cls-1" d="M929.58,162.43a61.11,61.11,0,0,1-12.92-1.32V141.76c1.34.25,2.77.53,4.28.85a24.61,24.61,0,0,0,4.92.47q6.18,0,8.83-3.71t2.65-12.74V41.35h25v83.14q0,18.72-8.19,28.33T929.58,162.43Z"/><path class="cls-1" d="M1037,133.5H982.28V41.35H1037v20h-29.82v14.5h27.61v20h-27.61V113.2H1037Z"/><path class="cls-1" d="M1094.16,60.44a15.88,15.88,0,0,0-13.87,7.28q-5,7.29-5,20.08,0,26.6,20.24,26.6a41.54,41.54,0,0,0,11.84-1.7,118.14,118.14,0,0,0,11.54-4.1v21.06a63.88,63.88,0,0,1-26.1,5.1q-20.85,0-32-12.1t-11.12-35q0-14.31,5.39-25.16a38.61,38.61,0,0,1,15.5-16.67q10.13-5.84,23.8-5.83a65.57,65.57,0,0,1,28.56,6.5l-7.63,19.6a87.2,87.2,0,0,0-10.21-4A35.75,35.75,0,0,0,1094.16,60.44Z"/><path class="cls-1" d="M1177.56,133.5h-24.9V61.7h-22.5V41.35H1200V61.7h-22.44Z"/></g></g></svg>