<?xml version="1.0" encoding="utf-8"?>
<!-- Generator: Adobe Illustrator 21.0.0, SVG Export Plug-In . SVG Version: 6.00 Build 0)  -->
<svg version="1.1" id="Layer_1" xmlns="http://www.w3.org/2000/svg" xmlns:xlink="http://www.w3.org/1999/xlink" x="0px" y="0px"
	 viewBox="0 0 100 28.7" style="enable-background:new 0 0 100 28.7;" xml:space="preserve">
<style type="text/css">
	.st0{fill:#FFFFFF;}
</style>
<title>PM_Hover</title>
<g id="Layer_2">
	<g id="Layer_1-2">
		<g id="_Group_">
			<path id="_Path_" class="st0" d="M23.3,2.7c-1.2-1-2.6-1.7-4-2.3l-7.4,10.4v1.2v2.5v11.9c0,1.3,1,2.3,2.3,2.3l0,0
				c1.3,0,2.3-1,2.3-2.3V12.3l0.6-0.8l3.6-5.1c4.3,3.6,4.8,10,1.3,14.3c-0.4,0.4-0.8,0.8-1.2,1.2c-0.9,0.8-1.1,2.2-0.3,3.1
				s2.2,1.1,3.1,0.3l0,0c6.1-5.2,6.9-14.4,1.6-20.6C24.7,4,24,3.3,23.3,2.7L23.3,2.7z"/>
			<path id="_Path_2" class="st0" d="M8,21.4c-4.3-3.6-4.7-10-1.1-14.3c0.4-0.5,0.8-0.9,1.3-1.2l2.7,3.9l2.9-3.8l-1.4-2.1L9.6,0
				C2,2.8-1.9,11.1,0.9,18.7c0.9,2.4,2.3,4.5,4.3,6.1c0.9,0.8,2.3,0.7,3.1-0.2l0,0C9.1,23.7,9,22.3,8,21.4C8,21.5,8,21.4,8,21.4z"/>
		</g>
		<path class="st0" d="M38.2,24.3l-1.9-6.5h-0.1c0.1,1.1,0.1,2,0.1,2.6v4h-2.2v-9.1h3.3l1.9,6.5l0,0l1.9-6.4h3.3v9.1h-2.2v-4
			c0-0.2,0-0.4,0-0.7s0-0.9,0.1-1.9h-0.1l-1.8,6.5L38.2,24.3z"/>
		<path class="st0" d="M52.2,24.3l-0.5-1.7h-3l-0.5,1.7h-2.7l3-9.1h3.3l3,9.1H52.2z M51.2,20.6l-0.4-1.5c-0.1-0.3-0.2-0.8-0.3-1.3
			s-0.2-0.9-0.3-1.1c0,0.2-0.1,0.5-0.2,1c-0.1,0.5-0.4,1.4-0.7,2.9L51.2,20.6z"/>
		<path class="st0" d="M64.5,24.3h-3.2L58,17.9h-0.1c0.1,1,0.1,1.8,0.1,2.3v4.1h-2.2v-9.1H59l3.3,6.3l0,0c-0.1-0.9-0.1-1.6-0.1-2.2
			v-4.1h2.2L64.5,24.3z"/>
		<path class="st0" d="M72,24.3l-0.4-1.7h-3l-0.5,1.7h-2.7l3-9.1h3.3l3,9.1H72z M71,20.6l-0.4-1.5c-0.1-0.3-0.2-0.8-0.3-1.3
			s-0.2-0.9-0.3-1.1c0,0.2-0.1,0.5-0.2,1c-0.1,0.5-0.4,1.4-0.7,2.9L71,20.6z"/>
		<path class="st0" d="M79.3,19h3.9v4.9c-1.1,0.4-2.3,0.6-3.5,0.5c-1.2,0.1-2.4-0.4-3.2-1.2c-0.8-1-1.2-2.2-1.2-3.5
			c-0.1-1.3,0.4-2.5,1.3-3.4c1-0.9,2.2-1.3,3.5-1.2c0.5,0,1.1,0.1,1.6,0.2c0.5,0.1,0.9,0.2,1.3,0.4l-0.8,1.9
			c-0.7-0.3-1.4-0.5-2.2-0.5c-0.6,0-1.2,0.2-1.7,0.7c-0.4,0.6-0.6,1.3-0.6,2c0,0.7,0.1,1.4,0.5,1.9c0.4,0.5,0.9,0.7,1.5,0.7
			c0.3,0,0.7,0,1-0.1v-1.4h-1.6V19z"/>
		<path class="st0" d="M90.5,24.3h-5.4v-9.1h5.4v2h-2.9v1.4h2.7v2h-2.7v1.7h2.9L90.5,24.3z"/>
		<path class="st0" d="M94.6,21v3.3h-2.5v-9.1h3c2.5,0,3.7,0.9,3.7,2.7c0,1-0.6,2-1.5,2.4l2.7,4h-2.8L95.2,21H94.6z M94.6,19.1H95
			c0.9,0,1.3-0.4,1.3-1.1c0-0.6-0.4-0.9-1.3-0.9h-0.5L94.6,19.1z"/>
		<path class="st0" d="M42.9,11.1h-2.4l-0.7-3.3c0-0.1-0.1-0.4-0.2-0.8s-0.1-0.8-0.2-1c0,0.2,0,0.5-0.1,0.8s-0.2,0.7-0.2,0.9
			l-0.8,3.5h-2.4L34,3.5h2l0.8,3.9c0.2,0.9,0.3,1.5,0.4,2c0-0.4,0.1-0.8,0.2-1.4s0.2-1.1,0.3-1.5l0.7-2.9h1.9L41,6.3
			c0.1,0.5,0.2,1,0.3,1.6s0.2,1.1,0.2,1.4c0-0.4,0.2-1.1,0.4-2l0.8-3.9h2L42.9,11.1z"/>
		<path class="st0" d="M51.4,5.9c0,0.7-0.2,1.5-0.8,2c-0.6,0.5-1.4,0.8-2.2,0.7h-0.6v2.6h-2.1V3.5h2.7c0.8-0.1,1.6,0.2,2.2,0.6
			C51.2,4.6,51.4,5.2,51.4,5.9z M47.9,6.9h0.4c0.3,0,0.5-0.1,0.7-0.3c0.2-0.2,0.3-0.5,0.3-0.7c0-0.5-0.3-0.8-0.9-0.8h-0.5V6.9z"/>
		<path class="st0" d="M61,5.9c0,0.7-0.2,1.5-0.8,2c-0.6,0.5-1.4,0.8-2.2,0.7h-0.6v2.6h-2.1V3.5h2.7c0.8-0.1,1.6,0.2,2.2,0.6
			C60.8,4.6,61,5.2,61,5.9z M57.5,6.9h0.4c0.3,0,0.5-0.1,0.7-0.3c0.2-0.2,0.3-0.5,0.3-0.7c0-0.5-0.3-0.8-0.9-0.8h-0.5V6.9z"/>
		<path class="st0" d="M64.3,8.3v2.8h-2.1V3.5h2.5c2.1,0,3.1,0.8,3.1,2.3c0,0.9-0.5,1.7-1.3,2.1l2.2,3.3h-2.4l-1.6-2.8H64.3z
			 M64.3,6.8h0.4c0.7,0,1.1-0.3,1.1-1c0-0.5-0.4-0.8-1.1-0.8h-0.4L64.3,6.8z"/>
		<path class="st0" d="M76.7,7.3c0.1,1.1-0.3,2.1-1,3c-1.6,1.3-3.9,1.3-5.6,0c-0.7-0.8-1.1-1.9-1-3c-0.1-1.1,0.3-2.1,1-2.9
			c1.6-1.3,4-1.3,5.6,0C76.4,5.1,76.8,6.2,76.7,7.3z M71.4,7.3c0,1.5,0.5,2.2,1.6,2.2c0.4,0,0.9-0.1,1.2-0.5
			c0.3-0.5,0.4-1.1,0.4-1.7c0-0.6-0.1-1.2-0.4-1.7C73.9,5.2,73.4,5,73,5C71.9,5,71.4,5.8,71.4,7.3z"/>
		<path class="st0" d="M77.5,13.5c-0.4,0-0.7,0-1.1-0.1v-1.6l0.4,0.1c0.1,0,0.3,0,0.4,0c0.3,0,0.6-0.1,0.7-0.3
			c0.2-0.3,0.3-0.7,0.2-1.1V3.5h2.1v6.9c0.1,0.8-0.2,1.7-0.7,2.4C79,13.3,78.2,13.6,77.5,13.5z"/>
		<path class="st0" d="M86.4,11.1h-4.6V3.5h4.6v1.7h-2.5v1.2h2.3V8h-2.3v1.4h2.5L86.4,11.1z"/>
		<path class="st0" d="M91.2,5c-0.5,0-0.9,0.2-1.2,0.6c-0.3,0.5-0.4,1.1-0.4,1.7c0,1.5,0.6,2.2,1.7,2.2c0.3,0,0.7,0,1-0.1
			c0.3-0.1,0.7-0.2,1-0.3v1.8c-0.7,0.3-1.4,0.4-2.2,0.4c-1,0.1-2-0.3-2.7-1c-0.7-0.8-1-1.9-0.9-2.9c0-0.7,0.1-1.4,0.4-2.1
			c0.3-0.6,0.7-1.1,1.3-1.4c0.6-0.3,1.3-0.5,2-0.5c0.8,0,1.6,0.2,2.4,0.5L93,5.5c-0.3-0.1-0.6-0.2-0.8-0.3C91.8,5.1,91.5,5,91.2,5z"
			/>
		<path class="st0" d="M98.1,11.1h-2.1v-6h-1.9V3.5h5.8v1.7h-1.9V11.1z"/>
	</g>
</g>
</svg>
