<?xml version="1.0" encoding="UTF-8"?>
<svg width="54px" height="44px" viewBox="0 0 54 44" version="1.1" xmlns="http://www.w3.org/2000/svg" xmlns:xlink="http://www.w3.org/1999/xlink">
	<!-- Generator: Sketch 52.3 (67297) - http://www.bohemiancoding.com/sketch -->
	<title>Group 31</title>
	<desc>Created with Sketch.</desc>
	<g id="Page-1" stroke="none" stroke-width="1" fill="none" fill-rule="evenodd">
		<g id="01-Report-page-overview" transform="translate(-284.000000, -373.000000)">
			<g id="Group-31" transform="translate(286.000000, 375.000000)">
				<g id="Group-5">
					<path d="M42.8119151,39.8182545 L8.01314795,39.8182545 C3.68443562,39.8182545 0.174517808,36.1644364 0.174517808,31.6575273 L0.174517808,8.34261818 C0.174517808,3.83498182 3.68443562,0.181890909 8.01314795,0.181890909 L42.8119151,0.181890909 C47.1406274,0.181890909 50.6505452,3.83498182 50.6505452,8.34261818 L50.6505452,31.6575273 C50.6505452,36.1644364 47.1406274,39.8182545 42.8119151,39.8182545" id="Fill-1" fill="#FFFFFF"></path>
					<path d="M42.8119151,39.8182545 L8.01314795,39.8182545 C3.68443562,39.8182545 0.174517808,36.1644364 0.174517808,31.6575273 L0.174517808,8.34261818 C0.174517808,3.83498182 3.68443562,0.181890909 8.01314795,0.181890909 L42.8119151,0.181890909 C47.1406274,0.181890909 50.6505452,3.83498182 50.6505452,8.34261818 L50.6505452,31.6575273 C50.6505452,36.1644364 47.1406274,39.8182545 42.8119151,39.8182545 Z" id="Stroke-3" stroke="#5482A9" stroke-width="2.5" stroke-linecap="round" stroke-linejoin="round"></path>
				</g>
				<polygon id="Fill-6" fill="#B492F7" points="14 30 17 30 17 19 14 19"></polygon>
				<polygon id="Stroke-7" stroke="#8A6CD3" stroke-width="0.8" points="14 30 17 30 17 19 14 19"></polygon>
				<polygon id="Fill-8" fill="#FBF2BC" points="21 30 24 30 24 10 21 10"></polygon>
				<polygon id="Stroke-9" stroke="#E8DA95" stroke-width="0.8" points="21 30 24 30 24 10 21 10"></polygon>
				<polygon id="Fill-10" fill="#D7F9BB" points="27 29 30 29 30 13 27 13"></polygon>
				<polygon id="Stroke-11" stroke="#ADD388" stroke-width="0.8" points="27 29 30 29 30 13 27 13"></polygon>
				<polygon id="Fill-12" fill="#A2D4FF" points="34 29 37 29 37 5 34 5"></polygon>
				<polygon id="Stroke-13" stroke="#264D7C" stroke-width="0.8" stroke-linecap="round" stroke-linejoin="round" points="34 29 37 29 37 5 34 5"></polygon>
				<g id="Group-30" transform="translate(14.000000, 31.000000)">
					<path d="M2.61133714,2.2914 C2.67305143,2.18006667 2.74368,2.07273333 2.82253714,1.97206667 C2.93910857,1.82406667 2.99945143,1.6774 2.94116571,1.4814 C2.89728,1.3314 2.90688,1.16673333 2.89179429,1.00873333 C2.86916571,0.7774 2.77316571,0.666066667 2.54002286,0.594733333 C2.35213714,0.5374 2.20470857,0.514733333 1.99899429,0.5674 C1.60676571,0.6674 1.39830857,0.918733333 1.39693714,1.3114 C1.39693714,1.3614 1.40859429,1.41673333 1.39145143,1.46006667 C1.30436571,1.68473333 1.39830857,1.85273333 1.54436571,2.01806667 C1.62253714,2.10606667 1.68150857,2.2134 1.73156571,2.32006667 C1.78368,2.43006667 1.72882286,2.5094 1.59990857,2.53606667 C1.42230857,2.5734 0.997851429,2.6614 0.78048,2.70673333 C1.08082286,3.1314 1.57728,3.41006667 2.14368,3.41206667 C2.72996571,3.41406667 3.24493714,3.1354 3.55145143,2.7074 C3.32928,2.66073333 2.90962286,2.5734 2.73682286,2.5374 C2.58596571,2.50606667 2.53933714,2.42206667 2.61133714,2.2914" id="Fill-14" fill="#8A6CD3"></path>
					<path d="M2.16198857,0.137066667 C1.25136,0.137066667 0.510788571,0.857066667 0.510788571,1.7424 C0.510788571,2.62706667 1.25136,3.34706667 2.16198857,3.34706667 C3.07193143,3.34706667 3.81250286,2.62706667 3.81250286,1.7424 C3.81250286,0.857066667 3.07193143,0.137066667 2.16198857,0.137066667 M2.16198857,3.48106667 C1.17593143,3.48106667 0.373645714,2.70106667 0.373645714,1.7424 C0.373645714,0.783733333 1.17593143,0.00373333333 2.16198857,0.00373333333 C3.14736,0.00373333333 3.94964571,0.783733333 3.94964571,1.7424 C3.94964571,2.70106667 3.14736,3.48106667 2.16198857,3.48106667" id="Fill-16" fill="#8A6CD3"></path>
					<path d="M9.10553143,2.2914 C9.16724571,2.18006667 9.23787429,2.07273333 9.31673143,1.97206667 C9.43330286,1.82406667 9.49364571,1.6774 9.43536,1.4814 C9.39147429,1.3314 9.40107429,1.16673333 9.38598857,1.00873333 C9.36336,0.7774 9.26736,0.666066667 9.03421714,0.594733333 C8.84633143,0.5374 8.69890286,0.514733333 8.49318857,0.5674 C8.10096,0.6674 7.89250286,0.918733333 7.89113143,1.3114 C7.89113143,1.3614 7.90278857,1.41673333 7.88564571,1.46006667 C7.79856,1.68473333 7.89250286,1.85273333 8.03856,2.01806667 C8.11673143,2.10606667 8.17570286,2.2134 8.22576,2.32006667 C8.27787429,2.43006667 8.22301714,2.5094 8.09410286,2.53606667 C7.91650286,2.5734 7.49204571,2.6614 7.27467429,2.70673333 C7.57501714,3.1314 8.07147429,3.41006667 8.63787429,3.41206667 C9.22416,3.41406667 9.73913143,3.1354 10.0456457,2.7074 C9.82347429,2.66073333 9.40381714,2.5734 9.23101714,2.5374 C9.08016,2.50606667 9.03353143,2.42206667 9.10553143,2.2914" id="Fill-18" fill="#E8DA95"></path>
					<path d="M8.66016,0.137066667 C7.74953143,0.137066667 7.00896,0.857066667 7.00896,1.7424 C7.00896,2.62706667 7.74953143,3.34706667 8.66016,3.34706667 C9.57010286,3.34706667 10.3106743,2.62706667 10.3106743,1.7424 C10.3106743,0.857066667 9.57010286,0.137066667 8.66016,0.137066667 M8.66016,3.48106667 C7.67410286,3.48106667 6.87181714,2.70106667 6.87181714,1.7424 C6.87181714,0.783733333 7.67410286,0.00373333333 8.66016,0.00373333333 C9.64553143,0.00373333333 10.4478171,0.783733333 10.4478171,1.7424 C10.4478171,2.70106667 9.64553143,3.48106667 8.66016,3.48106667" id="Fill-20" fill="#E8DA95"></path>
					<path d="M15.61776,2.2914 C15.6794743,2.18006667 15.7494171,2.07273333 15.82896,1.97206667 C15.9455314,1.82406667 16.0058743,1.6774 15.9475886,1.4814 C15.9037029,1.3314 15.9133029,1.16673333 15.8975314,1.00873333 C15.8755886,0.7774 15.7795886,0.666066667 15.5464457,0.594733333 C15.35856,0.5374 15.2111314,0.514733333 15.0054171,0.5674 C14.6131886,0.6674 14.4047314,0.918733333 14.40336,1.3114 C14.40336,1.3614 14.4150171,1.41673333 14.3978743,1.46006667 C14.3107886,1.68473333 14.4040457,1.85273333 14.5507886,2.01806667 C14.62896,2.10606667 14.6872457,2.2134 14.7379886,2.32006667 C14.7894171,2.43006667 14.7352457,2.5094 14.6063314,2.53606667 C14.4287314,2.5734 14.0042743,2.6614 13.7869029,2.70673333 C14.0872457,3.1314 14.5830171,3.41006667 15.1494171,3.41206667 C15.7357029,3.41406667 16.25136,3.1354 16.5578743,2.7074 C16.3357029,2.66073333 15.9160457,2.5734 15.7432457,2.5374 C15.5923886,2.50606667 15.5450743,2.42206667 15.61776,2.2914" id="Fill-22" fill="#ADD388"></path>
					<path d="M15.1724571,0.137066667 C14.2618286,0.137066667 13.5212571,0.857066667 13.5212571,1.7424 C13.5212571,2.62706667 14.2618286,3.34706667 15.1724571,3.34706667 C16.0824,3.34706667 16.8229714,2.62706667 16.8229714,1.7424 C16.8229714,0.857066667 16.0824,0.137066667 15.1724571,0.137066667 M15.1724571,3.48106667 C14.1864,3.48106667 13.3841143,2.70106667 13.3841143,1.7424 C13.3841143,0.783733333 14.1864,0.00373333333 15.1724571,0.00373333333 C16.1578286,0.00373333333 16.9601143,0.783733333 16.9601143,1.7424 C16.9601143,2.70106667 16.1578286,3.48106667 15.1724571,3.48106667" id="Fill-24" fill="#ADD388"></path>
					<path d="M22.1119543,2.2914 C22.1736686,2.18006667 22.2436114,2.07273333 22.3231543,1.97206667 C22.4397257,1.82406667 22.5000686,1.6774 22.4417829,1.4814 C22.3978971,1.3314 22.4074971,1.16673333 22.3917257,1.00873333 C22.3697829,0.7774 22.2737829,0.666066667 22.04064,0.594733333 C21.8527543,0.5374 21.7053257,0.514733333 21.4996114,0.5674 C21.1073829,0.6674 20.8989257,0.918733333 20.8975543,1.3114 C20.8975543,1.3614 20.9092114,1.41673333 20.8920686,1.46006667 C20.8049829,1.68473333 20.89824,1.85273333 21.0449829,2.01806667 C21.1231543,2.10606667 21.18144,2.2134 21.2321829,2.32006667 C21.2842971,2.43006667 21.22944,2.5094 21.1005257,2.53606667 C20.9229257,2.5734 20.4984686,2.6614 20.2810971,2.70673333 C20.58144,3.1314 21.0772114,3.41006667 21.6436114,3.41206667 C22.2298971,3.41406667 22.7455543,3.1354 23.0520686,2.7074 C22.8298971,2.66073333 22.41024,2.5734 22.23744,2.5374 C22.0865829,2.50606667 22.0392686,2.42206667 22.1119543,2.2914" id="Fill-26" fill="#264D7C"></path>
					<path d="M21.6666514,0.137066667 C20.7560229,0.137066667 20.0154514,0.857066667 20.0154514,1.7424 C20.0154514,2.62706667 20.7560229,3.34706667 21.6666514,3.34706667 C22.5765943,3.34706667 23.3171657,2.62706667 23.3171657,1.7424 C23.3171657,0.857066667 22.5765943,0.137066667 21.6666514,0.137066667 M21.6666514,3.48106667 C20.6805943,3.48106667 19.8783086,2.70106667 19.8783086,1.7424 C19.8783086,0.783733333 20.6805943,0.00373333333 21.6666514,0.00373333333 C22.6520229,0.00373333333 23.4543086,0.783733333 23.4543086,1.7424 C23.4543086,2.70106667 22.6520229,3.48106667 21.6666514,3.48106667" id="Fill-28" fill="#264D7C"></path>
				</g>
			</g>
		</g>
	</g>
</svg>
