<?xml version="1.0" encoding="utf-8"?>
<!-- Generator: Adobe Illustrator 19.2.1, SVG Export Plug-In . SVG Version: 6.00 Build 0)  -->
<svg version="1.1" id="Layer_1" xmlns="http://www.w3.org/2000/svg" xmlns:xlink="http://www.w3.org/1999/xlink" x="0px" y="0px"
	 viewBox="0 0 78 78" style="enable-background:new 0 0 78 78;" xml:space="preserve">
<style type="text/css">
	.st0{fill:#ED9E02;}
</style>
<g id="XMLID_80_">
	<path id="XMLID_178_" class="st0" d="M39.9,78c-0.7,0-1.3,0-2,0c-1.7-0.2-3.3-0.3-5-0.5c-6.8-1.1-12.9-3.7-18.2-8
		C7,63.3,2.3,55.3,0.6,45.5c-0.3-1.8-0.4-3.6-0.6-5.4c0-0.7,0-1.4,0-2.2c0-0.3,0.1-0.7,0.1-1c0.4-2.6,0.6-5.3,1.2-7.8
		c2.2-8.6,6.9-15.7,14-21.1c5.4-4.2,11.6-6.7,18.4-7.6c1.4-0.2,2.8-0.3,4.2-0.4c0.8,0,1.5,0,2.3,0c1.6,0.2,3.1,0.2,4.7,0.5
		c10.8,1.7,19.4,7,25.8,15.8c3.8,5.2,6.1,11,6.9,17.4c0.2,1.4,0.3,2.8,0.4,4.2c0,0.7,0,1.3,0,2c0,0.3-0.1,0.7-0.1,1
		c-0.4,2.6-0.5,5.3-1.2,7.9c-2.3,9.1-7.4,16.4-15,21.9c-5.2,3.8-11,6-17.4,6.8C42.8,77.8,41.4,77.9,39.9,78z M41.9,8.9
		c-0.2,0.8-0.3,1.6-0.6,2.3c-0.2,0.7-0.7,1.3-1.5,1.5c-1.5,0.4-2.5-0.2-3.1-1.9c-0.3-0.7-0.4-1.7-0.9-2c-0.6-0.3-1.5,0.1-2.3,0.1
		c0,0-0.1,0-0.1,0C21.9,11,12,20.3,9.4,31.8c-0.3,1.4-0.4,2.9-0.6,4.3c0.6,0.1,0.9,0.2,1.3,0.3c0.4,0.1,0.7,0.2,1.1,0.3
		c1.1,0.4,1.6,1.1,1.6,2.2c0,1.1-0.4,1.8-1.5,2.3c-0.8,0.3-1.6,0.5-2.5,0.8c0.5,7.8,3.9,14.2,9.6,19.4c5,4.6,10.9,7.4,17.7,7.8
		c0.2-0.9,0.4-1.7,0.6-2.5c0.4-1,1.2-1.5,2.3-1.5c1,0,1.7,0.5,2.1,1.4c0.3,0.8,0.6,1.7,0.9,2.5c14.1-0.2,27.3-14.6,27.1-27.2
		c-0.8-0.2-1.5-0.3-2.2-0.6c-1.2-0.4-1.6-1.1-1.7-2.2c0-1.1,0.5-1.9,1.5-2.2c0.8-0.3,1.6-0.5,2.4-0.7c0.2-2.5-0.2-4.9-1.2-7.2
		c-3.7-8.6-9.8-14.9-18.2-18.8C47.2,8.9,44.6,8.4,41.9,8.9z"/>
	<path id="XMLID_168_" class="st0" d="M62.2,39.9c1.6,0.3,2,1.1,1.2,2.5c-1.9,3.3-3.8,6.6-5.7,9.9c-0.8,1.4-1.9,1.4-2.7,0
		c-1.9-3.3-3.8-6.5-5.7-9.8c-0.8-1.4-0.6-2,1-2.5c0.2-2.1,0-4.1-0.7-6.1c-0.1-0.3-0.2-0.7,0-0.9c1.8-2.9,3.7-5.8,5.7-8.8
		C59.5,28.5,61.7,33.8,62.2,39.9z"/>
	<path id="XMLID_165_" class="st0" d="M33.4,39c0-2.2,1.3-4,3.3-4.8c0.3-0.1,0.6-0.3,0.8-0.6c4.4-5.5,8.7-11,13.1-16.5
		c1.1-1.4,2.1-1.5,3.6-0.5c2.1,1.4,2.4,2.4,0.9,4.7c-3.7,5.6-7.3,11.3-11,16.9c-0.3,0.4-0.4,1-0.5,1.5c-0.3,2.1-1.8,3.8-3.8,4.4
		c-2.1,0.5-4.2-0.2-5.5-1.9C33.8,41.3,33.4,40.1,33.4,39z M38.5,41.9c1.6,0,2.9-1.3,2.9-2.9c0-1.5-1.3-2.8-2.9-2.9
		c-1.6,0-2.9,1.3-2.9,2.9C35.7,40.6,37,41.9,38.5,41.9z"/>
	<path id="XMLID_164_" class="st0" d="M47.4,18.5c-1.7,2.2-3.5,4.4-5.1,6.4c-1.8-0.5-3.4-1.2-5.1-1.5c-5.5-1-10.3,0.5-14.5,4.1
		c-3.6,3.1-5.7,7.2-6.3,12c-0.1,0.6,0,1.4-0.9,1.4c-0.9,0-0.8-0.8-0.8-1.4c-0.5-9.4,5.5-18.3,14.7-21.6c5.8-2.1,11.7-1.9,17.4,0.4
		C47,18.3,47.2,18.4,47.4,18.5z"/>
</g>
</svg>
