<?xml version="1.0" encoding="utf-8"?>
<!-- Generator: Adobe Illustrator 19.2.1, SVG Export Plug-In . SVG Version: 6.00 Build 0)  -->
<svg version="1.1" id="Layer_1" xmlns="http://www.w3.org/2000/svg" xmlns:xlink="http://www.w3.org/1999/xlink" x="0px" y="0px"
	 viewBox="0 0 78 78" style="enable-background:new 0 0 78 78;" xml:space="preserve">
<style type="text/css">
	.st0{fill:#9ACE71;}
	.st1{fill:#9ACD71;}
</style>
<g>
	<g>
		<g>
			<path class="st0" d="M37.3,73.2H10.6c-1.3,0-2.4-1.1-2.4-2.4V3.3C8.3,2,9.3,1,10.6,1h47.9c1.3,0,2.4,1.1,2.4,2.4v38.3
				c0,0.4-0.4,0.8-0.8,0.8s-0.8-0.4-0.8-0.8V3.3c0-0.4-0.4-0.8-0.8-0.8H10.6c-0.4,0-0.8,0.4-0.8,0.8v67.5c0,0.4,0.4,0.8,0.8,0.8
				h26.7c0.4,0,0.8,0.4,0.8,0.8S37.7,73.2,37.3,73.2z"/>
			<path class="st1" d="M37.3,74.2H10.6c-1.8,0-3.3-1.5-3.3-3.3V3.3C7.3,1.5,8.8,0,10.6,0h47.9c1.8,0,3.3,1.5,3.3,3.3v38.3
				c0,1-0.8,1.8-1.8,1.8c-1,0-1.8-0.8-1.8-1.8V3.6H10.8v67.1h26.5c1,0,1.8,0.8,1.8,1.8S38.3,74.2,37.3,74.2z"/>
		</g>
	</g>
	<g>
		<g>
			<path class="st0" d="M47.9,9.2H21.2c-0.2,0-0.4-0.2-0.4-0.4s0.2-0.4,0.4-0.4h26.7c0.2,0,0.4,0.2,0.4,0.4S48.1,9.2,47.9,9.2z"/>
			<path class="st1" d="M47.9,10.2H21.2c-0.8,0-1.4-0.6-1.4-1.4c0-0.8,0.6-1.4,1.4-1.4h26.7c0.8,0,1.4,0.6,1.4,1.4
				C49.3,9.6,48.6,10.2,47.9,10.2z"/>
		</g>
	</g>
	<g>
		<g>
			<path class="st0" d="M55.7,15.2H13.4c-0.2,0-0.4-0.2-0.4-0.4c0-0.2,0.2-0.4,0.4-0.4h42.4c0.2,0,0.4,0.2,0.4,0.4
				C56.1,15,55.9,15.2,55.7,15.2z"/>
			<path class="st1" d="M55.7,16.2H13.4c-0.8,0-1.4-0.6-1.4-1.4c0-0.8,0.6-1.4,1.4-1.4h42.4c0.8,0,1.4,0.6,1.4,1.4
				C57.1,15.6,56.5,16.2,55.7,16.2z"/>
		</g>
	</g>
	<g>
		<g>
			<path class="st0" d="M55.7,21.2H13.4c-0.2,0-0.4-0.2-0.4-0.4s0.2-0.4,0.4-0.4h42.4c0.2,0,0.4,0.2,0.4,0.4S55.9,21.2,55.7,21.2z"
				/>
			<path class="st1" d="M55.7,22.1H13.4c-0.8,0-1.4-0.6-1.4-1.4s0.6-1.4,1.4-1.4h42.4c0.8,0,1.4,0.6,1.4,1.4S56.5,22.1,55.7,22.1z"
				/>
		</g>
	</g>
	<g>
		<g>
			<path class="st0" d="M55.7,27.1H13.4c-0.2,0-0.4-0.2-0.4-0.4s0.2-0.4,0.4-0.4h42.4c0.2,0,0.4,0.2,0.4,0.4S55.9,27.1,55.7,27.1z"
				/>
			<path class="st1" d="M55.7,28.1H13.4c-0.8,0-1.4-0.6-1.4-1.4c0-0.8,0.6-1.4,1.4-1.4h42.4c0.8,0,1.4,0.6,1.4,1.4
				C57.1,27.5,56.5,28.1,55.7,28.1z"/>
		</g>
	</g>
	<g>
		<g>
			<path class="st0" d="M55.7,33.1H13.4c-0.2,0-0.4-0.2-0.4-0.4c0-0.2,0.2-0.4,0.4-0.4h42.4c0.2,0,0.4,0.2,0.4,0.4
				C56.1,32.9,55.9,33.1,55.7,33.1z"/>
			<path class="st1" d="M55.7,34.1H13.4c-0.8,0-1.4-0.6-1.4-1.4c0-0.8,0.6-1.4,1.4-1.4h42.4c0.8,0,1.4,0.6,1.4,1.4
				C57.1,33.5,56.5,34.1,55.7,34.1z"/>
		</g>
	</g>
	<g>
		<g>
			<path class="st0" d="M55.7,39.1h-11c-0.2,0-0.4-0.2-0.4-0.4s0.2-0.4,0.4-0.4h11c0.2,0,0.4,0.2,0.4,0.4S55.9,39.1,55.7,39.1z"/>
			<path class="st1" d="M55.7,40h-11c-0.8,0-1.4-0.6-1.4-1.4c0-0.8,0.6-1.4,1.4-1.4h11c0.8,0,1.4,0.6,1.4,1.4
				C57.1,39.4,56.5,40,55.7,40z"/>
		</g>
	</g>
	<g>
		<g>
			<g>
				<path class="st0" d="M53.4,77c-0.2,0-0.4-0.1-0.5-0.3l-1-2.2l-1.7-0.3l-1.7,1.7c-0.2,0.2-0.4,0.2-0.7,0.1l-2.5-1.2
					c-0.2-0.1-0.4-0.3-0.3-0.6l0.2-2.4l-1.3-1.1l-2.4,0.6c-0.2,0.1-0.5,0-0.6-0.2l-1.6-2.3c-0.1-0.2-0.1-0.5,0-0.7l1.4-2L40,64.6
					l-2.4-0.6c-0.2-0.1-0.4-0.3-0.4-0.5L37,60.7c0-0.2,0.1-0.5,0.3-0.6l2.2-1l0.3-1.7l-1.7-1.7c-0.2-0.2-0.2-0.4-0.1-0.7l1.2-2.5
					c0.1-0.2,0.3-0.4,0.6-0.3l2.4,0.2l1.1-1.3l-0.6-2.4c-0.1-0.2,0-0.5,0.2-0.6l2.3-1.6c0.2-0.1,0.5-0.1,0.7,0l2,1.4l1.6-0.6
					l0.6-2.4c0.1-0.2,0.3-0.4,0.5-0.4l2.7-0.2c0.3,0,0.5,0.1,0.6,0.3l1,2.2l1.7,0.3l1.7-1.7c0.2-0.2,0.4-0.2,0.7-0.1l2.5,1.2
					c0.2,0.1,0.4,0.3,0.3,0.6l-0.2,2.4l1.3,1.1l2.4-0.6c0.2-0.1,0.5,0,0.6,0.2l1.6,2.3c0.1,0.2,0.1,0.5,0,0.7l-1.4,2l0.6,1.6
					l2.4,0.6c0.2,0.1,0.4,0.3,0.4,0.5l0.2,2.7c0,0.2-0.1,0.5-0.3,0.6l-2.2,1l-0.3,1.7l1.7,1.7c0.2,0.2,0.2,0.4,0.1,0.7l-1.2,2.5
					c-0.1,0.2-0.3,0.4-0.6,0.3l-2.4-0.2l-1.1,1.3l0.6,2.4c0.1,0.2,0,0.5-0.2,0.6l-2.3,1.6c-0.2,0.1-0.5,0.1-0.7,0l-2-1.4L57.3,74
					l-0.6,2.4c-0.1,0.2-0.3,0.4-0.5,0.4L53.4,77C53.4,77,53.4,77,53.4,77z M49.9,72.9c0,0,0.1,0,0.1,0l2.3,0.4
					c0.2,0,0.4,0.2,0.4,0.3l1,2.1l1.9-0.2l0.6-2.3c0-0.2,0.2-0.3,0.4-0.4l2.2-0.8c0.2-0.1,0.4,0,0.5,0.1l1.9,1.4l1.6-1.1l-0.6-2.3
					c-0.1-0.2,0-0.4,0.1-0.5l1.5-1.8c0.1-0.1,0.3-0.2,0.5-0.2l2.3,0.2l0.8-1.7l-1.7-1.7c-0.1-0.1-0.2-0.3-0.2-0.5l0.4-2.3
					c0-0.2,0.2-0.4,0.3-0.4l2.1-1l-0.2-1.9l-2.3-0.6c-0.2,0-0.3-0.2-0.4-0.4l-0.8-2.2c-0.1-0.2,0-0.4,0.1-0.5l1.4-1.9l-1.1-1.6
					L63,51.8c-0.2,0.1-0.4,0-0.5-0.1l-1.8-1.5c-0.1-0.1-0.2-0.3-0.2-0.5l0.2-2.3l-1.7-0.8l-1.7,1.7c-0.1,0.1-0.3,0.2-0.5,0.2
					l-2.3-0.4c-0.2,0-0.4-0.2-0.4-0.3l-1-2.1l-1.9,0.2l-0.6,2.3c0,0.2-0.2,0.3-0.4,0.4l-2.2,0.8c-0.2,0.1-0.4,0-0.5-0.1l-1.9-1.4
					l-1.6,1.1l0.6,2.3c0.1,0.2,0,0.4-0.1,0.5l-1.5,1.8c-0.1,0.1-0.3,0.2-0.5,0.2l-2.3-0.2l-0.8,1.7l1.7,1.7c0.1,0.1,0.2,0.3,0.2,0.5
					l-0.4,2.3c0,0.2-0.2,0.4-0.3,0.4l-2.1,1l0.2,1.9l2.3,0.6c0.2,0,0.3,0.2,0.4,0.4l0.8,2.2c0.1,0.2,0,0.4-0.1,0.5l-1.4,1.9l1.1,1.6
					l2.3-0.6c0.2-0.1,0.4,0,0.5,0.1l1.8,1.5c0.1,0.1,0.2,0.3,0.2,0.5l-0.2,2.3l1.7,0.8l1.7-1.7C49.6,73,49.8,72.9,49.9,72.9z"/>
				<path class="st1" d="M53.4,78c-0.6,0-1.2-0.4-1.4-0.9l-0.8-1.8l-0.7-0.1l-1.4,1.4c-0.5,0.5-1.2,0.6-1.8,0.3l-2.5-1.2
					c-0.6-0.3-1-0.9-0.9-1.6l0.2-1.9l-0.5-0.4l-1.9,0.5c-0.6,0.2-1.3-0.1-1.7-0.6l-1.6-2.3c-0.4-0.5-0.4-1.3,0-1.8l1.1-1.6l-0.2-0.6
					l-1.9-0.5c-0.6-0.2-1.1-0.7-1.2-1.4L36,60.8c-0.1-0.7,0.3-1.3,0.9-1.6l1.8-0.8l0.1-0.7l-1.4-1.4c-0.5-0.5-0.6-1.2-0.3-1.8
					l1.2-2.5c0.3-0.6,0.9-1,1.6-0.9l1.9,0.2l0.4-0.5l-0.5-1.9c-0.2-0.6,0.1-1.3,0.6-1.7l2.3-1.6c0.5-0.4,1.3-0.4,1.8,0l1.6,1.1
					l0.6-0.2l0.5-1.9c0.2-0.6,0.7-1.1,1.4-1.2l2.7-0.2c0.7-0.1,1.3,0.3,1.6,0.9l0.8,1.8l0.7,0.1l1.4-1.4c0.5-0.5,1.2-0.6,1.8-0.3
					l2.5,1.2c0.6,0.3,1,0.9,0.9,1.6L62.7,49l0.5,0.4l1.9-0.5c0.6-0.2,1.3,0.1,1.7,0.6l1.6,2.3c0.4,0.5,0.4,1.3,0,1.8l-1.1,1.6
					l0.2,0.6l1.9,0.5c0.6,0.2,1.1,0.7,1.2,1.4l0.2,2.7c0.1,0.7-0.3,1.3-0.9,1.6l-1.8,0.8L68,63.5l1.4,1.4c0.5,0.5,0.6,1.2,0.3,1.8
					l-1.2,2.5c-0.3,0.6-0.9,0.9-1.6,0.9L65,69.9l-0.4,0.5l0.5,1.9c0.2,0.6-0.1,1.3-0.6,1.7l-2.3,1.6c-0.5,0.4-1.3,0.4-1.8,0
					l-1.6-1.1l-0.6,0.2l-0.5,1.9c-0.2,0.6-0.7,1.1-1.4,1.2L53.4,78z M49.9,71.9l0.2,0l2.3,0.4c0.5,0.1,0.9,0.4,1.2,0.9l0.7,1.5
					l0.5,0l0.4-1.6c0.1-0.5,0.5-0.9,1-1.1l2.2-0.8c0.5-0.2,1-0.1,1.4,0.2l1.4,1l0.4-0.3l-0.4-1.6c-0.1-0.5,0-1,0.3-1.4l1.5-1.8
					c0.3-0.4,0.8-0.6,1.3-0.6l1.7,0.1l0.2-0.5l-1.2-1.2c-0.4-0.4-0.5-0.9-0.4-1.4l0.4-2.3c0.1-0.5,0.4-0.9,0.9-1.2l1.5-0.7l0-0.5
					l-1.6-0.4c-0.5-0.1-0.9-0.5-1.1-1L64,55.5c-0.2-0.5-0.1-1,0.2-1.4l1-1.4l-0.3-0.4l-1.6,0.4c-0.5,0.1-1,0-1.4-0.3L60,50.9
					c-0.4-0.3-0.6-0.8-0.6-1.4l0.1-1.6l-0.5-0.2l-1.2,1.2c-0.4,0.4-0.9,0.5-1.4,0.4l-2.3-0.4c-0.5-0.1-0.9-0.4-1.2-0.9l-0.7-1.5
					l-0.5,0l-0.4,1.6c-0.1,0.5-0.5,0.9-1,1.1L48.3,50c-0.5,0.2-1,0.1-1.5-0.2l-1.3-0.9L45,49.2l0.4,1.6c0.1,0.5,0,1-0.3,1.4L43.7,54
					c-0.3,0.4-0.9,0.6-1.4,0.6l-1.6-0.1l-0.2,0.5l1.2,1.2c0.4,0.4,0.5,0.9,0.4,1.4l-0.4,2.3c-0.1,0.5-0.4,0.9-0.9,1.2l-1.5,0.7
					l0,0.5l1.6,0.4c0.5,0.1,0.9,0.5,1.1,1l0.8,2.2c0.2,0.5,0.1,1-0.2,1.5l-0.9,1.4l0.3,0.4l1.6-0.4c0.5-0.1,1,0,1.4,0.3l1.8,1.5
					c0.4,0.3,0.6,0.8,0.6,1.3l-0.1,1.7l0.5,0.2l1.2-1.2C49.1,72.1,49.5,71.9,49.9,71.9z"/>
			</g>
		</g>
		<g>
			<g>
				<path class="st0" d="M53.4,68.2c-4.2,0-7.6-3.4-7.6-7.6s3.4-7.6,7.6-7.6s7.6,3.4,7.6,7.6S57.6,68.2,53.4,68.2z M53.4,54.2
					c-3.5,0-6.4,2.9-6.4,6.4c0,3.5,2.9,6.4,6.4,6.4s6.4-2.9,6.4-6.4C59.8,57.1,56.9,54.2,53.4,54.2z"/>
				<path class="st1" d="M53.4,69.2c-4.7,0-8.6-3.9-8.6-8.6s3.9-8.6,8.6-8.6s8.6,3.9,8.6,8.6S58.1,69.2,53.4,69.2z M53.4,55.2
					c-3,0-5.4,2.4-5.4,5.4c0,3,2.4,5.4,5.4,5.4c3,0,5.4-2.4,5.4-5.4C58.8,57.6,56.4,55.2,53.4,55.2z"/>
			</g>
		</g>
	</g>
</g>
</svg>
