<?xml version="1.0" encoding="iso-8859-1"?>
<!-- Generator: Adobe Illustrator 19.0.0, SVG Export Plug-In . SVG Version: 6.00 Build 0)  -->
<svg version="1.1" id="Layer_1" xmlns="http://www.w3.org/2000/svg" xmlns:xlink="http://www.w3.org/1999/xlink" x="0px" y="0px"
	 viewBox="15 -15 80 80" style="enable-background:new 15 -15 80 80;" xml:space="preserve">
<g id="XMLID_107_">
	<path id="XMLID_186_" style="fill:#B8B8B8;" d="M93.513,25.158C93.228,47.289,75.805,64.094,54.343,64
		c-21.922-0.097-39.017-17.476-38.854-39.265c0.166-22.118,17.807-38.887,39.24-38.734C76.443-13.844,93.433,3.361,93.513,25.158z
		 M54.533-7.381c-17.757-0.09-32.309,14.187-32.42,32.135c-0.11,17.739,13.763,31.93,31.052,32.574
		c19.001,0.707,33.601-14.358,33.69-32.16C86.945,7.317,72.644-7.387,54.533-7.381z"/>
	<path id="XMLID_182_" style="fill:#B8B8B8;" d="M55.315,8.479c0,3.82,0.005,7.64-0.007,11.459
		c-0.002,0.503,0.025,0.828,0.669,0.939c0.495,0.086,1.017,0.393,1.383,0.749c0.455,0.443,0.826,0.39,1.348,0.191
		c4.778-1.828,9.566-3.63,14.349-5.443c0.658-0.249,1.293-0.433,1.949,0.03c0.966,0.682,0.947,2.702-0.439,3.192
		c-2.554,0.904-5.071,1.911-7.605,2.871c-2.368,0.898-4.735,1.799-7.109,2.68c-0.371,0.138-0.543,0.293-0.592,0.735
		c-0.267,2.394-2.089,4.239-4.25,4.38c-2.573,0.167-4.61-1.267-5.249-3.697c-0.598-2.274,0.741-4.761,3.103-5.586
		c0.648-0.226,0.77-0.542,0.769-1.146c-0.016-7.563-0.011-15.126-0.011-22.689c0-0.204-0.003-0.408,0.01-0.611
		c0.034-0.521,0.358-0.875,0.832-0.752c0.327,0.085,0.601,0.483,0.83,0.792c0.098,0.133,0.021,0.396,0.021,0.599
		C55.315,0.941,55.315,4.71,55.315,8.479z"/>
</g>
</svg>
