<?xml version="1.0" encoding="utf-8"?>
<!-- Generator: Adobe Illustrator 19.0.0, SVG Export Plug-In . SVG Version: 6.00 Build 0)  -->
<svg version="1.1" id="Layer_1" xmlns="http://www.w3.org/2000/svg" xmlns:xlink="http://www.w3.org/1999/xlink" x="0px" y="0px"
	 viewBox="-265 357 80 80" style="enable-background:new -265 357 80 80;" xml:space="preserve">
<style type="text/css">
	.st0{opacity:0.12;fill:#098A44;}
	.st1{fill:#098A44;}
</style>
<g id="XMLID_152_">
	<circle id="XMLID_153_" class="st0" cx="-226" cy="396.4" r="35.6"/>
	<g id="XMLID_154_">
		<path id="XMLID_216_" class="st1" d="M-224.9,358c21.5,0.1,38.9,17.3,38.9,39c0,21.6-17.3,39-39,39c-21.8,0-39-17.5-39-39
			C-264,375.3-246.5,358-224.9,358z M-225,363.2c-18.6-0.1-33.7,15.1-33.8,33.5c-0.2,18.9,15.1,34.1,33.8,34.1
			c18.6,0,33.8-15.1,33.9-33.6C-191.1,378.3-206.4,363.1-225,363.2z"/>
		<path id="XMLID_212_" class="st1" d="M-230.1,409.1c0.3-0.4,0.5-0.7,0.7-0.9c7.8-7.8,15.6-15.6,23.4-23.4c0.7-0.7,1.6-1.1,2.6-0.8
			c1,0.3,1.6,1,1.7,2c0,0.7-0.3,1.4-0.6,2c-0.1,0.2-0.3,0.3-0.4,0.5c-8.5,8.5-17.1,17.1-25.6,25.6c-1.5,1.5-2.7,1.5-4.2,0
			c-3.3-3.3-6.5-6.5-9.8-9.8c-1.2-1.2-1.3-2.8-0.2-4c1.1-1.1,2.7-1.1,4,0.1c2.6,2.6,5.1,5.1,7.7,7.7
			C-230.6,408.5-230.4,408.7-230.1,409.1z"/>
	</g>
</g>
</svg>
