<?xml version="1.0" encoding="UTF-8"?>
<svg width="42px" height="44px" viewBox="0 0 42 44" version="1.1" xmlns="http://www.w3.org/2000/svg" xmlns:xlink="http://www.w3.org/1999/xlink">
	<!-- Generator: Sketch 52.3 (67297) - http://www.bohemiancoding.com/sketch -->
	<title>clipboards</title>
	<desc>Created with Sketch.</desc>
	<g id="Page-1" stroke="none" stroke-width="1" fill="none" fill-rule="evenodd">
		<g id="01-Report-page-overview" transform="translate(-567.000000, -376.000000)" fill="#4A90E2">
			<g id="clipboards" transform="translate(567.000000, 376.000000)">
				<rect id="Rectangle" x="7" y="20" width="20" height="1"></rect>
				<polygon id="Path" points="7 24 7 25 23.3227926 25 25 24"></polygon>
				<polygon id="Path" points="7 30 7 31 18.3185706 31 20 30"></polygon>
				<rect id="Rectangle" x="6" y="34" width="9" height="1"></rect>
				<path d="M41.5080446,17.4275436 L39.1308796,15.123033 C38.4748166,14.4869652 37.4098828,14.4868634 36.7538197,15.1229311 C30.6872585,21.0045972 24.604519,26.9019486 18.4896329,32.830365 C18.4896329,35.6503502 18.4896329,35.03944 18.4896329,37.4811457 C22.5361081,37.4811457 21.5124606,37.4829791 23.2081394,37.4742198 C24.0854465,36.623651 27.9573218,32.8698837 31.9365623,29.0120232 L31.9365623,40.7407257 C31.9365623,41.6406928 31.1840595,42.3703628 30.2556961,42.3703628 L3.3618374,42.3703628 C2.433474,42.3703628 1.68097123,41.6406928 1.68097123,40.7407257 L1.68097123,11.4072565 C1.68097123,10.5071875 2.433474,9.77761934 3.3618374,9.77761934 L6.7238849,9.77761934 L6.7238849,13.0369955 L26.8939638,13.0369955 L26.8939638,9.77772119 L30.2556961,9.77761934 C31.1840595,9.77761934 31.9365623,10.5071875 31.9365623,11.4072565 L31.9365623,17.4599327 L33.6174285,15.8189899 L33.6174285,11.4072565 C33.6174285,9.60711855 32.1123179,8.14798217 30.2556961,8.14798217 L26.6035942,8.14798217 C26.063826,6.66888273 24.8133666,5.51520146 23.2477449,5.07876425 C22.473811,4.86304103 21.8781541,4.28553836 21.6555444,3.53519229 C21.0499073,1.49346062 19.1092422,0 16.8086617,0 C14.5081862,0 12.5676263,1.49346062 11.9620942,3.53488674 C11.7391693,4.28614947 11.1420416,4.86293918 10.3672674,5.07937537 C8.80227592,5.51662739 7.550766,6.66908643 7.01162818,8.14798217 L3.36173234,8.14798217 C1.5051106,8.14798217 0,9.60711855 0,11.4072565 L0,40.7407257 C0,42.5407618 1.5051106,44 3.36173234,44 L30.2555911,44 C32.1122128,44 33.6173234,42.5407618 33.6173234,40.7407257 L33.6173234,27.3824879 C37.2310806,23.8789717 40.596805,20.6157251 41.5079396,19.732258 C42.1640026,19.0960884 42.1640026,18.0636114 41.5080446,17.4275436 Z M8.40454096,9.75154515 C8.41609692,8.31889037 9.41453143,7.04166223 10.8325521,6.64545669 C12.1677902,6.27247348 13.193959,5.2779874 13.5774066,3.98548141 C13.9889037,2.59825277 15.3176284,1.62963717 16.8086617,1.62963717 C18.2998001,1.62963717 19.6285248,2.59825277 20.0399168,3.98548141 C20.4235745,5.27880222 21.4490079,6.27298275 22.7829854,6.64484558 C24.2136126,7.04390298 25.2128875,8.33213117 25.2128875,9.77772119 L25.2128875,11.4073584 L8.40454096,11.4073584 L8.40454096,9.75154515 Z M22.5078486,35.848453 C22.071979,35.8507956 21.893492,35.8515086 21.2903762,35.8517123 L20.1703941,34.7658647 L20.1703941,33.5054422 C20.5870388,33.1014958 20.8752023,32.8221149 21.3026675,32.4076778 L23.6797275,34.7122903 L22.5078486,35.848453 Z M24.8682049,33.560035 L22.491145,31.2554225 L33.1881773,20.8845134 L35.5652372,23.1892277 L24.8682049,33.560035 Z M36.7537146,22.0367687 L34.3766547,19.7321562 L35.5652372,18.579799 L37.9424022,20.8844115 L36.7537146,22.0367687 Z M39.1308796,19.732258 L36.7537146,17.4275436 L37.9422971,16.2752883 L40.3194621,18.5799008 L39.1308796,19.732258 Z" id="Shape" fill-rule="nonzero"></path>
				<circle id="Oval" cx="16" cy="5" r="1"></circle>
			</g>
		</g>
	</g>
</svg>
