<?xml version="1.0" encoding="utf-8"?>
<!-- Generator: Adobe Illustrator 19.2.1, SVG Export Plug-In . SVG Version: 6.00 Build 0)  -->
<svg version="1.1" id="Layer_1" xmlns="http://www.w3.org/2000/svg" xmlns:xlink="http://www.w3.org/1999/xlink" x="0px" y="0px"
	 viewBox="0 0 78 78" style="enable-background:new 0 0 78 78;" xml:space="preserve">
<style type="text/css">
	.st0{fill:#EC1C23;}
</style>
<g>
	<path class="st0" d="M6.2,74.2c18.5,0,36.9,0,55.3,0c0-1.5,0-2.9,0-4.4c0-0.3,0-0.6,0-0.8c0-0.8,0.1-1.7,0.1-2.5
		c1.1-0.3,2.2-0.6,3.4-1c0,1.2,0,2.2,0,3.2c0,2.4,0,4.8,0,7.1c0,1.3-0.7,2.1-2.1,2.1c-19.4,0-38.8,0-58.2,0c-1.5,0-2.2-0.7-2.2-2.2
		c0-21.3,0-42.5,0-63.8c0-0.9,0.3-1.5,0.9-2.1c3.2-3.1,6.3-6.2,9.4-9.3C13.2,0.1,13.8,0,14.5,0c5.6,0,11.2,0,16.8,0
		c10.4,0,20.9,0,31.3,0c0.3,0,0.7,0,1,0.1c1,0.2,1.3,0.6,1.3,1.6c0,3.3,0,6.6,0,9.9c0,11.9,0,23.9,0,35.8c0,1.6,0,3.2,0,4.9
		c0,0.5-0.2,0.7-0.6,0.8c-0.9,0.2-1.8,0.5-2.8,0.8c0-16.8,0-33.5,0-50.3c-14.9,0-29.7,0-44.6,0c0,0.2,0,0.4,0,0.6c0,2.7,0,5.3,0,8
		c0,1.7-0.6,2.3-2.3,2.3c-2.6,0-5.1,0-7.7,0c-0.2,0-0.4,0-0.7,0C6.2,34.4,6.2,54.2,6.2,74.2z M13.4,4.8c-2,2.1-3.8,4.1-5.7,6.1
		c2,0,3.8,0,5.7,0C13.4,8.9,13.4,7,13.4,4.8z"/>
	<path class="st0" d="M48.3,68.3c-2.4-0.4-4.8-0.7-7.1-1.1c-0.5-0.1-1-0.1-1.5-0.2c-0.3-0.1-0.6-0.3-0.7-0.5c-0.1-0.2,0-0.7,0.2-0.8
		c2.2-1.9,4.4-3.8,6.6-5.6c0.3-0.3,0.9-0.4,1.3-0.5c8.2-2.3,16.5-4.6,24.7-6.9c0.5-0.1,0.8-0.1,1.2,0.3c1,0.8,1.6,1.7,1.8,2.9
		c0.1,0.4,0.2,0.9,0.3,1.3c0.6,1.2,0,2.4-0.3,3.5c-0.1,0.2-0.4,0.4-0.7,0.5c-7.3,2-14.6,4.1-21.9,6.1c-1.1,0.3-2.3,0.6-3.4,1
		C48.7,68.2,48.5,68.3,48.3,68.3z M46.6,60.8c-0.8,0.7-1.6,1.4-2.3,1.9c0.4,1.4,0.7,2.7,1.1,4.1c0.9,0.1,1.9,0.3,2.8,0.4
		C49.2,65.2,48.4,62.1,46.6,60.8z M70.7,56.3c0-0.9-0.6-1.3-1.3-1.1c-2.7,0.7-5.3,1.5-7.9,2.3c-0.6,0.2-0.8,0.6-0.6,1.2
		c0.2,0.6,0.6,0.8,1.2,0.6c2.6-0.7,5.3-1.5,7.9-2.3C70.3,56.9,70.5,56.5,70.7,56.3z"/>
	<path class="st0" d="M24.4,15.8c2,0,4,0,5.9,0c1.4,0,1.8,0.4,1.8,1.8c0,3.9,0,7.8,0,11.6c0,1.4-0.5,1.9-1.9,1.9
		c-3.9,0-7.9,0-11.8,0c-1.1,0-1.6-0.5-1.6-1.6c0-4.1,0-8.2,0-12.3c0-0.9,0.5-1.4,1.4-1.4C20.3,15.8,22.3,15.8,24.4,15.8L24.4,15.8z
		 M19,28.9c3.6,0,7.2,0,10.8,0c0-3.6,0-7.2,0-10.7c-3.6,0-7.2,0-10.8,0C19,21.7,19,25.3,19,28.9z"/>
	<path class="st0" d="M32.1,58.3c0,2,0,4,0,5.9c0,1.2-0.4,1.6-1.6,1.6c-4.1,0-8.2,0-12.2,0c-1,0-1.5-0.5-1.5-1.5c0-4.1,0-8.1,0-12.2
		c0-1.2,0.5-1.7,1.7-1.7c4,0,8,0,11.9,0c1.2,0,1.7,0.5,1.7,1.7C32.1,54.2,32.1,56.2,32.1,58.3z M29.8,52.8c-3.6,0-7.2,0-10.8,0
		c0,3.6,0,7.2,0,10.8c3.6,0,7.2,0,10.8,0C29.8,60,29.8,56.4,29.8,52.8z"/>
	<path class="st0" d="M16.8,40.8c0-1.9,0-3.8,0-5.7c0-1.5,0.4-2,1.9-2c3.9,0,7.8,0,11.7,0c1.1,0,1.7,0.6,1.7,1.7c0,4.1,0,8.1,0,12.2
		c0,0.9-0.6,1.5-1.5,1.5c-4.1,0-8.3,0-12.4,0c-0.9,0-1.4-0.6-1.4-1.5C16.8,44.9,16.8,42.9,16.8,40.8C16.8,40.8,16.8,40.8,16.8,40.8z
		 M29.8,46.2c0-3.6,0-7.2,0-10.8c-3.6,0-7.2,0-10.7,0c0,3.6,0,7.2,0,10.8C22.6,46.2,26.2,46.2,29.8,46.2z"/>
	<path class="st0" d="M44.6,36.2c2.4,0,4.9,0,7.3,0c1,0,1.5,0.4,1.5,1.5c0,0.9-0.5,1.4-1.5,1.4c-4.8,0-9.7,0-14.5,0
		c-1.1,0-1.5-0.4-1.5-1.5c0-1,0.4-1.3,1.4-1.3C39.8,36.2,42.2,36.2,44.6,36.2z"/>
	<path class="st0" d="M44.7,56.7c-2.4,0-4.8,0-7.2,0c-1.2,0-1.5-0.3-1.5-1.4c0-1.1,0.4-1.5,1.5-1.5c4.8,0,9.7,0,14.5,0
		c1,0,1.4,0.5,1.4,1.4c0,1-0.3,1.4-1.4,1.4C49.5,56.7,47.1,56.7,44.7,56.7C44.7,56.7,44.7,56.7,44.7,56.7z"/>
	<path class="st0" d="M44.7,21.7c-2.4,0-4.9,0-7.3,0c-0.5,0-1.1,0-1.3-0.6c-0.1-0.6-0.1-1.2,0-1.7c0.1-0.2,0.6-0.5,0.9-0.5
		c5,0,10,0,15,0c0.9,0,1.3,0.4,1.3,1.3c0,1-0.4,1.5-1.4,1.5C49.6,21.7,47.1,21.7,44.7,21.7z"/>
	<path class="st0" d="M44.6,25.3c2.5,0,4.9,0,7.4,0c1.1,0,1.4,0.4,1.4,1.4c0,1-0.4,1.4-1.5,1.4c-4.9,0-9.7,0-14.6,0
		c-1,0-1.4-0.4-1.4-1.5c0-1,0.3-1.4,1.3-1.4C39.7,25.3,42.2,25.3,44.6,25.3z"/>
	<path class="st0" d="M44.7,45.4c-2.5,0-4.9,0-7.4,0c-1,0-1.4-0.4-1.4-1.4c0-1,0.3-1.4,1.3-1.4c4.9,0,9.7,0,14.6,0
		c1.1,0,1.5,0.4,1.5,1.4c0,1-0.4,1.4-1.5,1.4C49.5,45.5,47.1,45.5,44.7,45.4C44.7,45.4,44.7,45.4,44.7,45.4z"/>
	<path class="st0" d="M43.2,60c-1.2,1-2.2,1.8-3.2,2.7c-0.1,0.1-0.3,0.1-0.4,0.1c-0.9,0-1.7,0-2.6,0c-0.7,0-1.1-0.5-1.1-1.2
		c0-0.9,0.3-1.6,1-1.6C38.9,59.9,40.9,60,43.2,60z"/>
</g>
</svg>
