<?xml version="1.0" encoding="UTF-8"?>
<svg width="38px" height="55px" viewBox="0 0 38 55" version="1.1" xmlns="http://www.w3.org/2000/svg" xmlns:xlink="http://www.w3.org/1999/xlink">
	<!-- Generator: Sketch 52.3 (67297) - http://www.bohemiancoding.com/sketch -->
	<title>Group 30</title>
	<desc>Created with Sketch.</desc>
	<defs>
		<polygon id="path-1" points="0.359661188 0.0143928571 23.5648542 0.0143928571 23.5648542 12.7273714 0.359661188 12.7273714"></polygon>
	</defs>
	<g id="Page-1" stroke="none" stroke-width="1" fill="none" fill-rule="evenodd">
		<g id="01-Report-page-overview" transform="translate(-838.000000, -129.000000)">
			<g id="Group-30" transform="translate(839.000000, 129.000000)">
				<path d="M15.608988,28 C16.1485656,29.5084631 16.5768237,30.7073915 17.0050819,31.9063199 C17.1095014,31.8938647 17.213001,31.8814095 17.3169605,31.868493 C17.3169605,31.48884 17.2801607,31.1041127 17.3284605,30.7304567 C17.3680203,30.4306093 17.43288,30.050495 17.6329791,29.8807352 C17.7958184,29.7428054 18.2778963,29.7552606 18.4356756,29.9005713 C18.6274948,30.0767893 18.6665946,30.4587488 18.7006345,30.7590575 C18.7420343,31.1354814 18.7102944,31.5202087 19.048393,31.9206203 C19.489531,30.6709485 19.9302091,29.4217381 20.418267,28.0373656 C21.8760006,28.8266563 23.2394347,29.526454 24.551809,30.3106703 C24.8089478,30.4642844 25.0256069,30.9620312 24.997547,31.2775629 C24.6778484,34.8969518 24.30755,38.5121891 23.9390916,42.2422909 C23.1488151,42.3073347 22.4298382,42.3663816 21.5282421,42.4406515 L21.5282421,54 L14.5013128,54 L14.5013128,42.4272737 C13.6296166,42.3686881 12.9492796,42.3225578 12.1268031,42.2672013 C11.8710443,39.8186012 11.6185054,37.401831 11.3678065,34.9850609 C11.3471065,34.7867003 11.3360666,34.5874171 11.3264066,34.3881338 C11.2647669,33.1094 10.6630895,31.3739754 11.2661469,30.6538803 C12.2763025,29.4475711 14.0546547,28.888471 15.608988,28" id="Fill-1" fill="#B492F7"></path>
				<path d="M15.608988,28 C16.1485656,29.5084631 16.5768237,30.7073915 17.0050819,31.9063199 C17.1095014,31.8938647 17.213001,31.8814095 17.3169605,31.868493 C17.3169605,31.48884 17.2801607,31.1041127 17.3284605,30.7304567 C17.3680203,30.4306093 17.43288,30.050495 17.6329791,29.8807352 C17.7958184,29.7428054 18.2778963,29.7552606 18.4356756,29.9005713 C18.6274948,30.0767893 18.6665946,30.4587488 18.7006345,30.7590575 C18.7420343,31.1354814 18.7102944,31.5202087 19.048393,31.9206203 C19.489531,30.6709485 19.9302091,29.4217381 20.418267,28.0373656 C21.8760006,28.8266563 23.2394347,29.526454 24.551809,30.3106703 C24.8089478,30.4642844 25.0256069,30.9620312 24.997547,31.2775629 C24.6778484,34.8969518 24.30755,38.5121891 23.9390916,42.2422909 C23.1488151,42.3073347 22.4298382,42.3663816 21.5282421,42.4406515 L21.5282421,54 L14.5013128,54 L14.5013128,42.4272737 C13.6296166,42.3686881 12.9492796,42.3225578 12.1268031,42.2672013 C11.8710443,39.8186012 11.6185054,37.401831 11.3678065,34.9850609 C11.3471065,34.7867003 11.3360666,34.5874171 11.3264066,34.3881338 C11.2647669,33.1094 10.6630895,31.3739754 11.2661469,30.6538803 C12.2763025,29.4475711 14.0546547,28.888471 15.608988,28 Z" id="Stroke-3" stroke="#8A6CD3" stroke-width="2"></path>
				<path d="M26.5497221,22.0055496 C27.0538844,23.4239417 27.501155,24.681857 27.9479631,25.9393099 C28.0511083,25.9337602 28.1537909,25.9282106 28.256011,25.9221985 C28.2735873,25.5434365 28.2689619,25.1623621 28.3138277,24.7872999 C28.351293,24.480683 28.3586936,24.0894344 28.5455574,23.9067592 C28.6981937,23.7587691 29.1986558,23.7472074 29.3614678,23.8873355 C29.5580449,24.0561366 29.6029107,24.4450729 29.6371382,24.7475276 C29.6806165,25.1313767 29.647314,25.5240128 29.9766384,25.9485592 C30.422984,24.696656 30.8693295,23.4447528 31.3845927,22 C32.8429632,22.7996087 34.2370414,23.5349342 35.5918043,24.3354678 C35.8202962,24.4705087 36.0228862,24.9019922 35.9979094,25.1748488 C35.6621095,28.8524013 35.284219,32.5257915 34.9109539,36.2519032 C34.1005938,36.3157239 33.4151181,36.3702953 32.5270523,36.4405905 L32.5270523,48 L25.5603613,48 C25.5076324,47.5703664 25.4081875,47.1865173 25.4220636,46.8068303 C25.6149403,41.6156172 25.7934786,36.4234792 26.0515727,31.2355034 C26.1024514,30.2046603 25.8707218,29.4822839 24.9512037,29.0087158 C24.5511115,28.8024546 24.1514819,28.5934187 23.7675785,28.3598719 C22.9951463,27.8900036 21.8327977,27.7175027 22.0201241,26.4341515 C22.2000499,25.2044468 22.4562939,24.0075774 23.8480595,23.4498399 C24.7199365,23.1006759 25.5178081,22.5660619 26.5497221,22.0055496" id="Fill-5" fill="#FBF2BC"></path>
				<path d="M26.5497221,22.0055496 C27.0538844,23.4239417 27.501155,24.681857 27.9479631,25.9393099 C28.0511083,25.9337602 28.1537909,25.9282106 28.256011,25.9221985 C28.2735873,25.5434365 28.2689619,25.1623621 28.3138277,24.7872999 C28.351293,24.480683 28.3586936,24.0894344 28.5455574,23.9067592 C28.6981937,23.7587691 29.1986558,23.7472074 29.3614678,23.8873355 C29.5580449,24.0561366 29.6029107,24.4450729 29.6371382,24.7475276 C29.6806165,25.1313767 29.647314,25.5240128 29.9766384,25.9485592 C30.422984,24.696656 30.8693295,23.4447528 31.3845927,22 C32.8429632,22.7996087 34.2370414,23.5349342 35.5918043,24.3354678 C35.8202962,24.4705087 36.0228862,24.9019922 35.9979094,25.1748488 C35.6621095,28.8524013 35.284219,32.5257915 34.9109539,36.2519032 C34.1005938,36.3157239 33.4151181,36.3702953 32.5270523,36.4405905 L32.5270523,48 L25.5603613,48 C25.5076324,47.5703664 25.4081875,47.1865173 25.4220636,46.8068303 C25.6149403,41.6156172 25.7934786,36.4234792 26.0515727,31.2355034 C26.1024514,30.2046603 25.8707218,29.4822839 24.9512037,29.0087158 C24.5511115,28.8024546 24.1514819,28.5934187 23.7675785,28.3598719 C22.9951463,27.8900036 21.8327977,27.7175027 22.0201241,26.4341515 C22.2000499,25.2044468 22.4562939,24.0075774 23.8480595,23.4498399 C24.7199365,23.1006759 25.5178081,22.5660619 26.5497221,22.0055496 Z" id="Stroke-7" stroke="#E8DA95" stroke-width="2"></path>
				<path d="M9.62503434,48 L3.13005283,48 L3.13005283,36.4408002 C2.29759745,36.3682752 1.65245543,36.3123801 0.868788642,36.2444745 C0.615697813,33.6973207 0.365656271,31.1774216 0.115614729,28.6570606 C0.11038738,28.6076327 0.108209318,28.5577429 0.105160031,28.507853 C-0.216757564,24.0565703 -0.0425125873,23.7840239 4.21559903,22.1533651 C4.63944994,23.4130836 5.06330085,24.6732642 5.48758737,25.9334447 C5.57340302,25.9362163 5.65965428,25.938988 5.74634116,25.9417596 C5.79251608,25.6031554 5.84043344,25.2650131 5.88530153,24.925947 C5.93147644,24.5781039 5.894885,24.1785232 6.0525767,23.9027432 C6.13011572,23.7673939 6.70948027,23.7433729 6.80487939,23.8764125 C6.9839161,24.1240139 6.99524203,24.520823 7.03836766,24.861275 C7.0819289,25.2081942 7.07975084,25.5615806 7.4003616,25.9486888 C7.81898516,24.7032905 8.2371731,23.4583541 8.7272371,22 C10.2653846,23.142847 12.3484833,23.320695 12.881673,25.6599744 C13.098608,26.6134248 13.1047065,27.389951 12.1315483,27.9262668 C8.24893464,30.0673726 9.26434724,29.4086419 9.4311868,33.8696255 C9.59889759,38.355554 9.6620614,42.8461019 9.76225226,47.3348021 C9.76660838,47.521889 9.68732692,47.7112856 9.62503434,48" id="Fill-9" fill="#D7F9BB"></path>
				<path d="M9.62503434,48 L3.13005283,48 L3.13005283,36.4408002 C2.29759745,36.3682752 1.65245543,36.3123801 0.868788642,36.2444745 C0.615697813,33.6973207 0.365656271,31.1774216 0.115614729,28.6570606 C0.11038738,28.6076327 0.108209318,28.5577429 0.105160031,28.507853 C-0.216757564,24.0565703 -0.0425125873,23.7840239 4.21559903,22.1533651 C4.63944994,23.4130836 5.06330085,24.6732642 5.48758737,25.9334447 C5.57340302,25.9362163 5.65965428,25.938988 5.74634116,25.9417596 C5.79251608,25.6031554 5.84043344,25.2650131 5.88530153,24.925947 C5.93147644,24.5781039 5.894885,24.1785232 6.0525767,23.9027432 C6.13011572,23.7673939 6.70948027,23.7433729 6.80487939,23.8764125 C6.9839161,24.1240139 6.99524203,24.520823 7.03836766,24.861275 C7.0819289,25.2081942 7.07975084,25.5615806 7.4003616,25.9486888 C7.81898516,24.7032905 8.2371731,23.4583541 8.7272371,22 C10.2653846,23.142847 12.3484833,23.320695 12.881673,25.6599744 C13.098608,26.6134248 13.1047065,27.389951 12.1315483,27.9262668 C8.24893464,30.0673726 9.26434724,29.4086419 9.4311868,33.8696255 C9.59889759,38.355554 9.6620614,42.8461019 9.76225226,47.3348021 C9.76660838,47.521889 9.68732692,47.7112856 9.62503434,48 Z" id="Stroke-11" stroke="#ADD388" stroke-width="2"></path>
				<g id="Group-15" transform="translate(6.000000, 0.000000)">
					<mask id="mask-2" fill="white">
						<use xlink:href="#path-1"></use>
					</mask>
					<g id="Clip-14"></g>
					<path d="M2.4330566,12.7148357 C1.71667925,12.6187286 1.09992453,12.5360857 0.36,12.4371929 C0.331924528,7.91922857 2.04815094,4.37626429 5.71109434,2.00005 C9.75486792,-0.623164286 14.0060377,-0.63895 18.072,1.90208571 C21.818717,4.24347857 23.5983396,7.82637143 23.5643774,12.42605 C22.8470943,12.5291214 22.2321509,12.6173357 21.4632453,12.7273714 C21.4356226,9.17187143 20.253283,6.16655 17.3384151,4.07308571 C15.5071698,2.75776429 13.4603774,2.17044286 11.234717,2.35244286 C6.18430189,2.76519286 3.00996226,6.48272857 2.4330566,12.7148357" id="Fill-13" fill="#DADADA" mask="url(#mask-2)"></path>
				</g>
				<path d="M25.000871,17.4401811 C25.0422349,15.5007143 26.6214649,13.9653935 28.539008,14.0005933 C30.509671,14.0370969 32.0775803,15.7001799 31.9970295,17.6687627 C31.9182204,19.6038839 30.3407321,21.0548989 28.3783419,20.9984054 C26.4264015,20.942781 24.9590717,19.3965961 25.000871,17.4401811" id="Fill-16" fill="#FBF2BC"></path>
				<path d="M25.000871,17.4401811 C25.0422349,15.5007143 26.6214649,13.9653935 28.539008,14.0005933 C30.509671,14.0370969 32.0775803,15.7001799 31.9970295,17.6687627 C31.9182204,19.6038839 30.3407321,21.0548989 28.3783419,20.9984054 C26.4264015,20.942781 24.9590717,19.3965961 25.000871,17.4401811 Z" id="Stroke-18" stroke="#E8DA95" stroke-width="2"></path>
				<path d="M9.99994927,17.4991142 C10.0099606,19.4665623 8.53698735,20.9672911 6.56431748,20.9995087 C4.54986113,21.0317262 2.97590388,19.4757051 3.00027932,17.4729919 C3.02291366,15.5708497 4.62342273,13.9926246 6.52296628,14.0000259 C8.45254385,14.0078626 9.99037321,15.5547409 9.99994927,17.4991142" id="Fill-20" fill="#D7F9BB"></path>
				<path d="M9.99994927,17.4991142 C10.0099606,19.4665623 8.53698735,20.9672911 6.56431748,20.9995087 C4.54986113,21.0317262 2.97590388,19.4757051 3.00027932,17.4729919 C3.02291366,15.5708497 4.62342273,13.9926246 6.52296628,14.0000259 C8.45254385,14.0078626 9.99037321,15.5547409 9.99994927,17.4991142 Z" id="Stroke-22" stroke="#ADD388" stroke-width="2"></path>
				<path d="M20.9994257,23.5872233 C20.9659053,25.5189193 19.405682,27.0206726 17.4536616,26.9997847 C15.4663794,26.9784617 13.9314053,25.3535567 14.0023641,23.3457068 C14.0694049,21.433158 15.6870918,19.9392377 17.6225697,20.0019014 C19.5576122,20.0645651 21.0333815,21.6315931 20.9994257,23.5872233" id="Fill-24" fill="#B492F7"></path>
				<path d="M20.9994257,23.5872233 C20.9659053,25.5189193 19.405682,27.0206726 17.4536616,26.9997847 C15.4663794,26.9784617 13.9314053,25.3535567 14.0023641,23.3457068 C14.0694049,21.433158 15.6870918,19.9392377 17.6225697,20.0019014 C19.5576122,20.0645651 21.0333815,21.6315931 20.9994257,23.5872233 Z" id="Stroke-26" stroke="#8A6CD3" stroke-width="2"></path>
				<path d="M15.3378074,12.3332308 C15.6314746,12.4788039 16.3070895,12.7497077 16.9822539,12.7497077 C17.8429871,12.7497077 18.2785335,12.3539039 18.2785335,11.8435366 C18.2785335,11.1768289 17.581299,10.8749154 16.851635,10.8749154 L16.1764706,10.8749154 L16.1764706,9.7396173 L16.8192055,9.7396173 C17.3745609,9.72928075 18.0830556,9.53116348 18.0830556,8.95834615 C18.0830556,8.55220575 17.7339879,8.25029225 17.0367534,8.25029225 C16.459328,8.25029225 15.8499234,8.48975574 15.5553554,8.65600197 L15.217548,7.51036732 C15.6427349,7.25023073 16.4922079,7 17.4074408,7 C18.9212684,7 19.7599315,7.76059804 19.7599315,8.68744232 C19.7599315,9.40626346 19.3356454,9.96874423 18.4636519,10.2603212 L18.4636519,10.2809943 C19.3135754,10.4269981 20,11.0415923 20,11.9270904 C20,13.1248385 18.8996487,14 17.1025133,14 C16.1872804,14 15.4139267,13.7704424 15,13.5206423 L15.3378074,12.3332308 Z" id="Fill-28" fill="#26D38D"></path>
			</g>
		</g>
	</g>
</svg>
