<?xml version="1.0" encoding="utf-8"?>
<!-- Generator: Adobe Illustrator 19.2.1, SVG Export Plug-In . SVG Version: 6.00 Build 0)  -->
<svg version="1.1" id="Layer_1" xmlns="http://www.w3.org/2000/svg" xmlns:xlink="http://www.w3.org/1999/xlink" x="0px" y="0px"
	 viewBox="0 0 78 78" style="enable-background:new 0 0 78 78;" xml:space="preserve">
<style type="text/css">
	.st0{fill:#8010A8;}
</style>
<g>
	<path class="st0" d="M74.7,34.9c-0.2,1.6-0.3,3.2-0.6,4.8C73,46.3,70,52,65.5,56.9c-0.2,0.2-0.3,0.4-0.7,0.7c1,1,2,1.9,3.2,2.9
		c-4.5,0.7-8.8,1.3-13.3,2c0.8-4.3,1.5-8.5,2.3-12.8c1,1,1.9,2,3,3c1.3-1.6,2.4-2.9,3.5-4.4c-0.9-0.6-1.7-1.2-2.6-1.8
		c0.2-0.5,0.5-0.9,0.7-1.4c1,0.4,1.9,0.9,2.8,1.3c1.6-2.4,3.3-8.6,3.1-11.4c-1.1-0.1-2.2-0.2-3.4-0.4c0-0.5,0-1,0-1.6
		c1.1-0.1,2.3-0.2,3.4-0.3c0.4-2.2-1.3-8.9-3-11.5c-1,0.5-2,1-3.1,1.5c-0.3-0.5-0.5-0.9-0.7-1.4c1-0.7,1.9-1.3,2.8-1.9
		c-1-2.3-5.4-6.8-8.2-8.4c-0.6,0.9-1.3,1.8-1.9,2.7c-0.5-0.2-0.9-0.5-1.3-0.7c0.5-1,0.9-2,1.4-3.1c-3.6-2-7.4-3-11.6-3.2
		c-0.1,1.3-0.2,2.5-0.3,3.8c-0.5,0-1,0-1.6,0c-0.1-1.3-0.2-2.5-0.3-3.7c-2.4-0.4-9.1,1.3-11.7,3.1c0.5,1,0.9,1.9,1.4,3
		c-0.5,0.3-0.9,0.5-1.4,0.8c-0.6-0.9-1.3-1.8-1.9-2.8c-3.5,2.2-6.3,5.1-8.5,8.6c0.9,0.7,1.8,1.3,2.8,2c-0.2,0.4-0.5,0.9-0.7,1.3
		c-1-0.5-2-0.9-3.1-1.4c-2.1,4-3,8.2-3,12.7c-2.3,0-4.5,0-6.8,0c0.1-1.4,0.1-2.7,0.2-4.1C8.6,15.6,19.3,3.7,33.7,0.7
		c1.6-0.3,3.2-0.5,4.8-0.7c1.4,0,2.7,0,4.1,0c0.2,0,0.5,0.1,0.7,0.1C46.6,0.4,49.9,1,53,2.3c11.6,4.8,18.7,13.4,21.1,25.8
		c0.3,1.7,0.4,3.5,0.6,5.2C74.7,33.8,74.7,34.3,74.7,34.9z"/>
	<path class="st0" d="M3.3,66.6c0.1-0.5,0.2-1.1,0.3-1.6c0.7-2.6,2.1-4.6,4.6-5.8c1.6-0.8,3.3-1.5,4.9-2.2c0.5-0.2,1-0.5,1.3-0.7
		c-0.4-1.1-0.8-2.1-1.2-3.1c-0.1-0.2-0.2-0.4-0.4-0.6c-0.7-1-1.4-2-1.5-3.3c-0.1-0.7-0.1-1.5,0.5-2c0.1-0.1,0.1-0.4,0.1-0.6
		c0-1.1,0-2.2,0.1-3.2c0.4-2.7,2-4.3,4.7-4.7c1.4-0.2,2.9-0.3,4.3,0.2c2.4,0.7,3.9,3.1,3.6,5.4c-0.5,0.1-1.1,0.1-1.6,0.3
		c-3.3,0.9-4.9,2.9-5.2,6.5c-0.1,1.2-0.2,2.3-0.5,3.4c-0.5,1.7-0.2,3.4,0.7,5c0.6,1.1,1.2,2.1,1.8,3.3c-0.6,0.3-1.2,0.7-1.7,0.9
		c-1.3,0.6-2.7,1.2-4,1.9c-1.7,0.8-3.1,1.9-3.7,3.8c-0.1,0.2-0.4,0.4-0.6,0.4c-1.7-0.2-3.5-0.4-5.2-0.6c-0.7-0.1-1.2-0.4-1.6-1
		C3.3,67.6,3.3,67.1,3.3,66.6z"/>
	<path class="st0" d="M22.5,63.8c-0.4-1.1-0.8-2.1-1.2-3.1c-0.1-0.2-0.2-0.3-0.4-0.5c-0.9-1.1-1.6-2.3-1.7-3.8
		c0-0.5,0.3-1.1,0.5-1.7c0.1-0.2,0.2-0.4,0.2-0.6c0-0.7,0-1.5,0-2.2c-0.2-3.3,2-5.4,4.8-5.8c1.2-0.2,2.4-0.2,3.6,0
		c2.7,0.4,4.3,2.1,4.7,4.8c0.1,1,0.1,2.1,0.1,3.1c0,0.2,0,0.5,0.1,0.6c0.8,0.6,0.6,1.4,0.5,2.2c0,0.3-0.1,0.7-0.3,1
		c-1,1.9-1.9,3.8-3,5.8c0.8,0.4,1.7,0.8,2.6,1.2c1.2,0.5,2.5,1,3.7,1.6c3.5,1.7,5,4.6,5.1,8.4c0,0.8-0.4,1.3-1.1,1.5
		c-1.6,0.4-3.3,0.9-5,1.1c-5.9,0.7-11.8,0.8-17.6,0.2c-1.9-0.2-3.8-0.6-5.6-1.1c-1.3-0.3-1.6-0.8-1.3-2.1c0.3-1.4,0.7-2.9,1.2-4.3
		c0.6-1.6,1.9-2.7,3.5-3.4c1.7-0.7,3.4-1.5,5-2.2C21.5,64.3,22.1,64,22.5,63.8z"/>
	<path class="st0" d="M37.9,56.3c1.2,0.5,2.4,1,3.6,1.7c1.6,0.8,3.4,1.5,4.8,2.6c2.3,1.8,3,4.5,2.9,7.3c0,0.7-0.5,1.1-1.1,1.2
		c-1.9,0.3-3.8,0.5-5.7,0.7c-0.2,0-0.4-0.2-0.5-0.4c-0.7-2.1-2.3-3.2-4.1-4c-1.3-0.6-2.6-1.2-3.9-1.8c-0.4-0.2-0.8-0.5-1.3-0.7
		c0.6-1.2,1.2-2.3,1.9-3.4c1-1.8,1.2-3.7,0.4-5.7c-0.1-0.3-0.1-0.6-0.1-0.8c-0.1-1-0.2-2-0.3-3c-0.4-3-2.6-4.9-5.9-5.5
		c-0.2,0-0.4,0-0.6-0.1c-0.4-2.4,1.3-4.9,3.9-5.6c1.7-0.4,3.4-0.4,5.1,0.2c2.3,0.7,3.3,2.6,3.6,4.8c0.1,0.7,0.1,1.4,0.1,2
		c0,0.7-0.2,1.3,0.4,1.9c0.3,0.3,0.2,0.9,0.2,1.4c0,0.4-0.1,0.8-0.3,1.2C39.9,52.4,38.9,54.3,37.9,56.3z"/>
	<path class="st0" d="M30.9,26.9c0.4-0.4,0.8-0.8,1.2-1.2c1.5,1.1,2.9,2.2,4.3,3.3c0.5,0.4,1,0.7,1.4,1.1c0.8,0.6,1.5,1.3,2.7,0.8
		c0.3-0.1,0.7,0,1,0.1c0.8,0.5,1.4,0.1,2-0.2c4.4-2,8.8-4,13.2-6c0.2-0.1,0.5-0.2,0.8-0.3c0.3,0.5,0.5,0.9,0.8,1.5
		c-0.3,0.2-0.6,0.4-0.9,0.6c-4.5,2.6-9,5.1-13.5,7.7c-0.3,0.2-0.6,0.5-0.9,0.8c-0.6,0.9-1.5,1.4-2.6,1.3c-1.1-0.1-1.9-0.7-2.4-1.7
		c-0.2-0.5-0.5-1-0.9-1.3c-1.8-1.9-3.7-3.8-5.5-5.7C31.4,27.5,31.1,27.2,30.9,26.9z"/>
</g>
</svg>
