<?xml version="1.0" encoding="iso-8859-1"?>
<!-- Generator: Adobe Illustrator 19.0.0, SVG Export Plug-In . SVG Version: 6.00 Build 0)  -->
<svg version="1.1" id="Layer_1" xmlns="http://www.w3.org/2000/svg" xmlns:xlink="http://www.w3.org/1999/xlink" x="0px" y="0px"
	 viewBox="-357 223.773 244.355 115.227" style="enable-background:new -357 223.773 244.355 115.227;" xml:space="preserve">
<g id="XMLID_310_">
	<path id="XMLID_290_" style="fill:#F7F7F7;" d="M-115.686,250.36l0.979,1.79l1.79,0.979c0.363,0.199,0.363,0.72,0,0.919
		l-1.79,0.979l-0.979,1.79c-0.199,0.363-0.72,0.363-0.919,0l-0.979-1.79l-1.79-0.979c-0.363-0.199-0.363-0.72,0-0.919l1.79-0.979
		l0.979-1.79C-116.406,249.997-115.884,249.997-115.686,250.36z"/>
	<path id="XMLID_291_" style="fill:#F7F7F7;" d="M-185.643,257.134l0.699,1.278l1.278,0.699c0.259,0.142,0.259,0.514,0,0.656
		l-1.278,0.699l-0.699,1.278c-0.142,0.259-0.514,0.259-0.656,0l-0.699-1.278l-1.278-0.699c-0.259-0.142-0.259-0.514,0-0.656
		l1.278-0.699l0.699-1.278C-186.157,256.875-185.784,256.875-185.643,257.134z"/>
	<path id="XMLID_292_" style="fill:#F7F7F7;" d="M-206.215,227.771l1.258,2.301l2.301,1.258c0.467,0.255,0.467,0.926,0,1.181
		l-2.301,1.258l-1.258,2.301c-0.255,0.467-0.926,0.467-1.181,0l-1.258-2.301l-2.301-1.258c-0.467-0.255-0.467-0.926,0-1.181
		l2.301-1.258l1.258-2.301C-207.141,227.304-206.47,227.304-206.215,227.771z"/>
	<path id="XMLID_293_" style="fill:#F7F7F7;" d="M-278.06,249.017l0.699,1.278l1.278,0.699c0.259,0.142,0.259,0.514,0,0.656
		l-1.278,0.699l-0.699,1.278c-0.142,0.259-0.514,0.259-0.656,0l-0.699-1.278l-1.278-0.699c-0.259-0.142-0.259-0.514,0-0.656
		l1.278-0.699l0.699-1.278C-278.574,248.758-278.202,248.758-278.06,249.017z"/>
	<path id="XMLID_294_" style="fill:#F7F7F7;" d="M-314.668,224.084l1.119,2.045l2.045,1.119c0.415,0.227,0.415,0.823,0,1.05
		l-2.045,1.119l-1.119,2.045c-0.227,0.415-0.823,0.415-1.05,0l-1.119-2.045l-2.045-1.119c-0.415-0.227-0.415-0.823,0-1.05
		l2.045-1.119l1.119-2.045C-315.491,223.669-314.895,223.669-314.668,224.084z"/>
	<path id="XMLID_295_" style="fill:#F7F7F7;" d="M-353.606,259.673l0.839,1.534l1.534,0.839c0.311,0.17,0.311,0.617,0,0.787
		l-1.534,0.839l-0.839,1.534c-0.17,0.311-0.617,0.311-0.787,0l-0.839-1.534l-1.535-0.839c-0.311-0.17-0.311-0.617,0-0.787
		l1.534-0.839l0.839-1.534C-354.223,259.362-353.777,259.362-353.606,259.673z"/>
	<g id="XMLID_283_">
		<path id="XMLID_285_" style="fill:#FFFFFF;stroke:#F7F7F7;stroke-width:1.8384;stroke-miterlimit:10;" d="M-116.738,290.467
			c-1.907-13.991-24.531-21.703-39.434-19.484c-15.832,2.358-36.704,12.495-34.982,27.943c1.564,14.033,25.64,20.609,39.989,20.249
			c3.65-0.092,7.288-0.631,10.764-1.554c5.638,2.962,11.728,7.464,11.341,12.985c0,0,7.618-7.05,2.605-19.57
			C-119.718,305.968-115.597,298.833-116.738,290.467z"/>
		
			<line id="XMLID_309_" style="fill:none;stroke:#F7F7F7;stroke-width:3;stroke-linecap:round;stroke-miterlimit:10;" x1="-165.388" y1="286.606" x2="-135.388" y2="286.606"/>
		
			<line id="XMLID_308_" style="fill:none;stroke:#F7F7F7;stroke-width:3;stroke-linecap:round;stroke-miterlimit:10;" x1="-177.388" y1="298.606" x2="-153.388" y2="298.606"/>
		
			<line id="XMLID_304_" style="fill:none;stroke:#F7F7F7;stroke-width:3;stroke-linecap:round;stroke-miterlimit:10;" x1="-144.388" y1="298.606" x2="-127.388" y2="298.606"/>
	</g>
	<g id="XMLID_288_">
		<path id="XMLID_289_" style="fill:#FFFFFF;stroke:#F7F7F7;stroke-width:1.8322;stroke-miterlimit:10;" d="M-302.657,268.676
			c-16.863-1.386-38.008,4.769-36.314,22.142c0.551,5.646,4.523,10.834,10.034,14.885c-2.036,3.564-3.645,9.14-0.076,15.778
			c0,0,2.394-6.52,11.138-9.903c1.482,0.545,2.984,1.015,4.488,1.4c3.673,0.941,7.35,1.384,10.73,1.219
			c15.515-0.758,34.388-8.076,36.314-22.131C-264.559,279.044-290.239,269.697-302.657,268.676z"/>
		
			<line id="XMLID_296_" style="fill:none;stroke:#F7F7F7;stroke-width:3;stroke-linecap:round;stroke-miterlimit:10;" x1="-316.388" y1="284.606" x2="-294.388" y2="284.606"/>
		
			<line id="XMLID_297_" style="fill:none;stroke:#F7F7F7;stroke-width:3;stroke-linecap:round;stroke-miterlimit:10;" x1="-320.388" y1="296.606" x2="-289.388" y2="296.606"/>
	</g>
	<g id="XMLID_307_">
		<g id="XMLID_298_">
			<path id="XMLID_302_" style="fill:#FFFFFF;" d="M-176.681,289.945c-3.105-16.872-36.488-27.977-52.77-28.954
				c-1.85-0.111-4.02-0.192-6.404-0.192c-16.359,0-42.869,3.819-46.232,28.048c-0.687,4.945,0.715,9.419,4.165,13.299
				c2.924,3.288,7.089,5.936,11.81,8.05c0.006,0.003,0.012,0.005,0.018,0.008l-0.037-0.011c-1.317,7.635-1.445,18.308,5.042,26.296
				c0,0,1.485-14.65,13.828-20.729l-0.029-0.009c0.009,0.002,0.018,0.004,0.028,0.005c7.128,1.301,13.706,1.777,17.852,1.688
				c13.051-0.275,40.225-3.853,49.655-15.422C-176.888,298.505-175.854,294.442-176.681,289.945z"/>
		</g>
		<path id="XMLID_306_" style="fill:#F7F7F7;" d="M-174.626,289.567c-3.346-18.177-37.389-29.623-54.699-30.661
			c-15.123-0.91-50.738,0.167-54.831,29.654c-0.774,5.579,0.798,10.617,4.674,14.974c3.018,3.393,7.271,6.138,12.085,8.334
			c-1.041,7.594-0.715,17.558,5.532,25.251l1.527,1.88l0.245-2.41c0.013-0.134,1.416-12.757,11.558-18.977
			c7.1,1.368,13.729,1.931,18.17,1.931c0.347,0,0.681-0.003,1-0.01c14.374-0.303,41.338-4.054,51.231-16.191
			C-174.864,299.329-173.683,294.694-174.626,289.567z M-179.755,302.023c-9.43,11.57-36.604,15.147-49.655,15.422
			c-4.146,0.089-10.725-0.387-17.852-1.688c-0.512-0.093-1.025-0.19-1.542-0.292c-0.878,0.492-1.708,1.017-2.476,1.583
			c-7.001,5.16-9.535,13.014-10.394,16.945c-4.355-6.665-4.631-14.805-3.816-21.295c0.091-0.721,0.194-1.421,0.307-2.097
			c-0.312-0.133-0.622-0.267-0.929-0.404c-4.721-2.114-8.886-4.763-11.81-8.05c-3.45-3.879-4.852-8.354-4.165-13.299
			c3.363-24.229,29.873-28.048,46.232-28.048c2.384,0,4.555,0.081,6.404,0.192c16.281,0.977,49.664,12.082,52.77,28.954
			C-175.854,294.442-176.888,298.505-179.755,302.023z"/>
	</g>
	
		<line id="XMLID_303_" style="fill:none;stroke:#F7F7F7;stroke-width:3;stroke-linecap:round;stroke-miterlimit:10;" x1="-253.388" y1="276.606" x2="-216.388" y2="276.606"/>
	
		<line id="XMLID_301_" style="fill:none;stroke:#F7F7F7;stroke-width:3;stroke-linecap:round;stroke-miterlimit:10;" x1="-260.388" y1="288.606" x2="-234.388" y2="288.606"/>
	
		<line id="XMLID_287_" style="fill:none;stroke:#F7F7F7;stroke-width:3;stroke-linecap:round;stroke-miterlimit:10;" x1="-225.388" y1="288.606" x2="-199.388" y2="288.606"/>
	
		<line id="XMLID_284_" style="fill:none;stroke:#F7F7F7;stroke-width:3;stroke-linecap:round;stroke-miterlimit:10;" x1="-256.388" y1="300.606" x2="-226.388" y2="300.606"/>
	
		<line id="XMLID_299_" style="fill:none;stroke:#F7F7F7;stroke-width:3;stroke-linecap:round;stroke-miterlimit:10;" x1="-215.388" y1="300.606" x2="-202.388" y2="300.606"/>
</g>
</svg>
