<?xml version="1.0" encoding="iso-8859-1"?>
<!-- Generator: Adobe Illustrator 19.0.0, SVG Export Plug-In . SVG Version: 6.00 Build 0)  -->
<svg version="1.1" id="Layer_1" xmlns="http://www.w3.org/2000/svg" xmlns:xlink="http://www.w3.org/1999/xlink" x="0px" y="0px"
	 viewBox="15 -15 80 80" style="enable-background:new 15 -15 80 80;" xml:space="preserve">
<g id="XMLID_79_">
	<path id="XMLID_86_" style="fill:#FFFFFF;" d="M25.822-4.939c0.589-1.555,1.687-2.212,3.371-2.161
		c2.563,0.078,5.13,0.014,7.696,0.014c0.194,0,0.387,0.026,0.432,0.03c-0.709,1.753-1.417,3.504-2.211,5.47
		c-0.998,0-2.319,0-3.684,0c0,19.991,0,39.862,0,59.81c15.535,0,31.045,0,46.603,0c0-19.92,0-39.791,0-59.765
		c-1.326,0-2.649,0-3.932,0c-0.286-1.048-0.465-2.021-0.824-2.923c-0.349-0.876-0.881-1.679-1.393-2.624
		c1.244,0,2.451-0.001,3.659,0c1.662,0.002,3.323,0.002,4.985,0.011c2.024,0.01,3.053,1.064,3.053,3.073
		c-0.001,18.366,0.003,36.733,0.005,55.099c0,3.294-0.004,6.589-0.008,9.883c-0.002,1.707-1.124,2.851-2.843,2.854
		c-6.822,0.01-13.644,0.01-20.465,0.01c-10.32,0.001-20.64-0.018-30.96,0.019c-1.681,0.006-2.866-0.548-3.484-2.148
		C25.822,39.496,25.822,17.278,25.822-4.939z"/>
	<path id="XMLID_83_" style="fill:#FFFFFF;" d="M56.087-13.861c1.423,0.228,2.772,0.627,3.868,1.635
		c1.435,1.32,2.079,2.979,2.083,5.048c0.874,0,1.707-0.011,2.539,0.002c2.929,0.047,5.401,1.985,6.057,4.739
		c0.702,2.943-0.506,5.886-3.117,7.193c-0.903,0.452-1.994,0.727-3.003,0.737C58.017,5.558,51.52,5.544,45.023,5.52
		c-2.858-0.011-5.136-1.581-6.045-4.056c-0.919-2.502-0.225-5.331,1.761-7.097c1.157-1.029,2.539-1.501,4.072-1.54
		c0.812-0.021,1.626-0.004,2.507-0.004c0.049-0.352,0.1-0.656,0.133-0.962c0.327-3.097,2.403-5.205,5.508-5.596
		c0.171-0.022,0.336-0.084,0.505-0.127C54.337-13.861,55.212-13.861,56.087-13.861z M54.596,2.166c0,0.005,0,0.01,0,0.015
		c3.175,0,6.35,0.02,9.525-0.017c0.622-0.007,1.294-0.119,1.85-0.38c1.182-0.555,1.748-2.022,1.424-3.357
		c-0.327-1.348-1.36-2.189-2.864-2.238c-1.339-0.044-2.68,0.004-4.019-0.019c-1.243-0.021-1.81-0.608-1.824-1.828
		c-0.007-0.641,0.014-1.283-0.017-1.923c-0.078-1.654-1.187-2.764-2.836-2.834c-0.698-0.03-1.398-0.015-2.097-0.004
		c-1.807,0.028-2.932,1.146-2.968,2.947c-0.013,0.641,0.019,1.283-0.018,1.922c-0.066,1.127-0.644,1.691-1.775,1.715
		c-1.281,0.026-2.564-0.007-3.845,0.014c-1.95,0.03-3.197,1.24-3.185,3.058c0.011,1.733,1.313,2.925,3.211,2.927
		C48.304,2.169,51.45,2.166,54.596,2.166z"/>
	<path id="XMLID_82_" style="fill:#FFFFFF;" d="M51.063,36.88c4.102-5.086,8.108-10.087,12.165-15.045
		c0.528-0.646,1.25-1.255,2.01-1.561c1.099-0.442,2.388,0.148,2.975,1.082c0.644,1.023,0.561,2.167-0.292,3.235
		c-1.745,2.184-3.514,4.35-5.269,6.527c-3.053,3.786-6.108,7.572-9.153,11.365c-1.216,1.515-3.154,1.648-4.459,0.223
		c-2.065-2.257-4.101-4.541-6.128-6.832c-1.093-1.235-1.041-2.834,0.072-3.827c1.131-1.009,2.94-0.889,4.007,0.289
		C48.341,33.822,49.671,35.324,51.063,36.88z"/>
	<path id="XMLID_81_" style="fill:#FFFFFF;" d="M54.721-8.062c0.694,0,1.31,0.625,1.323,1.341c0.013,0.705-0.6,1.301-1.339,1.3
		c-0.755-0.001-1.32-0.571-1.301-1.313C53.422-7.485,53.995-8.062,54.721-8.062z"/>
</g>
</svg>
