<?xml version="1.0" encoding="iso-8859-1"?>
<!-- Generator: Adobe Illustrator 19.0.0, SVG Export Plug-In . SVG Version: 6.00 Build 0)  -->
<svg version="1.1" id="Layer_1" xmlns="http://www.w3.org/2000/svg" xmlns:xlink="http://www.w3.org/1999/xlink" x="0px" y="0px"
	 viewBox="0 0 32 32" style="enable-background:new 0 0 32 32;" xml:space="preserve">
<path style="fill:#F8F9FF;" d="M25.017,7c-2.213,0.005-4.015-1.796-4.01-4.01c0.003-1.101-0.899-1.99-2-1.99h-14v30h22V9
	C27.008,7.899,26.119,6.997,25.017,7z"/>
<path style="fill:#2A327F;" d="M19,0H4v32h24V9v0C28,4.029,23.971,0,19,0z M27,31H5V1h14c1.101,0,2.003,0.889,2,1.99
	C20.995,5.204,22.796,7.005,25.01,7C26.111,6.997,27,7.899,27,9V31z"/>
<rect x="4" y="22" style="fill:#2A327F;" width="24" height="10"/>
<g>
	<path style="fill:#FFFFFF;" d="M7.933,25.159c0-0.749,0.321-1.07,1.07-1.07h0.74c0.963,0,1.658,0.161,2.086,0.49
		c0.428,0.33,0.642,0.918,0.642,1.783v1.248c0,1.596-0.865,2.274-2.728,2.274h-0.74c-0.749,0-1.07-0.321-1.07-1.07V25.159z
		 M9.743,28.77c0.579,0,0.972-0.08,1.177-0.25c0.214-0.17,0.321-0.473,0.321-0.91v-1.248c0-0.437-0.107-0.731-0.321-0.901
		c-0.205-0.169-0.598-0.258-1.177-0.258H9.396c-0.178,0-0.267,0.089-0.267,0.268v3.031c0,0.178,0.089,0.268,0.267,0.268H9.743z"/>
	<path style="fill:#FFFFFF;" d="M13.789,26.38c0-0.758,0.178-1.346,0.544-1.756c0.366-0.41,0.999-0.615,1.917-0.615
		c0.917,0,1.551,0.205,1.916,0.615c0.366,0.41,0.544,0.998,0.544,1.756v1.249c0,0.757-0.178,1.346-0.544,1.756
		C17.801,29.795,17.167,30,16.25,30c-0.919,0-1.552-0.205-1.917-0.615c-0.366-0.41-0.544-0.999-0.544-1.756V26.38z M17.506,26.38
		c0-0.446-0.08-0.767-0.25-0.963c-0.169-0.195-0.499-0.294-1.006-0.294c-0.509,0-0.838,0.099-1.008,0.294
		c-0.169,0.196-0.25,0.517-0.25,0.963v1.249c0,0.446,0.08,0.766,0.25,0.962c0.169,0.196,0.499,0.294,1.008,0.294
		c0.508,0,0.837-0.098,1.006-0.294c0.169-0.196,0.25-0.516,0.25-0.962V26.38z"/>
	<path style="fill:#FFFFFF;" d="M21.258,27.753c0,0.704,0.321,1.123,1.346,1.123c0.321,0,0.642-0.044,0.963-0.133
		c0.392-0.107,0.499-0.017,0.499,0.401v0.072c0,0.4-0.099,0.499-0.49,0.641c-0.259,0.09-0.598,0.134-1.025,0.134
		c-1.676,0-2.523-0.669-2.523-2.238v-1.427c0-1.462,0.847-2.327,2.532-2.327c0.419,0,0.749,0.053,1.008,0.151
		c0.4,0.152,0.499,0.25,0.499,0.642v0.072c0,0.419-0.125,0.517-0.517,0.401c-0.33-0.099-0.66-0.152-0.989-0.152
		c-0.919,0-1.302,0.383-1.302,1.213V27.753z"/>
</g>
<g>
	<path style="fill:#2A327F;" d="M22.911,8.208l-2.591,9.803h-2.447l-1.626-6.29c-0.086-0.328-0.139-0.695-0.157-1.101h-0.027
		c-0.041,0.447-0.1,0.813-0.178,1.101l-1.668,6.29h-2.55L9.089,8.208h2.413l1.381,6.528c0.059,0.278,0.103,0.652,0.13,1.121h0.041
		c0.018-0.351,0.084-0.734,0.198-1.148l1.777-6.501h2.365l1.606,6.583c0.06,0.242,0.112,0.592,0.157,1.053h0.027
		c0.019-0.36,0.066-0.725,0.144-1.094l1.354-6.542H22.911z"/>
</g>
</svg>
