<?xml version="1.0" encoding="utf-8"?>
<!-- Generator: Adobe Illustrator 19.0.0, SVG Export Plug-In . SVG Version: 6.00 Build 0)  -->
<svg version="1.1" id="Layer_1" xmlns="http://www.w3.org/2000/svg" xmlns:xlink="http://www.w3.org/1999/xlink" x="0px" y="0px"
	 viewBox="0 0 80 80" style="enable-background:new 0 0 80 80;" xml:space="preserve">
<style type="text/css">
	.st0{fill:#C9C9C9;}
</style>
<path id="time-3-icon_1_" class="st0" d="M40,1C18.5,1,1,18.5,1,40c0,21.5,17.5,39,39,39c21.5,0,39-17.5,39-39C79,18.5,61.5,1,40,1z
	 M40,70.5C23.2,70.5,9.5,56.8,9.5,40C9.5,23.2,23.2,9.5,40,9.5c16.8,0,30.5,13.6,30.5,30.5C70.5,56.8,56.8,70.5,40,70.5z M64,41.9
	c0.3,0.1,0.6,0.3,0.6,0.7v0c0,0.3-0.2,0.6-0.6,0.7c-7,1.3-23.7,4-25.5,4c-2.6,0-4.7-2.1-4.7-4.7c0-1.9,2.8-19.8,4.1-27.1
	c0.1-0.3,0.3-0.5,0.6-0.5h0c0.3,0,0.6,0.2,0.6,0.6l3.6,22.7L64,41.9z"/>
</svg>
