<?xml version="1.0" encoding="utf-8"?>
<!-- Generator: Adobe Illustrator 19.0.0, SVG Export Plug-In . SVG Version: 6.00 Build 0)  -->
<svg version="1.1" id="Layer_1" xmlns="http://www.w3.org/2000/svg" xmlns:xlink="http://www.w3.org/1999/xlink" x="0px" y="0px"
	 viewBox="0 0 80 80" style="enable-background:new 0 0 80 80;" xml:space="preserve">
<style type="text/css">
	.st0{fill:#4B4B4B;}
</style>
<g id="XMLID_46_">
	<path id="XMLID_117_" class="st0" d="M41.6,0c1.1,0.1,2.3,0.2,3.4,0.4c4.1,0.5,8,1.6,11.7,3.3c7.1,3.2,12.7,8.1,17,14.6
		c1.9,2.9,3.4,6.1,4.5,9.5c1,3.1,1.6,6.2,1.8,9.4c0,0.2,0,0.3,0,0.6c-0.2-0.1-0.4-0.2-0.5-0.2c-1.4-0.9-2.8-1.7-4.2-2.6
		c-0.3-0.2-0.5-0.2-0.7,0c-1.2,0.9-2.3,1.7-3.5,2.5c-0.1,0.1-0.2,0.1-0.5,0.3c-0.1-0.7-0.2-1.4-0.3-2c-0.5-3.9-1.8-7.6-3.8-11
		c-2.9-4.9-6.8-8.7-11.7-11.5c-5.2-2.9-10.7-4.1-16.6-3.7c-9.8,0.7-17.5,5.2-23.2,13.2C12,27,10.3,31.8,9.9,37c0,0.5-0.2,0.8-0.6,1
		c-1.3,0.8-2.6,1.7-3.9,2.6c-0.2,0.2-0.4,0.2-0.7,0C3.4,39.7,2,38.8,0.7,38c-0.3-0.2-0.4-0.3-0.4-0.7c0.2-2.5,0.6-5,1.2-7.4
		c2.1-7.7,6.1-14.3,12.1-19.6c2.9-2.6,6.1-4.7,9.7-6.4c3.8-1.8,7.9-3,12.1-3.4c1.1-0.1,2.3-0.3,3.4-0.4C39.8,0,40.7,0,41.6,0z"/>
	<path id="XMLID_116_" class="st0" d="M39,80c-0.6-0.1-1.3-0.2-1.9-0.2c-4.6-0.3-9.1-1.5-13.3-3.4C16.3,73,10.4,67.8,6.1,60.8
		C3.6,56.6,1.8,52.1,1,47.2c-0.3-1.5-0.4-2.9-0.6-4.4c0-0.1,0-0.3,0-0.5c0.2,0.1,0.4,0.2,0.5,0.3c1.2,0.8,2.3,1.6,3.5,2.5
		c0.3,0.2,0.5,0.2,0.8,0c1.3-0.8,2.7-1.7,4-2.5c0.2-0.1,0.3-0.2,0.6-0.3c0.1,0.4,0.1,0.7,0.1,1.1C11,52.5,15.3,59.7,22.7,65
		c5.8,4.1,12.3,6,19.4,5.5c11.2-0.9,19.6-6.4,25.1-16.2c2-3.6,3.1-7.5,3.4-11.5c0-0.2,0.2-0.5,0.3-0.6c1.2-0.9,2.5-1.8,3.7-2.7
		c0.2-0.2,0.4-0.2,0.7,0c1.4,0.9,2.9,1.8,4.3,2.6c0.3,0.2,0.5,0.4,0.4,0.8c-0.3,4-1.2,7.9-2.6,11.7c-2.4,6.1-6,11.2-10.9,15.5
		c-4.3,3.8-9.2,6.5-14.7,8.2c-2.9,0.9-5.9,1.4-9,1.6c-0.5,0-1,0.1-1.4,0.2C40.6,80,39.8,80,39,80z"/>
	<path id="XMLID_115_" class="st0" d="M50.4,51.1c0-1.3,0-2.5,0-3.8c0-3.6,0-7.3,0-10.9c0-0.4,0.1-0.5,0.5-0.5c1.4,0,2.9,0,4.3,0
		c0.4,0,0.6,0.2,0.6,0.6c0,7.6,0,15.1,0,22.7c0,0.4-0.1,0.6-0.5,0.6c-1.9,0-3.8,0-5.7,0c-0.4,0-0.6-0.1-0.8-0.5
		c-1.7-3.7-3.5-7.3-5.3-11c-0.7-1.4-1.4-2.9-2.1-4.4c0-0.1-0.1-0.2-0.3-0.4c0,0.4,0,0.6,0,0.8c0,4.9,0,9.9,0,14.8
		c0,0.4-0.2,0.5-0.6,0.5c-1.6,0-3.2,0-4.8,0c-0.4,0-0.5-0.1-0.5-0.5c0-7.6,0-15.2,0-22.8c0-0.4,0.1-0.5,0.5-0.5c2.2,0,4.5,0,6.7,0
		c0.4,0,0.5,0.2,0.6,0.5c1.5,3.1,3,6.1,4.5,9.2c0.9,1.8,1.7,3.5,2.6,5.3C50.2,50.9,50.3,51,50.4,51.1C50.4,51.1,50.4,51.1,50.4,51.1
		z"/>
	<path id="XMLID_114_" class="st0" d="M24.6,47.8c0-3.8,0-7.5,0-11.3c0-0.5,0.1-0.6,0.6-0.6c1.8,0,3.5,0,5.3,0
		c0.4,0,0.6,0.1,0.6,0.6c0,7.6,0,15.1,0,22.7c0,0.4-0.1,0.5-0.5,0.5c-1.8,0-3.6,0-5.3,0c-0.5,0-0.6-0.1-0.6-0.6
		C24.6,55.3,24.6,51.5,24.6,47.8z"/>
	<path id="XMLID_111_" class="st0" d="M30.4,20.3c0.6,0,1.2,0,1.8,0c0.3,0,0.5,0.1,0.6,0.4c1.1,3.9,2.3,7.7,3.4,11.6
		c0.1,0.4,0,0.5-0.4,0.5c-0.9,0-1.8,0-2.7,0c-0.4,0-0.6-0.2-0.6-0.5c-0.2-0.7-0.4-1.3-0.5-1.9c-0.1-0.3-0.2-0.4-0.6-0.4
		c-0.8,0-1.5,0-2.3,0c-0.3,0-0.5,0.1-0.5,0.4c-0.1,0.7-0.3,1.3-0.5,2c-0.1,0.3-0.2,0.5-0.6,0.5c-0.9,0-1.7,0-2.6,0
		c-0.4,0-0.4-0.1-0.4-0.5c0.6-2.2,1.3-4.4,1.9-6.7c0.5-1.6,0.9-3.2,1.4-4.7c0.1-0.4,0.3-0.7,0.8-0.6C29.3,20.4,29.9,20.3,30.4,20.3z
		 M30.4,23.1c-0.1,0-0.1,0-0.2,0c-0.3,1.4-0.6,2.8-0.9,4.2c0.8,0,1.5,0,2.2,0C31.1,25.9,30.7,24.5,30.4,23.1z"/>
	<path id="XMLID_110_" class="st0" d="M38,26.5c0-1.9,0-3.8,0-5.7c0-0.4,0.1-0.5,0.5-0.5c0.8,0,1.5,0,2.3,0c0.4,0,0.5,0.1,0.5,0.5
		c0,2.8,0,5.7,0,8.5c0,0.5,0.1,0.6,0.6,0.6c1.2,0,2.4,0,3.7,0c0.4,0,0.6,0.1,0.5,0.6c0,0.6,0,1.1,0,1.7c0,0.4-0.1,0.6-0.5,0.6
		c-2.4,0-4.7,0-7.1,0c-0.4,0-0.5-0.1-0.5-0.5C38,30.4,38,28.5,38,26.5z"/>
	<path id="XMLID_109_" class="st0" d="M47.7,26.6c0-1.9,0-3.8,0-5.7c0-0.4,0.1-0.5,0.5-0.5c0.8,0,1.5,0,2.3,0c0.4,0,0.5,0.1,0.5,0.5
		c0,2.9,0,5.7,0,8.6c0,0.4,0.1,0.6,0.5,0.6c1.2,0,2.4,0,3.6,0c0.4,0,0.6,0.1,0.6,0.6c0,0.6,0,1.2,0,1.8c0,0.3-0.1,0.5-0.5,0.5
		c-2.4,0-4.8,0-7.2,0c-0.4,0-0.4-0.2-0.4-0.5C47.7,30.4,47.7,28.5,47.7,26.6z"/>
</g>
</svg>
