<?xml version="1.0" encoding="iso-8859-1"?>
<!-- Generator: Adobe Illustrator 19.0.0, SVG Export Plug-In . SVG Version: 6.00 Build 0)  -->
<svg version="1.1" id="Layer_1" xmlns="http://www.w3.org/2000/svg" xmlns:xlink="http://www.w3.org/1999/xlink" x="0px" y="0px"
	 viewBox="0 0 250 130" style="enable-background:new 0 0 250 130;" xml:space="preserve">
<g id="XMLID_40_">
	<path id="XMLID_430_" style="fill:#DBF1F9;stroke:#019DD6;stroke-width:2;stroke-miterlimit:10;" d="M163.96,122.015H89.988
		c-1.875,0-3.395-1.52-3.395-3.395V29.505c0-1.875,1.52-3.395,3.395-3.395h73.972c1.875,0,3.395,1.52,3.395,3.395v89.115
		C167.355,120.495,165.835,122.015,163.96,122.015z"/>
	<g id="XMLID_424_">
		<path id="XMLID_49_" style="fill:#FFFFFF;" d="M160.261,117.009H93.687c-0.946,0-1.713-0.767-1.713-1.713V30.722
			c0-0.946,0.767-1.713,1.713-1.713h66.575c0.946,0,1.713,0.767,1.713,1.713v84.575
			C161.974,116.243,161.207,117.009,160.261,117.009z"/>
	</g>
	<path id="XMLID_409_" style="fill:#019DD6;" d="M145.164,19.38h-11.318c-0.623,0-1.199-0.298-1.584-0.788
		c-1.231-1.568-3.14-2.577-5.289-2.577c-2.148,0-4.057,1.009-5.289,2.577c-0.385,0.49-0.961,0.788-1.584,0.788h-11.318
		c-1.105,0-2,0.895-2,2v7.778c0,1.105,0.895,2,2,2h36.381c1.105,0,2-0.895,2-2V21.38C147.164,20.275,146.269,19.38,145.164,19.38z
		 M126.974,25.269c-1.394,0-2.524-1.13-2.524-2.524c0-1.394,1.13-2.524,2.524-2.524c1.394,0,2.524,1.13,2.524,2.524
		C129.498,24.139,128.368,25.269,126.974,25.269z"/>
	<path id="XMLID_400_" style="fill:none;stroke:#DBF1F9;stroke-width:2;stroke-miterlimit:10;" d="M108.699,54.972h-6
		c-1.105,0-2-0.895-2-2v-6c0-1.105,0.895-2,2-2h6c1.105,0,2,0.895,2,2v6C110.699,54.077,109.804,54.972,108.699,54.972z"/>
	<path id="XMLID_330_" style="fill:none;stroke:#92D5ED;stroke-width:2;stroke-miterlimit:10;" d="M196.57,48.819l-5.647,2.029
		c-1.04,0.374-2.185-0.166-2.558-1.206l-2.029-5.647c-0.374-1.04,0.166-2.185,1.206-2.558l5.647-2.029
		c1.04-0.374,2.185,0.166,2.558,1.206l2.029,5.647C198.15,47.3,197.61,48.446,196.57,48.819z"/>
	<path id="XMLID_342_" style="fill:none;stroke:#92D5ED;stroke-width:1.2;stroke-miterlimit:10;" d="M207.268,19.183l-3.581-0.368
		c-0.659-0.068-1.139-0.657-1.071-1.316l0.368-3.581c0.068-0.659,0.657-1.139,1.316-1.071l3.581,0.368
		c0.659,0.068,1.139,0.657,1.071,1.316l-0.368,3.581C208.517,18.772,207.928,19.251,207.268,19.183z"/>
	<path id="XMLID_343_" style="fill:none;stroke:#92D5ED;stroke-width:0.757;stroke-miterlimit:10;" d="M238.704,14.306l-1.243-1.901
		c-0.229-0.35-0.131-0.819,0.219-1.048l1.901-1.243c0.35-0.229,0.819-0.131,1.048,0.219l1.243,1.901
		c0.229,0.35,0.131,0.819-0.219,1.048l-1.901,1.243C239.402,14.754,238.933,14.655,238.704,14.306z"/>
	<path id="XMLID_345_" style="fill:none;stroke:#92D5ED;stroke-width:1.2457;stroke-miterlimit:10;" d="M224.812,42.911
		l-2.715-2.568c-0.5-0.473-0.522-1.261-0.049-1.761l2.568-2.715c0.473-0.5,1.261-0.522,1.761-0.049l2.715,2.568
		c0.5,0.473,0.522,1.261,0.049,1.761l-2.568,2.715C226.1,43.361,225.312,43.383,224.812,42.911z"/>
	<path id="XMLID_346_" style="fill:none;stroke:#92D5ED;stroke-width:0.6454;stroke-miterlimit:10;" d="M241.71,62.206l-0.658,1.821
		c-0.121,0.335-0.491,0.509-0.826,0.387l-1.821-0.658c-0.335-0.121-0.509-0.491-0.387-0.826l0.658-1.821
		c0.121-0.335,0.491-0.509,0.826-0.387l1.821,0.658C241.657,61.5,241.831,61.87,241.71,62.206z"/>
	<path id="XMLID_332_" style="fill:none;stroke:#92D5ED;stroke-width:1.585;stroke-miterlimit:10;" d="M66.493,36.932l-4.352-1.916
		c-0.801-0.353-1.165-1.288-0.812-2.089l1.916-4.352c0.353-0.801,1.288-1.165,2.089-0.812l4.352,1.916
		c0.801,0.353,1.165,1.288,0.812,2.089l-1.916,4.352C68.23,36.921,67.295,37.285,66.493,36.932z"/>
	<path id="XMLID_337_" style="fill:none;stroke:#92D5ED;stroke-width:0.8903;stroke-miterlimit:10;" d="M43.679,13.282l-1.889-1.889
		c-0.348-0.348-0.348-0.911,0-1.259l1.889-1.889c0.348-0.348,0.911-0.348,1.259,0l1.889,1.889c0.348,0.348,0.348,0.911,0,1.259
		l-1.889,1.889C44.59,13.63,44.027,13.63,43.679,13.282z"/>
	<path id="XMLID_339_" style="fill:none;stroke:#92D5ED;stroke-width:1.175;stroke-miterlimit:10;" d="M42.839,61.088l-3.317,1.192
		c-0.611,0.219-1.284-0.098-1.503-0.708l-1.192-3.317c-0.219-0.611,0.098-1.284,0.708-1.503l3.317-1.192
		c0.611-0.219,1.284,0.098,1.503,0.708l1.192,3.317C43.767,60.196,43.449,60.869,42.839,61.088z"/>
	<path id="XMLID_340_" style="fill:none;stroke:#92D5ED;stroke-width:1.0869;stroke-miterlimit:10;" d="M38.14,37.205l-3.18-0.72
		c-0.585-0.133-0.953-0.715-0.82-1.3l0.72-3.18c0.133-0.585,0.715-0.953,1.3-0.82l3.18,0.72c0.585,0.133,0.953,0.715,0.82,1.3
		l-0.72,3.18C39.307,36.97,38.725,37.338,38.14,37.205z"/>
	<path id="XMLID_341_" style="fill:none;stroke:#92D5ED;stroke-width:0.8393;stroke-miterlimit:10;" d="M12.349,46.677l-2.37,0.851
		c-0.436,0.157-0.917-0.07-1.074-0.506l-0.851-2.37c-0.157-0.436,0.07-0.917,0.506-1.074l2.37-0.851
		c0.436-0.157,0.917,0.07,1.074,0.506l0.851,2.37C13.012,46.04,12.785,46.52,12.349,46.677z"/>
	<path id="XMLID_347_" style="fill:none;stroke:#92D5ED;stroke-width:0.5329;stroke-miterlimit:10;" d="M13.213,13.303l-1.504,0.541
		c-0.277,0.1-0.582-0.044-0.682-0.321l-0.541-1.504c-0.1-0.277,0.044-0.582,0.321-0.682l1.504-0.541
		c0.277-0.1,0.582,0.044,0.682,0.321l0.541,1.504C13.634,12.898,13.49,13.203,13.213,13.303z"/>
	<path id="XMLID_379_" style="fill:#DBF1F9;" d="M144.224,48.972h-21.97c-0.552,0-1-0.448-1-1l0,0c0-0.552,0.448-1,1-1h21.97
		c0.552,0,1,0.448,1,1l0,0C145.224,48.525,144.776,48.972,144.224,48.972z"/>
	<path id="XMLID_323_" style="fill:#DBF1F9;" d="M149.474,53.972h-27.22c-0.552,0-1-0.448-1-1l0,0c0-0.552,0.448-1,1-1h27.22
		c0.552,0,1,0.448,1,1l0,0C150.474,53.525,150.026,53.972,149.474,53.972z"/>
	
		<polyline id="XMLID_316_" style="fill:none;stroke:#00B1EF;stroke-width:2;stroke-linecap:round;stroke-linejoin:round;stroke-miterlimit:10;" points="
		104.54,48.736 107.104,51.301 113.277,45.128 	"/>
	<path id="XMLID_321_" style="fill:none;stroke:#DBF1F9;stroke-width:2;stroke-miterlimit:10;" d="M108.699,78.972h-6
		c-1.105,0-2-0.895-2-2v-6c0-1.105,0.895-2,2-2h6c1.105,0,2,0.895,2,2v6C110.699,78.077,109.804,78.972,108.699,78.972z"/>
	<path id="XMLID_319_" style="fill:#DBF1F9;" d="M149.474,72.972h-27.22c-0.552,0-1-0.448-1-1l0,0c0-0.552,0.448-1,1-1h27.22
		c0.552,0,1,0.448,1,1l0,0C150.474,72.525,150.026,72.972,149.474,72.972z"/>
	<path id="XMLID_326_" style="fill:#DBF1F9;" d="M139.724,77.972h-17.47c-0.552,0-1-0.448-1-1l0,0c0-0.552,0.448-1,1-1h17.47
		c0.552,0,1,0.448,1,1l0,0C140.724,77.525,140.276,77.972,139.724,77.972z"/>
	
		<polyline id="XMLID_315_" style="fill:none;stroke:#00B1EF;stroke-width:2;stroke-linecap:round;stroke-linejoin:round;stroke-miterlimit:10;" points="
		104.54,72.736 107.104,75.301 113.277,69.128 	"/>
	<path id="XMLID_322_" style="fill:none;stroke:#DBF1F9;stroke-width:2;stroke-miterlimit:10;" d="M108.699,102.972h-6
		c-1.105,0-2-0.895-2-2v-6c0-1.105,0.895-2,2-2h6c1.105,0,2,0.895,2,2v6C110.699,102.077,109.804,102.972,108.699,102.972z"/>
	<path id="XMLID_317_" style="fill:#DBF1F9;" d="M146.164,96.972h-23.911c-0.552,0-1-0.448-1-1l0,0c0-0.552,0.448-1,1-1h23.911
		c0.552,0,1,0.448,1,1l0,0C147.164,96.525,146.717,96.972,146.164,96.972z"/>
	<path id="XMLID_327_" style="fill:#DBF1F9;" d="M141.974,101.972h-19.72c-0.552,0-1-0.448-1-1l0,0c0-0.552,0.448-1,1-1h19.72
		c0.552,0,1,0.448,1,1l0,0C142.974,101.525,142.526,101.972,141.974,101.972z"/>
	
		<polyline id="XMLID_314_" style="fill:none;stroke:#00B1EF;stroke-width:2;stroke-linecap:round;stroke-linejoin:round;stroke-miterlimit:10;" points="
		104.54,96.736 107.104,99.301 113.277,93.128 	"/>
	<path id="XMLID_312_" style="fill:none;stroke:#C5F3FF;stroke-width:0.8413;stroke-miterlimit:10;" d="M147.164,29.475"/>
	<path id="XMLID_311_" style="fill:none;stroke:#C5F3FF;stroke-width:0.8413;stroke-miterlimit:10;" d="M106.784,29.475"/>
	<g id="XMLID_364_">
		<g id="XMLID_371_">
			<path id="XMLID_384_" style="fill:#019DD6;" d="M190.521,118.179c-0.332-0.141-0.542-0.465-0.534-0.826l0.111-5.013
				c0.007-0.367,0.085-0.725,0.23-1.065l18.557-43.571c0.081-0.191,0.302-0.28,0.493-0.199c0.191,0.082,0.28,0.302,0.199,0.493
				l-18.557,43.571c-0.107,0.252-0.164,0.517-0.17,0.787l-0.111,5.013c-0.001,0.074,0.048,0.106,0.077,0.118l0,0
				c0.036,0.015,0.089,0.023,0.138-0.027l3.537-3.553c0.193-0.193,0.344-0.418,0.451-0.668l18.557-43.571
				c0.081-0.191,0.302-0.28,0.493-0.198c0.191,0.082,0.28,0.302,0.199,0.493l-18.557,43.571c-0.144,0.338-0.35,0.643-0.61,0.904
				l-3.537,3.553c-0.254,0.255-0.633,0.329-0.964,0.189C190.521,118.179,190.521,118.179,190.521,118.179z"/>
		</g>
		<g id="XMLID_370_">
			<path id="XMLID_383_" style="fill:#019DD6;" d="M194.029,113.139c-0.827-0.352-1.213-1.311-0.861-2.137
				c0.081-0.191,0.302-0.28,0.493-0.199c0.191,0.082,0.28,0.302,0.199,0.493c-0.189,0.445,0.019,0.962,0.464,1.151
				c0.445,0.189,0.962-0.019,1.151-0.464c0.081-0.191,0.302-0.28,0.493-0.199c0.191,0.082,0.28,0.302,0.199,0.493
				C195.814,113.105,194.856,113.492,194.029,113.139z"/>
		</g>
		<g id="XMLID_369_">
			<path id="XMLID_382_" style="fill:#019DD6;" d="M191.723,112.157c-0.827-0.352-1.213-1.311-0.861-2.137
				c0.081-0.191,0.302-0.28,0.493-0.199s0.28,0.302,0.199,0.493c-0.189,0.445,0.019,0.962,0.464,1.151
				c0.445,0.189,0.962-0.019,1.151-0.464c0.081-0.191,0.302-0.28,0.493-0.199c0.191,0.082,0.28,0.302,0.199,0.493
				C193.508,112.123,192.549,112.509,191.723,112.157z"/>
		</g>
		<g id="XMLID_368_">
			<path id="XMLID_381_" style="fill:#019DD6;" d="M193.367,111.495c-0.191-0.082-0.28-0.302-0.199-0.493l18.022-42.317
				c0.081-0.191,0.302-0.28,0.493-0.198c0.191,0.082,0.28,0.302,0.198,0.493l-18.022,42.317
				C193.779,111.487,193.559,111.577,193.367,111.495z"/>
		</g>
		<g id="XMLID_367_">
			<polygon id="XMLID_376_" style="fill:#019DD6;" points="190.405,115.453 192.567,116.372 190.691,117.778 			"/>
		</g>
		<g id="XMLID_366_">
			<path id="XMLID_377_" style="fill:#019DD6;" d="M213.831,69.843l-4.613-1.965c-0.191-0.082-0.28-0.302-0.199-0.493l0.778-1.827
				c0.171-0.402,0.489-0.713,0.893-0.876c1.686-0.678,3.745,0.199,4.423,1.884c0.164,0.406,0.159,0.85-0.012,1.252l-0.778,1.827
				C214.243,69.835,214.022,69.924,213.831,69.843z M209.858,67.334l3.921,1.67l0.631-1.481c0.092-0.217,0.095-0.457,0.006-0.677
				l0,0c-0.527-1.312-2.132-1.994-3.445-1.467c-0.218,0.088-0.39,0.256-0.482,0.473L209.858,67.334z"/>
		</g>
		<g id="XMLID_365_">
			
				<rect id="XMLID_372_" x="209.177" y="68.11" transform="matrix(0.92 0.3918 -0.3918 0.92 43.7618 -77.468)" style="fill:#019DD6;" width="5.014" height="0.752"/>
			<path id="XMLID_373_" style="fill:#019DD6;" d="M213.696,70.16l-4.613-1.965c-0.191-0.082-0.28-0.302-0.199-0.493l0.295-0.692
				c0.081-0.191,0.302-0.28,0.493-0.199l4.613,1.965c0.191,0.082,0.28,0.302,0.199,0.493l-0.295,0.692
				C214.108,70.152,213.887,70.241,213.696,70.16z M209.723,67.651l3.922,1.67L209.723,67.651z"/>
		</g>
	</g>
	<path id="XMLID_385_" style="fill:none;stroke:#019DD6;stroke-width:0.6;stroke-miterlimit:10;" d="M52.143,109.585H40.544
		c-0.794,0-1.438-0.644-1.438-1.438V90.454c0-0.794,0.644-1.438,1.438-1.438h11.599c0.794,0,1.438,0.644,1.438,1.438v17.694
		C53.58,108.942,52.937,109.585,52.143,109.585z"/>
	<path id="XMLID_386_" style="fill:#019DD6;" d="M52.143,109.585H40.544c-0.794,0-1.438-0.644-1.438-1.438v-6.691H53.58v6.691
		C53.58,108.942,52.937,109.585,52.143,109.585z"/>
	<path id="XMLID_388_" style="fill:none;stroke:#019DD6;stroke-width:0.6;stroke-linecap:round;stroke-miterlimit:10;" d="
		M41.335,96.458v-4.403c0-0.397,0.322-0.719,0.719-0.719h2.965"/>
</g>
</svg>
