<?xml version="1.0" encoding="utf-8"?>
<!-- Generator: Adobe Illustrator 19.0.0, SVG Export Plug-In . SVG Version: 6.00 Build 0)  -->
<svg version="1.1" id="Layer_1" xmlns="http://www.w3.org/2000/svg" xmlns:xlink="http://www.w3.org/1999/xlink" x="0px" y="0px"
	 viewBox="-265 357 80 80" style="enable-background:new -265 357 80 80;" xml:space="preserve">
<style type="text/css">
	.st0{opacity:0.12;fill:#2FBFD2;}
	.st1{fill:#2FBFD2;}
</style>
<g id="XMLID_163_">
	<path id="XMLID_174_" class="st0" d="M-225.3,362.5c-19.9,0-36,13.1-36,29.2c0,10.4,6.6,19.4,16.6,24.6l0.8,15.4l13.1-11.1
		c1.8,0.2,3.7,0.3,5.6,0.3c19.9,0,36-13.1,36-29.2S-205.4,362.5-225.3,362.5z"/>
	<g id="XMLID_169_">
		<path id="XMLID_214_" class="st1" d="M-247,425c0-2.2,0-4.5,0-6.7c0-0.6-0.2-0.9-0.7-1.2c-5.8-3.6-10.5-8.3-13.6-14.5
			c-2-4-3-8.3-2.8-12.8c0.2-6.1,2.4-11.6,6.2-16.3c5.8-7.2,13.4-11.3,22.2-13.4c3.7-0.9,7.5-1.3,11.3-1.2c9.7,0.2,18.6,2.9,26.4,8.9
			c5.7,4.4,9.7,9.9,11.3,17c1.4,5.9,0.7,11.7-1.8,17.2c-3.2,7.1-8.6,12.3-15.3,16.1c-4.3,2.4-8.9,4-13.7,4.8
			c-3.9,0.7-7.9,0.9-11.9,0.4c-0.3,0-0.6,0.1-0.8,0.2c-4.2,3.4-8.4,6.9-12.6,10.3c-0.8,0.7-1.7,0.9-2.7,0.4c-1-0.5-1.4-1.3-1.4-2.4
			C-247,429.5-247,427.2-247,425z M-242.1,426.8c0.3-0.2,0.5-0.3,0.6-0.4c3.2-2.6,6.4-5.3,9.6-7.9c0.3-0.2,0.7-0.4,1-0.3
			c2.9,0.4,5.9,0.5,8.9,0.3c4.5-0.3,8.8-1.4,12.9-3.3c6.5-3,11.9-7.3,15.4-13.7c2.8-5.3,3.6-10.8,2-16.7c-1.5-5.4-4.7-9.7-9.1-13.2
			c-6.5-5.2-14.1-7.5-22.4-8c-3.9-0.2-7.7,0.1-11.5,1c-7.6,1.8-14.3,5.3-19.3,11.4c-3.1,3.7-4.9,8.1-5.3,12.9
			c-0.3,4.3,0.6,8.3,2.6,12.1c3.1,5.9,7.8,10.1,13.7,13.1c0.6,0.3,0.8,0.6,0.8,1.2c0,3.2,0,6.4,0,9.6
			C-242.1,425.6-242.1,426.1-242.1,426.8z"/>
	</g>
</g>
</svg>
