<?xml version="1.0" encoding="iso-8859-1"?>
<!-- Generator: Adobe Illustrator 19.0.0, SVG Export Plug-In . SVG Version: 6.00 Build 0)  -->
<svg version="1.1" id="Layer_1" xmlns="http://www.w3.org/2000/svg" xmlns:xlink="http://www.w3.org/1999/xlink" x="0px" y="0px"
	 viewBox="15 -15 80 80" style="enable-background:new 15 -15 80 80;" xml:space="preserve">
<g id="XMLID_25_">
	<path id="XMLID_137_" style="fill:#4B4B4B;" d="M94-1.584c0,9.071,0,18.143,0,27.214c-0.062,0.163-0.16,0.321-0.182,0.489
		c-0.299,2.304-1.398,4.142-3.19,5.599c-1.543,1.253-3.341,1.8-5.39,1.919c0,0.454,0,0.839,0,1.223
		c-0.001,3.819,0.013,7.639-0.019,11.458c-0.005,0.544-0.106,1.162-0.379,1.615c-0.922,1.53-2.739,1.668-4.086,0.334
		c-2.254-2.232-4.478-4.494-6.703-6.732c-2.602,2.017-3.944,2.474-7.168,2.474c-7.246,0.001-14.493,0.017-21.739-0.021
		c-0.904-0.005-1.517,0.277-2.141,0.906c-4.527,4.559-9.095,9.078-13.635,13.625c-0.892,0.894-1.894,1.275-3.086,0.786
		c-1.173-0.481-1.544-1.462-1.529-2.677c0.028-2.248,0.008-4.498,0.009-6.746c0-1.922,0-3.845,0-5.805
		c-0.397-0.08-0.705-0.167-1.019-0.201c-2.728-0.297-4.877-1.609-6.271-3.929c-0.692-1.151-0.993-2.537-1.47-3.817
		c0-9.143,0-18.286,0-27.429c0.062-0.124,0.158-0.242,0.18-0.372c0.618-3.797,2.797-6.339,6.496-7.175
		c2.152-0.486,4.461-0.29,6.701-0.362c1.305-0.042,2.613-0.008,3.985-0.008c0-0.637-0.001-1.131,0-1.626
		c0.01-4.832,3.825-8.669,8.678-8.673C56.495-9.525,70.95-9.52,85.405-9.516c2.575,0.001,4.658,1.079,6.379,2.952
		C93.086-5.148,93.601-3.394,94-1.584z M29.919,50.723c3.668-3.662,7.145-7.1,10.576-10.582c0.857-0.87,1.758-1.276,3.01-1.269
		c7.928,0.048,15.856,0.026,23.785,0.024c2.838-0.001,4.205-1.361,4.205-4.178c0.001-8.25,0-16.499-0.001-24.749
		c-0.001-2.675-1.393-4.046-4.102-4.046C60.605,5.922,53.82,5.922,47.034,5.922c-7.285,0-14.571-0.003-21.856,0.002
		c-2.609,0.002-4.003,1.412-4.018,4.039c-0.002,0.321,0,0.643,0,0.964c0.001,8-0.003,15.999,0.004,23.999
		c0.002,2.515,1.466,3.959,3.993,3.971c0.214,0.001,0.429-0.001,0.643-0.001c3.527,0,4.121,0.589,4.12,4.084
		C29.918,45.47,29.919,47.961,29.919,50.723z M79.824,40.182c0.086-0.046,0.171-0.093,0.257-0.139c0-2.848-0.008-5.697,0.003-8.545
		c0.007-1.928,1.119-3.033,3.056-3.062c0.678-0.01,1.357,0.002,2.035-0.005c2.192-0.022,3.644-1.381,3.651-3.583
		c0.028-8.567,0.03-17.135-0.003-25.702c-0.008-2.143-1.492-3.518-3.612-3.518C70.86-4.375,56.51-4.375,42.16-4.366
		c-0.419,0-0.858,0.044-1.253,0.173c-1.927,0.629-2.704,2.315-2.267,4.977c0.401,0,0.82,0,1.24,0c9.246,0,18.491-0.011,27.737,0.006
		c4.84,0.009,8.958,3.643,8.991,8.198c0.067,9.133-0.044,18.268-0.067,27.402c-0.001,0.216,0.106,0.482,0.253,0.639
		C77.789,38.093,78.81,39.134,79.824,40.182z"/>
	<path id="XMLID_123_" style="fill:#4B4B4B;" d="M37.646,22.396c0.009,1.925-1.498,3.443-3.419,3.446
		c-1.922,0.003-3.451-1.532-3.437-3.448c0.014-1.858,1.53-3.382,3.386-3.402C36.094,18.971,37.637,20.485,37.646,22.396z"/>
	<path id="XMLID_122_" style="fill:#4B4B4B;" d="M42.959,22.443c-0.01-1.956,1.469-3.459,3.397-3.451
		c1.874,0.007,3.477,1.613,3.456,3.461c-0.021,1.828-1.573,3.368-3.414,3.388C44.432,25.862,42.97,24.418,42.959,22.443z"/>
	<path id="XMLID_121_" style="fill:#4B4B4B;" d="M61.866,22.431c-0.003,1.932-1.511,3.427-3.441,3.41
		c-1.859-0.016-3.392-1.531-3.419-3.379c-0.028-1.87,1.552-3.463,3.441-3.471C60.366,18.984,61.868,20.495,61.866,22.431z"/>
</g>
<g id="XMLID_42_" style="display:none;">
	<path id="XMLID_66_" style="display:inline;fill:#C9C9C9;" d="M94-1.584c0,9.071,0,18.143,0,27.214
		c-0.062,0.163-0.16,0.321-0.182,0.489c-0.299,2.304-1.398,4.142-3.19,5.599c-1.543,1.253-3.341,1.8-5.39,1.919
		c0,0.454,0,0.839,0,1.223c-0.001,3.819,0.013,7.639-0.019,11.458c-0.005,0.544-0.106,1.162-0.379,1.615
		c-0.922,1.53-2.739,1.668-4.086,0.334c-2.254-2.232-4.478-4.494-6.703-6.732c-2.602,2.017-3.944,2.474-7.168,2.474
		c-7.246,0.001-14.493,0.017-21.739-0.021c-0.904-0.005-1.517,0.277-2.141,0.906c-4.527,4.559-9.095,9.078-13.635,13.625
		c-0.892,0.894-1.894,1.275-3.086,0.786c-1.173-0.481-1.544-1.462-1.529-2.677c0.028-2.248,0.008-4.498,0.009-6.746
		c0-1.922,0-3.845,0-5.805c-0.397-0.08-0.705-0.167-1.019-0.201c-2.728-0.297-4.877-1.609-6.271-3.929
		c-0.692-1.151-0.993-2.537-1.47-3.817c0-9.143,0-18.286,0-27.429c0.062-0.124,0.158-0.242,0.18-0.372
		c0.618-3.797,2.797-6.339,6.496-7.175c2.152-0.486,4.461-0.29,6.701-0.362c1.305-0.042,2.613-0.008,3.985-0.008
		c0-0.637-0.001-1.131,0-1.626c0.01-4.832,3.825-8.669,8.678-8.673C56.495-9.525,70.95-9.52,85.405-9.516
		c2.575,0.001,4.658,1.079,6.379,2.952C93.086-5.148,93.601-3.394,94-1.584z M29.919,50.723c3.668-3.662,7.145-7.1,10.576-10.582
		c0.857-0.87,1.758-1.276,3.01-1.269c7.928,0.048,15.856,0.026,23.785,0.024c2.838-0.001,4.205-1.361,4.205-4.178
		c0.001-8.25,0-16.499-0.001-24.749c-0.001-2.675-1.393-4.046-4.102-4.046C60.605,5.922,53.82,5.922,47.034,5.922
		c-7.285,0-14.571-0.003-21.856,0.002c-2.609,0.002-4.003,1.412-4.018,4.039c-0.002,0.321,0,0.643,0,0.964
		c0.001,8-0.003,15.999,0.004,23.999c0.002,2.515,1.466,3.959,3.993,3.971c0.214,0.001,0.429-0.001,0.643-0.001
		c3.527,0,4.121,0.589,4.12,4.084C29.918,45.47,29.919,47.961,29.919,50.723z M79.824,40.182c0.086-0.046,0.171-0.093,0.257-0.139
		c0-2.848-0.008-5.697,0.003-8.545c0.007-1.928,1.119-3.033,3.056-3.062c0.678-0.01,1.357,0.002,2.035-0.005
		c2.192-0.022,3.644-1.381,3.651-3.583c0.028-8.567,0.03-17.135-0.003-25.702c-0.008-2.143-1.492-3.518-3.612-3.518
		C70.86-4.375,56.51-4.375,42.16-4.366c-0.419,0-0.858,0.044-1.253,0.173c-1.927,0.629-2.704,2.315-2.267,4.977
		c0.401,0,0.82,0,1.24,0c9.246,0,18.491-0.011,27.737,0.006c4.84,0.009,8.958,3.643,8.991,8.198
		c0.067,9.133-0.044,18.268-0.067,27.402c-0.001,0.216,0.106,0.482,0.253,0.639C77.789,38.093,78.81,39.134,79.824,40.182z"/>
	<path id="XMLID_46_" style="display:inline;fill:#C9C9C9;" d="M37.646,22.396c0.009,1.925-1.498,3.443-3.419,3.446
		c-1.922,0.003-3.451-1.532-3.437-3.448c0.014-1.858,1.53-3.382,3.386-3.402C36.094,18.971,37.637,20.485,37.646,22.396z"/>
	<path id="XMLID_45_" style="display:inline;fill:#C9C9C9;" d="M42.959,22.443c-0.01-1.956,1.469-3.459,3.397-3.451
		c1.874,0.007,3.477,1.613,3.456,3.461c-0.021,1.828-1.573,3.368-3.414,3.388C44.432,25.862,42.97,24.418,42.959,22.443z"/>
	<path id="XMLID_44_" style="display:inline;fill:#C9C9C9;" d="M61.866,22.431c-0.003,1.932-1.511,3.427-3.441,3.41
		c-1.859-0.016-3.392-1.531-3.419-3.379c-0.028-1.87,1.552-3.463,3.441-3.471C60.366,18.984,61.868,20.495,61.866,22.431z"/>
</g>
</svg>
