<svg id="Layer_1" data-name="Layer 1" xmlns="http://www.w3.org/2000/svg" viewBox="0 0 65.09 78"><defs><style>.cls-1{fill:#c9c9c9;}</style></defs><title>Download File</title><path class="cls-1" d="M281.59,76.28v4.18h7.89V133.8H233V80.39h7.77V76.28H228.69V90.75q0,19.61,0,39.23c0,1.76,0,3.51,0,5.27l0,2.92h65l0-.79c0-.22,0-0.45,0-0.67V76.28H281.59Z" transform="translate(-228.69 -60.17)"/><path class="cls-1" d="M276.43,100.61l-2.93-3.18-10.14,10.15V103q0-20.75,0-41.5a5,5,0,0,0-.06-0.66l-0.08-.71h-4.14l0,47.79-10.38-10L246,100.69l15.17,15.19Z" transform="translate(-228.69 -60.17)"/></svg>