<?xml version="1.0" encoding="iso-8859-1"?>
<!-- Generator: Adobe Illustrator 19.0.0, SVG Export Plug-In . SVG Version: 6.00 Build 0)  -->
<svg version="1.1" id="Layer_1" xmlns="http://www.w3.org/2000/svg" xmlns:xlink="http://www.w3.org/1999/xlink" x="0px" y="0px"
	 viewBox="0 0 32 32" style="enable-background:new 0 0 32 32;" xml:space="preserve">
<path style="fill:#F8FFFB;" d="M25.017,7c-2.213,0.005-4.015-1.796-4.01-4.01C21.01,1.889,20.112,1,19.01,1L5.008,1v30h22
	c0,0,0-15.772,0-22.002C27.008,7.896,26.119,6.997,25.017,7z"/>
<path style="fill:#007033;" d="M19,0H4v22v10h24V22V9v0C28,4.029,23.971,0,19,0z M5,22V1h14c1.101,0,2.003,0.889,2,1.99
	C20.995,5.204,22.797,7.005,25.01,7C26.111,6.997,27,7.899,27,9v13H5z"/>
<g>
	<path style="fill:#FFFFFF;" d="M12.867,24.089c0.42,0,0.474,0.08,0.295,0.464l-0.822,1.714c-0.152,0.313-0.304,0.5-0.456,0.571
		c0.17,0.08,0.331,0.268,0.474,0.554l0.982,2.036c0.178,0.384,0.125,0.464-0.294,0.464h-0.304c-0.419,0-0.571-0.108-0.723-0.474
		l-0.661-1.491c-0.205-0.474-0.259-0.544-0.464-0.544s-0.259,0.071-0.464,0.544l-0.661,1.491c-0.152,0.366-0.304,0.474-0.723,0.474
		H8.742c-0.419,0-0.473-0.08-0.294-0.464l0.982-2.036c0.143-0.286,0.295-0.474,0.464-0.554c-0.152-0.072-0.295-0.259-0.446-0.571
		l-0.821-1.714c-0.179-0.384-0.125-0.464,0.294-0.464h0.304c0.402,0,0.545,0.098,0.714,0.482l0.491,1.16
		c0.187,0.464,0.259,0.544,0.464,0.544s0.277-0.08,0.464-0.544l0.491-1.16c0.169-0.385,0.312-0.482,0.714-0.482H12.867z"/>
	<path style="fill:#FFFFFF;" d="M14.784,24.606c0-0.401,0.099-0.517,0.518-0.517h0.161c0.419,0,0.517,0.116,0.517,0.517v3.902
		c0,0.178,0.09,0.268,0.268,0.268h1.812c0.402,0,0.518,0.098,0.518,0.517v0.08c0,0.402-0.116,0.518-0.518,0.518h-2.205
		c-0.75,0-1.071-0.322-1.071-1.071V24.606z"/>
	<path style="fill:#FFFFFF;" d="M19.569,29.124c0-0.419,0.116-0.527,0.518-0.419c0.455,0.116,0.902,0.178,1.357,0.178
		c0.715,0,0.973-0.125,0.973-0.482c0-0.259-0.143-0.401-0.715-0.731L20.56,27c-0.598-0.348-0.902-0.848-0.902-1.5
		c0-1,0.626-1.499,2.08-1.499c0.402,0,0.777,0.045,1.117,0.142c0.428,0.116,0.526,0.224,0.526,0.625v0.09
		c0,0.428-0.107,0.517-0.526,0.401c-0.313-0.098-0.679-0.142-1.117-0.142c-0.607,0-0.848,0.098-0.848,0.419
		c0,0.214,0.108,0.33,0.492,0.554l1.187,0.696c0.75,0.438,1.08,0.857,1.08,1.615c0,1.045-0.652,1.599-2.223,1.599
		c-0.491,0-0.947-0.054-1.348-0.17c-0.42-0.115-0.509-0.214-0.509-0.616V29.124z"/>
</g>
<g>
	<path style="fill:#007033;" d="M20.632,17h-2.671l-1.722-3.257c-0.065-0.121-0.132-0.344-0.202-0.669h-0.028
		c-0.032,0.153-0.109,0.386-0.23,0.697L14.049,17h-2.685l3.187-5l-2.915-5h2.741l1.43,2.999c0.112,0.237,0.212,0.519,0.3,0.844
		h0.028c0.056-0.195,0.16-0.486,0.314-0.872L18.038,7h2.51l-2.999,4.958L20.632,17z"/>
</g>
</svg>
