<svg id="Layer_1" data-name="Layer 1" xmlns="http://www.w3.org/2000/svg" viewBox="0 0 78 58.69"><defs><style>.cls-1{fill:#c9c9c9;}</style></defs><title>To-do Name Here</title><path class="cls-1" d="M168.47,616.23H93.95a2.7,2.7,0,0,1-1.74-1.93V562.75c0.62-1.69,1-2,2.82-2h24.56c0,0.92,0,1.72,0,2.51a2.69,2.69,0,0,0,3,2.9c2,0,3.05-1,3.09-2.87,0-.82,0-1.64,0-2.46h11.1c0,0.84,0,1.6,0,2.37a3,3,0,0,0,6.06,0c0-.79,0-1.58,0-2.37,0.35,0,.54,0,0.73,0h23.82c1.85,0,2.21.26,2.83,2V614.3A2.67,2.67,0,0,1,168.47,616.23Zm-37.16-44.81H99.17c-2,0-2.69.68-2.69,2.65q0,17.56,0,35.13c0,1.81.76,2.56,2.59,2.56h64.17c2,0,2.68-.72,2.68-2.66q0-17.42,0-34.84c0-2.25-.59-2.84-2.88-2.84H131.31Z" transform="translate(-92.21 -557.54)"/><path class="cls-1" d="M140.48,557.54A2.36,2.36,0,0,1,141.9,560c-0.05,1,0,2.05,0,3.08a2.09,2.09,0,0,1-4.16.12,19.75,19.75,0,0,1,.05-3.93,5.15,5.15,0,0,1,1.16-1.75h1.54Z" transform="translate(-92.21 -557.54)"/><path class="cls-1" d="M123.49,557.54a2.9,2.9,0,0,1,1.27,2.81c-0.06.93,0,1.86,0,2.79a2.09,2.09,0,0,1-4.17,0c0-1,0-2.05,0-3.08a2.39,2.39,0,0,1,1.43-2.48h1.54Z" transform="translate(-92.21 -557.54)"/><path class="cls-1" d="M126.47,595.86a5.43,5.43,0,0,1,.64-1q7.15-7.18,14.32-14.35a3.35,3.35,0,0,1,3-1.14,3.15,3.15,0,0,1,2,5,6.63,6.63,0,0,1-.7.79L128.93,602c-1.81,1.81-3.56,1.81-5.35,0-2.46-2.46-4.93-4.9-7.36-7.38a3.14,3.14,0,0,1-.49-3.82,3.05,3.05,0,0,1,3.48-1.44,4.13,4.13,0,0,1,1.63,1c1.56,1.48,3.06,3,4.59,4.55C125.67,595.11,125.93,595.34,126.47,595.86Z" transform="translate(-92.21 -557.54)"/></svg>