<?xml version="1.0" encoding="iso-8859-1"?>
<!-- Generator: Adobe Illustrator 19.0.0, SVG Export Plug-In . SVG Version: 6.00 Build 0)  -->
<svg version="1.1" id="Layer_1" xmlns="http://www.w3.org/2000/svg" xmlns:xlink="http://www.w3.org/1999/xlink" x="0px" y="0px"
	 viewBox="15 -15 80 80" style="enable-background:new 15 -15 80 80;" xml:space="preserve">
<g id="XMLID_87_">
	<path id="XMLID_102_" style="fill:#FFFFFF;" d="M55.923,63.751c-0.666,0-1.333,0-1.999,0c-1.651-0.167-3.314-0.259-4.95-0.515
		c-6.725-1.054-12.791-3.66-18.1-7.938c-7.661-6.173-12.352-14.121-14.018-23.821c-0.306-1.782-0.41-3.6-0.607-5.401
		c0-0.718,0-1.435,0-2.153c0.039-0.328,0.07-0.656,0.119-0.983c0.391-2.598,0.574-5.249,1.218-7.783
		C19.763,6.584,24.465-0.398,31.471-5.78c5.396-4.145,11.5-6.672,18.266-7.541c1.391-0.179,2.791-0.288,4.187-0.43
		c0.769,0,1.538,0,2.307,0c1.548,0.159,3.109,0.241,4.643,0.49C71.562-11.527,80.136-6.295,86.5,2.467
		c3.747,5.158,6.013,10.94,6.822,17.275c0.178,1.39,0.288,2.788,0.429,4.182c0,0.666,0,1.333,0,1.999
		c-0.038,0.328-0.069,0.657-0.117,0.984c-0.385,2.628-0.545,5.315-1.202,7.874c-2.319,9.04-7.355,16.297-14.932,21.746
		c-5.182,3.727-10.965,5.997-17.307,6.798C58.775,63.504,57.347,63.611,55.923,63.751z M57.846-4.91
		c-0.192,0.825-0.321,1.584-0.552,2.311c-0.235,0.74-0.724,1.279-1.524,1.485c-1.528,0.393-2.462-0.171-3.088-1.856
		c-0.255-0.687-0.375-1.684-0.873-1.95c-0.564-0.302-1.482,0.055-2.246,0.126c-0.025,0.002-0.051,0.008-0.076,0.013
		C37.985-2.799,28.193,6.441,25.569,17.844c-0.323,1.403-0.422,2.857-0.626,4.287c0.563,0.111,0.941,0.173,1.312,0.264
		c0.372,0.091,0.744,0.192,1.104,0.324c1.081,0.399,1.604,1.104,1.639,2.172c0.036,1.088-0.404,1.833-1.483,2.269
		c-0.773,0.312-1.597,0.498-2.52,0.777c0.459,7.755,3.915,14.097,9.534,19.318c4.96,4.608,10.789,7.371,17.599,7.762
		c0.222-0.92,0.357-1.733,0.619-2.501c0.355-1.04,1.17-1.5,2.254-1.517c1.03-0.016,1.701,0.508,2.064,1.423
		c0.327,0.827,0.589,1.679,0.88,2.524c14.043-0.233,27.134-14.514,26.929-27.074c-0.749-0.198-1.505-0.347-2.225-0.599
		c-1.147-0.402-1.627-1.101-1.65-2.231c-0.023-1.116,0.526-1.86,1.54-2.232c0.783-0.287,1.598-0.483,2.431-0.729
		c0.235-2.493-0.227-4.895-1.214-7.172c-3.688-8.5-9.724-14.76-18.133-18.661C63.183-4.884,60.581-5.436,57.846-4.91z"/>
	<path id="XMLID_101_" style="fill:#FFFFFF;" d="M78.086,25.845c1.629,0.295,1.99,1.047,1.192,2.44
		c-1.88,3.282-3.769,6.559-5.667,9.83c-0.816,1.406-1.901,1.4-2.725-0.019c-1.887-3.249-3.759-6.505-5.631-9.763
		c-0.797-1.387-0.573-1.977,0.954-2.525c0.22-2.055-0.037-4.063-0.678-6.035c-0.092-0.282-0.156-0.695-0.018-0.912
		c1.834-2.89,3.706-5.757,5.647-8.75C75.354,14.574,77.544,19.818,78.086,25.845z"/>
	<path id="XMLID_90_" style="fill:#FFFFFF;" d="M49.443,25.03c0.021-2.156,1.244-3.925,3.259-4.773
		c0.311-0.131,0.629-0.347,0.836-0.608c4.346-5.47,8.676-10.953,13.012-16.43c1.085-1.37,2.099-1.442,3.579-0.486
		c2.092,1.351,2.382,2.412,0.895,4.659c-3.681,5.565-7.283,11.184-10.888,16.799c-0.273,0.425-0.388,0.985-0.461,1.498
		c-0.301,2.13-1.756,3.823-3.797,4.351c-2.059,0.532-4.171-0.214-5.45-1.924C49.794,27.267,49.433,26.136,49.443,25.03z
		 M54.551,27.923c1.586,0.002,2.891-1.292,2.888-2.864c-0.003-1.498-1.332-2.826-2.844-2.843c-1.588-0.018-2.875,1.267-2.867,2.864
		C51.736,26.639,53.009,27.921,54.551,27.923z"/>
	<path id="XMLID_89_" style="fill:#FFFFFF;" d="M63.372,4.616c-1.735,2.2-3.439,4.359-5.031,6.377
		c-1.772-0.535-3.394-1.197-5.08-1.5c-5.429-0.976-10.245,0.509-14.383,4.083c-3.615,3.123-5.629,7.142-6.212,11.883
		c-0.072,0.586-0.024,1.378-0.903,1.342c-0.87-0.035-0.764-0.798-0.797-1.403c-0.503-9.326,5.5-18.21,14.562-21.471
		c5.804-2.089,11.578-1.916,17.287,0.417C62.978,4.411,63.131,4.498,63.372,4.616z"/>
</g>
</svg>
