<?xml version="1.0" encoding="utf-8"?>
<!-- Generator: Adobe Illustrator 19.2.1, SVG Export Plug-In . SVG Version: 6.00 Build 0)  -->
<svg version="1.1" id="Layer_1" xmlns="http://www.w3.org/2000/svg" xmlns:xlink="http://www.w3.org/1999/xlink" x="0px" y="0px"
	 viewBox="0 0 78 78" style="enable-background:new 0 0 78 78;" xml:space="preserve">
<style type="text/css">
	.st0{fill:#019DD6;}
</style>
<g>
	<path class="st0" d="M5.6,33.5c0,3.7,0,7.3,0,11c-1.8,0-3.7,0-5.5,0c0-12,0-24,0-36.2c3.7,0,7.3,0,11,0C11.9,3,15,0,19.6,0
		c3.4,0,7.9,2.4,8.3,8.3c7.4,0,14.8,0,22.2,0C51,2.8,54.2-0.2,58.9,0c3.8,0.2,7.7,3.2,8,8.3c3.7,0,7.3,0,11.1,0
		c0,23.3,0,46.4,0,69.7C52,78,26.1,78,0,78c0-5.5,0-11.1,0-16.6c1.8,0,3.6,0,5.5,0c0,3.6,0,7.3,0,11c22.3,0,44.6,0,66.9,0
		c0-13,0-25.9,0-38.9C50.2,33.5,27.9,33.5,5.6,33.5z M5.6,14c0,4.7,0,9.3,0,13.9c22.3,0,44.5,0,66.8,0c0-4.6,0-9.2,0-13.8
		c-1.9,0-3.7,0-5.5,0c-0.3,5.1-4,8.1-7.9,8.3c-2.1,0.1-4-0.5-5.6-1.7c-2.1-1.7-3.1-3.9-3.3-6.5c-7.4,0-14.8,0-22.2,0
		c-0.4,5.7-4.7,8.2-8.2,8.3c-4.6,0.1-7.8-2.9-8.7-8.3C9.3,14,7.5,14,5.6,14z M61.3,11.2c0-1,0-1.9,0-2.9c-0.1-1.5-1.3-2.7-2.7-2.7
		c-1.5,0-2.8,1.2-2.8,2.7c0,1.9,0,3.8,0,5.7c0,1.6,1.3,2.8,2.8,2.8c1.5,0,2.7-1.2,2.8-2.8C61.3,13,61.3,12.1,61.3,11.2z M22.3,11.1
		C22.3,11.1,22.3,11.1,22.3,11.1c0-0.9,0-1.9,0-2.8c0-1.6-1.3-2.7-2.8-2.7c-1.5,0-2.7,1.2-2.8,2.8c0,1.9,0,3.7,0,5.6
		c0,1.6,1.2,2.8,2.7,2.8c1.5,0,2.8-1.2,2.8-2.7C22.3,13,22.3,12.1,22.3,11.1z"/>
	<path class="st0" d="M19.4,66.7c-1.2-1.2-2.5-2.5-3.8-3.8c2.3-2.3,4.7-4.7,7.2-7.2c-7.7,0-15.2,0-22.8,0c0-1.9,0-3.7,0-5.6
		c7.5,0,15,0,22.7,0c-2.5-2.4-4.8-4.8-7.1-7c1.4-1.4,2.7-2.7,3.9-3.9c4.5,4.5,9.1,9.1,13.7,13.7C28.6,57.5,24,62.1,19.4,66.7z"/>
</g>
</svg>
