<?xml version="1.0" encoding="iso-8859-1"?>
<!-- Generator: Adobe Illustrator 19.0.0, SVG Export Plug-In . SVG Version: 6.00 Build 0)  -->
<svg version="1.1" id="Layer_1" xmlns="http://www.w3.org/2000/svg" xmlns:xlink="http://www.w3.org/1999/xlink" x="0px" y="0px"
	 viewBox="15 -15 80 80" style="enable-background:new 15 -15 80 80;" xml:space="preserve">
<g id="XMLID_23_">
	<path id="XMLID_128_" style="fill:#4B4B4B;" d="M18.46-8.29c24.36,0,48.721,0,73.081,0C93.515-7.506,94-6.786,94-4.632
		c0,15.25,0,30.5,0,45.75c0,2.047-1.197,3.25-3.262,3.25c-23.827,0.003-47.654,0.003-71.48,0C17.19,44.369,16,43.17,16,41.117
		c0-15.25,0-30.5,0-45.75C16-6.791,16.48-7.505,18.46-8.29z M21.199,39.141c22.548,0,45.057,0,67.585,0c0-14.085,0-28.122,0-42.168
		c-22.56,0-45.067,0-67.585,0C21.199,11.056,21.199,25.076,21.199,39.141z M56.235,41.787c0.004-0.694-0.556-1.261-1.243-1.257
		c-0.659,0.003-1.213,0.538-1.232,1.191c-0.021,0.716,0.495,1.262,1.205,1.277C55.683,43.013,56.231,42.49,56.235,41.787z"/>
	<path id="XMLID_126_" style="fill:#4B4B4B;" d="M38.861,58.092c-0.734-0.637-0.653-1.449,0.203-1.923
		c1.874-1.037,3.745-2.079,5.633-3.088c0.439-0.235,0.593-0.508,0.582-1.005c-0.035-1.545-0.018-3.092-0.011-4.638
		c0.005-1.168,0.493-1.658,1.665-1.659c5.374-0.004,10.747-0.004,16.121,0c1.176,0.001,1.669,0.488,1.674,1.651
		c0.008,1.521,0.024,3.042-0.01,4.562c-0.012,0.542,0.13,0.852,0.642,1.12c1.874,0.982,3.715,2.027,5.565,3.055
		c0.861,0.478,0.945,1.279,0.212,1.925C60.38,58.092,49.62,58.092,38.861,58.092z"/>
	<path id="XMLID_115_" style="fill:#4B4B4B;" d="M76.261,5.927c-1-1.536-1.001-1.537,0.805-2.065
		c1.602-0.468,3.201-0.945,4.81-1.386c0.286-0.079,0.615-0.004,0.924,0.001c-0.065,0.324-0.052,0.691-0.207,0.964
		c-0.936,1.651-1.908,3.28-2.872,4.915c-0.575,0.975-0.72,0.983-1.423,0.105c-0.124-0.154-0.267-0.292-0.439-0.479
		c-2.16,1.684-4.295,3.348-6.429,5.013c-4.655,3.632-9.314,7.259-13.956,10.907c-0.415,0.326-0.744,0.283-1.172,0.099
		c-3.159-1.355-6.33-2.684-9.484-4.052c-0.497-0.216-0.799-0.147-1.188,0.224c-5.398,5.144-10.808,10.275-16.235,15.389
		c-0.273,0.257-0.885,0.56-1.058,0.439c-0.49-0.342-0.885-0.863-1.202-1.384c-0.081-0.133,0.211-0.586,0.427-0.793
		c2.765-2.65,5.548-5.281,8.325-7.918c3.035-2.881,6.081-5.751,9.09-8.659c0.485-0.469,0.861-0.502,1.448-0.247
		c3.152,1.371,6.323,2.698,9.483,4.05c0.419,0.179,0.738,0.244,1.166-0.092c6.341-4.973,12.701-9.921,19.055-14.877
		C76.169,6.054,76.196,6.007,76.261,5.927z"/>
	<path id="XMLID_114_" style="fill:#4B4B4B;" d="M71.323,36.271c0-0.313,0-0.562,0-0.812c0-6.54,0-13.081,0.001-19.621
		c0-1.086,0.136-1.222,1.227-1.224c1.47-0.003,2.941,0.011,4.411-0.005c0.666-0.008,0.973,0.265,0.972,0.947
		c-0.009,6.794-0.006,13.588-0.009,20.382c0,0.097-0.028,0.195-0.05,0.334C75.714,36.271,73.573,36.271,71.323,36.271z"/>
	<path id="XMLID_113_" style="fill:#4B4B4B;" d="M69.921,36.329c-2.185,0-4.331,0-6.567,0c-0.015-0.245-0.043-0.486-0.043-0.728
		c-0.003-4.567-0.003-9.135-0.001-13.702c0-0.983,0.107-1.088,1.097-1.09c1.548-0.004,3.096,0.005,4.643-0.004
		c0.561-0.003,0.927,0.151,0.926,0.81c-0.009,4.77-0.005,9.541-0.008,14.311C69.969,36.047,69.941,36.168,69.921,36.329z"/>
	<path id="XMLID_112_" style="fill:#4B4B4B;" d="M47.314,36.337c0-2.022,0-3.946,0-5.871c0-1.673,0.004-3.345-0.001-5.018
		c-0.002-0.546,0.124-0.948,0.792-0.944c1.698,0.011,3.396,0.008,5.094,0.001c0.49-0.002,0.792,0.208,0.792,0.707
		c0,3.649-0.011,7.297-0.021,10.946c0,0.044-0.041,0.087-0.087,0.179C51.742,36.337,49.579,36.337,47.314,36.337z"/>
	<path id="XMLID_111_" style="fill:#4B4B4B;" d="M55.337,36.263c0-1.298,0-2.559,0-3.82c0-1.85-0.005-3.7,0.002-5.55
		c0.003-0.845,0.232-1.064,1.088-1.067c1.521-0.004,3.041,0.008,4.562-0.006c0.536-0.005,0.935,0.177,0.938,0.745
		c0.018,3.214,0.009,6.429,0.009,9.698C59.742,36.263,57.602,36.263,55.337,36.263z"/>
	<path id="XMLID_110_" style="fill:#4B4B4B;" d="M45.955,36.295c-2.239,0-4.365,0-6.603,0c0-0.29,0-0.558,0-0.827
		c0-2.231-0.003-4.462,0.001-6.693c0.002-0.914,0.21-1.122,1.104-1.124c1.521-0.003,3.042,0.008,4.563-0.006
		c0.542-0.005,0.923,0.192,0.927,0.757C45.965,31.008,45.955,33.614,45.955,36.295z"/>
	<path id="XMLID_109_" style="fill:#4B4B4B;" d="M37.906,36.335c-2.156,0-4.32,0-6.475,0c-0.151-0.913,0.005-1.142,0.812-1.149
		c1.621-0.014,3.242-0.014,4.862,0C37.903,35.193,38.069,35.441,37.906,36.335z"/>
</g>
<g id="XMLID_24_" style="display:none;">
	<path id="XMLID_34_" style="display:inline;fill:#C9C9C9;" d="M18.46-8.29c24.36,0,48.721,0,73.081,0
		C93.515-7.506,94-6.786,94-4.632c0,15.25,0,30.5,0,45.75c0,2.047-1.197,3.25-3.262,3.25c-23.827,0.003-47.654,0.003-71.48,0
		C17.19,44.369,16,43.17,16,41.117c0-15.25,0-30.5,0-45.75C16-6.791,16.48-7.505,18.46-8.29z M21.199,39.141
		c22.548,0,45.057,0,67.585,0c0-14.085,0-28.122,0-42.168c-22.56,0-45.067,0-67.585,0C21.199,11.056,21.199,25.076,21.199,39.141z
		 M56.235,41.787c0.004-0.694-0.556-1.261-1.243-1.257c-0.659,0.003-1.213,0.538-1.232,1.191c-0.021,0.716,0.495,1.262,1.205,1.277
		C55.683,43.013,56.231,42.49,56.235,41.787z"/>
	<path id="XMLID_33_" style="display:inline;fill:#C9C9C9;" d="M38.861,58.092c-0.734-0.637-0.653-1.449,0.203-1.923
		c1.874-1.037,3.745-2.079,5.633-3.088c0.439-0.235,0.593-0.508,0.582-1.005c-0.035-1.545-0.018-3.092-0.011-4.638
		c0.005-1.168,0.493-1.658,1.665-1.659c5.374-0.004,10.747-0.004,16.121,0c1.176,0.001,1.669,0.488,1.674,1.651
		c0.008,1.521,0.024,3.042-0.01,4.562c-0.012,0.542,0.13,0.852,0.642,1.12c1.874,0.982,3.715,2.027,5.565,3.055
		c0.861,0.478,0.945,1.279,0.212,1.925C60.38,58.092,49.62,58.092,38.861,58.092z"/>
	<path id="XMLID_32_" style="display:inline;fill:#C9C9C9;" d="M76.261,5.927c-1-1.536-1.001-1.537,0.805-2.065
		c1.602-0.468,3.201-0.945,4.81-1.386c0.286-0.079,0.615-0.004,0.924,0.001c-0.065,0.324-0.052,0.691-0.207,0.964
		c-0.936,1.651-1.908,3.28-2.872,4.915c-0.575,0.975-0.72,0.983-1.423,0.105c-0.124-0.154-0.267-0.292-0.439-0.479
		c-2.16,1.684-4.295,3.348-6.429,5.013c-4.655,3.632-9.314,7.259-13.956,10.907c-0.415,0.326-0.744,0.283-1.172,0.099
		c-3.159-1.355-6.33-2.684-9.484-4.052c-0.497-0.216-0.799-0.147-1.188,0.224c-5.398,5.144-10.808,10.275-16.235,15.389
		c-0.273,0.257-0.885,0.56-1.058,0.439c-0.49-0.342-0.885-0.863-1.202-1.384c-0.081-0.133,0.211-0.586,0.427-0.793
		c2.765-2.65,5.548-5.281,8.325-7.918c3.035-2.881,6.081-5.751,9.09-8.659c0.485-0.469,0.861-0.502,1.448-0.247
		c3.152,1.371,6.323,2.698,9.483,4.05c0.419,0.179,0.738,0.244,1.166-0.092c6.341-4.973,12.701-9.921,19.055-14.877
		C76.169,6.054,76.196,6.007,76.261,5.927z"/>
	<path id="XMLID_31_" style="display:inline;fill:#C9C9C9;" d="M71.323,36.271c0-0.313,0-0.562,0-0.812
		c0-6.54,0-13.081,0.001-19.621c0-1.086,0.136-1.222,1.227-1.224c1.47-0.003,2.941,0.011,4.411-0.005
		c0.666-0.008,0.973,0.265,0.972,0.947c-0.009,6.794-0.006,13.588-0.009,20.382c0,0.097-0.028,0.195-0.05,0.334
		C75.714,36.271,73.573,36.271,71.323,36.271z"/>
	<path id="XMLID_30_" style="display:inline;fill:#C9C9C9;" d="M69.921,36.329c-2.185,0-4.331,0-6.567,0
		c-0.015-0.245-0.043-0.486-0.043-0.728c-0.003-4.567-0.003-9.135-0.001-13.702c0-0.983,0.107-1.088,1.097-1.09
		c1.548-0.004,3.096,0.005,4.643-0.004c0.561-0.003,0.927,0.151,0.926,0.81c-0.009,4.77-0.005,9.541-0.008,14.311
		C69.969,36.047,69.941,36.168,69.921,36.329z"/>
	<path id="XMLID_29_" style="display:inline;fill:#C9C9C9;" d="M47.314,36.337c0-2.022,0-3.946,0-5.871
		c0-1.673,0.004-3.345-0.001-5.018c-0.002-0.546,0.124-0.948,0.792-0.944c1.698,0.011,3.396,0.008,5.094,0.001
		c0.49-0.002,0.792,0.208,0.792,0.707c0,3.649-0.011,7.297-0.021,10.946c0,0.044-0.041,0.087-0.087,0.179
		C51.742,36.337,49.579,36.337,47.314,36.337z"/>
	<path id="XMLID_28_" style="display:inline;fill:#C9C9C9;" d="M55.337,36.263c0-1.298,0-2.559,0-3.82c0-1.85-0.005-3.7,0.002-5.55
		c0.003-0.845,0.232-1.064,1.088-1.067c1.521-0.004,3.041,0.008,4.562-0.006c0.536-0.005,0.935,0.177,0.938,0.745
		c0.018,3.214,0.009,6.429,0.009,9.698C59.742,36.263,57.602,36.263,55.337,36.263z"/>
	<path id="XMLID_27_" style="display:inline;fill:#C9C9C9;" d="M45.955,36.295c-2.239,0-4.365,0-6.603,0c0-0.29,0-0.558,0-0.827
		c0-2.231-0.003-4.462,0.001-6.693c0.002-0.914,0.21-1.122,1.104-1.124c1.521-0.003,3.042,0.008,4.563-0.006
		c0.542-0.005,0.923,0.192,0.927,0.757C45.965,31.008,45.955,33.614,45.955,36.295z"/>
	<path id="XMLID_26_" style="display:inline;fill:#C9C9C9;" d="M37.906,36.335c-2.156,0-4.32,0-6.475,0
		c-0.151-0.913,0.005-1.142,0.812-1.149c1.621-0.014,3.242-0.014,4.862,0C37.903,35.193,38.069,35.441,37.906,36.335z"/>
</g>
</svg>
