<?xml version="1.0" encoding="utf-8"?>
<!-- Generator: Adobe Illustrator 19.0.0, SVG Export Plug-In . SVG Version: 6.00 Build 0)  -->
<svg version="1.1" id="Layer_1" xmlns="http://www.w3.org/2000/svg" xmlns:xlink="http://www.w3.org/1999/xlink" x="0px" y="0px"
	 viewBox="0 0 80 80" style="enable-background:new 0 0 80 80;" xml:space="preserve">
<style type="text/css">
	.st0{fill:#FFFFFF;}
</style>
<g id="XMLID_59_">
	<path id="XMLID_95_" class="st0" d="M40,1c21.6,0.1,39,17.4,39,39.1C79,61.6,61.5,79,39.9,79C18.4,79,0.9,61.5,1,39.8
		C1.1,18.4,18.4,1.1,40,1z M5.9,40c0,18.8,15.3,34.1,34,34.2c18.9,0.1,34.3-15.3,34.3-34.1c0-18.9-15.4-34.3-34.3-34.2
		C21.2,5.9,5.9,21.2,5.9,40z"/>
	<path id="XMLID_91_" class="st0" d="M42.4,37.6c0.4,0,0.7,0,1,0c5.3,0,10.6,0,15.9,0c1,0,1.8,0.4,2.3,1.3c0.5,0.9,0.4,1.7-0.2,2.5
		c-0.5,0.8-1.3,1-2.2,1c-5.3,0-10.6,0-15.8,0c-0.3,0-0.6,0-0.9,0c0,0.3,0,0.6,0,0.9c0,5.3,0,10.7,0,16c0,1-0.4,1.8-1.3,2.3
		c-0.9,0.5-1.7,0.4-2.5-0.2c-0.8-0.5-1-1.3-1-2.2c0-5.3,0-10.5,0-15.8c0-0.3,0-0.6,0-1c-0.3,0-0.6,0-0.8,0c-5.4,0-10.7,0-16.1,0
		c-1.9,0-3.1-1.7-2.4-3.4c0.5-1.1,1.3-1.5,2.4-1.5c5.3,0,10.6,0,15.9,0c0.3,0,0.6,0,0.9,0c0-0.3,0-0.6,0-0.9c0-5.3,0-10.7,0-16
		c0-1,0.4-1.8,1.3-2.3c0.9-0.5,1.7-0.4,2.5,0.1c0.8,0.5,1.1,1.3,1.1,2.3c0,5.3,0,10.6,0,15.8C42.4,36.9,42.4,37.2,42.4,37.6z"/>
</g>
</svg>
