<?xml version="1.0" encoding="iso-8859-1"?>
<!-- Generator: Adobe Illustrator 19.0.0, SVG Export Plug-In . SVG Version: 6.00 Build 0)  -->
<svg version="1.1" id="Layer_1" xmlns="http://www.w3.org/2000/svg" xmlns:xlink="http://www.w3.org/1999/xlink" x="0px" y="0px"
	 viewBox="0 0 32 32" style="enable-background:new 0 0 32 32;" xml:space="preserve">
<path style="fill:#FFFAF8;" d="M25.017,7c-2.213,0.005-4.015-1.796-4.01-4.01c0.003-1.101-0.899-1.99-2-1.99h-14v30h22V9
	C27.008,7.899,26.119,6.997,25.017,7z"/>
<path style="fill:#DA5927;" d="M19,0H4v22v10h24V22V9v0C28,4.029,23.971,0,19,0z M5,22V1h14c1.101,0,2.003,0.889,2,1.99
	C20.995,5.204,22.797,7.005,25.01,7C26.111,6.997,27,7.899,27,9v13H5z"/>
<g>
	<path style="fill:#FFFFFF;" d="M10.32,24c1.357,0,2.04,0.674,2.04,2.012c0,1.339-0.683,2.004-2.04,2.004H8.936v1.449
		C8.936,29.88,8.834,30,8.4,30H8.234c-0.434,0-0.536-0.12-0.536-0.536v-4.357C7.698,24.332,8.031,24,8.806,24H10.32z M9.212,25.154
		c-0.185,0-0.277,0.092-0.277,0.277v1.431h1.384c0.582,0,0.804-0.268,0.804-0.85c0-0.581-0.222-0.858-0.804-0.858H9.212z"/>
	<path style="fill:#FFFFFF;" d="M16.42,24c1.357,0,2.04,0.674,2.04,2.012c0,1.339-0.683,2.004-2.04,2.004h-1.384v1.449
		c0,0.416-0.102,0.536-0.536,0.536h-0.166c-0.434,0-0.536-0.12-0.536-0.536v-4.357c0-0.775,0.332-1.107,1.108-1.107H16.42z
		 M15.312,25.154c-0.185,0-0.277,0.092-0.277,0.277v1.431h1.384c0.582,0,0.804-0.268,0.804-0.85c0-0.581-0.221-0.858-0.804-0.858
		H15.312z"/>
	<path style="fill:#FFFFFF;" d="M19.511,24.536c0-0.416,0.101-0.536,0.535-0.536h3.721c0.415,0,0.535,0.12,0.535,0.536v0.082
		c0,0.435-0.12,0.536-0.535,0.536h-1.238v4.311c0,0.416-0.12,0.536-0.535,0.536h-0.176c-0.434,0-0.535-0.12-0.535-0.536v-4.311
		h-1.238c-0.434,0-0.535-0.101-0.535-0.536V24.536z"/>
</g>
<g>
	<path style="fill:#DA5927;" d="M14.626,14.623V18h-2.208V8.197h3.459c2.47,0,3.705,1.042,3.705,3.124
		c0,0.984-0.354,1.781-1.063,2.389c-0.709,0.608-1.656,0.913-2.841,0.913H14.626z M14.626,9.893v3.056h0.868
		c1.176,0,1.764-0.515,1.764-1.545c0-1.007-0.588-1.511-1.764-1.511H14.626z"/>
</g>
</svg>
