<?xml version="1.0" encoding="utf-8"?>
<!-- Generator: Adobe Illustrator 19.2.0, SVG Export Plug-In . SVG Version: 6.00 Build 0)  -->
<svg version="1.1" id="Layer_1" xmlns="http://www.w3.org/2000/svg" xmlns:xlink="http://www.w3.org/1999/xlink" x="0px" y="0px"
	 viewBox="0 0 78 78" style="enable-background:new 0 0 78 78;" xml:space="preserve">
<style type="text/css">
	.st0{fill:#00B1C2;}
	.st1{fill:#FFFFFF;}
</style>
<g>
	<path class="st0" d="M39,0C18.1-0.1,0.5,17.3,0,38.1C-0.5,59.8,17.4,77.6,38.3,78C59.8,78.4,77.7,60.6,78,39.6
		C78.3,18,60.2-0.1,39,0z"/>
	<g>
		<path class="st1" d="M40.5,27.8C40.6,27.8,40.6,27.8,40.5,27.8c0.5,0.2,1,0.4,1.3,0.7c4.2,3,8.4,6.1,12.6,9.1
			c0.4,0.3,0.8,0.7,0.9,1.2c0,0.2,0,0.4,0,0.6c-0.2,0.5-0.5,0.8-0.9,1.2c-4.2,3.1-8.4,6.1-12.6,9.2c-0.4,0.3-0.8,0.4-1.2,0.6
			c0,0-0.1,0-0.1,0c-1.2-0.4-1.4-0.7-1.4-2c0-1.8,0-3.6,0-5.3c0-0.2,0-0.3,0-0.5c-0.2,0-0.4,0-0.6,0c-4.1,0-8.2,0-12.3,0
			c-1.5,0-2.6-0.6-3.3-2c-0.1-0.3-0.2-0.6-0.3-1c0-0.3,0-0.6,0-0.9c0.8-2.3,1.7-3,4.1-3c3.9,0,7.9,0,11.8,0c0.2,0,0.4,0,0.6,0
			c0-0.3,0-0.5,0-0.8c0-1.7,0-3.4,0-5.1C39.1,28.4,39.3,28.1,40.5,27.8z"/>
	</g>
</g>
</svg>
