<?xml version="1.0" encoding="utf-8"?>
<!-- Generator: Adobe Illustrator 19.0.0, SVG Export Plug-In . SVG Version: 6.00 Build 0)  -->
<svg version="1.1" id="Layer_1" xmlns="http://www.w3.org/2000/svg" xmlns:xlink="http://www.w3.org/1999/xlink" x="0px" y="0px"
	 viewBox="15 -15 80 80" style="enable-background:new 15 -15 80 80;" xml:space="preserve">
<style type="text/css">
	.st0{fill:#4B4B4B;}
</style>
<g id="XMLID_1_">
	<path id="XMLID_2_" class="st0" d="M16,28c0-2,0-4,0-6c0.5-1.3,1.5-1.9,2.8-2.1c2.3-0.3,4.6-0.8,7-1.1c0.6-0.1,1-0.3,1.1-1
		c0.6-2.7,1.7-5.2,3.1-7.5c0.3-0.5,0.3-0.8,0-1.3c-1.4-2-2.9-4-4.3-6c-1-1.4-0.9-2.6,0.3-3.9c1-1,1.9-1.9,2.9-2.9
		c1.2-1.2,2.4-1.3,3.8-0.3c2,1.4,4,2.9,6.1,4.3c0.2,0.2,0.8,0.3,1,0.1c2.6-1.5,5.2-2.6,8.1-3.4c0.3-0.1,0.6-0.4,0.6-0.7
		c0.4-2.2,0.8-4.4,1.1-6.6c0.2-1.5,0.6-2.8,2.1-3.5c2,0,4,0,6,0c1.3,0.5,1.9,1.5,2.1,2.9c0.3,2.3,0.7,4.6,1.1,6.9
		c0.1,0.4,0.1,0.9,0.7,1c3.4,0.8,6.6,2.2,9.5,4.3c0.5,0.3,0.7,0.2,1.2,0c2.1-1.3,4.2-2.7,6.3-4c1.4-0.9,2.7-0.7,3.8,0.6
		c0.8,0.9,1.7,1.9,2.5,2.8c1.4,1.6,1.4,2.7,0.1,4.3c-1.5,1.9-3,3.8-4.6,5.6c-0.3,0.4-0.4,0.7-0.2,1.2c0.8,2.1,1.6,4.2,2.4,6.2
		c0.1,0.3,0.5,0.7,0.8,0.7c1.9,0.4,3.8,0.6,5.7,1C91,20,92.8,20,93.5,22c0,2,0,4,0,6c-0.5,1-1.1,1.7-2.2,1.9c-2.5,0.4-5,0.9-7.6,1.2
		c-0.6,0.1-0.9,0.3-1,0.9c-0.6,2.7-1.7,5.3-3.2,7.7c-0.3,0.5-0.3,0.8,0,1.2c1.5,2.1,3,4.2,4.5,6.3c0.9,1.3,0.8,2.5-0.3,3.7
		c-1,1-2,2-3,3c-1.2,1.2-2.4,1.3-3.8,0.3c-2.1-1.5-4.2-3-6.3-4.5c-0.4-0.3-0.8-0.3-1.2,0c-2.4,1.5-4.9,2.5-7.6,3.2
		c-0.6,0.1-0.8,0.4-0.9,1c-0.3,1.9-0.6,3.9-0.9,5.8c-0.3,1.6-0.3,3.3-2.3,4c-2,0-4,0-6,0c-1.2-0.6-1.8-1.5-2-2.9
		c-0.3-2.4-0.8-4.8-1.2-7.2c0-0.3-0.3-0.6-0.5-0.7c-3.6-0.9-6.9-2.4-9.9-4.5c-1.2,0.8-2.4,1.5-3.5,2.2c-1.2,0.7-2.4,1.5-3.6,2.2
		c-1.3,0.8-2.6,0.6-3.6-0.5c-0.9-1-1.8-2.1-2.8-3.1c-1.2-1.4-1.2-2.5,0-4c1.5-1.9,3.1-3.8,4.6-5.7c0.4-0.5,0.4-0.8,0.1-1.3
		c-0.9-2.1-1.7-4.2-2.4-6.4c-0.2-0.5-0.4-0.7-0.9-0.8c-2.3-0.4-4.5-0.8-6.8-1.1C17.7,29.9,16.5,29.5,16,28z M70.6,25
		c0-8.6-7-15.7-15.6-15.8c-8.6-0.1-15.7,7-15.8,15.6c0,8.7,7,15.8,15.7,15.8C63.5,40.7,70.5,33.7,70.6,25z"/>
</g>
</svg>
