<?xml version="1.0" encoding="utf-8"?>
<!-- Generator: Adobe Illustrator 19.0.0, SVG Export Plug-In . SVG Version: 6.00 Build 0)  -->
<svg version="1.1" id="Layer_1" xmlns="http://www.w3.org/2000/svg" xmlns:xlink="http://www.w3.org/1999/xlink" x="0px" y="0px"
	 viewBox="-265 357 80 80" style="enable-background:new -265 357 80 80;" xml:space="preserve">
<style type="text/css">
	.st0{opacity:0.12;fill:#E1A525;}
	.st1{fill:#E1A525;}
</style>
<g id="XMLID_155_">
	<path id="XMLID_157_" class="st0" d="M-251.4,433.6v-60.9l13.1-0.6v-5h6.8l3.1-2.3v-3.4l1.9-1.4h3.8v3.6c0,0,3.8,3.3,4.1,3.3
		s5.4,0,5.4,0l1,6l11.9-0.6v61.4H-251.4z"/>
	<g id="XMLID_162_">
		<path id="XMLID_233_" class="st1" d="M-230.6,364.8c-0.6-2.6,0-4.6,2.1-5.9c1.7-1.1,3.6-1.1,5.3,0c2.1,1.4,2.7,3.3,2.1,5.9
			c3.2,0,6.4,0,9.7,0c0,1.9,0,3.8,0,5.7c4.5,0,8.9,0,13.4,0c0,21.9,0,43.7,0,65.5c-18.4,0-36.9,0-55.4,0c0-21.8,0-43.6,0-65.5
			c4.5,0,8.9,0,13.4,0c0-1.9,0-3.8,0-5.7C-236.8,364.8-233.8,364.8-230.6,364.8z M-201.3,432.7c0-19.7,0-39.3,0-58.8
			c-3.4,0-6.7,0-10.1,0c0,1.7,0,3.3,0,4.9c-9.5,0-19,0-28.6,0c0-1.7,0-3.3,0-4.9c-3.4,0-6.7,0-10,0c0,19.7,0,39.2,0,58.8
			C-233.7,432.7-217.6,432.7-201.3,432.7z M-214.7,368.2c-7.3,0-14.6,0-21.8,0c0,2.2,0,4.4,0,6.6c7.3,0,14.5,0,21.8,0
			C-214.7,372.6-214.7,370.4-214.7,368.2z M-224.2,363.1c0-1-0.7-1.7-1.7-1.7c-0.9,0-1.7,0.7-1.7,1.6c0,1,0.7,1.7,1.6,1.8
			C-224.9,364.8-224.2,364.1-224.2,363.1z"/>
		<path id="XMLID_227_" class="st1" d="M-235.1,414.5c0.7-0.6,1.4-1.3,2.3-2.1c1.7,1.7,3.5,3.5,5.4,5.5c0-11.2,0-22.1,0-33
			c1.1,0,2.2,0,3.3,0c0,10.9,0,21.8,0,32.8c1.9-2,3.6-3.7,5.3-5.5c0.9,0.9,1.7,1.7,2.4,2.3c-3.1,3.1-6.2,6.2-9.3,9.3
			C-228.7,420.8-231.8,417.7-235.1,414.5z"/>
	</g>
</g>
</svg>
