<?xml version="1.0" encoding="iso-8859-1"?>
<!-- Generator: Adobe Illustrator 19.0.0, SVG Export Plug-In . SVG Version: 6.00 Build 0)  -->
<svg version="1.1" id="Layer_1" xmlns="http://www.w3.org/2000/svg" xmlns:xlink="http://www.w3.org/1999/xlink" x="0px" y="0px"
	 viewBox="0 0 32 32" style="enable-background:new 0 0 32 32;" xml:space="preserve">
<g>
	<path style="fill:#FFFFFF;" d="M25.017,7c-2.213,0.005-4.015-1.796-4.01-4.01c0.003-1.101-0.899-1.99-2-1.99h-14v30h22V9
		C27.008,7.899,26.119,6.997,25.017,7z"/>
	<path style="fill:#777777;" d="M19,0H4v32h24V9v0C28,4.029,23.971,0,19,0z M27,31H5V1h14c1.101,0,2.003,0.889,2,1.99
		C20.995,5.204,22.796,7.005,25.01,7C26.111,6.997,27,7.899,27,9V31z"/>
	<rect x="4" y="22" style="fill:#777777;" width="24" height="10"/>
	<g>
		<path style="fill:#FFFFFF;" d="M7.534,24.535C7.534,24.12,7.635,24,8.07,24h3.72c0.416,0,0.535,0.12,0.535,0.535v0.083
			c0,0.435-0.119,0.536-0.535,0.536h-1.238v4.311c0,0.416-0.119,0.536-0.535,0.536H9.842c-0.435,0-0.536-0.12-0.536-0.536v-4.311
			H8.07c-0.435,0-0.536-0.101-0.536-0.536V24.535z"/>
		<path style="fill:#FFFFFF;" d="M18.111,24c0.435,0,0.49,0.083,0.305,0.48l-0.85,1.772c-0.156,0.323-0.313,0.517-0.471,0.591
			c0.175,0.083,0.341,0.277,0.49,0.573l1.015,2.105C18.785,29.917,18.73,30,18.296,30h-0.314c-0.434,0-0.591-0.111-0.747-0.49
			l-0.684-1.541c-0.212-0.49-0.267-0.563-0.48-0.563c-0.212,0-0.267,0.073-0.48,0.563l-0.684,1.541
			C14.751,29.889,14.594,30,14.161,30h-0.314c-0.434,0-0.489-0.083-0.304-0.48l1.015-2.105c0.148-0.295,0.304-0.49,0.48-0.573
			c-0.156-0.074-0.304-0.267-0.461-0.591l-0.85-1.772C13.542,24.083,13.597,24,14.031,24h0.313c0.416,0,0.563,0.101,0.739,0.499
			l0.508,1.2c0.193,0.48,0.267,0.563,0.48,0.563c0.212,0,0.286-0.083,0.48-0.563l0.508-1.2C17.235,24.101,17.382,24,17.797,24
			H18.111z"/>
		<path style="fill:#FFFFFF;" d="M19.706,24.535c0-0.415,0.101-0.535,0.536-0.535h3.72c0.416,0,0.535,0.12,0.535,0.535v0.083
			c0,0.435-0.119,0.536-0.535,0.536h-1.238v4.311c0,0.416-0.119,0.536-0.535,0.536h-0.175c-0.435,0-0.536-0.12-0.536-0.536v-4.311
			h-1.237c-0.435,0-0.536-0.101-0.536-0.536V24.535z"/>
	</g>
	<path style="fill:#E5E5E5;" d="M20,7c0,0.552-0.448,1-1,1H8C7.448,8,7,7.552,7,7v0c0-0.552,0.448-1,1-1h11C19.552,6,20,6.448,20,7
		L20,7z"/>
	<path style="fill:#E5E5E5;" d="M25,12c0,0.552-0.448,1-1,1H8c-0.552,0-1-0.448-1-1v0c0-0.552,0.448-1,1-1h16
		C24.552,11,25,11.448,25,12L25,12z"/>
	<path style="fill:#E5E5E5;" d="M25,17c0,0.552-0.448,1-1,1H8c-0.552,0-1-0.448-1-1v0c0-0.552,0.448-1,1-1h16
		C24.552,16,25,16.448,25,17L25,17z"/>
</g>
</svg>
