<?xml version="1.0" encoding="iso-8859-1"?>
<!-- Generator: Adobe Illustrator 19.0.0, SVG Export Plug-In . SVG Version: 6.00 Build 0)  -->
<svg version="1.1" id="Layer_1" xmlns="http://www.w3.org/2000/svg" xmlns:xlink="http://www.w3.org/1999/xlink" x="0px" y="0px"
	 viewBox="0 0 32 32" style="enable-background:new 0 0 32 32;" xml:space="preserve">
<path style="fill:#FEF8FF;" d="M25.017,7c-2.213,0.005-4.015-1.796-4.01-4.01c0.003-1.101-0.899-1.99-2-1.99h-14v30h22V9
	C27.008,7.899,26.119,6.997,25.017,7z"/>
<path style="fill:#893291;" d="M19,0H4v22v10h24V22V9v0C28,4.029,23.971,0,19,0z M5,22V1h14c1.101,0,2.003,0.889,2,1.99
	C20.995,5.204,22.797,7.005,25.01,7C26.111,6.997,27,7.899,27,9v13H5z"/>
<g style="display:none;">
	<path style="display:inline;fill:#FFFFFF;" d="M10.532,24.074c1.323,0,1.99,0.657,1.99,1.963c0,1.305-0.667,1.953-1.99,1.953H9.182
		v1.414c0,0.404-0.099,0.521-0.521,0.521H8.498c-0.424,0-0.522-0.117-0.522-0.521v-4.25c0-0.756,0.324-1.08,1.08-1.08H10.532z
		 M9.452,25.199c-0.18,0-0.271,0.091-0.271,0.271v1.396h1.351c0.567,0,0.783-0.261,0.783-0.828s-0.216-0.838-0.783-0.838H9.452z"/>
	<path style="display:inline;fill:#FFFFFF;" d="M13.925,25.154c0-0.756,0.324-1.08,1.08-1.08h0.747c0.973,0,1.675,0.162,2.108,0.495
		c0.432,0.333,0.647,0.928,0.647,1.801v1.26c0,1.612-0.873,2.296-2.755,2.296h-0.747c-0.756,0-1.08-0.324-1.08-1.08V25.154z
		 M15.752,28.801c0.586,0,0.981-0.081,1.189-0.252c0.217-0.171,0.324-0.478,0.324-0.919v-1.26c0-0.441-0.107-0.738-0.324-0.909
		c-0.208-0.171-0.603-0.262-1.189-0.262h-0.351c-0.18,0-0.271,0.091-0.271,0.271v3.061c0,0.181,0.091,0.271,0.271,0.271H15.752z"/>
	<path style="display:inline;fill:#FFFFFF;" d="M21.224,27.585v1.819c0,0.404-0.099,0.521-0.521,0.521h-0.162
		c-0.423,0-0.522-0.117-0.522-0.521v-4.25c0-0.756,0.324-1.08,1.08-1.08h2.404c0.405,0,0.521,0.117,0.521,0.522v0.081
		c0,0.423-0.116,0.521-0.521,0.521h-2.008c-0.18,0-0.271,0.091-0.271,0.271v0.99h1.918c0.405,0,0.522,0.099,0.522,0.522v0.081
		c0,0.405-0.117,0.521-0.522,0.521H21.224z"/>
</g>
<g>
	<path style="fill:#FFFFFF;" d="M9.827,24.535C9.827,24.12,9.929,24,10.363,24h2.566c1.025,0,1.385,0.341,1.385,1.107
		c0,0.554-0.176,0.913-0.692,1.32l-2.677,2.05c-0.139,0.101-0.212,0.193-0.212,0.258c0,0.074,0.092,0.111,0.277,0.111h2.769
		c0.434,0,0.536,0.101,0.536,0.535v0.084c0,0.415-0.102,0.535-0.536,0.535h-2.751c-0.582,0-0.978-0.092-1.182-0.268
		c-0.203-0.174-0.305-0.452-0.305-0.821c0-0.581,0.176-0.923,0.683-1.32l2.714-2.087c0.12-0.092,0.175-0.166,0.175-0.23
		c0-0.083-0.093-0.12-0.268-0.12h-2.483c-0.434,0-0.535-0.101-0.535-0.535V24.535z"/>
	<path style="fill:#FFFFFF;" d="M15.245,24.535c0-0.415,0.101-0.535,0.535-0.535h0.166c0.434,0,0.535,0.12,0.535,0.535v4.931
		c0,0.415-0.101,0.535-0.535,0.535H15.78c-0.434,0-0.535-0.12-0.535-0.535V24.535z"/>
	<path style="fill:#FFFFFF;" d="M20.45,24c1.357,0,2.04,0.674,2.04,2.013c0,1.338-0.683,2.003-2.04,2.003h-1.385v1.45
		c0,0.415-0.101,0.535-0.535,0.535h-0.166c-0.434,0-0.536-0.12-0.536-0.535v-4.358c0-0.775,0.332-1.107,1.108-1.107H20.45z
		 M19.342,25.154c-0.185,0-0.277,0.092-0.277,0.276v1.432h1.385c0.582,0,0.803-0.268,0.803-0.849c0-0.583-0.221-0.859-0.803-0.859
		H19.342z"/>
</g>
<rect x="14" y="4" style="fill:#893291;" width="2" height="1"/>
<rect x="16" y="5" style="fill:#893291;" width="2" height="1"/>
<rect x="14" y="6" style="fill:#893291;" width="2" height="1"/>
<rect x="16" y="7" style="fill:#893291;" width="2" height="1"/>
<rect x="14" y="8" style="fill:#893291;" width="2" height="1"/>
<rect x="16" y="9" style="fill:#893291;" width="2" height="1"/>
<rect x="14" y="10" style="fill:#893291;" width="2" height="1"/>
<rect x="16" y="11" style="fill:#893291;" width="2" height="1"/>
<rect x="14" y="12" style="fill:#893291;" width="2" height="1"/>
<path style="fill:#893291;" d="M16,19L16,19c-1.105,0-2-0.895-2-2v-3h4v3C18,18.105,17.105,19,16,19z"/>
<circle style="fill:#FFFFFF;" cx="16" cy="17" r="1.002"/>
</svg>
