<?xml version="1.0" encoding="iso-8859-1"?>
<!-- Generator: Adobe Illustrator 19.0.0, SVG Export Plug-In . SVG Version: 6.00 Build 0)  -->
<svg version="1.1" id="Layer_1" xmlns="http://www.w3.org/2000/svg" xmlns:xlink="http://www.w3.org/1999/xlink" x="0px" y="0px"
	 viewBox="0 0 32 32" style="enable-background:new 0 0 32 32;" xml:space="preserve">
<path style="fill:#FFF5EE;" d="M25.017,7c-2.213,0.005-4.015-1.796-4.01-4.01c0.003-1.101-0.899-1.99-2-1.99h-14v30h22V9
	C27.008,7.899,26.119,6.997,25.017,7z"/>
<path style="fill:#FF8420;" d="M19,0H4v22v10h24V22V9v0C28,4.029,23.971,0,19,0z M5,22V1h14c1.101,0,2.003,0.889,2,1.99
	C20.995,5.204,22.796,7.005,25.01,7C26.111,6.997,27,7.896,27,8.997V22H5z"/>
<g style="display:none;">
	<path style="display:inline;fill:#FFFFFF;" d="M10.532,24.074c1.323,0,1.99,0.657,1.99,1.963c0,1.305-0.667,1.953-1.99,1.953H9.182
		v1.414c0,0.404-0.099,0.521-0.521,0.521H8.498c-0.424,0-0.522-0.117-0.522-0.521v-4.25c0-0.756,0.324-1.08,1.08-1.08H10.532z
		 M9.452,25.199c-0.18,0-0.271,0.091-0.271,0.271v1.396h1.351c0.567,0,0.783-0.261,0.783-0.828s-0.216-0.838-0.783-0.838H9.452z"/>
	<path style="display:inline;fill:#FFFFFF;" d="M13.925,25.154c0-0.756,0.324-1.08,1.08-1.08h0.747c0.973,0,1.675,0.162,2.108,0.495
		c0.432,0.333,0.647,0.928,0.647,1.801v1.26c0,1.612-0.873,2.296-2.755,2.296h-0.747c-0.756,0-1.08-0.324-1.08-1.08V25.154z
		 M15.752,28.801c0.586,0,0.981-0.081,1.189-0.252c0.217-0.171,0.324-0.478,0.324-0.919v-1.26c0-0.441-0.107-0.738-0.324-0.909
		c-0.208-0.171-0.603-0.262-1.189-0.262h-0.351c-0.18,0-0.271,0.091-0.271,0.271v3.061c0,0.181,0.091,0.271,0.271,0.271H15.752z"/>
	<path style="display:inline;fill:#FFFFFF;" d="M21.224,27.585v1.819c0,0.404-0.099,0.521-0.521,0.521h-0.162
		c-0.423,0-0.522-0.117-0.522-0.521v-4.25c0-0.756,0.324-1.08,1.08-1.08h2.404c0.405,0,0.521,0.117,0.521,0.522v0.081
		c0,0.423-0.116,0.521-0.521,0.521h-2.008c-0.18,0-0.271,0.091-0.271,0.271v0.99h1.918c0.405,0,0.522,0.099,0.522,0.522v0.081
		c0,0.405-0.117,0.521-0.522,0.521H21.224z"/>
</g>
<g>
	<path style="fill:#FF8420;" d="M19.526,18.01h-7.021c-0.552,0-1-0.448-1-1V8.031c0-0.552,0.448-1,1-1h7.021c0.552,0,1,0.448,1,1
		v8.979C20.526,17.562,20.078,18.01,19.526,18.01z"/>
	<circle style="fill:#FFFBF8;" cx="12.505" cy="8.531" r="0.5"/>
	<circle style="fill:#FFFBF8;" cx="12.505" cy="10.531" r="0.5"/>
	<circle style="fill:#FFFBF8;" cx="12.505" cy="12.531" r="0.5"/>
	<circle style="fill:#FFFBF8;" cx="12.505" cy="14.531" r="0.5"/>
	<circle style="fill:#FFFBF8;" cx="12.505" cy="16.531" r="0.5"/>
	<circle style="fill:#FFFBF8;" cx="19.505" cy="8.531" r="0.5"/>
	<circle style="fill:#FFFBF8;" cx="19.503" cy="10.531" r="0.5"/>
	<circle style="fill:#FFFBF8;" cx="19.503" cy="12.531" r="0.5"/>
	<circle style="fill:#FFFBF8;" cx="19.52" cy="14.531" r="0.5"/>
	<circle style="fill:#FFFBF8;" cx="19.52" cy="16.53" r="0.5"/>
	<path style="fill:#FFFBF8;" d="M17.505,12.031h-3c-0.552,0-1-0.448-1-1v-2c0-0.552,0.448-1,1-1h3c0.552,0,1,0.448,1,1v2
		C18.505,11.583,18.057,12.031,17.505,12.031z"/>
	<path style="fill:#FFFBF8;" d="M17.505,17.03h-3c-0.552,0-1-0.448-1-1v-1.999c0-0.552,0.448-1,1-1h3c0.552,0,1,0.448,1,1v1.999
		C18.505,16.582,18.057,17.03,17.505,17.03z"/>
</g>
<g>
	<path style="fill:#FFFFFF;" d="M13.177,28.273c-0.155,0.645-0.336,1.1-0.555,1.355C12.405,29.873,12.032,30,11.495,30
		c-0.536,0-0.909-0.127-1.127-0.373c-0.218-0.254-0.4-0.709-0.555-1.355l-0.9-3.764C8.813,24.1,8.895,24,9.322,24h0.209
		c0.428,0,0.564,0.109,0.645,0.518l0.846,3.7c0.137,0.582,0.191,0.691,0.473,0.691c0.282,0,0.336-0.109,0.473-0.691l0.845-3.7
		C12.895,24.109,13.032,24,13.459,24h0.209c0.428,0,0.491,0.1,0.409,0.509L13.177,28.273z"/>
	<path style="fill:#FFFFFF;" d="M15.494,24.527c0-0.409,0.1-0.527,0.527-0.527h0.164c0.427,0,0.527,0.118,0.527,0.527v4.855
		c0,0.409-0.1,0.527-0.527,0.527h-0.164c-0.427,0-0.527-0.118-0.527-0.527V24.527z"/>
	<path style="fill:#FFFFFF;" d="M18.493,25.091c0-0.764,0.327-1.091,1.091-1.091h0.754c0.982,0,1.691,0.164,2.127,0.5
		s0.655,0.936,0.655,1.818v1.273c0,1.628-0.882,2.319-2.782,2.319h-0.754c-0.764,0-1.091-0.327-1.091-1.091V25.091z M20.339,28.773
		c0.591,0,0.991-0.082,1.2-0.254c0.218-0.173,0.327-0.482,0.327-0.928v-1.273c0-0.445-0.109-0.746-0.327-0.918
		c-0.209-0.173-0.609-0.264-1.2-0.264h-0.355c-0.182,0-0.273,0.091-0.273,0.273V28.5c0,0.182,0.091,0.273,0.273,0.273H20.339z"/>
</g>
</svg>
