<?xml version="1.0" encoding="iso-8859-1"?>
<!-- Generator: Adobe Illustrator 19.0.0, SVG Export Plug-In . SVG Version: 6.00 Build 0)  -->
<svg version="1.1" id="Layer_1" xmlns="http://www.w3.org/2000/svg" xmlns:xlink="http://www.w3.org/1999/xlink" x="0px" y="0px"
	 viewBox="0 0 32 32" style="enable-background:new 0 0 32 32;" xml:space="preserve">
<path style="fill:#EEFDFF;" d="M25.017,7c-2.213,0.005-4.015-1.796-4.01-4.01C21.01,1.889,20.112,1,19.01,1L5.008,1v30h22
	c0,0,0-15.772,0-22.002C27.008,7.896,26.119,6.997,25.017,7z"/>
<path style="fill:#00B4FF;" d="M19,0H4v22v10h24V22V9v0C28,4.029,23.971,0,19,0z M5,22V1h14c1.101,0,2.003,0.889,2,1.99
	C20.995,5.204,22.797,7.005,25.01,7C26.111,6.997,27,7.899,27,9v13H5z"/>
<g>
	<path style="fill:#FFFFFF;" d="M12.644,29.404c0.107,0.402,0.036,0.5-0.388,0.5h-0.171c-0.423,0-0.549-0.098-0.657-0.5
		l-0.233-0.911H8.818l-0.234,0.911c-0.107,0.402-0.234,0.5-0.657,0.5H7.755c-0.423,0-0.495-0.098-0.387-0.5l1.008-3.697
		c0.18-0.669,0.279-0.946,0.522-1.268c0.243-0.322,0.567-0.428,1.107-0.428s0.864,0.107,1.107,0.428
		c0.243,0.322,0.342,0.599,0.521,1.268L12.644,29.404z M9.097,27.421h1.81l-0.433-1.661c-0.081-0.294-0.144-0.473-0.189-0.553
		c-0.045-0.08-0.144-0.125-0.278-0.125c-0.136,0-0.234,0.045-0.279,0.125s-0.108,0.259-0.189,0.553L9.097,27.421z"/>
	<path style="fill:#FFFFFF;" d="M13.767,24.617c0-0.401,0.099-0.517,0.522-0.517h0.162c0.423,0,0.521,0.116,0.521,0.517v3.25
		c0,0.688,0.388,1.027,1.161,1.027c0.766,0,1.152-0.339,1.152-1.027v-3.25c0-0.401,0.117-0.517,0.522-0.517h0.162
		c0.405,0,0.522,0.116,0.522,0.517v3.25c0,1.473-0.909,2.143-2.359,2.143c-1.467,0-2.367-0.67-2.367-2.143V24.617z"/>
	<path style="fill:#FFFFFF;" d="M20.094,25.171c0-0.75,0.324-1.071,1.08-1.071h0.747c0.973,0,1.675,0.161,2.107,0.491
		c0.432,0.33,0.647,0.919,0.647,1.786v1.249c0,1.598-0.873,2.277-2.755,2.277h-0.747c-0.756,0-1.08-0.322-1.08-1.071V25.171z
		 M21.921,28.788c0.586,0,0.981-0.08,1.188-0.25c0.217-0.17,0.324-0.474,0.324-0.911v-1.249c0-0.438-0.107-0.732-0.324-0.902
		c-0.207-0.17-0.603-0.26-1.188-0.26h-0.351c-0.18,0-0.271,0.089-0.271,0.268v3.035c0,0.178,0.091,0.268,0.271,0.268H21.921z"/>
</g>
<g>
	<path style="fill:#00B4FF;" d="M9.603,11.109c0.087-0.228,0.221-0.409,0.477-0.46c0.056-0.011,0.116-0.014,0.173-0.014
		c0.545-0.001,1.091,0.002,1.636-0.004c0.067-0.001,0.147-0.031,0.198-0.074c1.212-1.004,2.42-2.012,3.63-3.016
		c0.082-0.068,0.173-0.134,0.27-0.176c0.176-0.077,0.325-0.002,0.379,0.182c0.022,0.075,0.031,0.156,0.031,0.234
		c0.001,3.097,0.002,6.195-0.001,9.292c0,0.101-0.019,0.208-0.056,0.303c-0.052,0.136-0.182,0.192-0.318,0.137
		c-0.102-0.041-0.201-0.101-0.286-0.172c-1.217-1.01-2.432-2.023-3.65-3.032c-0.052-0.043-0.131-0.072-0.198-0.073
		c-0.512-0.006-1.024-0.015-1.536,0.001c-0.371,0.011-0.626-0.123-0.751-0.479C9.603,12.875,9.603,11.992,9.603,11.109z"/>
	<path style="fill:#00B4FF;" d="M22.397,13.008c-0.033,0.272-0.055,0.545-0.101,0.814c-0.264,1.534-0.964,2.813-2.215,3.767
		c-0.099,0.075-0.203,0.147-0.314,0.203c-0.237,0.121-0.517,0.032-0.651-0.195c-0.133-0.225-0.073-0.519,0.149-0.663
		c1.03-0.665,1.652-1.624,1.937-2.792c0.415-1.699,0.198-3.322-0.715-4.83c-0.324-0.535-0.729-1.002-1.229-1.384
		c-0.23-0.176-0.278-0.474-0.116-0.698c0.165-0.229,0.472-0.281,0.707-0.106C20.376,7.515,20.806,8,21.175,8.54
		c0.726,1.063,1.117,2.24,1.201,3.523c0.003,0.04,0.014,0.08,0.021,0.12C22.397,12.458,22.397,12.733,22.397,13.008z"/>
	<path style="fill:#00B4FF;" d="M20.05,12.684c-0.015,1.053-0.42,2.084-1.363,2.87c-0.121,0.101-0.252,0.193-0.39,0.269
		c-0.236,0.13-0.526,0.038-0.66-0.193c-0.131-0.227-0.07-0.522,0.153-0.662c0.725-0.453,1.11-1.125,1.223-1.951
		c0.134-0.982-0.094-1.877-0.735-2.647c-0.145-0.174-0.32-0.327-0.496-0.472c-0.226-0.186-0.282-0.478-0.115-0.709
		c0.163-0.224,0.463-0.276,0.698-0.105c0.588,0.429,1.014,0.991,1.311,1.653C19.934,11.308,20.048,11.908,20.05,12.684z"/>
</g>
</svg>
