<?xml version="1.0" encoding="iso-8859-1"?>
<!-- Generator: Adobe Illustrator 19.0.0, SVG Export Plug-In . SVG Version: 6.00 Build 0)  -->
<svg version="1.1" id="Layer_1" xmlns="http://www.w3.org/2000/svg" xmlns:xlink="http://www.w3.org/1999/xlink" x="0px" y="0px"
	 viewBox="0 0 32 32" style="enable-background:new 0 0 32 32;" xml:space="preserve">
<path style="fill:#D01226;" d="M19,0H4v22v10h24V22V9v0C28,4.029,23.971,0,19,0z M5,1h0.008H19c1.101,0,2.003,0.889,2,1.99
	C20.995,5.204,22.797,7.005,25.01,7C26.111,6.997,27,7.899,27,9v13H5.008H5V1z"/>
<path style="fill:#FFF8F9;" d="M27,9c0-1.101-0.889-2.003-1.99-2C22.797,7.005,20.995,5.204,21,2.99C21.003,1.889,20.101,1,19,1
	H5.008v21H27V9z"/>
<g>
	<path style="fill:#FFFFFF;" d="M10.549,24c1.319,0,1.984,0.674,1.984,2.013c0,1.338-0.665,2.003-1.984,2.003H9.202v1.45
		C9.202,29.88,9.104,30,8.683,30H8.521C8.098,30,8,29.88,8,29.465v-4.358C8,24.332,8.323,24,9.077,24H10.549z M9.472,25.154
		c-0.179,0-0.27,0.093-0.27,0.277v1.431h1.347c0.566,0,0.781-0.267,0.781-0.849s-0.215-0.859-0.781-0.859H9.472z"/>
	<path style="fill:#FFFFFF;" d="M13.931,25.107c0-0.775,0.323-1.107,1.077-1.107h0.745c0.97,0,1.67,0.166,2.102,0.508
		c0.43,0.341,0.646,0.951,0.646,1.846v1.292c0,1.653-0.87,2.354-2.747,2.354h-0.745c-0.754,0-1.077-0.332-1.077-1.107V25.107z
		 M15.753,28.846c0.584,0,0.978-0.083,1.185-0.258c0.216-0.175,0.323-0.49,0.323-0.942v-1.292c0-0.453-0.107-0.757-0.323-0.932
		c-0.207-0.175-0.601-0.268-1.185-0.268h-0.35c-0.179,0-0.27,0.093-0.27,0.277v3.138c0,0.185,0.091,0.277,0.27,0.277H15.753z"/>
	<path style="fill:#FFFFFF;" d="M21.209,27.6v1.865c0,0.415-0.098,0.535-0.52,0.535h-0.162c-0.422,0-0.521-0.12-0.521-0.535v-4.358
		c0-0.775,0.323-1.107,1.077-1.107h2.397c0.404,0,0.52,0.12,0.52,0.536v0.083c0,0.434-0.116,0.535-0.52,0.535h-2.002
		c-0.179,0-0.27,0.093-0.27,0.277v1.015h1.912c0.404,0,0.521,0.101,0.521,0.536v0.083c0,0.416-0.117,0.535-0.521,0.535H21.209z"/>
</g>
<path style="fill-rule:evenodd;clip-rule:evenodd;fill:#D01226;" d="M15.058,2.103c0.202,0.052,0.43,0.362,0.657,0.905
	c0.202,0.466,0.202,0.983,0.202,1.319c0,0,0.202-0.828,0.152-1.293C16.044,2.75,15.766,2,15.209,2h-0.025h-0.025h-0.253
	c-0.404,0-0.809,0.207-0.885,0.569c-0.354,1.293,0.025,3.336,0.683,5.871l-0.202,0.491c-0.506,1.241-1.112,2.483-1.669,3.569
	c-2.25,4.552-4.02,6.983-5.182,7.164l-0.025-0.052c-0.025-0.569,1.011-2.017,2.376-3.181c0.152-0.129,0.758-0.724,0.758-0.724
	s-0.809,0.44-1.011,0.543c-1.719,1.06-2.579,2.121-2.73,2.819c-0.051,0.233,0,0.465,0.177,0.595l0.43,0.207
	c1.213,0.621,2.68-1.009,4.652-4.526c2.022-0.672,4.5-1.319,6.775-1.655c2.048,1.19,4.399,1.759,5.284,1.526
	c0.177-0.052,0.354-0.181,0.455-0.31c0.051-0.129,0.152-0.595,0.152-0.595s-0.152,0.233-0.303,0.31
	c-0.556,0.284-2.351-0.181-4.197-1.112c1.593-0.155,2.907-0.181,3.615,0.052c0.66,0.241,0.91,0.595,0.91,0.672
	c0-0.052,0.051-0.259,0.025-0.336c0-0.233-0.076-0.44-0.228-0.595c-0.354-0.336-1.163-0.491-2.301-0.517
	c-0.834,0-1.845,0.078-2.958,0.233c-0.48-0.31-1.036-0.621-1.441-1.034c-1.087-1.009-1.972-2.431-2.528-4.034
	c0.051-0.155,0.076-0.285,0.101-0.44c0.152-0.724,0.278-3.078,0.278-3.078s-0.455,1.784-0.506,2.043
	c-0.051,0.181-0.101,0.362-0.177,0.543c-0.329-1.216-0.506-2.405-0.506-3.284c0-0.259,0.025-0.75,0.101-1.138
	C14.855,2.336,14.957,2.181,15.058,2.103 M18.319,13.224c-1.947,0.362-3.969,0.879-5.865,1.681c0.354-0.621,0.733-1.293,1.087-2.017
	c0.733-1.422,1.188-2.509,1.567-3.543c0.581,1.216,1.39,2.379,2.452,3.284C17.813,12.836,18.041,13.043,18.319,13.224"/>
</svg>
