<svg xmlns="http://www.w3.org/2000/svg" width="32" height="30" fill="none" xmlns:v="https://vecta.io/nano"><path d="M22.365 16l-6.286 14 15.455-14h-9.169z" fill="#fbdd7e"/><path d="M7.112 8L.624 15.347h9.302L7.112 8z" fill="#ffcd73"/><g fill="#fcc471"><path d="M22.682 15.347h9.302L25.496 8l-2.814 7.347z"/><path d="M22.682 15.347L16.304 8l-6.378 7.347h12.756z"/></g><path d="M16.304 8H7.112l2.814 7.347L16.304 8z" fill="#ffaa64"/><path d="M25.496 8h-9.192l6.378 7.347L25.496 8z" fill="#fbdd7e"/><path d="M9.455 16l6.624 14 6.624-14H9.455z" fill="#ffaa64"/><path d="M.624 16l15.455 14-6.286-14H.624z" fill="#ff8c5a"/><path d="M15.889 1v4M8.351 2l3.122 2.828M23.427 2l-3.122 2.828" stroke="#ff8c5a" stroke-linecap="round"/></svg>