<?xml version="1.0" encoding="UTF-8"?>
<svg width="28px" height="26px" viewBox="0 0 28 26" version="1.1" xmlns="http://www.w3.org/2000/svg" xmlns:xlink="http://www.w3.org/1999/xlink">
    <!-- Generator: Sketch 52.3 (67297) - http://www.bohemiancoding.com/sketch -->
    <title>Group 9</title>
    <desc>Created with Sketch.</desc>
    <g id="Page-1" stroke="none" stroke-width="1" fill="none" fill-rule="evenodd">
        <g id="Get-Started-Page-Design-for-PM" transform="translate(-403.000000, -1559.000000)" fill="#FFFFFF">
            <g id="Group-9" transform="translate(403.000000, 1559.000000)">
                <g id="Group-3" transform="translate(5.000000, 0.000000)">
                    <path d="M9.96620731,0.907688057 C13.0605711,0.963302885 15.7932948,1.89594699 18.100412,3.81387936 C19.7118006,5.15345647 20.8330823,6.77875355 21.5032884,8.67204397 C21.6798636,9.17067814 21.7951954,9.68280207 21.9961184,10.1780273 C22.2939522,10.9119287 21.7442572,11.7326127 20.9170182,11.9082231 C20.0329143,12.0959596 19.2543176,11.5754594 19.0338523,10.7721612 C18.5765829,9.10561561 17.8739665,7.54260519 16.5289624,6.27520073 C15.1836379,5.00755277 13.57289,4.18930379 11.6833702,3.84119978 C9.9690906,3.52538352 8.2827897,3.65706697 6.65981452,4.25305144 C5.49624448,4.68038954 4.43481785,5.27885768 3.57709074,6.1231609 C3.21876114,6.47594007 2.79657188,6.520841 2.35147644,6.48977072 C1.49743354,6.43011384 0.906411289,5.70936125 1.02713595,4.93036407 C1.03338309,4.89023568 1.0589056,4.83466955 1.03941666,4.81197559 C0.844954373,4.58547422 1.07940904,4.49328607 1.20381791,4.37441059 C2.97293348,2.68346659 5.11538246,1.60428569 7.62187423,1.12396253 C8.39032596,0.976743947 9.1700439,0.93072292 9.96620731,0.907688057" id="Fill-1"></path>
                </g>
                <g id="Group-6" transform="translate(14.000000, 12.000000)">
                    <path d="M6.54322978,3.85566987 C5.06019372,3.85480228 3.84835189,5.06753067 3.84764987,6.55311617 C3.84700186,8.03761717 5.06040973,9.25994328 6.53739764,9.2626545 C8.00920144,9.26531149 9.23497559,8.0376714 9.23735165,6.55864705 C9.2397277,5.07636924 8.02388978,3.85653746 6.54322978,3.85566987 M11.7171966,7.70625195 C11.4522125,7.61884224 11.341618,7.77755702 11.2729824,8.0574633 C11.1938706,8.38047797 11.0546014,8.68809291 10.8747773,8.96968014 C10.777845,9.12156265 10.8050076,9.21542506 10.9316946,9.33119412 C11.1637919,9.54337414 11.387303,9.76352515 11.471599,10.0895222 C11.5963958,10.5716312 11.4194878,11.068923 11.0072423,11.3457385 C10.5746384,11.6360559 10.0514203,11.6168604 9.6532692,11.2958521 C9.63231672,11.2788256 9.60661213,11.2644561 9.5923558,11.2427122 C9.32008155,10.8279498 9.00633434,10.7910773 8.60542914,11.0850819 C8.39876639,11.236639 8.13405231,11.3078899 7.87932846,11.3613009 C7.70873854,11.3970348 7.67277372,11.4837938 7.67752583,11.6419121 C7.68395198,11.8567491 7.70085436,12.0727248 7.63329881,12.2864231 C7.4718351,12.7970542 6.97637373,13.1523324 6.46795205,13.109224 C5.89877898,13.0610727 5.40299359,12.6569384 5.41843795,12.104663 C5.43426031,11.5382351 5.21874136,11.2914599 4.69908743,11.191199 C4.49458473,11.1518321 4.29947825,11.0291765 4.11765608,10.915956 C3.96558858,10.8212802 3.87027639,10.8363004 3.75568576,10.9693128 C3.49026967,11.2774158 3.18564867,11.5176298 2.74602458,11.5081948 C2.25639533,11.497621 1.89944713,11.2737827 1.69872453,10.8327758 C1.4972459,10.3899795 1.53396674,9.92489692 1.89280498,9.60806383 C2.2550993,9.28813996 2.27459375,9.02721221 2.02354198,8.64731617 C1.88837688,8.44278178 1.81288315,8.1873307 1.75769388,7.94397166 C1.7107668,7.73694296 1.61259255,7.68846635 1.42434422,7.70397453 C0.971705829,7.74128091 0.562322428,7.64562909 0.271363746,7.26063595 C-0.000586499164,6.90064025 -0.0583138249,6.50252481 0.125992408,6.08879275 C0.319370849,5.65450965 0.673510981,5.3846891 1.13948768,5.40876473 C1.58726597,5.43181009 1.7978708,5.29082669 1.88313876,4.84895217 C1.93114586,4.60027914 2.07144108,4.36120382 2.2070382,4.14067324 C2.3118006,3.97019177 2.28242393,3.87453996 2.14407275,3.75513786 C1.84269183,3.49507771 1.61556262,3.19283098 1.62404081,2.76228936 C1.63376103,2.27025728 1.85522012,1.90803838 2.29462821,1.70963136 C2.73220026,1.51198347 3.20168704,1.54061395 3.51667627,1.90180258 C3.83868567,2.27101642 4.09967366,2.27307695 4.47411826,2.02527151 C4.67867496,1.88987322 4.93258879,1.81829703 5.17375833,1.75404113 C5.34575228,1.70827575 5.40812371,1.63648266 5.40067154,1.45976539 C5.39235535,1.26244285 5.38776524,1.05752889 5.43004821,0.866767505 C5.55095699,0.32170398 6.10090562,-0.0477267605 6.67148272,0.00812435685 C7.22575145,0.0624571914 7.6718017,0.554706165 7.68416798,1.12568895 C7.69594025,1.66760746 7.69550824,1.66896307 8.20398392,1.8471444 C8.45881577,1.93639774 8.71343162,2.03345939 8.93624073,2.1829018 C9.11190677,2.30078561 9.21423912,2.25865326 9.33817196,2.11750719 C9.55477094,1.8709489 9.80020657,1.66972221 10.1445185,1.61696188 C10.6192434,1.54419276 11.0951023,1.76250013 11.3324378,2.18306447 C11.5640491,2.59354307 11.5447706,3.1824199 11.1954906,3.48781164 C10.8309282,3.80654258 10.7869172,4.08015883 11.0541154,4.47474968 C11.1910085,4.67695242 11.255594,4.93647033 11.3174254,5.17917868 C11.3632185,5.35925786 11.4498905,5.40789714 11.6185903,5.39423259 C11.7522434,5.38338772 11.8892445,5.3869123 12.0225736,5.40258315 C12.6837648,5.48034092 13.1183128,5.99335783 13.0792159,6.64188149 C13.042927,7.24279613 12.5353694,7.6996908 11.8966967,7.70619773 C11.8517137,7.70668575 11.8067307,7.70625195 11.7171966,7.70625195" id="Fill-4"></path>
                </g>
                <path d="M4.44632816,9.00058484 C4.95588249,9.02729395 5.36684529,9.23723166 5.75819384,9.56817905 C6.70274754,10.3669964 7.4857568,11.3282174 8.44669906,12.1079495 C8.89808699,12.4742533 8.96379734,12.8845605 8.77832039,13.375916 C8.60298875,13.8403067 8.12579533,14.0582776 7.60042473,14.0248144 C7.12968269,13.9947795 6.65493455,14.0280891 6.18195533,14.029573 C6.01536426,14.0300846 6.06432185,14.123413 6.08253136,14.2177136 C6.27945429,15.2389022 6.64936764,16.1959787 7.19851466,17.0828543 C8.15779206,18.6322898 9.47865844,19.7818561 11.1555989,20.5433216 C11.714423,20.7970582 12.2894276,20.9927203 12.8848788,21.1348619 C13.6415103,21.3154299 14.1373815,22.091785 13.9661079,22.8385144 C13.7840648,23.6322151 13.030763,24.1542196 12.2639342,23.9589156 C7.5693645,22.7632479 4.55194336,19.8821944 3.28783864,15.2600853 C3.1938255,14.9163973 3.13945709,14.5612992 3.08316366,14.208964 C3.06360144,14.0865729 3.03462229,14.0271169 2.89716645,14.0280379 C2.32008082,14.032029 1.74242289,14.0114087 1.16606564,14.0313126 C0.46661205,14.0554634 -0.0698923685,13.4894553 0.00742004097,12.801312 C0.0378559491,12.5305368 0.167819878,12.3254088 0.362453609,12.1648471 C1.13448513,11.5279729 1.79725955,10.7820622 2.52080173,10.0969888 C2.85887443,9.7768376 3.18321196,9.44266669 3.60119843,9.21804408 C3.86435197,9.07666999 4.14155286,8.99209114 4.44632816,9.00058484" id="Fill-7"></path>
            </g>
        </g>
    </g>
</svg>