<?xml version="1.0" encoding="iso-8859-1"?>
<!-- Generator: Adobe Illustrator 19.0.0, SVG Export Plug-In . SVG Version: 6.00 Build 0)  -->
<svg version="1.1" id="Capa_1" xmlns="http://www.w3.org/2000/svg" xmlns:xlink="http://www.w3.org/1999/xlink" x="0px" y="0px"
	 viewBox="0 0 60 60" style="enable-background:new 0 0 60 60;" xml:space="preserve">
<g>
	<path d="M54.168,0H5.832C4.271,0,3,1.271,3,2.832v54.336C3,58.729,4.271,60,5.832,60h48.336C55.729,60,57,58.729,57,57.168V2.832
		C57,1.271,55.729,0,54.168,0z M5.832,2h48.336C54.627,2,55,2.373,55,2.832V29H5V2.832C5,2.373,5.373,2,5.832,2z M54.168,58H5.832
		C5.373,58,5,57.627,5,57.168V31h50v26.168C55,57.627,54.627,58,54.168,58z"/>
	<path d="M24.505,18h10.99C37.428,18,39,16.428,39,14.495V13c0-0.553-0.447-1-1-1s-1,0.447-1,1v1.495C37,15.325,36.325,16,35.495,16
		h-10.99C23.675,16,23,15.325,23,14.495V13c0-0.553-0.447-1-1-1s-1,0.447-1,1v1.495C21,16.428,22.572,18,24.505,18z"/>
	<path d="M38,41c-0.553,0-1,0.447-1,1v1.495C37,44.325,36.325,45,35.495,45h-10.99C23.675,45,23,44.325,23,43.495V42
		c0-0.553-0.447-1-1-1s-1,0.447-1,1v1.495C21,45.428,22.572,47,24.505,47h10.99C37.428,47,39,45.428,39,43.495V42
		C39,41.447,38.553,41,38,41z"/>
</g>
<g>
</g>
<g>
</g>
<g>
</g>
<g>
</g>
<g>
</g>
<g>
</g>
<g>
</g>
<g>
</g>
<g>
</g>
<g>
</g>
<g>
</g>
<g>
</g>
<g>
</g>
<g>
</g>
<g>
</g>
</svg>
