<?xml version="1.0" encoding="UTF-8"?>
<svg width="15px" height="11px" viewBox="0 0 15 11" version="1.1" xmlns="http://www.w3.org/2000/svg" xmlns:xlink="http://www.w3.org/1999/xlink">
    <!-- Generator: Sketch 50 (54983) - http://www.bohemiancoding.com/sketch -->
    <title>Group</title>
    <desc>Created with Sketch.</desc>
    <defs></defs>
    <g id="Page-1" stroke="none" stroke-width="1" fill="none" fill-rule="evenodd">
        <g id="First-Look---Single-Task-Page-Design" transform="translate(-381.000000, -213.000000)" fill="#D6D6D6" fill-rule="nonzero">
            <g id="Group" transform="translate(381.000000, 213.000000)">
                <g id="flaticon1525681048-svg">
                    <path d="M0.535094677,4.96410256 L13.3763713,4.96410256 C13.5212867,4.96410256 13.6466126,4.91515687 13.752554,4.81745457 C13.8583782,4.71988734 13.9112903,4.60411403 13.9112903,4.47048581 L13.9112903,3.48327931 C13.9112903,3.34951603 13.8583782,3.23393181 13.752554,3.13625652 C13.6466419,3.03855422 13.521316,2.98974359 13.3763713,2.98974359 L0.535094677,2.98974359 C0.390091457,2.98974359 0.26473629,3.03855422 0.158794923,3.13625652 C0.0529706835,3.23390479 0,3.34959707 0,3.48327931 L0,4.47048581 C0,4.60411403 0.0529706835,4.71988734 0.158824205,4.81745457 C0.264824136,4.91515687 0.390208584,4.96410256 0.535094677,4.96410256 Z" id="Shape"></path>
                    <path d="M0.535327665,1.97435897 L10.1702003,1.97435897 C10.3151495,1.97435897 10.4407643,1.92549432 10.5467518,1.82784604 C10.6525928,1.73014375 10.7056452,1.6145055 10.7056452,1.48082325 L10.7056452,0.493616756 C10.7056452,0.359961524 10.6525928,0.244323276 10.5467518,0.14651293 C10.4407936,0.0489456912 10.3151788,0 10.1702003,0 L0.535327665,0 C0.390261308,0 0.26485156,0.0489456912 0.158864065,0.14651293 C0.0529937477,0.244215229 0,0.359961524 0,0.493616756 L0,1.48082325 C0,1.61447849 0.0529937477,1.73011673 0.15889336,1.82784604 C0.264939444,1.92549432 0.390378486,1.97435897 0.535327665,1.97435897 Z" id="Shape"></path>
                    <path d="M14.8409208,9.17222897 C14.7348778,9.07453069 14.6091624,9.02564103 14.4641852,9.02564103 L0.535756168,9.02564103 C0.390573694,9.02564103 0.265063561,9.07453069 0.158991228,9.17222897 C0.0530361666,9.26987324 0,9.38558778 0,9.51923752 L0,10.5063765 C0,10.6400262 0.0530361666,10.7557408 0.159020546,10.8535741 C0.265180833,10.9510833 0.390749601,11 0.535785486,11 L14.4642145,11 C14.6091624,11 14.7348778,10.9510833 14.8409501,10.8535741 C14.9469052,10.7557678 15,10.6400532 15,10.5063765 L15,9.51923752 C14.9999414,9.38558778 14.9468759,9.26987324 14.8409208,9.17222897 Z" id="Shape"></path>
                    <path d="M0.536147046,7.95384615 L11.2581785,7.95384615 C11.4033495,7.95384615 11.5290686,7.90492747 11.6351009,7.80722518 C11.7412213,7.70960391 11.7943548,7.59388463 11.7943548,7.46020239 L11.7943548,6.47313095 C11.7943548,6.33955675 11.7412213,6.22372942 11.6351009,6.12610816 C11.5290979,6.02840586 11.4033788,5.97948718 11.2581785,5.97948718 L0.536147046,5.97948718 C0.390858649,5.97948718 0.265256947,6.02840586 0.159107225,6.12610816 C0.0530748608,6.22372942 0,6.33955675 0,6.47313095 L0,7.46028342 C0,7.59393865 0.0530748608,7.70976599 0.159136564,7.80730621 C0.265344965,7.90500851 0.390976006,7.95384615 0.536147046,7.95384615 Z" id="Shape"></path>
                </g>
            </g>
        </g>
    </g>
</svg>