<?xml version="1.0" encoding="iso-8859-1"?>
<!-- Generator: Adobe Illustrator 19.1.0, SVG Export Plug-In . SVG Version: 6.00 Build 0)  -->
<svg version="1.1" id="Capa_1" xmlns="http://www.w3.org/2000/svg" xmlns:xlink="http://www.w3.org/1999/xlink" x="0px" y="0px"
	 viewBox="0 0 64 64" style="enable-background:new 0 0 64 64;" xml:space="preserve">
<g>
	<g>
		<g>
			<g>
				<g>
					<polygon points="64,63 0,63 0,28.395 8.336,15.891 11.664,18.109 4,29.605 4,59 60,59 60,29.605 52.336,18.109 55.664,15.891 
						64,28.395 					"/>
				</g>
			</g>
			<g>
				<g>
					<rect x="2" y="27" width="59" height="4"/>
				</g>
			</g>
			<g>
				<g>
					<polygon points="56,25 52,25 52,11 12,11 12,25 8,25 8,7 56,7 					"/>
				</g>
			</g>
		</g>
		<g>
			<g>
				<rect x="22" y="37" width="20" height="4"/>
			</g>
		</g>
		<g>
			<g>
				<rect x="16" y="15" width="16" height="4"/>
			</g>
		</g>
		<g>
			<g>
				<rect x="16" y="21" width="23" height="4"/>
			</g>
		</g>
		<g>
			<g>
				<polygon points="53,7 49,7 49,5 15,5 15,7 11,7 11,1 53,1 				"/>
			</g>
		</g>
	</g>
	<g>
	</g>
	<g>
	</g>
	<g>
	</g>
	<g>
	</g>
	<g>
	</g>
	<g>
	</g>
	<g>
	</g>
	<g>
	</g>
	<g>
	</g>
	<g>
	</g>
	<g>
	</g>
	<g>
	</g>
	<g>
	</g>
	<g>
	</g>
	<g>
	</g>
</g>
<g>
</g>
<g>
</g>
<g>
</g>
<g>
</g>
<g>
</g>
<g>
</g>
<g>
</g>
<g>
</g>
<g>
</g>
<g>
</g>
<g>
</g>
<g>
</g>
<g>
</g>
<g>
</g>
<g>
</g>
</svg>
