<?xml version="1.0" encoding="UTF-8"?>
<svg width="14px" height="16px" viewBox="0 0 14 16" version="1.1" xmlns="http://www.w3.org/2000/svg" xmlns:xlink="http://www.w3.org/1999/xlink">
    <!-- Generator: Sketch 50 (54983) - http://www.bohemiancoding.com/sketch -->
    <title>flaticon1525761726-svg copy 2</title>
    <desc>Created with Sketch.</desc>
    <defs></defs>
    <g id="Page-1" stroke="none" stroke-width="1" fill="none" fill-rule="evenodd">
        <g id="First-Look---Single-Task-Page-Design" transform="translate(-865.000000, -162.000000)" fill="#D4D6D6" fill-rule="nonzero">
            <g id="flaticon1525761726-svg-copy-2" transform="translate(865.000000, 162.000000)">
                <path d="M13.9799711,3.63596639 C13.8806572,2.66058337 13.4216046,1.78454651 12.6874016,1.16927723 L12.2649557,0.815161105 C11.6377603,0.289470443 10.8477993,0 10.0404243,0 C8.96368981,0 7.95913475,0.495359883 7.28428851,1.35914448 L0.788929617,9.67247685 C0.193873654,10.4338737 -0.0792498365,11.3898501 0.0199399453,12.3641621 C0.119129727,13.3383885 0.578761443,14.2143396 1.31412255,14.8307228 L1.73656844,15.1848389 C2.36368115,15.7105296 3.15360078,16 3.960769,16 C4.08539736,16 4.21147345,15.9931027 4.33548136,15.9794796 C5.27046294,15.8773917 6.11233518,15.4068362 6.7035857,14.6574775 C6.70557115,14.6550784 6.70672932,14.6536647 11.0856397,9.04992476 C11.865508,8.0516223 11.7158547,6.58225028 10.7521254,5.77445767 L10.5307064,5.58900295 C10.1324582,5.25519302 9.63075971,5.07136622 9.11818266,5.07136622 C8.43456734,5.07136622 7.79674147,5.38594096 7.36821514,5.9343797 L2.99439249,11.5322077 C2.70861176,11.898062 2.76341845,12.4365619 3.11666313,12.7326297 C3.2628419,12.8551095 3.44678559,12.9225826 3.63457608,12.9225826 C3.88474281,12.9225826 4.11840547,12.8073 4.27571104,12.6060372 L8.64945096,7.00820923 C8.76386253,6.86182467 8.93428033,6.7778581 9.11694175,6.7778581 C9.25575781,6.7778581 9.38609434,6.8256248 9.49388774,6.91597453 L9.71534816,7.10164345 C9.8397697,7.20591622 9.91753317,7.35439994 9.93436813,7.51984835 C9.95116173,7.68529675 9.90504138,7.84736078 9.80432115,7.97613807 L5.43558621,13.5676257 C5.07485473,14.0290134 4.53787319,14.293551 3.96229945,14.2935938 C3.53079495,14.2935938 3.10855588,14.1388983 2.77334571,13.8578673 L2.35089982,13.5038369 C1.95778068,13.1742681 1.71203986,12.7059403 1.65905316,12.1851763 C1.60602509,11.6643694 1.75199704,11.1532443 2.07012407,10.7461779 L8.56552433,2.43293117 C8.92625581,1.97128643 9.46340281,1.70649188 10.0392247,1.70649188 C10.4707706,1.70649188 10.893051,1.86118742 11.2281785,2.14213269 L11.650583,2.49616314 C12.4620944,3.17633514 12.5880464,4.41342822 11.9314001,5.25386498 C11.792915,5.43113724 11.7293805,5.65356296 11.7524614,5.88031552 C11.7755836,6.10702524 11.8825498,6.31090119 12.053588,6.45424411 C12.1998081,6.57676675 12.3837518,6.64428272 12.5715423,6.64428272 C12.8217091,6.64428272 13.0553304,6.52891438 13.2125946,6.32769451 C13.8067819,5.56728303 14.0793263,4.61130657 13.9799711,3.63596639 Z" id="Shape"></path>
            </g>
        </g>
    </g>
</svg>