<?xml version="1.0" encoding="UTF-8"?>
<svg width="15px" height="15px" viewBox="0 0 15 15" version="1.1" xmlns="http://www.w3.org/2000/svg" xmlns:xlink="http://www.w3.org/1999/xlink">
    <!-- Generator: Sketch 50 (54983) - http://www.bohemiancoding.com/sketch -->
    <title>Group 3 Copy 3</title>
    <desc>Created with Sketch.</desc>
    <defs></defs>
    <g id="Page-1" stroke="none" stroke-width="1" fill="none" fill-rule="evenodd">
        <g id="First-Look---Single-Task-Page-Design" transform="translate(-717.000000, -162.000000)" fill="#D4D6D6" fill-rule="nonzero">
            <g id="Group-3-Copy-3" transform="translate(717.000000, 162.000000)">
                <g id="flaticon1525675902-svg">
                    <path d="M5.4242887,8.26107362 C5.4242887,8.07349693 5.26864017,7.92153374 5.07658996,7.92153374 L3.86325314,7.92153374 C3.67142259,7.92153374 3.51574268,8.07349693 3.51574268,8.26107362 L3.51574268,9.44696319 C3.51574268,9.63478528 3.67142259,9.78680982 3.86325314,9.78680982 L5.07658996,9.78680982 C5.26864017,9.78680982 5.4242887,9.63478528 5.4242887,9.44696319 L5.4242887,8.26107362 Z" id="Shape"></path>
                    <path d="M8.4565795,8.26107362 C8.4565795,8.07349693 8.30089958,7.92153374 8.10922594,7.92153374 L6.89573222,7.92153374 C6.70390167,7.92153374 6.54822176,8.07349693 6.54822176,8.26107362 L6.54822176,9.44696319 C6.54822176,9.63478528 6.70390167,9.78680982 6.89573222,9.78680982 L8.10922594,9.78680982 C8.30089958,9.78680982 8.4565795,9.63478528 8.4565795,9.44696319 L8.4565795,8.26107362 Z" id="Shape"></path>
                    <path d="M11.4890272,8.26107362 C11.4890272,8.07349693 11.3333473,7.92153374 11.1415167,7.92153374 L9.92817992,7.92153374 C9.73612971,7.92153374 9.58048117,8.07349693 9.58048117,8.26107362 L9.58048117,9.44696319 C9.58048117,9.63478528 9.73612971,9.78680982 9.92817992,9.78680982 L11.1415167,9.78680982 C11.3333473,9.78680982 11.4890272,9.63478528 11.4890272,9.44696319 L11.4890272,8.26107362 Z" id="Shape"></path>
                    <path d="M5.4242887,11.2254601 C5.4242887,11.0375767 5.26864017,10.8857362 5.07658996,10.8857362 L3.86325314,10.8857362 C3.67142259,10.8857362 3.51574268,11.0375767 3.51574268,11.2254601 L3.51574268,12.411135 C3.51574268,12.5988344 3.67142259,12.7508282 3.86325314,12.7508282 L5.07658996,12.7508282 C5.26864017,12.7508282 5.4242887,12.5988037 5.4242887,12.411135 L5.4242887,11.2254601 Z" id="Shape"></path>
                    <path d="M8.4565795,11.2254601 C8.4565795,11.0375767 8.30089958,10.8857362 8.10922594,10.8857362 L6.89573222,10.8857362 C6.70390167,10.8857362 6.54822176,11.0375767 6.54822176,11.2254601 L6.54822176,12.411135 C6.54822176,12.5988344 6.70390167,12.7508282 6.89573222,12.7508282 L8.10922594,12.7508282 C8.30089958,12.7508282 8.4565795,12.5988037 8.4565795,12.411135 L8.4565795,11.2254601 Z" id="Shape"></path>
                    <path d="M11.4890272,11.2254601 C11.4890272,11.0375767 11.3333473,10.8857362 11.1416736,10.8857362 L9.92817992,10.8857362 C9.73612971,10.8857362 9.58048117,11.0375767 9.58048117,11.2254601 L9.58048117,12.411135 C9.58048117,12.5988344 9.73612971,12.7508282 9.92817992,12.7508282 L11.1416736,12.7508282 C11.3333473,12.7508282 11.4890272,12.5988037 11.4890272,12.411135 L11.4890272,11.2254601 Z" id="Shape"></path>
                    <path d="M13.6585983,1.66730061 L13.6585983,3.47865031 C13.6585983,4.29736196 12.9791423,4.95711656 12.1417155,4.95711656 L11.1848222,4.95711656 C10.3473326,4.95711656 9.65887029,4.29736196 9.65887029,3.47865031 L9.65887029,1.66079755 L5.34589958,1.66079755 L5.34589958,3.47865031 C5.34589958,4.29736196 4.65746862,4.95711656 3.8201046,4.95711656 L2.86302301,4.95711656 C2.02562762,4.95711656 1.34620293,4.29736196 1.34620293,3.47865031 L1.34620293,1.66730061 C0.614309623,1.68886503 0.0128974895,2.2808589 0.0128974895,3.00849693 L0.0128974895,13.623865 C0.0128974895,14.365184 0.627583682,14.9740184 1.38596234,14.9740184 L13.6188075,14.9740184 C14.3760565,14.9740184 14.9918724,14.3639264 14.9918724,13.623865 L14.9918724,3.00849693 C14.9918724,2.2808589 14.3904916,1.68886503 13.6585983,1.66730061 Z M13.2141527,12.9628221 C13.2141527,13.2831902 12.9484205,13.5430982 12.6205544,13.5430982 L2.35807531,13.5430982 C2.03020921,13.5430982 1.76447699,13.2831902 1.76447699,12.9628221 L1.76447699,7.47960123 C1.76447699,7.15911043 2.03017782,6.89920245 2.35807531,6.89920245 L12.620523,6.89920245 C12.9483891,6.89920245 13.2141213,7.15911043 13.2141213,7.47960123 L13.2141527,12.9628221 Z" id="Shape"></path>
                    <path d="M2.85966527,3.98604294 L3.80617155,3.98604294 C4.09346234,3.98604294 4.32640167,3.75868098 4.32640167,3.47785276 L4.32640167,0.508374233 C4.32640167,0.227515337 4.09346234,0 3.80617155,0 L2.85966527,0 C2.5723431,0 2.33943515,0.227515337 2.33943515,0.508374233 L2.33943515,3.47785276 C2.33943515,3.75868098 2.5723431,3.98604294 2.85966527,3.98604294 Z" id="Shape"></path>
                    <path d="M11.1726464,3.98604294 L12.1191527,3.98604294 C12.4062552,3.98604294 12.6391946,3.75868098 12.6391946,3.47785276 L12.6391946,0.508374233 C12.6392259,0.227515337 12.4062866,0 12.1191527,0 L11.1726464,0 C10.885387,0 10.6524477,0.227515337 10.6524477,0.508374233 L10.6524477,3.47785276 C10.6524477,3.75868098 10.885387,3.98604294 11.1726464,3.98604294 Z" id="Shape"></path>
                </g>
            </g>
        </g>
    </g>
</svg>