<?xml version="1.0" encoding="UTF-8"?>
<svg width="10px" height="10px" viewBox="0 0 10 10" version="1.1" xmlns="http://www.w3.org/2000/svg" xmlns:xlink="http://www.w3.org/1999/xlink">
    <!-- Generator: Sketch 50 (54983) - http://www.bohemiancoding.com/sketch -->
    <title>Shape Copy 11</title>
    <desc>Created with Sketch.</desc>
    <defs></defs>
    <g id="Page-1" stroke="none" stroke-width="1" fill="none" fill-rule="evenodd">
        <g id="Task-List-Details---Task-List-Page-Design" transform="translate(-639.000000, -359.000000)" fill="#D6D6D6" fill-rule="nonzero">
            <path d="M644.000007,359 C641.24301,359 639.000013,361.124912 639.000013,363.736842 C639.000013,364.65 639.274513,365.534386 639.794679,366.298947 C639.696179,367.445789 639.43218,368.297193 639.048847,368.700526 C638.99818,368.75386 638.985513,368.835439 639.017513,368.902807 C639.046013,368.962982 639.10418,369 639.16668,369 C639.174347,369 639.18218,368.999474 639.190013,368.998246 C639.257513,368.988246 640.825511,368.750526 641.959509,368.061754 C642.603675,368.335263 643.289674,368.473684 644.000007,368.473684 C646.757003,368.473684 649,366.348772 649,363.736842 C649,361.124912 646.757003,359 644.000007,359 Z" id="Shape-Copy-11"></path>
        </g>
    </g>
</svg>