<?xml version="1.0" encoding="UTF-8"?>
<svg width="8px" height="8px" viewBox="0 0 8 8" version="1.1" xmlns="http://www.w3.org/2000/svg" xmlns:xlink="http://www.w3.org/1999/xlink">
    <!-- Generator: Sketch 50 (54983) - http://www.bohemiancoding.com/sketch -->
    <title>Shape Copy 22</title>
    <desc>Created with Sketch.</desc>
    <defs></defs>
    <g id="Page-1" stroke="none" stroke-width="1" fill="none" fill-rule="evenodd">
        <g id="Description+Subtask+File-Attachment-UI---Single-Task-Page-Design" transform="translate(-789.000000, -702.000000)" fill="#E9485E" fill-rule="nonzero">
            <path d="M793.950788,706.000019 L796.803082,703.147721 C797.065639,702.885164 797.065639,702.459475 796.803082,702.196956 C796.540525,701.934398 796.114875,701.934398 795.852318,702.196956 L792.999986,705.049291 L790.147654,702.196918 C789.885097,701.934361 789.459447,701.934361 789.19689,702.196918 C788.93437,702.459475 788.93437,702.885164 789.19689,703.147684 L792.049221,705.999981 L789.19689,708.852316 C788.93437,709.114874 788.93437,709.540562 789.19689,709.803082 C789.459447,710.065639 789.885097,710.065639 790.147654,709.803082 L792.999986,706.950747 L795.852318,709.803082 C796.114837,710.065639 796.540525,710.065639 796.803082,709.803082 C797.065639,709.540525 797.065639,709.114874 796.803082,708.852316 L793.950788,706.000019 Z" id="Shape-Copy-22"></path>
        </g>
    </g>
</svg>