<?xml version="1.0" encoding="UTF-8"?>
<svg width="13px" height="13px" viewBox="0 0 13 13" version="1.1" xmlns="http://www.w3.org/2000/svg" xmlns:xlink="http://www.w3.org/1999/xlink">
    <!-- Generator: Sketch 50 (54983) - http://www.bohemiancoding.com/sketch -->
    <title>Combined Shape</title>
    <desc>Created with Sketch.</desc>
    <defs></defs>
    <g id="Page-1" stroke="none" stroke-width="1" fill="none" fill-rule="evenodd">
        <g id="More-Menu-Action-+-Move-Task-UX---Single-Task-Page-Design" transform="translate(-825.000000, -140.000000)" fill="#D4D6D6" fill-rule="nonzero">
            <g id="Menu-Action" transform="translate(808.000000, 92.000000)">
                <path d="M24.9321643,53.0670826 C25.1078117,53.2431097 25.1993423,53.4861308 25.1835244,53.7342798 C25.1685697,53.941938 25.0793496,54.1372586 24.9321896,54.2845233 C24.5901622,54.6063935 24.0566186,54.6063935 23.7145657,54.2845233 C23.2070214,53.77769 22.3848199,53.77769 21.8772756,54.2845233 L19.1105116,57.0486877 C18.602561,57.5565618 18.602561,58.379985 19.1105116,58.8878591 C19.6184621,59.3957332 20.4420093,59.3957332 20.9499598,58.8878591 L22.5857556,57.2501517 C22.6475547,57.1879558 22.7407864,57.1691193 22.8219072,57.202502 C23.2621683,57.3815247 23.7332273,57.4727877 24.2085264,57.4711122 L24.2951822,57.4711122 C24.4148448,57.4704268 24.5124183,57.5668431 24.5131038,57.6864878 C24.5134338,57.7446727 24.4903544,57.8005729 24.4490196,57.841546 L22.1740836,60.1161397 C21.6062129,60.684585 20.834842,61.0027742 20.0313021,60.9999818 C18.3560758,60.9989156 16.9989343,59.6402266 17.0000006,57.9652524 C17.0005084,57.1625951 17.3192534,56.3928634 17.8863624,55.8247481 L20.6422849,53.0670826 C21.2103588,52.4971141 21.9824406,52.1774017 22.7872246,52.1788994 C23.367054,52.1788994 23.9347216,52.345026 24.4230204,52.6576557 C24.6073765,52.7748633 24.7781491,52.9121766 24.9321643,53.0670826 Z M29.1115467,48.8883291 C30.2961638,50.0727679 30.2961638,51.993124 29.1114705,53.1775628 L26.3533899,55.9352284 C25.9654321,56.3232548 25.4794692,56.59877 24.9472713,56.7324278 L24.9234301,56.7324278 L24.7977755,56.7584231 L24.7284356,56.7714208 L24.5789398,56.7930751 L24.5052837,56.7930751 C24.4489435,56.7930751 24.3991031,56.803915 24.3514462,56.8060728 L24.2214499,56.8212283 L24.2084502,56.8212283 L24.0567963,56.8212283 C23.9487114,56.8169127 23.8409567,56.8067836 23.7339636,56.7908919 C23.6451497,56.7757364 23.5584685,56.7583977 23.4718128,56.7367434 L23.3439746,56.7020914 C23.2984758,56.6890937 23.250819,56.6739382 23.2053202,56.6565995 C23.1598215,56.6392608 23.1121647,56.6241053 23.0666659,56.6046088 C23.0211672,56.5851123 22.9756685,56.5677736 22.9301698,56.5461192 C22.6077179,56.3967221 22.3143121,56.191374 22.063536,55.9395694 C21.8878885,55.7635169 21.7963579,55.5204958 21.8122012,55.2723468 C21.8261403,55.0631908 21.9154366,54.8661694 22.063536,54.7177877 C22.4055634,54.3959174 22.939107,54.3959174 23.2811599,54.7177877 C23.7887042,55.224621 24.6109057,55.224621 25.11845,54.7177877 L25.8290883,54.011572 L25.8464296,53.9920755 L27.8787142,51.9622799 C28.3866648,51.4544058 28.3866648,50.6309826 27.8787142,50.1231085 C27.3707636,49.6152344 26.5472165,49.6152344 26.0392659,50.1231085 L24.4078118,51.7521593 C24.3460128,51.8143552 24.252781,51.8331917 24.1716603,51.799809 C23.7322371,51.6201262 23.2619397,51.5281524 22.7871992,51.5290155 L22.7070432,51.5290155 C22.618534,51.5307164 22.5378957,51.4783957 22.5033908,51.3968809 C22.4684796,51.3155947 22.4864811,51.2212854 22.5488895,51.1585817 L24.8216674,48.8883291 C26.0062844,47.7038903 27.9269296,47.7038903 29.1115467,48.8883291 Z" id="Combined-Shape"></path>
            </g>
        </g>
    </g>
</svg>