<?xml version="1.0" encoding="UTF-8"?>
<svg width="8px" height="16px" viewBox="0 0 8 16" version="1.1" xmlns="http://www.w3.org/2000/svg" xmlns:xlink="http://www.w3.org/1999/xlink">
    <!-- Generator: Sketch 50 (54983) - http://www.bohemiancoding.com/sketch -->
    <title>Group</title>
    <desc>Created with Sketch.</desc>
    <defs></defs>
    <g id="Page-1" stroke="none" stroke-width="1" fill="none" fill-rule="evenodd">
        <g id="Simple-List-Style---Task-List-Page-Design" transform="translate(-878.000000, -410.000000)" fill="#D7DEE2" fill-rule="nonzero">
            <g id="Group" transform="translate(878.000000, 410.000000)">
                <path d="M1.19914375,4.28190505 C0.8659875,4.28190505 0.582903125,4.39822663 0.34969375,4.63100083 C0.11659375,4.86368768 0,5.14627031 0,5.47883606 C0,5.81124897 0.11659375,6.09400629 0.34978125,6.32673681 C0.58296875,6.55942366 0.86611875,6.67576708 1.19923125,6.67576708 C1.53227812,6.67576708 1.81538438,6.55942366 2.04859375,6.32673681 C2.28171563,6.09402812 2.39830938,5.8112708 2.39830938,5.47883606 C2.39830938,5.14627031 2.28171563,4.86368768 2.04852813,4.63097899 C1.81538438,4.39829214 1.53225625,4.28190505 1.19914375,4.28190505 Z" id="Shape"></path>
                <path d="M1.19920937,0.0178401985 C0.866053125,0.0178401985 0.58296875,0.134227295 0.349759375,0.36693598 C0.116659375,0.599710174 6.56249991e-05,0.882292804 6.56249991e-05,1.21479305 C6.56249991e-05,1.54733697 0.11659375,1.82994144 0.349759375,2.06271563 C0.582946875,2.29542432 0.866096875,2.41176774 1.19920937,2.41176774 C1.53225625,2.41176774 1.8153625,2.29540248 2.04857187,2.06271563 C2.28169375,1.82994144 2.3982875,1.54731514 2.3982875,1.21479305 C2.3982875,0.882292804 2.28169375,0.599710174 2.04857187,0.36693598 C1.81547187,0.134227295 1.53236562,0.0178401985 1.19920937,0.0178401985 Z" id="Shape"></path>
                <path d="M1.19920937,8.54590438 C0.866053125,8.54590438 0.58288125,8.6621823 0.349759375,8.89486915 C0.116659375,9.12770885 6.56249991e-05,9.41033515 6.56249991e-05,9.74272622 C6.56249991e-05,10.0754012 0.11659375,10.3578746 0.349759375,10.5907143 C0.582946875,10.823423 0.866096875,10.9397664 1.19920937,10.9397664 C1.53225625,10.9397664 1.8153625,10.823423 2.04857187,10.5907143 C2.28169375,10.3578746 2.3982875,10.0754012 2.3982875,9.74272622 C2.3982875,9.41031332 2.28169375,9.127556 2.04857187,8.89486915 C1.81547187,8.6621823 1.53236562,8.54590438 1.19920937,8.54590438 Z" id="Shape"></path>
                <path d="M1.19914375,12.8099037 C0.8659875,12.8099037 0.582903125,12.9262253 0.34969375,13.1589995 C0.11659375,13.3916864 0,13.674269 0,14.0068347 C0,14.3392476 0.11659375,14.622005 0.34978125,14.8547355 C0.58296875,15.0874223 0.86611875,15.2037658 1.19923125,15.2037658 C1.53227812,15.2037658 1.81538438,15.0874223 2.04859375,14.8547355 C2.28171563,14.6220268 2.39830938,14.3392695 2.39830938,14.0068347 C2.39830938,13.674269 2.28171563,13.3916864 2.04852813,13.1589777 C1.81538438,12.9262908 1.53225625,12.8099037 1.19914375,12.8099037 Z" id="Shape"></path>
                <path d="M6.79914375,4.28190505 C6.4659875,4.28190505 6.18290313,4.39822663 5.94969375,4.63100083 C5.71659375,4.86368768 5.6,5.14627031 5.6,5.47883606 C5.6,5.81124897 5.71659375,6.09400629 5.94978125,6.32673681 C6.18296875,6.55942366 6.46611875,6.67576708 6.79923125,6.67576708 C7.13227813,6.67576708 7.41538438,6.55942366 7.64859375,6.32673681 C7.88171563,6.09402812 7.99830938,5.8112708 7.99830938,5.47883606 C7.99830938,5.14627031 7.88171563,4.86368768 7.64852813,4.63097899 C7.41538438,4.39829214 7.13225625,4.28190505 6.79914375,4.28190505 Z" id="Shape"></path>
                <path d="M6.79920937,0.0178401985 C6.46605312,0.0178401985 6.18296875,0.134227295 5.94975937,0.36693598 C5.71665937,0.599710174 5.60006562,0.882292804 5.60006562,1.21479305 C5.60006562,1.54733697 5.71659375,1.82994144 5.94975937,2.06271563 C6.18294687,2.29542432 6.46609687,2.41176774 6.79920937,2.41176774 C7.13225625,2.41176774 7.4153625,2.29540248 7.64857187,2.06271563 C7.88169375,1.82994144 7.9982875,1.54731514 7.9982875,1.21479305 C7.9982875,0.882292804 7.88169375,0.599710174 7.64857187,0.36693598 C7.41547187,0.134227295 7.13236562,0.0178401985 6.79920937,0.0178401985 Z" id="Shape"></path>
                <path d="M6.79920937,8.54590438 C6.46605312,8.54590438 6.18288125,8.6621823 5.94975937,8.89486915 C5.71665937,9.12770885 5.60006562,9.41033515 5.60006562,9.74272622 C5.60006562,10.0754012 5.71659375,10.3578746 5.94975937,10.5907143 C6.18294687,10.823423 6.46609687,10.9397664 6.79920937,10.9397664 C7.13225625,10.9397664 7.4153625,10.823423 7.64857187,10.5907143 C7.88169375,10.3578746 7.9982875,10.0754012 7.9982875,9.74272622 C7.9982875,9.41031332 7.88169375,9.127556 7.64857187,8.89486915 C7.41547187,8.6621823 7.13236562,8.54590438 6.79920937,8.54590438 Z" id="Shape"></path>
                <path d="M6.79914375,12.8099037 C6.4659875,12.8099037 6.18290313,12.9262253 5.94969375,13.1589995 C5.71659375,13.3916864 5.6,13.674269 5.6,14.0068347 C5.6,14.3392476 5.71659375,14.622005 5.94978125,14.8547355 C6.18296875,15.0874223 6.46611875,15.2037658 6.79923125,15.2037658 C7.13227813,15.2037658 7.41538438,15.0874223 7.64859375,14.8547355 C7.88171563,14.6220268 7.99830938,14.3392695 7.99830938,14.0068347 C7.99830938,13.674269 7.88171563,13.3916864 7.64852813,13.1589777 C7.41538438,12.9262908 7.13225625,12.8099037 6.79914375,12.8099037 Z" id="Shape"></path>
            </g>
        </g>
    </g>
</svg>