<?xml version="1.0" encoding="UTF-8"?>
<svg width="11px" height="11px" viewBox="0 0 11 11" version="1.1" xmlns="http://www.w3.org/2000/svg" xmlns:xlink="http://www.w3.org/1999/xlink">
    <!-- Generator: Sketch 50 (54983) - http://www.bohemiancoding.com/sketch -->
    <title>flaticon1530866829-svg copy</title>
    <desc>Created with Sketch.</desc>
    <defs></defs>
    <g id="Page-1" stroke="none" stroke-width="1" fill="none" fill-rule="evenodd">
        <g id="Simple-List-Style---Task-List-Page-Design" transform="translate(-851.000000, -478.000000)" fill="#D7DEE2" fill-rule="nonzero">
            <g id="flaticon1530866829-svg-copy" transform="translate(851.000000, 478.000000)">
                <path d="M7.55555556,3 L0.444444444,3 C0.177777778,3 0,3.17777778 0,3.44444444 L0,10.5555556 C0,10.8222222 0.177777778,11 0.444444444,11 L7.55555556,11 C7.82222222,11 8,10.8222222 8,10.5555556 L8,3.44444444 C8,3.17777778 7.82222222,3 7.55555556,3 Z M6.22222222,9 C6.22222222,9.13333333 6.13333333,9.22222222 6,9.22222222 L2,9.22222222 C1.86666667,9.22222222 1.77777778,9.13333333 1.77777778,9 L1.77777778,5 C1.77777778,4.86666667 1.86666667,4.77777778 2,4.77777778 L6,4.77777778 C6.13333333,4.77777778 6.22222222,4.86666667 6.22222222,5 L6.22222222,9 Z" id="Shape"></path>
                <path d="M10.5555556,0 L3.44444444,0 C3.17777778,0 3,0.177777778 3,0.444444444 L3,1.33333333 C3,1.6 3.17777778,1.77777778 3.44444444,1.77777778 L9,1.77777778 C9.13333333,1.77777778 9.22222222,1.86666667 9.22222222,2 L9.22222222,7.55555556 C9.22222222,7.82222222 9.4,8 9.66666667,8 L10.5555556,8 C10.8222222,8 11,7.82222222 11,7.55555556 L11,0.444444444 C11,0.177777778 10.8222222,0 10.5555556,0 Z" id="Shape"></path>
            </g>
        </g>
    </g>
</svg>