<?xml version="1.0" encoding="UTF-8"?>
<svg width="13px" height="13px" viewBox="0 0 13 13" version="1.1" xmlns="http://www.w3.org/2000/svg" xmlns:xlink="http://www.w3.org/1999/xlink">
    <!-- Generator: Sketch 50 (54983) - http://www.bohemiancoding.com/sketch -->
    <title>Group 10 Copy 6</title>
    <desc>Created with Sketch.</desc>
    <defs></defs>
    <g id="Page-1" stroke="none" stroke-width="1" fill="none" fill-rule="evenodd">
        <g id="Simple-List-Style---Task-List-Page-Design" transform="translate(-428.000000, -123.000000)" fill="#1ABC9C" fill-rule="nonzero">
            <g id="Group-10-Copy-6" transform="translate(428.000000, 123.000000)">
                <path d="M4.27234666,9.75642781 C4.58690577,9.43560148 4.78182887,8.99230365 4.78182887,8.50334678 C4.78182887,7.52669777 4.00435896,6.73214286 3.04871045,6.73214286 C2.09306194,6.73214286 1.31556677,7.52669777 1.31556677,8.50334678 C1.31556677,8.99230365 1.51046462,9.43560148 1.82504899,9.75642781 C0.751507101,10.2391127 0,11.3363748 0,12.6097947 C0,12.8252877 0.17095549,13 0.381814906,13 L5.71553023,13 C5.92638964,13 6.09734513,12.8252877 6.09734513,12.6097947 C6.09734513,11.3363748 5.34583803,10.2391127 4.27234666,9.75642781 Z" id="Shape"></path>
                <path d="M11.1749586,9.75641535 C11.4895164,9.43559035 11.6844387,8.99232015 11.6844387,8.50333949 C11.6844387,7.52669449 10.906972,6.73214286 9.95132743,6.73214286 C8.99568288,6.73214286 8.21821619,7.52669449 8.21821619,8.50333949 C8.21821619,8.99229434 8.41311323,9.43559035 8.72769629,9.75641535 C7.65420937,10.2390982 6.90265487,11.3363559 6.90265487,12.6097963 C6.90265487,12.8252885 7.07360965,13 7.28446819,13 L12.6181867,13 C12.8290452,13 13,12.8252885 13,12.6097963 C13,11.3363301 12.248496,10.2390982 11.1749586,9.75641535 Z" id="Shape"></path>
                <path d="M10.0000934,2.08928571 L9.22815362,2.08928571 L9.22815362,3.38517959 C9.22815362,4.32075461 8.46449938,5.08186669 7.52579949,5.08186669 L6.32743363,5.08186669 C6.49368225,5.33368463 6.77961146,5.50034835 7.10402769,5.50034835 L8.82392475,5.50034835 L9.74830389,6.29100061 C9.81977979,6.35217096 9.90946352,6.38392857 10.0001446,6.38392857 C10.0548448,6.38392857 10.1099029,6.37235718 10.1615088,6.34873013 C10.2987323,6.2858776 10.3866771,6.14911089 10.3866771,5.99860634 L10.3866771,5.41634107 C10.706567,5.26986357 10.9292035,4.94752131 10.9292035,4.5743312 L10.9292035,3.01532836 C10.9292291,2.50473434 10.5124184,2.08928571 10.0000934,2.08928571 Z" id="Shape"></path>
                <path d="M7.58349232,0 L3.00055289,0 C2.48788561,0 2.07079646,0.421372636 2.07079646,0.939330839 L2.07079646,3.39282659 C2.07079646,3.85664931 2.40523036,4.24301743 2.84330319,4.31871404 L2.84330319,5.99306208 C2.84330319,6.16250047 2.95134359,6.31265277 3.11089637,6.36487516 C3.15017681,6.37772393 3.19035289,6.38392857 3.23011953,6.38392857 C3.35182491,6.38392857 3.46933356,6.32576007 3.54349297,6.22232354 L4.89857849,4.33215743 L7.58351791,4.33215743 C8.09618519,4.33215743 8.51327434,3.91078479 8.51327434,3.39285244 L8.51327434,0.939330839 C8.51324875,0.421372636 8.0961596,0 7.58349232,0 Z" id="Shape"></path>
            </g>
        </g>
    </g>
</svg>