<?xml version="1.0" encoding="UTF-8"?>
<svg width="13px" height="10px" viewBox="0 0 13 10" version="1.1" xmlns="http://www.w3.org/2000/svg" xmlns:xlink="http://www.w3.org/1999/xlink">
    <!-- Generator: Sketch 50 (54983) - http://www.bohemiancoding.com/sketch -->
    <title>flaticon1530845352-svg</title>
    <desc>Created with Sketch.</desc>
    <defs></defs>
    <g id="Page-1" stroke="none" stroke-width="1" fill="none" fill-rule="evenodd">
        <g id="Simple-List-Style---Task-List-Page-Design" transform="translate(-670.000000, -125.000000)" fill="#F39C12" fill-rule="nonzero">
            <g id="flaticon1530845352-svg" transform="translate(670.000000, 125.000000)">
                <path d="M3.50423836,4.8764268 C3.97879888,4.65215881 4.43273371,4.53997519 4.86580074,4.53997519 L10.6164972,4.53997519 L10.6164972,3.40640199 C10.6164972,2.97188586 10.4643948,2.59858561 10.1601657,2.28684864 C9.8559851,1.97513648 9.49210615,1.81930521 9.06811732,1.81930521 L5.30811546,1.81930521 L5.30811546,1.59260546 C5.30811546,1.15808933 5.15608566,0.784962779 4.85197765,0.473325062 C4.54784544,0.161612903 4.18382123,0.00568238213 3.75990503,0.00568238213 L1.54821043,0.00568238213 C1.12429423,0.00568238213 0.760270019,0.161588089 0.456137803,0.473325062 C0.152005587,0.784987593 0,1.15811414 0,1.59263027 L0,8.39372208 C0,8.4126799 0.00118621974,8.44223325 0.00348603352,8.48245658 C0.00576163873,8.52253102 0.00697206704,8.55210918 0.00697206704,8.57094293 L0.0414934823,8.52866005 L2.37074488,5.72300248 C2.65180633,5.38290323 3.02965363,5.10064516 3.50423836,4.8764268 Z" id="Shape"></path>
                <path d="M12.8038622,5.53880893 C12.6818268,5.4773201 12.5424823,5.44650124 12.3857318,5.44650124 L4.86580074,5.44650124 C4.56169274,5.44650124 4.23107635,5.53039702 3.87402421,5.69811414 C3.51694786,5.86600496 3.23929981,6.06997519 3.04122533,6.31104218 L0.718897579,9.11647643 C0.576018622,9.2817866 0.504579143,9.43769231 0.504579143,9.58419355 C0.504579143,9.72583127 0.565657356,9.82741935 0.687741155,9.88870968 C0.809824953,9.95019851 0.949193669,9.98091811 1.10589572,9.98091811 L8.62604469,9.98091811 C8.93010428,9.98091811 9.26055121,9.89702233 9.61770019,9.72940447 C9.97477654,9.56176179 10.2523035,9.35746898 10.4504507,9.11647643 L12.7728026,6.31104218 C12.9156089,6.1457072 12.9869516,5.98997519 12.9869516,5.84332506 C12.9870484,5.70171216 12.926067,5.60022333 12.8038622,5.53880893 Z" id="Shape"></path>
            </g>
        </g>
    </g>
</svg>