<?xml version="1.0" encoding="UTF-8"?>
<svg width="10px" height="12px" viewBox="0 0 10 12" version="1.1" xmlns="http://www.w3.org/2000/svg" xmlns:xlink="http://www.w3.org/1999/xlink">
    <!-- Generator: Sketch 50 (54983) - http://www.bohemiancoding.com/sketch -->
    <title>Shape</title>
    <desc>Created with Sketch.</desc>
    <defs></defs>
    <g id="Page-1" stroke="none" stroke-width="1" fill="none" fill-rule="evenodd">
        <g id="Filtering-Action---Task-List-Page-Design" transform="translate(-405.000000, -577.000000)" fill="#D6D6D6" fill-rule="nonzero">
            <path d="M413.91587,585.797744 L411.83913,584.818051 C411.643261,584.725538 411.521522,584.539692 411.521522,584.332923 L411.521522,583.639385 C411.571304,583.581949 411.623696,583.516513 411.677826,583.444308 C411.947174,583.085333 412.163043,582.685744 412.32,582.254769 C412.626739,582.122051 412.82587,581.835897 412.82587,581.512821 L412.82587,580.692308 C412.82587,580.494769 412.747609,580.303385 412.608478,580.153846 L412.608478,579.062769 C412.620652,578.949949 412.668478,578.278359 412.153696,577.724308 C411.707174,577.243692 410.982609,577 409.999783,577 C409.016957,577 408.292391,577.243692 407.84587,577.724103 C407.331087,578.278154 407.378913,578.949949 407.391087,579.062564 L407.391087,580.153641 C407.251957,580.303179 407.173696,580.494564 407.173696,580.692103 L407.173696,581.512615 C407.173696,581.762256 407.293913,581.995077 407.49913,582.150359 C407.698261,582.894359 408.115,583.454974 408.260652,583.634872 L408.260652,584.313641 C408.260652,584.512205 408.14587,584.694359 407.961304,584.789538 L406.021957,585.787692 C405.391522,586.112205 405,586.734564 405,587.412308 L405,588.282051 C405.779503,588.760684 407.373706,589 409.782609,589 C412.191511,589 413.930641,588.760684 415,588.282051 L415,587.452718 C414.999783,586.747487 414.584348,586.113231 413.91587,585.797744 Z" id="Shape"></path>
        </g>
    </g>
</svg>