<?xml version="1.0" encoding="UTF-8"?>
<svg width="15px" height="15px" viewBox="0 0 15 15" version="1.1" xmlns="http://www.w3.org/2000/svg" xmlns:xlink="http://www.w3.org/1999/xlink">
    <!-- Generator: Sketch 50 (54983) - http://www.bohemiancoding.com/sketch -->
    <title>Shape</title>
    <desc>Created with Sketch.</desc>
    <defs></defs>
    <g id="Page-1" stroke="none" stroke-width="1" fill="none" fill-rule="evenodd">
        <g id="First-Look---Single-Task-Page-Design" transform="translate(-378.000000, -64.000000)" fill="#D6D6D6" fill-rule="nonzero">
            <path d="M385.5,64 C381.364525,64 378,67.3644289 378,71.4999609 C378,75.6354928 381.364525,79 385.5,79 C389.635475,79 393,75.6354928 393,71.4999609 C393,67.3644289 389.635554,64 385.5,64 Z M389.806632,70.2331544 L385.094764,74.9449984 C384.894415,75.1453458 384.628093,75.2556152 384.344787,75.2556152 C384.061482,75.2556152 383.795159,75.1453458 383.594811,74.9449984 L381.193368,72.5435678 C380.993019,72.3432203 380.882671,72.076899 380.882671,71.7935951 C380.882671,71.510213 380.993019,71.2438917 381.193368,71.0435443 C381.393638,70.8431968 381.659961,70.7328492 381.943344,70.7328492 C382.226649,70.7328492 382.49305,70.8431968 382.693321,71.0436225 L384.344709,72.694924 L388.306523,68.7331309 C388.506871,68.5327834 388.773194,68.422514 389.056499,68.422514 C389.339805,68.422514 389.606127,68.5327834 389.806476,68.7331309 C390.220164,69.1468171 390.220164,69.8196247 389.806632,70.2331544 Z" id="Shape"></path>
        </g>
    </g>
</svg>