<?xml version="1.0" encoding="UTF-8"?>
<svg width="11px" height="10px" viewBox="0 0 11 10" version="1.1" xmlns="http://www.w3.org/2000/svg" xmlns:xlink="http://www.w3.org/1999/xlink">
    <!-- Generator: Sketch 50 (54983) - http://www.bohemiancoding.com/sketch -->
    <title>flaticon1530686390-svg</title>
    <desc>Created with Sketch.</desc>
    <defs></defs>
    <g id="Page-1" stroke="none" stroke-width="1" fill="none" fill-rule="evenodd">
        <g id="Simple-List-Style---Task-List-Page-Design" transform="translate(-766.000000, -186.000000)" fill="#1A9ED4" fill-rule="nonzero">
            <g id="flaticon1530686390-svg" transform="translate(766.000000, 186.000000)">
                <path d="M9.93548387,0 L1.06451613,0 C0.479032258,0 0,0.46898263 0,1.04218362 C0,1.61538462 0.479032258,2.08436725 1.06451613,2.08436725 L9.93548387,2.08436725 C10.5209677,2.08436725 11,1.61538462 11,1.04218362 C11,0.46898263 10.5209677,0 9.93548387,0 Z" id="Shape"></path>
                <path d="M9.93548387,3.82133995 L1.06451613,3.82133995 C0.479032258,3.82133995 0,4.29032258 0,4.86352357 C0,5.43672457 0.479032258,5.9057072 1.06451613,5.9057072 L9.93548387,5.9057072 C10.5209677,5.9057072 11,5.43672457 11,4.86352357 C11,4.29032258 10.5209677,3.82133995 9.93548387,3.82133995 Z" id="Shape"></path>
                <path d="M9.93548387,7.6426799 L1.06451613,7.6426799 C0.479032258,7.6426799 0,8.11166253 0,8.68486352 C0,9.25806452 0.479032258,9.72704715 1.06451613,9.72704715 L9.93548387,9.72704715 C10.5209677,9.72704715 11,9.25806452 11,8.68486352 C11,8.11166253 10.5209677,7.6426799 9.93548387,7.6426799 Z" id="Shape"></path>
            </g>
        </g>
    </g>
</svg>