<?xml version="1.0" encoding="UTF-8"?>
<svg width="12px" height="13px" viewBox="0 0 12 13" version="1.1" xmlns="http://www.w3.org/2000/svg" xmlns:xlink="http://www.w3.org/1999/xlink">
    <!-- Generator: Sketch 50 (54983) - http://www.bohemiancoding.com/sketch -->
    <title>flaticon1530865463-svg</title>
    <desc>Created with Sketch.</desc>
    <defs></defs>
    <g id="Page-1" stroke="none" stroke-width="1" fill="none" fill-rule="evenodd">
        <g id="Filtering-Action---Task-List-Page-Design" transform="translate(-454.000000, -577.000000)" fill="#D6D6D6" fill-rule="nonzero">
            <g id="Group" transform="translate(454.000000, 577.000000)">
                <g id="flaticon1530865463-svg">
                    <path d="M1.113,3.88219565 C1.81718182,2.76815217 2.91545455,1.9466087 4.20027273,1.62471739 C4.29927273,1.60013043 4.38081818,1.5275 4.419,1.43 C4.45745455,1.33221739 4.44818182,1.22143478 4.39418182,1.13184783 C3.98290909,0.452456522 3.25527273,0 2.424,0 C1.13890909,0 0.0965454545,1.07956522 0.0965454545,2.41121739 C0.0965454545,2.97643478 0.285,3.49558696 0.599727273,3.90621739 C0.662727273,3.98902174 0.760363636,4.03480435 0.862090909,4.03 C0.963818182,4.02519565 1.05736364,3.97008696 1.113,3.88219565 Z" id="Shape"></path>
                    <path d="M9.51436364,0 C8.68690909,0 7.96172727,0.448217391 7.54963636,1.12308696 C7.49509091,1.2123913 7.48554545,1.32402174 7.524,1.42236957 C7.56272727,1.521 7.64454545,1.59334783 7.74463636,1.61765217 C9.033,1.93191304 10.1350909,2.74780435 10.8452727,3.85817391 C10.9017273,3.94634783 10.9958182,4.0008913 11.0980909,4.00456522 C11.2003636,4.00852174 11.2974545,3.96104348 11.3601818,3.8771087 C11.6615455,3.47128261 11.8418182,2.96371739 11.8418182,2.4115 C11.841,1.07956522 10.7994545,0 9.51436364,0 Z" id="Shape"></path>
                    <path d="M11.1141818,7.38513043 C11.1141818,6.45421739 10.8804545,5.57926087 10.473,4.81791304 C9.71781818,3.40769565 8.36154545,2.39397826 6.76527273,2.14019565 C6.51081818,2.09978261 6.25254545,2.07236957 5.98718182,2.07236957 C5.71009091,2.07236957 5.44009091,2.10176087 5.17472727,2.14584783 C3.58527273,2.41008696 2.23581818,3.42804348 1.48854545,4.83995652 C1.08845455,5.59621739 0.860181818,6.46326087 0.860181818,7.38513043 C0.860181818,8.96378261 1.53190909,10.3799348 2.59009091,11.3532391 L2.15809091,11.9837391 C1.97209091,12.2553261 2.03372727,12.6311957 2.29581818,12.8245 C2.39809091,12.8996739 2.51563636,12.9361304 2.63209091,12.9361304 C2.81427273,12.9361304 2.99372727,12.8476739 3.10690909,12.6823478 L3.53863636,12.0521304 C4.26654545,12.4638913 5.10081818,12.6984565 5.98718182,12.6984565 C6.87327273,12.6984565 7.70754545,12.4638913 8.43545455,12.0521304 L8.86718182,12.6823478 C8.98063636,12.8479565 9.15981818,12.9361304 9.342,12.9361304 C9.45845455,12.9361304 9.57572727,12.8996739 9.678,12.8245 C9.94009091,12.6311957 10.002,12.2553261 9.816,11.9837391 L9.384,11.3532391 C10.4421818,10.3799348 11.1141818,8.96378261 11.1141818,7.38513043 Z M5.98745455,11.2122174 C3.95072727,11.2122174 2.29418182,9.49565217 2.29418182,7.38513043 C2.29418182,6.72721739 2.45536364,6.10802174 2.73845455,5.56654348 C3.27736364,4.53671739 4.26027273,3.79486957 5.41827273,3.60806522 C5.60427273,3.5781087 5.79327273,3.55776087 5.98745455,3.55776087 C6.17018182,3.55776087 6.34881818,3.57613043 6.52472727,3.60297826 C7.69254545,3.78045652 8.68609091,4.52230435 9.23127273,5.55665217 C9.51763636,6.1001087 9.68045455,6.72269565 9.68045455,7.38484783 C9.68045455,9.49565217 8.02390909,11.2122174 5.98745455,11.2122174 Z" id="Shape"></path>
                    <path d="M8.05636364,8.28043478 L6.64745455,7.37891304 C6.61827273,7.20821739 6.52909091,7.06097826 6.40390909,6.95669565 L6.46827273,5.12482609 C6.47618182,4.89082609 6.3,4.69441304 6.07445455,4.68565217 C5.84945455,4.67491304 5.65909091,4.85973913 5.65063636,5.09373913 L5.586,6.92758696 C5.41118182,7.05532609 5.29609091,7.26558696 5.29609091,7.5043913 C5.29609091,7.89467391 5.60127273,8.21063043 5.97790909,8.21063043 C6.08509091,8.21063043 6.18518182,8.18265217 6.27518182,8.13715217 L7.62654545,9.0025 C7.69363636,9.0448913 7.76809091,9.06552174 7.84118182,9.06552174 C7.97836364,9.06552174 8.112,8.99430435 8.18972727,8.86458696 C8.30863636,8.66478261 8.24863636,8.40365217 8.05636364,8.28043478 Z" id="Shape"></path>
                </g>
            </g>
        </g>
    </g>
</svg>