<?xml version="1.0" encoding="UTF-8"?>
<svg width="5px" height="20px" viewBox="0 0 5 20" version="1.1" xmlns="http://www.w3.org/2000/svg" xmlns:xlink="http://www.w3.org/1999/xlink">
    <!-- Generator: Sketch 50 (54983) - http://www.bohemiancoding.com/sketch -->
    <title>Combined Shape</title>
    <desc>Created with Sketch.</desc>
    <defs></defs>
    <g id="Page-1" stroke="none" stroke-width="1" fill="none" fill-rule="evenodd">
        <g id="First-Look---Single-Task-Page-Design" transform="translate(-908.000000, -62.000000)" fill="#D6D6D6" fill-rule="nonzero">
            <path d="M910.5,67 C909.121562,67 908,65.8784375 908,64.5 C908,63.1215625 909.121562,62 910.5,62 C911.878438,62 913,63.1215625 913,64.5 C913,65.8784375 911.878438,67 910.5,67 Z M910.5,77 C911.878438,77 913,78.1215625 913,79.5 C913,80.8784375 911.878438,82 910.5,82 C909.121562,82 908,80.8784375 908,79.5 C908,78.1215625 909.121562,77 910.5,77 Z M910.5,70 C911.878438,70 913,71.1215625 913,72.5 C913,73.8784375 911.878438,75 910.5,75 C909.121562,75 908,73.8784375 908,72.5 C908,71.1215625 909.121562,70 910.5,70 Z" id="Combined-Shape"></path>
        </g>
    </g>
</svg>