<?xml version="1.0" encoding="UTF-8"?>
<svg width="13px" height="14px" viewBox="0 0 13 14" version="1.1" xmlns="http://www.w3.org/2000/svg" xmlns:xlink="http://www.w3.org/1999/xlink">
    <!-- Generator: Sketch 50 (54983) - http://www.bohemiancoding.com/sketch -->
    <title>Fill 1 Copy 4</title>
    <desc>Created with Sketch.</desc>
    <defs></defs>
    <g id="Page-1" stroke="none" stroke-width="1" fill="none" fill-rule="evenodd">
        <g id="Simple-List-Style---Task-List-Page-Design" transform="translate(-552.000000, -122.000000)" fill="#9B59B6">
            <path d="M553.18784,123.662283 C553.187175,124.089948 553.298772,124.260779 553.584026,124.31225 C553.708257,124.33466 553.842296,124.330145 553.968106,124.31214 C554.184485,124.281192 554.317359,124.142377 554.344899,123.93165 C554.375707,123.69583 554.401722,123.440446 554.174926,123.279247 C553.947216,123.117364 553.682076,123.132661 553.435193,123.238667 C553.217595,123.332114 553.190139,123.539365 553.18784,123.662283 Z M559.028601,132.468511 C559.033421,132.479046 559.038242,132.489527 559.043035,132.500034 L563.555047,132.500034 C563.536512,132.447688 563.522022,132.405384 563.50659,132.363408 C563.223746,131.592822 562.942509,130.821634 562.656036,130.052362 C562.612234,129.934726 562.610488,129.83058 562.655371,129.712041 C562.854517,129.186141 563.046044,128.657367 563.239732,128.129414 C563.345317,127.841686 563.449683,127.55352 563.556294,127.260785 L560.280329,127.260785 C560.280329,127.31231 560.280329,127.356886 560.280329,127.401406 C560.280246,128.595471 560.278805,129.789508 560.281021,130.983545 C560.281631,131.304848 560.140666,131.548876 559.894947,131.748275 C559.603348,131.98497 559.317124,132.22815 559.028601,132.468511 Z M559.678125,126.107957 L554.387482,126.107957 L554.387482,131.332129 C554.43109,131.332129 554.467135,131.332102 554.503179,131.332129 C556.123056,131.332978 557.742961,131.334072 559.362838,131.334346 C559.603625,131.334401 559.677737,131.261531 559.677848,131.025685 C559.678402,129.908922 559.678097,128.792187 559.678097,127.675452 C559.678125,127.156475 559.678125,126.637524 559.678125,126.107957 Z M553.994786,122 C554.30805,122.083295 554.606299,122.198058 554.854816,122.41215 C555.29245,122.789193 555.569559,123.244523 555.543959,123.838395 C555.529164,124.181972 555.386897,124.480536 555.181905,124.752666 C555.14647,124.799704 555.108403,124.844854 555.050887,124.916711 C555.156943,124.916711 555.237732,124.916738 555.31852,124.916711 C556.735843,124.916301 558.153361,124.928587 559.570462,124.909925 C560.251986,124.90095 560.762901,125.471125 560.848261,125.906917 C560.858623,125.959811 560.865521,126.013361 560.87616,126.080046 C560.976066,126.080046 561.076525,126.080019 561.176957,126.080046 C562.229595,126.08032 563.28226,126.080539 564.334897,126.080922 C564.855675,126.081113 565.123558,126.46248 564.944554,126.948429 C564.604194,127.872415 564.265662,128.797058 563.921423,129.719621 C563.878701,129.834165 563.881776,129.933112 563.923944,130.045986 C564.262005,130.95142 564.59832,131.857592 564.926712,132.766473 C564.97334,132.89552 565.00038,133.042244 564.991431,133.177857 C564.971954,133.472809 564.703351,133.679815 564.370998,133.680143 C563.299853,133.681265 562.228764,133.681128 561.157647,133.681156 C560.312772,133.681183 559.467176,133.659812 558.623243,133.687449 C557.998682,133.70789 557.350044,133.145514 557.311034,132.514455 L554.369806,132.514455 L554.369806,136 L553.178503,136 C553.178503,135.861212 553.178475,135.722123 553.178503,135.583034 C553.178891,134.429413 553.180636,133.275792 553.179417,132.122171 C553.177145,129.960913 553.169887,127.799628 553.175871,125.638398 C553.176397,125.454077 553.138192,125.36531 552.967166,125.270522 C552.466309,124.992919 552.138305,124.570699 552.021915,124.003671 C552.019421,123.991549 552.007508,123.981287 552,123.970178 L552,123.53236 C552.008395,123.516873 552.021167,123.502233 552.024519,123.485733 C552.118302,123.024793 552.372332,122.665126 552.738265,122.374224 C552.978636,122.183117 553.258876,122.079053 553.5515,122 L553.994786,122 Z" id="Fill-1-Copy-4"></path>
        </g>
    </g>
</svg>