<?xml version="1.0" encoding="UTF-8"?>
<svg width="14px" height="14px" viewBox="0 0 14 14" version="1.1" xmlns="http://www.w3.org/2000/svg" xmlns:xlink="http://www.w3.org/1999/xlink">
    <!-- Generator: Sketch 50 (54983) - http://www.bohemiancoding.com/sketch -->
    <title>Shape Copy 14</title>
    <desc>Created with Sketch.</desc>
    <defs></defs>
    <g id="Page-1" stroke="none" stroke-width="1" fill="none" fill-rule="evenodd">
        <g id="Simple-List-Style---Task-List-Page-Design" transform="translate(-850.000000, -531.000000)" fill="#D7DEE2" fill-rule="nonzero">
            <path d="M863.85147,537.648493 L861.851458,535.648469 C861.752566,535.549493 861.63534,535.500046 861.49989,535.500046 C861.364494,535.500046 861.24735,535.549493 861.148348,535.648469 C861.049483,535.747501 860.999928,535.864702 860.999928,536.0001 L860.999928,537.00018 L857.99991,537.00018 L857.99991,534.000104 L859.000025,534.000104 C859.135421,534.000104 859.252647,533.950602 859.351567,533.85168 C859.450459,533.752704 859.499905,533.635612 859.499905,533.500132 C859.499905,533.364624 859.450459,533.247423 859.351567,533.148474 L857.351528,531.148424 C857.252663,531.049475 857.135491,531 856.999986,531 C856.864481,531 856.747365,531.049502 856.648363,531.148424 L854.648406,533.148474 C854.549404,533.247505 854.499985,533.364706 854.499985,533.500132 C854.499985,533.635475 854.549432,533.752676 854.648406,533.85168 C854.747435,533.950602 854.864524,534.000104 855.000029,534.000104 L856.000035,534.000104 L856.000035,537.000207 L853.000045,537.000207 L853.000045,536.000127 C853.000045,535.864619 852.950544,535.747446 852.85157,535.648497 C852.75254,535.54952 852.635342,535.500073 852.499946,535.500073 C852.364578,535.500073 852.247379,535.54952 852.148405,535.648497 L850.148421,537.648493 C850.049501,537.747469 850,537.864616 850,538.000041 C850,538.135467 850.049501,538.252695 850.148421,538.351589 L852.148405,540.351558 C852.247379,540.450425 852.364496,540.500173 852.499946,540.500173 C852.635451,540.500173 852.752623,540.450452 852.85157,540.351558 C852.950544,540.252773 853.000045,540.135435 853.000045,540.00001 L853.000045,538.999875 L856.000035,538.999875 L856.000035,541.999978 L855.000111,541.999978 C854.864606,541.999978 854.747408,542.049535 854.648461,542.148402 C854.549486,542.247378 854.50004,542.364525 854.50004,542.49995 C854.50004,542.635376 854.549486,542.752604 854.648461,542.85169 L856.648445,544.851576 C856.747529,544.950471 856.864673,545 857.000096,545 C857.135491,545 857.252827,544.950471 857.351637,544.851576 L859.351567,542.85169 C859.450651,542.752631 859.500097,542.635376 859.500097,542.49995 C859.500097,542.364525 859.450651,542.247406 859.351567,542.148402 C859.252674,542.049535 859.135448,541.999978 859.000025,541.999978 L858.000102,541.999978 L858.000102,538.999957 L861.000065,538.999957 L861.000065,540.000201 C861.000065,540.135599 861.049511,540.252828 861.148376,540.351749 C861.24746,540.450616 861.364686,540.500282 861.500108,540.500282 C861.635395,540.500282 861.752566,540.450644 861.85165,540.351749 L863.851579,538.351671 C863.950554,538.252695 864,538.135467 864,538.000041 C864,537.864616 863.950554,537.747469 863.85147,537.648493 Z" id="Shape-Copy-14"></path>
        </g>
    </g>
</svg>