<?xml version="1.0" encoding="UTF-8"?>
<svg width="14px" height="12px" viewBox="0 0 14 12" version="1.1" xmlns="http://www.w3.org/2000/svg" xmlns:xlink="http://www.w3.org/1999/xlink">
    <!-- Generator: Sketch 50 (54983) - http://www.bohemiancoding.com/sketch -->
    <title>flaticon1530845282-svg</title>
    <desc>Created with Sketch.</desc>
    <defs></defs>
    <g id="Page-1" stroke="none" stroke-width="1" fill="none" fill-rule="evenodd">
        <g id="Simple-List-Style---Task-List-Page-Design" transform="translate(-207.000000, -124.000000)" fill="#3B80F4" fill-rule="nonzero">
            <g id="flaticon1530845282-svg" transform="translate(207.000000, 124.000000)">
                <path d="M10.9777872,10.4369231 L3.02251064,10.4369231 C2.67102128,10.4369231 2.38625532,10.7310769 2.38625532,11.0941538 C2.38625532,11.4572308 2.67102128,11.7516923 3.02251064,11.7516923 L10.9771915,11.7516923 C11.3289787,11.7516923 11.6137447,11.4572308 11.6137447,11.0941538 C11.6137447,10.7310769 11.3286809,10.4369231 10.9777872,10.4369231 Z" id="Shape"></path>
                <path d="M2.22748936,5.50646154 L2.22748936,7.14984615 C2.22748936,7.42215385 2.4413617,7.64307692 2.70468085,7.64307692 C2.96829787,7.64307692 3.18217021,7.42215385 3.18217021,7.14984615 L3.18217021,5.50646154 C3.18217021,5.23415385 2.96829787,5.01353846 2.70468085,5.01353846 C2.44106383,5.01384615 2.22748936,5.23446154 2.22748936,5.50646154 Z" id="Shape"></path>
                <path d="M3.81812766,4.84953846 L3.81812766,7.15015385 C3.81812766,7.42246154 4.032,7.64338462 4.29561702,7.64338462 C4.55893617,7.64338462 4.77280851,7.42246154 4.77280851,7.15015385 L4.77280851,4.84953846 C4.77280851,4.57723077 4.55893617,4.35630769 4.29561702,4.35630769 C4.032,4.35630769 3.81812766,4.57723077 3.81812766,4.84953846 Z" id="Shape"></path>
                <path d="M5.40906383,4.192 L5.40906383,7.14984615 C5.40906383,7.42215385 5.62293617,7.64307692 5.88655319,7.64307692 C6.14987234,7.64307692 6.36374468,7.42215385 6.36374468,7.14984615 L6.36374468,4.192 C6.36374468,3.91969231 6.14987234,3.69876923 5.88655319,3.69876923 C5.62293617,3.69876923 5.40906383,3.91969231 5.40906383,4.192 Z" id="Shape"></path>
                <path d="M13.3634468,0.248 L0.636553191,0.248 C0.28506383,0.248 0,0.542461538 0,0.905538462 L0,9.12246154 C0,9.48553846 0.28506383,9.78 0.636553191,9.78 L12.7817021,9.78 C12.763234,9.76307692 12.7420851,9.74923077 12.7248085,9.73169231 L11.844,8.82123077 C11.3361277,9.11753846 10.7609362,9.276 10.1714468,9.276 C9.36778723,9.276 8.60702128,8.98984615 7.99519149,8.46584615 L1.27251064,8.46584615 L1.27251064,1.56246154 L12.7271915,1.56246154 L12.7271915,3.41538462 C13.2800426,4.06 13.5859574,4.87846154 13.5859574,5.748 C13.5859574,6.35692308 13.4328511,6.95076923 13.1462979,7.47476923 L13.9997021,8.35692308 L13.9997021,0.905230769 C14,0.542461538 13.7149362,0.248 13.3634468,0.248 Z" id="Shape"></path>
                <path d="M12.6211489,7.86276923 C12.5577021,7.79692308 12.4725106,7.77015385 12.3897021,7.77938462 L12.2559574,7.64123077 C12.702766,7.11692308 12.9494043,6.45323077 12.9494043,5.74861538 C12.9494043,4.98246154 12.660766,4.26184615 12.1365106,3.72 C11.6113617,3.17692308 10.9140426,2.87907692 10.1714468,2.87907692 C9.43004255,2.87907692 8.7327234,3.17723077 8.20787234,3.72 C7.68242553,4.26184615 7.39348936,4.98246154 7.39348936,5.74861538 C7.39348936,6.51476923 7.68302128,7.23569231 8.20787234,7.77753846 C8.7327234,8.32 9.43004255,8.61784615 10.1714468,8.61784615 C10.8544681,8.61784615 11.4966809,8.36338462 12.0036596,7.90123077 L12.138,8.03907692 C12.1290638,8.12523077 12.1546809,8.21230769 12.2187234,8.27876923 L13.1757872,9.26738462 C13.2314894,9.32492308 13.3041702,9.35292308 13.3774468,9.35292308 C13.4498298,9.35292308 13.5231064,9.32461538 13.5791064,9.26738462 C13.6899149,9.15230769 13.6899149,8.96615385 13.5791064,8.85169231 L12.6211489,7.86276923 Z M11.7334894,7.36061538 C11.3164681,7.79169231 10.7615319,8.02984615 10.1714468,8.02984615 C9.58225532,8.02984615 9.02761702,7.79230769 8.61059574,7.36123077 C8.19387234,6.93076923 7.96361702,6.35753846 7.96361702,5.74830769 C7.96361702,5.13938462 8.1932766,4.56646154 8.61059574,4.13569231 C9.02761702,3.70461538 9.58285106,3.46707692 10.1714468,3.46707692 C10.7615319,3.46707692 11.3164681,3.70430769 11.7334894,4.13569231 C12.1499149,4.56646154 12.3798723,5.13938462 12.3798723,5.74830769 C12.3798723,6.35753846 12.1499149,6.92984615 11.7334894,7.36061538 Z" id="Shape"></path>
            </g>
        </g>
    </g>
</svg>