<?xml version="1.0" encoding="UTF-8"?>
<svg width="13px" height="13px" viewBox="0 0 13 13" version="1.1" xmlns="http://www.w3.org/2000/svg" xmlns:xlink="http://www.w3.org/1999/xlink">
    <!-- Generator: Sketch 50 (54983) - http://www.bohemiancoding.com/sketch -->
    <title>+</title>
    <desc>Created with Sketch.</desc>
    <defs></defs>
    <g id="Page-1" stroke="none" stroke-width="1" fill="none" fill-rule="evenodd">
        <g id="First-Look---Single-Task-Page-Design" transform="translate(-467.000000, -157.000000)" fill="#ABABAB" stroke="#FFFFFF" stroke-width="1.5">
            <path d="M473.487776,163.530861 L473.512224,163.530861 L473.512224,163.477751 L473.487776,163.477751 L473.487776,163.530861 Z M472.012224,162.030861 L472.012224,159.737776 C472.012224,158.9161 472.678324,158.25 473.5,158.25 C474.321676,158.25 474.987776,158.9161 474.987776,159.737776 L474.987776,162.030861 L477.276555,162.030861 C478.090316,162.030861 478.75,162.690545 478.75,163.504306 C478.75,164.318067 478.090316,164.977751 477.276555,164.977751 L474.987776,164.977751 L474.987776,167.262224 C474.987776,168.0839 474.321676,168.75 473.5,168.75 C472.678324,168.75 472.012224,168.0839 472.012224,167.262224 L472.012224,164.977751 L469.723445,164.977751 C468.909684,164.977751 468.25,164.318067 468.25,163.504306 C468.25,162.690545 468.909684,162.030861 469.723445,162.030861 L472.012224,162.030861 Z" id="+"></path>
        </g>
    </g>
</svg>