<?xml version="1.0" encoding="UTF-8"?>
<svg width="10px" height="14px" viewBox="0 0 10 14" version="1.1" xmlns="http://www.w3.org/2000/svg" xmlns:xlink="http://www.w3.org/1999/xlink">
    <!-- Generator: Sketch 50 (54983) - http://www.bohemiancoding.com/sketch -->
    <title>flaticon1530855904-svg copy</title>
    <desc>Created with Sketch.</desc>
    <defs></defs>
    <g id="Page-1" stroke="none" stroke-width="1" fill="none" fill-rule="evenodd">
        <g id="More-Menu-Action-+-Move-Task-UX---Single-Task-Page-Design" transform="translate(-826.000000, -224.000000)" fill="#D4D6D6" fill-rule="nonzero">
            <g id="Menu-Action" transform="translate(808.000000, 92.000000)">
                <g id="flaticon1530855904-svg-copy" transform="translate(18.000000, 132.000000)">
                    <path d="M9.44960991,6.03395525 L9.44960991,4.2761497 C9.44960991,1.91826622 7.45353003,0 5,0 C2.54646997,0 0.550390095,1.91826622 0.550390095,4.2761497 L0.550390095,6.01736731 C0.273718288,6.11881178 0,6.34765162 0,6.80098158 L0,9.19487933 C0,11.8444157 2.24302471,14 5.00003836,14 C7.757052,14 10,11.8444157 10,9.19487933 L10,6.80098158 C10,6.37083788 9.73299425,6.142809 9.44960991,6.03395525 Z M5.95034253,11.1777648 C5.96599234,11.2574606 5.90976042,11.3226697 5.82537418,11.3226697 L4.1934593,11.3226697 C4.10907306,11.3226697 4.05284113,11.2574606 4.06849094,11.1777648 L4.32985815,9.84652733 C4.1303614,9.67169044 4.0051629,9.41988552 4.0051629,9.13999168 C4.0051629,8.61197913 4.45056884,8.18393656 5,8.18393656 C5.54943116,8.18393656 5.9948371,8.61197913 5.9948371,9.13999168 C5.9948371,9.41229193 5.87619771,9.65779344 5.68609852,9.83192994 L5.95034253,11.1777648 Z M7.91531457,5.94861951 L2.08468543,5.94861951 L2.08468543,4.2761497 C2.08468543,2.7313333 3.39248042,1.47448354 5,1.47448354 C6.60748122,1.47448354 7.91531457,2.7313333 7.91531457,4.2761497 L7.91531457,5.94861951 Z" id="Shape"></path>
                </g>
            </g>
        </g>
    </g>
</svg>