<?xml version="1.0" encoding="UTF-8"?>
<svg width="16px" height="14px" viewBox="0 0 16 14" version="1.1" xmlns="http://www.w3.org/2000/svg" xmlns:xlink="http://www.w3.org/1999/xlink">
    <!-- Generator: Sketch 50 (54983) - http://www.bohemiancoding.com/sketch -->
    <title>Shape Copy 4</title>
    <desc>Created with Sketch.</desc>
    <defs></defs>
    <g id="Page-1" stroke="none" stroke-width="1" fill="none" fill-rule="evenodd">
        <g id="First-Look---Single-Task-Page-Design" transform="translate(-899.000000, -163.000000)" fill="#D6D6D6" fill-rule="nonzero">
            <path d="M907.772469,163.439498 L909.577066,166.78509 C909.702557,167.01778 909.945195,167.179013 910.22588,167.216268 L914.261276,167.752796 C914.968163,167.846849 915.250184,168.641412 914.738876,169.097323 L911.818879,171.701486 C911.615958,171.882569 911.523175,172.143657 911.571235,172.399248 L912.260433,176.076468 C912.381251,176.720485 911.642324,177.211514 911.010198,176.907675 L907.401003,175.171668 C907.150022,175.051048 906.849978,175.051048 906.598997,175.171668 L902.989802,176.907675 C902.357676,177.21182 901.618749,176.720485 901.739567,176.076468 L902.428765,172.399248 C902.476825,172.143657 902.384042,171.882569 902.181121,171.701486 L899.261124,169.097323 C898.749816,168.641106 899.031837,167.846543 899.738724,167.752796 L903.77412,167.216268 C904.054805,167.179013 904.297443,167.01778 904.422934,166.78509 L906.227531,163.439498 C906.54326,162.853501 907.456406,162.853501 907.772469,163.439498 Z" id="Shape-Copy-4"></path>
        </g>
    </g>
</svg>