<?xml version="1.0" encoding="UTF-8"?>
<svg width="9px" height="11px" viewBox="0 0 9 11" version="1.1" xmlns="http://www.w3.org/2000/svg" xmlns:xlink="http://www.w3.org/1999/xlink">
    <!-- Generator: Sketch 50 (54983) - http://www.bohemiancoding.com/sketch -->
    <title>Group Copy 9</title>
    <desc>Created with Sketch.</desc>
    <defs></defs>
    <g id="Page-1" stroke="none" stroke-width="1" fill="none" fill-rule="evenodd">
        <g id="Description+Comment---Single-Task-Page-Design" transform="translate(-815.000000, -920.000000)" fill="#D4D6D6">
            <g id="Group-Copy-9" transform="translate(815.000000, 920.000000)">
                <path d="M4.50003548,5 C5.88066956,5 7,3.88072301 7,2.50001461 C7,1.11927699 6.63250738,0 4.50003548,0 C2.36756358,0 2,1.11927699 2,2.50001461 C2,3.88072301 3.11933044,5 4.50003548,5 Z" id="Shape" fill-rule="nonzero"></path>
                <path d="M8.99496198,9.20261233 C8.95083704,6.33455242 8.58722049,5.51731104 5.80471192,5 C5.80471192,5 5.41303123,5.51414141 4.50010144,5.51414141 C3.58717165,5.51414141 3.19542333,5 3.19542333,5 C0.443278132,5.51166841 0.057548389,6.31678858 0.00683006732,9.10943922 C0.00267116494,9.33747823 0.000743868718,9.34946012 0,9.32298851 C0.000169061072,9.37258795 0.000371934359,9.46433299 0.000371934359,9.62431209 C0.000371934359,9.62431209 0.66282084,11 4.50010144,11 C8.33731441,11 8.99983094,9.62431209 8.99983094,9.62431209 C8.99983094,9.5215256 8.99989856,9.45005225 9,9.40142807 C8.99925613,9.41779868 8.99776839,9.38606757 8.99496198,9.20261233 Z" id="Combined-Shape"></path>
            </g>
        </g>
    </g>
</svg>