<?xml version="1.0" encoding="UTF-8"?>
<svg width="14px" height="14px" viewBox="0 0 14 14" version="1.1" xmlns="http://www.w3.org/2000/svg" xmlns:xlink="http://www.w3.org/1999/xlink">
    <!-- Generator: Sketch 50 (54983) - http://www.bohemiancoding.com/sketch -->
    <title>Group 5 Copy</title>
    <desc>Created with Sketch.</desc>
    <defs></defs>
    <g id="Page-1" stroke="none" stroke-width="1" fill="none" fill-rule="evenodd">
        <g id="First-Look---Single-Task-Page-Design" transform="translate(-868.000000, -494.000000)" fill="#D4D6D6" fill-rule="nonzero">
            <g id="Group-5-Copy" transform="translate(868.000000, 494.000000)">
                <g id="flaticon1525762595-svg">
                    <path d="M4.48,6.72 C5.099745,6.72 5.6,6.219745 5.6,5.6 C5.6,4.980255 5.099745,4.48 4.48,4.48 C3.860255,4.48 3.36,4.980255 3.36,5.6 C3.36,6.219745 3.860255,6.72 4.48,6.72 Z" id="Shape"></path>
                    <path d="M9.52,6.72 C10.139745,6.72 10.64,6.219745 10.64,5.6 C10.64,4.980255 10.139745,4.48 9.52,4.48 C8.900255,4.48 8.4,4.980255 8.4,5.6 C8.4,6.219745 8.900255,6.72 9.52,6.72 Z" id="Shape"></path>
                    <path d="M6.99996667,9.68000429 C5.95132595,9.68000429 5.04488341,9.1616066 4.55080557,8.4 L3.36,8.4 C3.92875937,9.70880416 5.34350957,10.64 7,10.64 C8.65649043,10.64 10.0712406,9.70880416 10.64,8.4 L9.44919443,8.4 C8.95504994,9.1616066 8.0486074,9.68000429 6.99996667,9.68000429 Z" id="Shape"></path>
                    <path d="M6.99299454,0 C3.12899756,0 0,3.13599396 0,7 C0,10.864006 3.12899756,14 6.99299454,14 C10.8639806,14 14,10.864006 14,7 C14,3.13599396 10.8639806,0 6.99299454,0 Z M6.99998359,12.6000197 C3.90599695,12.6000197 1.39997703,10.0940267 1.39997703,7 C1.39997703,3.90597329 3.90599695,1.40001313 6.99998359,1.40001313 C10.0939702,1.40001313 12.5999902,3.9060061 12.5999902,7 C12.5999902,10.0939939 10.0940031,12.6000197 6.99998359,12.6000197 Z" id="Shape"></path>
                </g>
            </g>
        </g>
    </g>
</svg>