<?xml version="1.0" encoding="UTF-8"?>
<svg width="22px" height="20px" viewBox="0 0 22 20" version="1.1" xmlns="http://www.w3.org/2000/svg" xmlns:xlink="http://www.w3.org/1999/xlink">
    <!-- Generator: Sketch 50 (54983) - http://www.bohemiancoding.com/sketch -->
    <title>Group 2</title>
    <desc>Created with Sketch.</desc>
    <defs>
        <polygon id="path-1" points="10.6995264 0.00558744993 15.9999876 0.00558744993 15.9999876 9.63123862 10.6995264 9.63123862"></polygon>
        <polygon id="path-3" points="-5.33333333 9.66131259 -0.0342154249 9.66131259 -0.0342154249 19.2857049 -5.33333333 19.2857049"></polygon>
    </defs>
    <g id="Page-1" stroke="none" stroke-width="1" fill="none" fill-rule="evenodd">
        <g id="First-Look---Single-Task-Page-Design" transform="translate(-821.000000, -162.000000)">
            <g id="Group-2" transform="translate(827.000000, 162.000000)">
                <g id="Group">
                    <mask id="mask-2" fill="white">
                        <use xlink:href="#path-1"></use>
                    </mask>
                    <g id="Clip-2"></g>
                    <path d="M15.9999876,3.14218358 C15.9834501,3.17246395 15.9634811,3.20112216 15.9508713,3.23325 C15.6782098,3.92505741 14.9546129,4.08191155 14.4637395,3.55177971 C14.4028403,3.48603705 14.3616207,3.39871061 14.3112641,3.32138752 C14.2872434,3.33959179 14.2632227,3.35779606 14.2392021,3.37600033 C14.2392021,3.64338685 14.2391194,3.9107283 14.2392021,4.17811482 C14.2397809,5.59674132 14.2414346,7.01536782 14.2395742,8.43394927 C14.2393674,8.59832844 14.2398222,8.76797964 14.2050109,8.92600534 C14.106737,9.37232543 13.7140134,9.65796128 13.2670057,9.62925801 C12.8786646,9.60433979 12.5083494,9.25043792 12.4884217,8.80794793 C12.4571659,8.11167957 12.468122,7.41297797 12.4666749,6.71531275 C12.4644837,5.65703171 12.4672951,4.59870561 12.467047,3.54037951 C12.4670057,3.48369393 12.4586543,3.4270534 12.4541065,3.37036782 C12.4333106,3.35369559 12.4125561,3.3369783 12.3918016,3.32026101 C12.3261891,3.41551802 12.2720703,3.52429306 12.1931039,3.60373398 C11.8316362,3.96732377 11.3061995,3.95434646 10.9653623,3.58246562 C10.625476,3.2115761 10.6040599,2.62516422 10.9442357,2.24350534 C11.5391711,1.57589519 12.143078,0.917342123 12.7558739,0.269288051 C13.0901375,-0.0842533378 13.6176827,-0.0819552737 13.9540134,0.273884179 C14.5666853,0.922118491 15.1686491,1.58265421 15.764122,2.24963351 C15.8699204,2.36814152 15.9227163,2.54283945 15.9999876,2.69158278 L15.9999876,3.14218358 Z" id="Fill-1" fill="#D4D6D6" mask="url(#mask-2)"></path>
                    <mask id="mask-4" fill="white">
                        <use xlink:href="#path-3"></use>
                    </mask>
                    <g id="Clip-5"></g>
                    <path d="M-5.33334574,16.1645242 C-5.20790904,15.8234645 -5.02062222,15.542605 -4.67350078,15.4550983 C-4.35990904,15.3759728 -4.06831214,15.442887 -3.83653953,15.7019374 C-3.76575917,15.7810179 -3.72127339,15.8880355 -3.66475659,15.9823012 C-3.63436899,15.9593657 -3.60406408,15.9364751 -3.57371783,15.9136297 L-3.57371783,15.6274982 C-3.57371783,13.9836614 -3.57528889,12.3397795 -3.57309767,10.6958977 C-3.57214677,10.0163917 -3.12518036,9.57908361 -2.53805891,9.67429556 C-2.15426563,9.73652353 -1.83447235,10.0798813 -1.81772817,10.5071861 C-1.79453437,11.0991404 -1.80259638,11.6926267 -1.80164548,12.2854821 C-1.7998677,13.4113984 -1.8011907,14.5374047 -1.80123204,15.663366 C-1.80127339,15.744384 -1.80127339,15.825402 -1.80127339,15.9772545 C-1.69158863,15.8601884 -1.62304083,15.7855689 -1.55296331,15.7125716 C-1.1905447,15.3347879 -0.659113178,15.3286597 -0.308064083,15.6977018 C0.0424475452,16.066158 0.0636155039,16.6595993 -0.285862532,17.0515319 C-0.876250129,17.7135546 -1.47544393,18.3666103 -2.08303049,19.0099331 C-2.4375938,19.3853737 -2.95381085,19.3747395 -3.30940775,18.9947028 C-3.90434315,18.3587699 -4.49369716,17.7163934 -5.07503049,17.0657258 C-5.18583152,16.9417205 -5.24846718,16.766617 -5.33334574,16.615125 L-5.33334574,16.1645242 Z" id="Fill-4" fill="#D4D6D6" mask="url(#mask-4)"></path>
                    <path d="M5.34237622,13.9281965 C3.87058959,13.9282465 2.39884461,13.929296 0.927099627,13.9276468 C0.388447047,13.9270971 0.00171357189,13.4825694 5.67955752e-06,12.8697258 C-0.00170221278,12.2531841 0.381948724,11.789366 0.913811392,11.7887163 C3.85038647,11.7850682 6.7870032,11.7849682 9.72357828,11.7872171 C10.2129936,11.7876169 10.5973943,12.1685764 10.6573372,12.6915649 C10.7210707,13.2478367 10.4533898,13.7454879 10.003506,13.8918647 C9.91169638,13.9217498 9.81205544,13.9265973 9.71599691,13.9267473 C8.25812335,13.9287962 6.80024978,13.9281466 5.34237622,13.9281965" id="Fill-7" fill="#D4D6D6"></path>
                    <path d="M5.33951371,10.7108257 C3.8757381,10.7108257 2.41200411,10.7113744 0.948270127,10.7104266 C0.587581497,10.7101772 0.297656938,10.5402706 0.121079769,10.1564594 C-0.0453406748,9.79474697 -0.0429679971,9.41901703 0.145347682,9.06837898 C0.32683671,8.73036171 0.590869945,8.57093089 0.934242191,8.57142974 C3.86866169,8.57581957 6.80308119,8.57407362 9.73750069,8.57337523 C10.2615294,8.57327546 10.6606388,9.01410466 10.6665913,9.60353974 C10.6728352,10.2315355 10.2904178,10.7047896 9.75152863,10.7098779 C8.87055758,10.7182086 7.98950327,10.7121725 7.1084906,10.7121725 L5.33951371,10.7121725 L5.33951371,10.7108257 Z" id="Fill-9" fill="#D4D6D6"></path>
                    <path d="M5.33115064,7.4943702 C3.87415893,7.4943702 2.41712558,7.49661162 0.960050587,7.49327439 C0.372548556,7.49192953 -0.0182866597,7.02934915 0.000659645761,6.37236247 C0.0148589648,5.87954775 0.330408641,5.43629343 0.742230534,5.3865836 C1.05844645,5.34837975 1.3792428,5.35834164 1.69799877,5.35824202 C4.35527017,5.35749488 7.0125832,5.35883974 9.66985459,5.36078231 C10.1359753,5.36108116 10.4553143,5.59413959 10.6012217,6.03216391 C10.8322417,6.72590997 10.4259996,7.46518186 9.78540624,7.4890904 C9.27239858,7.50821723 8.7586414,7.49631277 8.2451757,7.49661162 C7.27383402,7.49730896 6.30249233,7.49681086 5.33115064,7.49681086 L5.33115064,7.4943702 Z" id="Fill-11" fill="#D4D6D6"></path>
                </g>
            </g>
        </g>
    </g>
</svg>