<?xml version="1.0" encoding="UTF-8"?>
<svg width="12px" height="12px" viewBox="0 0 12 12" version="1.1" xmlns="http://www.w3.org/2000/svg" xmlns:xlink="http://www.w3.org/1999/xlink">
    <!-- Generator: Sketch 50 (54983) - http://www.bohemiancoding.com/sketch -->
    <title>Shape Copy 2</title>
    <desc>Created with Sketch.</desc>
    <defs></defs>
    <g id="Page-1" stroke="none" stroke-width="1" fill="none" fill-rule="evenodd">
        <g id="Simple-List-Style---Task-List-Page-Design" transform="translate(-1069.000000, -62.000000)" fill="#95A5A6" fill-rule="nonzero">
            <g id="Group-13" transform="translate(205.000000, 53.000000)">
                <path d="M875.706319,19.2881524 L873.09938,16.6812618 C873.085525,16.6674071 873.069274,16.6577232 873.054796,16.6448273 C873.567755,15.8667103 873.867142,14.9352808 873.867142,13.9336188 C873.867142,11.2088434 871.658298,9 868.933571,9 C866.208843,9 864,11.2088434 864,13.9335709 C864,16.6582505 866.208795,18.8671418 868.933523,18.8671418 C869.935233,18.8671418 870.866614,18.5677554 871.644731,18.0547956 C871.657627,18.0692256 871.667263,18.0854773 871.681118,18.099332 L874.288104,20.7063185 C874.679728,21.0978938 875.314647,21.0978938 875.706319,20.7063185 C876.097894,20.3146953 876.097894,19.6797756 875.706319,19.2881524 Z M868.975871,17.393344 C867.08228,17.393344 865.547274,15.8583385 865.547274,13.964798 C865.547274,12.0712065 867.082331,10.5362011 868.975871,10.5362011 C870.869361,10.5362011 872.404417,12.0712575 872.404417,13.964798 C872.404417,15.8583385 870.869361,17.393344 868.975871,17.393344 Z" id="Shape-Copy-2"></path>
            </g>
        </g>
    </g>
</svg>