<?xml version="1.0" encoding="UTF-8"?>
<svg width="13px" height="10px" viewBox="0 0 13 10" version="1.1" xmlns="http://www.w3.org/2000/svg" xmlns:xlink="http://www.w3.org/1999/xlink">
    <!-- Generator: Sketch 50 (54983) - http://www.bohemiancoding.com/sketch -->
    <title>flaticon1532324423-svg copy</title>
    <desc>Created with Sketch.</desc>
    <defs></defs>
    <g id="Page-1" stroke="none" stroke-width="1" fill="none" fill-rule="evenodd">
        <g id="Task-List-Details---Task-List-Page-Design" transform="translate(-497.000000, -360.000000)" fill="#D6D6D6" fill-rule="nonzero">
            <g id="flaticon1532324423-svg-copy" transform="translate(497.000000, 360.000000)">
                <path d="M1.39186328,3.64761787 C1.00516406,3.64761787 0.676583984,3.77980149 0.405894531,4.04431762 C0.135332031,4.30873449 0,4.62985112 0,5.00776675 C0,5.38550868 0.135332031,5.70682382 0.405996094,5.97129032 C0.676660156,6.2357072 1.00531641,6.36791563 1.39196484,6.36791563 C1.77853711,6.36791563 2.10714258,6.2357072 2.37783203,5.97129032 C2.64841992,5.70684864 2.78375195,5.3855335 2.78375195,5.00776675 C2.78375195,4.62985112 2.64841992,4.30873449 2.37775586,4.0442928 C2.10714258,3.77987593 1.77851172,3.64761787 1.39186328,3.64761787 Z" id="Shape"></path>
                <path d="M1.39193945,0.0202729529 C1.00524023,0.0202729529 0.676660156,0.152531017 0.405970703,0.416972705 C0.135408203,0.681488834 7.6171875e-05,1.00260546 7.6171875e-05,1.38044665 C7.6171875e-05,1.75833747 0.135332031,2.07947891 0.405970703,2.34399504 C0.676634766,2.60843672 1.00529102,2.74064516 1.39193945,2.74064516 C1.77851172,2.74064516 2.10711719,2.60841191 2.37780664,2.34399504 C2.64839453,2.07947891 2.78372656,1.75831266 2.78372656,1.38044665 C2.78372656,1.00260546 2.64839453,0.681488834 2.37780664,0.416972705 C2.10724414,0.152531017 1.77863867,0.0202729529 1.39193945,0.0202729529 Z" id="Shape"></path>
                <path d="M1.39193945,7.27493797 C1.00524023,7.27493797 0.676558594,7.40707196 0.405970703,7.67148883 C0.135408203,7.9360794 7.6171875e-05,8.25724566 7.6171875e-05,8.63496278 C7.6171875e-05,9.01300248 0.135332031,9.33399504 0.405970703,9.59858561 C0.676634766,9.8630273 1.00529102,9.99523573 1.39193945,9.99523573 C1.77851172,9.99523573 2.10711719,9.8630273 2.37780664,9.59858561 C2.64839453,9.33399504 2.78372656,9.01300248 2.78372656,8.63496278 C2.78372656,8.25722084 2.64839453,7.93590571 2.37780664,7.67148883 C2.10724414,7.40707196 1.77863867,7.27493797 1.39193945,7.27493797 Z" id="Shape"></path>
                <path d="M12.9217207,0.540942928 C12.8756875,0.496203474 12.8214531,0.473746898 12.7585352,0.473746898 L3.94349414,0.473746898 C3.88070313,0.473746898 3.82631641,0.496129032 3.78041016,0.540942928 C3.7345293,0.585905707 3.71155078,0.638933002 3.71155078,0.700322581 L3.71155078,2.06064516 C3.71155078,2.12205955 3.7345293,2.17506203 3.78041016,2.22004963 C3.8263418,2.26483871 3.88072852,2.28724566 3.94349414,2.28724566 L12.7585352,2.28724566 C12.8214531,2.28724566 12.8757383,2.26491315 12.9217207,2.22004963 C12.9676777,2.17508685 12.9905293,2.12205955 12.9905293,2.06064516 L12.9905293,0.700347395 C12.9905039,0.638957816 12.9675762,0.585831266 12.9217207,0.540942928 Z" id="Shape"></path>
                <path d="M12.7585352,4.10101737 L3.94349414,4.10101737 C3.88070313,4.10101737 3.82631641,4.12334988 3.78041016,4.16831266 C3.7345293,4.21315136 3.71155078,4.26630273 3.71155078,4.32769231 L3.71155078,5.68796526 C3.71155078,5.74930521 3.7345293,5.80243176 3.78041016,5.84729529 C3.8263418,5.89228288 3.88072852,5.9146402 3.94349414,5.9146402 L12.7585352,5.9146402 C12.8214531,5.9146402 12.8757383,5.89230769 12.9217207,5.84729529 C12.9676777,5.80243176 12.9905293,5.74930521 12.9905293,5.68796526 L12.9905293,4.32769231 C12.9905293,4.26630273 12.9676016,4.21305211 12.9217207,4.16831266 C12.8756621,4.12344913 12.8214277,4.10101737 12.7585352,4.10101737 Z" id="Shape"></path>
                <path d="M12.7585352,7.7282134 L3.94349414,7.7282134 C3.88070313,7.7282134 3.82631641,7.75062035 3.78041016,7.79555831 C3.7345293,7.84047146 3.71155078,7.89354839 3.71155078,7.95486352 L3.71155078,9.31513648 C3.71155078,9.37662531 3.7345293,9.42967742 3.78041016,9.47461538 C3.8263418,9.51945409 3.88072852,9.5417866 3.94349414,9.5417866 L12.7585352,9.5417866 C12.8214531,9.5417866 12.8757383,9.51945409 12.9217207,9.47461538 C12.9676777,9.42967742 12.9905293,9.37662531 12.9905293,9.31513648 L12.9905293,7.95486352 C12.9905293,7.89354839 12.9676016,7.84029777 12.9217207,7.79555831 C12.8756621,7.75079404 12.8214277,7.7282134 12.7585352,7.7282134 Z" id="Shape"></path>
            </g>
        </g>
    </g>
</svg>