<?xml version="1.0" encoding="UTF-8"?>
<svg width="15px" height="15px" viewBox="0 0 15 15" version="1.1" xmlns="http://www.w3.org/2000/svg" xmlns:xlink="http://www.w3.org/1999/xlink">
    <!-- Generator: Sketch 50 (54983) - http://www.bohemiancoding.com/sketch -->
    <title>Shape</title>
    <desc>Created with Sketch.</desc>
    <defs></defs>
    <g id="Page-1" stroke="none" stroke-width="1" fill="none" fill-rule="evenodd">
        <g id="First-Look---Single-Task-Page-Design" transform="translate(-785.000000, -163.000000)" fill="#D4D6D6" fill-rule="nonzero">
            <path d="M799.618418,170.961882 L792.546663,163.900035 C792.296028,163.649296 791.959827,163.436732 791.537852,163.262067 C791.115739,163.087367 790.730035,163 790.380531,163 L786.266062,163 C785.923141,163 785.626432,163.12537 785.375866,163.375797 C785.1253,163.626363 785.000069,163.923072 785.000069,164.265993 L785.000069,168.380462 C785.000069,168.729931 785.087333,169.115531 785.262102,169.537644 C785.436871,169.959758 785.649469,170.292564 785.900104,170.536617 L792.971755,177.618245 C793.215739,177.862229 793.51224,177.984203 793.861952,177.984203 C794.204561,177.984203 794.504838,177.862229 794.761952,177.618245 L799.618279,172.752079 C799.862263,172.507991 799.984134,172.211524 799.984134,171.862021 C799.984134,171.519134 799.862263,171.219099 799.618418,170.961882 Z M789.060115,167.060081 C788.812702,167.307356 788.514434,167.431062 788.164931,167.431062 C787.815566,167.431062 787.517159,167.307356 787.269885,167.060081 C787.02261,166.812771 786.899007,166.514503 786.899007,166.165035 C786.899007,165.815531 787.02261,165.517159 787.269885,165.269988 C787.517194,165.022679 787.815566,164.898972 788.164931,164.898972 C788.514434,164.898972 788.812806,165.022679 789.060115,165.269988 C789.307286,165.517159 789.430993,165.815566 789.430993,166.165035 C789.430993,166.514503 789.307425,166.812771 789.060115,167.060081 Z" id="Shape"></path>
        </g>
    </g>
</svg>