<?xml version="1.0" encoding="UTF-8"?>
<svg width="10px" height="10px" viewBox="0 0 10 10" version="1.1" xmlns="http://www.w3.org/2000/svg" xmlns:xlink="http://www.w3.org/1999/xlink">
    <!-- Generator: Sketch 50 (54983) - http://www.bohemiancoding.com/sketch -->
    <title>Shape</title>
    <desc>Created with Sketch.</desc>
    <defs></defs>
    <g id="Page-1" stroke="none" stroke-width="1" fill="none" fill-rule="evenodd">
        <g id="Simple-List-Style---Task-List-Page-Design" transform="translate(-917.000000, -126.000000)" fill="#FFFFFF" fill-rule="nonzero">
            <path d="M926.957287,126.277019 C926.87678,126.092414 926.737453,126.0001 926.538634,126 L917.461129,126 C917.262584,126 917.123058,126.092414 917.042676,126.277019 C916.962344,126.471077 916.995406,126.6369 917.142011,126.774166 L920.638405,130.275536 L920.638405,133.727205 C920.638405,133.850465 920.683341,133.95686 920.773137,134.046961 L922.588564,135.864973 C922.67374,135.954875 922.780079,136 922.907781,136 C922.964466,136 923.023536,135.988084 923.085014,135.964427 C923.269476,135.883879 923.361731,135.74425 923.361731,135.545391 L923.361731,130.275561 L926.858001,126.774191 C927.004656,126.636925 927.037644,126.471151 926.957287,126.277019 Z" id="Shape"></path>
        </g>
    </g>
</svg>