<?xml version="1.0" encoding="UTF-8"?>
<svg width="12px" height="12px" viewBox="0 0 12 12" version="1.1" xmlns="http://www.w3.org/2000/svg" xmlns:xlink="http://www.w3.org/1999/xlink">
    <!-- Generator: Sketch 50 (54983) - http://www.bohemiancoding.com/sketch -->
    <title>Group 4 Copy 7</title>
    <desc>Created with Sketch.</desc>
    <defs>
        <polygon id="path-1" points="2.34443152e-06 0.0003984375 12 0.0003984375 12 11.9999968 2.34443152e-06 11.9999968"></polygon>
    </defs>
    <g id="Page-1" stroke="none" stroke-width="1" fill="none" fill-rule="evenodd">
        <g id="Simple-List-Style---Task-List-Page-Design" transform="translate(-317.000000, -124.000000)">
            <g id="Group-4-Copy-7" transform="translate(317.000000, 124.000000)">
                <mask id="mask-2" fill="white">
                    <use xlink:href="#path-1"></use>
                </mask>
                <g id="Clip-2"></g>
                <path d="M10.4960414,1.50830859 L1.50862734,1.50830859 L1.50862734,8.25458203 L3.75199453,8.25458203 L3.75199453,10.4922539 L8.25321328,10.4922539 L8.25321328,8.24937891 L10.4960414,8.24937891 L10.4960414,1.50830859 Z M2.34443152e-06,11.3910117 L2.34443152e-06,0.609761719 C0.0368460944,0.525082031 0.0668695319,0.436582031 0.111846094,0.356449219 C0.221228907,0.161636719 0.405494532,0.0660351562 0.609377344,0.00038671875 L11.3906273,0.00038671875 C11.4753539,0.0371367187 11.564018,0.0669023437 11.6439867,0.112042969 C11.8383539,0.221800781 11.9349867,0.405410156 12.0000023,0.609761719 L12.0000023,11.3910117 C11.989268,11.4196758 11.9775023,11.4479883 11.9679633,11.4770273 C11.8659867,11.7878555 11.5859789,11.9993789 11.2652836,11.9994492 C7.75514297,12.0001758 4.24500234,12.000293 0.734861719,11.9990977 C0.478736719,11.9990273 0.274361719,11.8853789 0.132541407,11.6743242 C0.0750960944,11.5888242 0.0434085944,11.4859805 2.34443152e-06,11.3910117 Z" id="Fill-1" fill="#E9485E" mask="url(#mask-2)"></path>
                <path d="M7.67905667,2.97810219 C8.01367244,3.3399309 8.33832382,3.69092202 8.67153285,4.05121264 C7.59999807,5.21029023 6.53001071,6.36768777 5.45284899,7.53284672 C4.77079271,6.80024474 4.09541843,6.07481262 3.41605839,5.34512118 C3.73660679,4.99789245 4.05246607,4.6557749 4.3746791,4.3067478 C4.7227292,4.68258492 5.06330015,5.05030567 5.41383549,5.42881669 C6.1689014,4.61192763 6.91859827,3.80083597 7.67905667,2.97810219" id="Fill-4" fill="#E9485E" mask="url(#mask-2)"></path>
            </g>
        </g>
    </g>
</svg>