<svg xmlns="http://www.w3.org/2000/svg" viewBox="0 0 27 24"><defs><style>.cls-1{fill:#ababab;}</style></defs><title>User 3</title><g id="Layer_2" data-name="Layer 2"><g id="Layer_1-2" data-name="Layer 1"><path class="cls-1" d="M12,24h.16l-.62,0Z"/><path class="cls-1" d="M9.53,23.74l.13,0Z"/><path class="cls-1" d="M24,11.92a2.23,2.23,0,0,1-3.73-1.65V8.73H18.72a2.22,2.22,0,1,1,0-4.45h1.54v-1A12,12,0,1,0,6.06,22.4h0c0-.14,0-.29,0-.43h0L6,21.87c0-.25,0-.39,0-.47s0,0,0-.33c.07-4.32.63-5.56,4.61-6.35a2.32,2.32,0,0,0,1.88.79,2.32,2.32,0,0,0,1.88-.79c4,.8,4.54,2.06,4.61,6.49,0,.28,0,.33,0,.31v.2A12,12,0,0,0,24,12S24,11.94,24,11.92ZM12.5,14a3.74,3.74,0,0,1-3.61-3.86C8.89,8,9.42,6.3,12.5,6.3S16.11,8,16.11,10.16A3.74,3.74,0,0,1,12.5,14Z"/><path class="cls-1" d="M11.49,24c-.45,0-.86-.07-1.24-.12A12,12,0,0,0,11.49,24Z"/><path id="Path" class="cls-1" d="M18,6.5a.72.72,0,0,0,.72.72h3v3a.74.74,0,0,0,1.48,0v-3h3a.72.72,0,1,0,0-1.45h-3v-3a.74.74,0,0,0-1.48,0v3h-3A.72.72,0,0,0,18,6.5Z"/></g></g></svg>