<?xml version="1.0" encoding="UTF-8"?>
<svg width="16px" height="16px" viewBox="0 0 16 16" version="1.1" xmlns="http://www.w3.org/2000/svg" xmlns:xlink="http://www.w3.org/1999/xlink">
    <!-- Generator: Sketch 50 (54983) - http://www.bohemiancoding.com/sketch -->
    <title>flaticon1525751967-svg copy</title>
    <desc>Created with Sketch.</desc>
    <defs></defs>
    <g id="Page-1" stroke="none" stroke-width="1" fill="none" fill-rule="evenodd">
        <g id="First-Look---Single-Task-Page-Design" transform="translate(-749.000000, -162.000000)" fill="#D4D6D6" fill-rule="nonzero">
            <g id="flaticon1525751967-svg-copy" transform="translate(749.000000, 162.000000)">
                <path d="M14.9273668,3.98429312 C14.2119617,2.75868234 13.2415605,1.78828551 12.0159076,1.07292023 C10.7900358,0.35759143 9.45182564,0 8.0002554,0 C6.5488311,0 5.21021955,0.35759143 3.98456669,1.07292023 C2.75884086,1.78817606 1.78843961,2.75857288 1.07303458,3.98429312 C0.35759306,5.21008633 0,6.54869178 0,8 C0,9.45138119 0.357702517,10.7897677 1.07292512,12.0156339 C1.78829367,13.2412447 2.75869492,14.2116415 3.98442075,14.9270798 C5.21021955,15.6423721 6.54872164,16 8.00010946,16 C9.45149727,16 10.7901453,15.6423721 12.0158711,14.9270798 C13.241524,14.2118969 14.2118888,13.2412447 14.9272208,12.0156339 C15.6424434,10.7898772 16,9.45130822 16,8 C16.0000365,6.54854584 15.6424434,5.20990391 14.9273668,3.98429312 Z M12.9064059,10.8436928 C12.3994783,11.7117122 11.712021,12.3994217 10.8439977,12.9063471 C9.97597439,13.4132724 9.02808461,13.6664797 8.00014594,13.6664797 C6.97246267,13.6664797 6.02449992,13.4132724 5.15636715,12.9063471 C4.28834384,12.3993852 3.60088659,11.7117122 3.09395894,10.8436928 C2.58692182,9.97567349 2.33349448,9.02775155 2.33349448,8 C2.33349448,6.97217548 2.58703128,6.02425354 3.09395894,5.15623418 C3.60077714,4.28821482 4.28841681,3.60061478 5.15636715,3.09372591 C6.02439047,2.58676408 6.97231673,2.33337438 8.00014594,2.33337438 C9.02804812,2.33337438 9.97597439,2.58676408 10.8439977,3.09372591 C11.712021,3.60065126 12.3995147,4.28821482 12.9064059,5.15623418 C13.4133701,6.02425354 13.6666879,6.97217548 13.6666879,8 C13.6666879,9.02775155 13.4133701,9.97567349 12.9064059,10.8436928 Z" id="Shape"></path>
                <path d="M8.85705946,4.57142857 L8.2855892,4.57142857 C8.20212339,4.57142857 8.13382466,4.59829284 8.08013009,4.65180245 C8.02677952,4.70537461 7.99991661,4.77377059 7.99991661,4.85711549 L7.99991661,8.00014073 L5.9999583,8.00014073 C5.91655504,8.00014073 5.84819376,8.0268799 5.79459302,8.08032697 C5.74105482,8.13386786 5.71428571,8.20232639 5.71428571,8.28582765 L5.71428571,8.85723277 C5.71428571,8.94060894 5.74105482,9.00909875 5.79459302,9.06260836 C5.84822504,9.11611797 5.9167114,9.14285714 5.9999583,9.14285714 L8.85721583,9.14285714 C8.94046273,9.14285714 9.00898037,9.11611797 9.06239348,9.06260836 C9.11590041,9.00909875 9.14285714,8.94060894 9.14285714,8.85723277 L9.14285714,4.85711549 C9.14285714,4.77383314 9.11590041,4.70546843 9.06239348,4.65180245 C9.00891782,4.59829284 8.94043145,4.57142857 8.85705946,4.57142857 Z" id="Shape"></path>
            </g>
        </g>
    </g>
</svg>